<svg width="617" height="582" viewBox="0 0 617 582" fill="none" xmlns="http://www.w3.org/2000/svg">
<g id="Layer_1" clip-path="url(#clip0_1_2)">
<g id="Group">
<path id="Vector" d="M329.94 6.14C329.37 4.38 328.29 2.87 326.81 1.77C325.32 0.65 323.54 0.04 321.68 0C319.83 -0.05 318.01 0.5 316.47 1.56C314.94 2.62 313.79 4.1 313.17 5.8L273.94 110.55L295.71 110.32L321.12 44.07L341.24 111.08H364.97L329.94 6.14Z" fill="#08361F"/>
<path id="Vector_2" d="M265.3 140.2L221.98 244.86C218.22 253.95 221.05 264.47 228.87 270.43L234.32 274.59L287.08 140.19H265.29L265.3 140.2Z" fill="#08361F"/>
<path id="Vector_3" d="M381.14 164.66L370.19 133.47L365.31 135.18C363.64 135.77 362.25 136.28 360.84 136.8C358.81 137.55 356.72 138.33 353.58 139.38L348.41 141.12L371.73 200.06L378.45 189.25C383.05 181.84 384.04 172.88 381.15 164.65L381.14 164.66Z" fill="#08361F"/>
<path id="Vector_4" d="M387.95 38.25V43.41C387.95 44.83 387.25 156.1 387.05 187.03C386.99 195.05 385.17 206.68 382.23 212.25C375.29 225.36 365.07 233.22 350.08 236.97C334.24 240.94 320.1 238.9 310.26 231.22C300.92 223.93 295.99 211.74 295.99 195.95C295.99 173.93 310.75 156.14 337.53 145.86C349.8 141.22 369.1 134.14 371.99 133.5L374.52 133.22L381.15 121.23C382.33 119.1 382.3 116.58 381.07 114.48C379.85 112.38 377.66 111.11 375.23 111.08L211.88 109.44H211.72C209.83 109.48 207.98 110.05 206.38 111.08C204.79 112.11 203.52 113.55 202.7 115.26C201.88 116.97 201.55 118.86 201.74 120.74C201.93 122.62 202.64 124.41 203.78 125.92L243.53 175.42L249.36 162.27C251.54 157.36 250.66 151.58 247.12 147.54L231.97 130.22H310.38C300.81 138.59 293.66 147.04 286.32 158.31C280.45 167.18 276.65 177.01 275.01 187.55C274.49 191.07 274.23 194.67 274.24 198.21C274.24 244.07 304.37 265.67 334.23 266.75C335.04 266.78 335.85 266.79 336.67 266.79C370.19 266.79 405.1 242.07 408.58 193.61V38.25H387.95Z" fill="#981B21"/>
<path id="Vector_5" d="M414.84 17.37L409.88 12.45L409.9 5.47L402.92 5.49L398 0.53L393.08 5.49L386.09 5.47L386.12 12.45L381.16 17.37L386.12 22.29L386.09 29.28L393.08 29.25L398 34.21L402.92 29.25L409.9 29.28L409.88 22.29L414.84 17.37Z" fill="#08361F"/>
</g>
<g id="Group_2">
<path id="Vector_6" d="M60.67 312.84C62.76 307.78 66.17 305.08 69.82 303.83C77.12 301.32 85.1 305.22 87.68 312.75L126.57 426.02C131.63 440.75 126.98 457.57 114.14 466.39C113.42 466.88 112.68 467.26 111.89 467.51L100.39 436.74L88.27 436.65C73.95 436.55 61.97 425.76 60.36 411.53L60.34 411.32L91.77 411.62L72.65 355.92L17.47 499.9C17.41 499.88 17.34 499.86 17.28 499.83C3.57 495.09 -3.49 479.93 1.71 466.39L60.67 312.83V312.84Z" fill="#08361F"/>
<path id="Vector_7" d="M92.48 476.14C92.48 476.05 92.55 475.98 92.64 475.98C120.57 475.15 143.78 476.25 143.78 440.53L142.69 303.24C151.71 302.95 160.98 303.17 170.93 303.24C170.93 303.24 172.02 438.46 172.02 438.84C172.18 459.14 163.61 479.57 145.06 489.43C130.09 497.38 92.29 501.75 92.47 476.14H92.48Z" fill="#08361F"/>
<path id="Vector_8" d="M202.51 303.11C212.99 303.02 222.26 303.13 230.99 303.11V495.47C230.9 495.47 230.81 495.47 230.72 495.48C215.33 496.16 202.51 483.78 202.51 468.38V303.11Z" fill="#08361F"/>
<path id="Vector_9" d="M394.57 317.23C394.57 309.46 400.93 303.09 408.71 303.09H447.52C479.14 303.09 500.23 325.61 500.23 353.4C500.23 381.19 466.71 403.1 435.09 403.1C434.6 389.82 442.23 377.66 454.29 372.08C463.55 367.79 471.24 361.07 471.24 353.4C471.24 339.98 460.94 329.2 446.56 329.2H422.84V495.79H422.44C407.12 496.06 394.56 483.72 394.56 468.4V317.21L394.57 317.23Z" fill="#08361F"/>
<path id="Vector_10" d="M314.01 313.34C316.1 308.28 319.51 305.58 323.16 304.33C330.46 301.82 338.44 305.72 341.02 313.25L379.91 426.52C384.97 441.25 380.32 458.07 367.48 466.89C366.76 467.38 366.02 467.76 365.23 468.01L353.73 437.24L341.61 437.15C327.29 437.05 315.31 426.26 313.7 412.03L313.68 411.82L345.11 412.12L325.99 356.42L270.81 500.4C270.75 500.38 270.68 500.36 270.62 500.33C256.91 495.59 249.85 480.43 255.05 466.89L314.01 313.33V313.34Z" fill="#08361F"/>
<path id="Vector_11" d="M510.87 317.23C510.87 309.46 517.23 303.09 525.01 303.09H563.82C595.44 303.09 616.53 325.61 616.53 353.4C616.53 381.19 583.01 403.1 551.39 403.1C550.9 389.82 558.53 377.66 570.59 372.08C579.85 367.79 587.54 361.07 587.54 353.4C587.54 339.98 577.24 329.2 562.86 329.2H539.14V495.79H538.74C523.42 496.06 510.86 483.72 510.86 468.4V317.21L510.87 317.23Z" fill="#08361F"/>
</g>
<g id="Group_3">
<path id="Vector_12" d="M22.87 553.58V568.59H16.65V553.58L0.26 528.88H7.2L19.94 548.62L32.68 528.88H39.32L22.87 553.58Z" fill="#981B21"/>
<path id="Vector_13" d="M34.71 553.94C34.71 544.43 41.41 538.39 50.14 538.39C58.87 538.39 65.51 544.43 65.51 553.94C65.51 563.45 58.87 569.55 50.14 569.55C41.41 569.55 34.71 563.45 34.71 553.94ZM59.23 553.94C59.23 547.06 55.46 543.12 50.14 543.12C44.82 543.12 40.99 547.07 40.99 553.94C40.99 560.81 44.76 564.77 50.08 564.77C55.4 564.77 59.23 560.76 59.23 553.94Z" fill="#981B21"/>
<path id="Vector_14" d="M99.59 538.81V568.59H93.91V564.1C91.94 567.09 88.47 569.48 83.32 569.48C76.8 569.48 72.79 565.11 72.79 558.71V539.57L78.77 538.79V557.45C78.77 561.94 81.16 564.63 85.59 564.63C90.02 564.63 93.6 560.33 93.6 555.24V539.57L99.58 538.79L99.59 538.81Z" fill="#981B21"/>
<path id="Vector_15" d="M126.43 538.51L126.37 544.49C125.29 544.25 124.58 544.07 123.5 544.07C119.61 544.07 115.13 546.58 115.13 554.42V568.59H109.15V539.58L114.89 538.8V545.2C116.39 541.31 119.38 538.44 125.24 538.44C125.6 538.44 126.02 538.44 126.44 538.5L126.43 538.51Z" fill="#981B21"/>
<path id="Vector_16" d="M173.43 543.65H168.11C169.19 544.97 170.02 546.76 170.02 549.09C170.02 554.71 165.24 559.32 156.8 559.32C155.07 559.32 153.45 559.14 152.02 558.78C151.06 559.5 150.46 560.39 150.46 561.41C150.46 562.91 151.54 564.1 154.47 564.1H162.07C169.67 564.1 173.13 567.63 173.13 572.41C173.13 577.19 169.12 581.56 156.98 581.56C146.22 581.56 141.85 577.91 141.85 573.43C141.85 570.08 144.54 567.99 147.53 567.21C146.21 566.31 145.14 564.94 145.14 562.84C145.14 560.74 146.46 558.95 148.55 557.46C145.2 555.67 143.29 552.56 143.29 548.85C143.29 542.63 148.25 538.38 156.81 538.38C159.14 538.38 161.06 538.68 162.79 539.28H174.03L173.43 543.64V543.65ZM147.66 572.84C147.66 575.35 149.93 577.26 156.57 577.26H158.13C164.89 577.26 167.16 575.23 167.16 572.84C167.16 570.81 165.6 569.07 160.82 569.07H153.94C149.22 569.07 147.66 570.86 147.66 572.84ZM163.92 548.8C163.92 545.09 161.05 542.58 156.68 542.58C152.31 542.58 149.44 545.09 149.44 548.8C149.44 552.51 152.31 555.08 156.68 555.08C161.05 555.08 163.92 552.57 163.92 548.8Z" fill="#981B21"/>
<path id="Vector_17" d="M205.78 538.81V568.59H200.1V564.1C198.13 567.09 194.66 569.48 189.51 569.48C182.99 569.48 178.98 565.11 178.98 558.71V539.57L184.96 538.79V557.45C184.96 561.94 187.35 564.63 191.78 564.63C196.21 564.63 199.79 560.33 199.79 555.24V539.57L205.77 538.79L205.78 538.81Z" fill="#981B21"/>
<path id="Vector_18" d="M218.33 524.99L223 529.48L218.33 533.85L213.61 529.48L218.33 524.99ZM215.34 539.59L221.32 538.81V568.59H215.34V539.58V539.59Z" fill="#981B21"/>
<path id="Vector_19" d="M252 568.59V563.98C249.91 567.15 246.68 569.48 241.29 569.48C235.07 569.48 229.21 564.34 229.21 553.99C229.21 543.64 235.73 538.44 242.61 538.44C247.33 538.44 250.09 540.53 251.76 541.91V527.85L257.8 526.89V568.58H252V568.59ZM243.75 543.3C239.44 543.3 235.44 547.07 235.44 553.83C235.44 560.59 238.61 564.65 243.51 564.65C248.41 564.65 251.76 560.58 251.76 555.5V546.89C249.97 545.33 247.45 543.3 243.75 543.3Z" fill="#981B21"/>
<path id="Vector_20" d="M294.76 555.62H271.79C272.39 561.6 276.21 564.83 282.79 564.83C287.22 564.83 289.73 563.87 293.62 562.08L292.78 567.1C290.63 568.06 287.46 569.55 281.72 569.55C272.63 569.55 265.63 563.87 265.63 554C265.63 544.13 272.33 538.39 280.64 538.39C288.95 538.39 294.93 544.07 294.93 552.68C294.93 553.7 294.87 554.71 294.75 555.61L294.76 555.62ZM271.91 551.49H289.13C288.71 545.93 285.42 543 280.64 543C275.86 543 272.69 545.87 271.91 551.49Z" fill="#981B21"/>
<path id="Vector_21" d="M317.35 524.99L322.02 529.48L317.35 533.85L312.63 529.48L317.35 524.99ZM314.36 539.59L320.34 538.81V568.59H314.36V539.58V539.59Z" fill="#981B21"/>
<path id="Vector_22" d="M357.18 549.4V568.6H351.14V550.36C351.14 545.93 348.63 543.3 344.02 543.3C339.41 543.3 335.89 547.31 335.89 552.39V568.6H329.91V539.59L335.65 538.81V543.89C337.62 540.84 341.03 538.45 346.36 538.45C353.12 538.45 357.19 542.76 357.19 549.39L357.18 549.4Z" fill="#981B21"/>
<path id="Vector_23" d="M420.86 568.59H414.88V533.36L402.26 568.59H395.74L383.24 533.24V568.59H377.68V528.88H387.79L399.21 561.3L410.81 528.88H420.86V568.59Z" fill="#981B21"/>
<path id="Vector_24" d="M428.87 553.94C428.87 544.43 435.57 538.39 444.3 538.39C453.03 538.39 459.67 544.43 459.67 553.94C459.67 563.45 453.03 569.55 444.3 569.55C435.57 569.55 428.87 563.45 428.87 553.94ZM453.39 553.94C453.39 547.06 449.62 543.12 444.3 543.12C438.98 543.12 435.15 547.07 435.15 553.94C435.15 560.81 438.92 564.77 444.24 564.77C449.56 564.77 453.39 560.76 453.39 553.94Z" fill="#981B21"/>
<path id="Vector_25" d="M484.84 538.51L484.78 544.49C483.7 544.25 482.99 544.07 481.91 544.07C478.02 544.07 473.54 546.58 473.54 554.42V568.59H467.56V539.58L473.3 538.8V545.2C474.8 541.31 477.79 538.44 483.65 538.44C484.01 538.44 484.43 538.44 484.85 538.5L484.84 538.51Z" fill="#981B21"/>
<path id="Vector_26" d="M487.82 553.94C487.82 544.43 494.52 538.39 503.25 538.39C511.98 538.39 518.62 544.43 518.62 553.94C518.62 563.45 511.98 569.55 503.25 569.55C494.52 569.55 487.82 563.45 487.82 553.94ZM512.34 553.94C512.34 547.06 508.57 543.12 503.25 543.12C497.93 543.12 494.1 547.07 494.1 553.94C494.1 560.81 497.87 564.77 503.19 564.77C508.51 564.77 512.34 560.76 512.34 553.94Z" fill="#981B21"/>
<path id="Vector_27" d="M550.79 561.84L549.95 566.86C547.26 568.41 543.97 569.55 539.84 569.55C530.51 569.55 524.83 563.45 524.83 553.94C524.83 544.43 531.11 538.39 540.2 538.39C543.79 538.39 547.02 539.41 549.47 540.6L550.43 546.34C546.9 544.43 543.91 543.11 540.68 543.11C535.18 543.11 530.99 547.24 531.05 553.93C531.11 561.11 534.82 564.82 540.68 564.82C544.21 564.82 547.5 563.74 550.79 561.83V561.84Z" fill="#981B21"/>
<path id="Vector_28" d="M581.11 561.84L580.27 566.86C577.58 568.41 574.29 569.55 570.16 569.55C560.83 569.55 555.15 563.45 555.15 553.94C555.15 544.43 561.43 538.39 570.52 538.39C574.11 538.39 577.34 539.41 579.79 540.6L580.75 546.34C577.22 544.43 574.23 543.11 571 543.11C565.5 543.11 561.31 547.24 561.37 553.93C561.43 561.11 565.14 564.82 571 564.82C574.53 564.82 577.82 563.74 581.11 561.83V561.84Z" fill="#981B21"/>
<path id="Vector_29" d="M585.47 553.94C585.47 544.43 592.17 538.39 600.9 538.39C609.63 538.39 616.27 544.43 616.27 553.94C616.27 563.45 609.63 569.55 600.9 569.55C592.17 569.55 585.47 563.45 585.47 553.94ZM609.99 553.94C609.99 547.06 606.22 543.12 600.9 543.12C595.58 543.12 591.75 547.07 591.75 553.94C591.75 560.81 595.52 564.77 600.84 564.77C606.16 564.77 609.99 560.76 609.99 553.94Z" fill="#981B21"/>
</g>
</g>
<defs>
<clipPath id="clip0_1_2">
<rect width="616.53" height="581.57" fill="white"/>
</clipPath>
</defs>
</svg>
