<svg width="139" height="171" viewBox="0 0 139 171" fill="none" xmlns="http://www.w3.org/2000/svg">
<g id="delevry backgorund 1" clip-path="url(#clip0_67_161)">
<g id="Group">
<path id="Vector" d="M139 90.9C139 90.5 139 90.1 139 89.6C139 89.1 139 88.6 138.9 88.1C138.8 87.2 138.8 86.3 138.7 85.3C138.6 84.6 138.5 84 138.5 83.3C138.5 83.2 138.5 83.1 138.5 83C138.4 82.3 138.3 81.5 138.1 80.8C138.1 80.6 138 80.5 138 80.3C138 80.1 137.9 80 137.9 79.8C137.8 79.3 137.7 78.9 137.6 78.4C137.5 78 137.4 77.6 137.3 77.3C137.1 76.5 136.9 75.8 136.7 75C136.6 74.7 136.5 74.4 136.4 74.1C136.4 74 136.3 73.9 136.3 73.8C135.8 72.1 135.1 70.5 134.4 68.9C134.2 68.4 134 67.9 133.7 67.4C133.5 67.1 133.4 66.7 133.2 66.4C132.8 65.6 132.4 64.8 131.9 64C131.4 63.2 130.9 62.3 130.4 61.5C130.4 61.5 130.4 61.4 130.3 61.4C130.3 61.4 130.3 61.3 130.2 61.3V61.2C130 60.9 129.8 60.7 129.6 60.4C129.4 60.1 129.2 59.8 128.9 59.5C128.5 59 128.1 58.4 127.6 57.9C128.1 57.1 128.5 56.4 128.9 55.6C129.1 55.3 129.2 54.9 129.4 54.6C129.6 54.3 129.7 53.9 129.8 53.6C131 50.6 131.6 47.4 131.6 44.1C131.6 43.7 131.6 43.2 131.6 42.8C131.6 42.6 131.6 42.4 131.6 42.2C131.6 42.1 131.6 41.9 131.6 41.8C131.6 41.6 131.6 41.5 131.6 41.3C131.6 41 131.5 40.7 131.5 40.4C131.3 39 131 37.7 130.6 36.4C129.9 34.1 128.9 31.9 127.6 30.1C127.5 29.9 127.4 29.8 127.2 29.6C127 29.4 127 29.3 126.8 29.1C125.8 27.9 124.8 26.8 123.6 25.9C123.4 25.8 123.2 25.6 123 25.5C122.8 25.4 122.6 25.2 122.4 25.1C121.8 24.7 121.3 24.4 120.7 24.1C120 23.8 119.4 23.5 118.7 23.3C118.7 23.1 118.7 22.9 118.7 22.7V22.6C118.7 22 118.7 21.4 118.7 20.8C118.7 19.1 118.6 17.5 118.3 15.8C118.2 15.4 118.2 15 118.1 14.6C118 14.2 118 13.8 117.9 13.4C117.7 12.4 117.4 11.3 117 10.3C117 10.2 116.9 10.1 116.9 10C116.8 9.60003 116.6 9.20002 116.5 8.90002C116.3 8.50002 116.1 8.00002 115.9 7.60002C115.7 7.20002 115.5 6.70002 115.3 6.30002C115.2 6.10002 115.1 5.90002 115 5.60002C114.9 5.40002 114.8 5.20002 114.6 4.90002L114.2 4.10002L114 4.20002C113.9 4.10002 113.8 4.00002 113.8 3.80002C113.7 3.60002 113.5 3.30002 113.3 3.10002C113.1 2.80002 112.9 2.50002 112.7 2.30002C112.4 1.80002 112 1.40002 111.6 0.900024C111.3 0.600024 111 0.300024 110.7 -0.0999756H19C16.5 -0.0999756 14.2 0.400024 12 1.20002C11.7 1.30002 11.4 1.40002 11.2 1.60002C10.9 1.70002 10.6 1.90002 10.3 2.00002C9.9 2.30002 9.7 2.40002 9.4 2.60002C9.1 2.70002 8.8 2.90002 8.6 3.10002C8.1 3.40002 7.7 3.70002 7.3 4.10002C7.1 4.20002 6.9 4.40002 6.7 4.50002C2.8 7.80002 0.3 12.6 0 18V153C0 153.1 0 153.2 0 153.3C0 153.4 0 153.4 0 153.5C0 153.7 0 154 0.1 154.2C0.1 154.4 0.1 154.5 0.2 154.6C0.2 154.7 0.2 154.7 0.2 154.8C0.8 158.6 2.4 162 4.8 164.6C5.1 165 5.5 165.3 5.9 165.7C6.1 165.9 6.3 166 6.4 166.2C6.6 166.4 6.8 166.5 7 166.7C10.3 169.4 14.5 171 19 171H90.8L91.4 168.8L93.3 170.7L93.4 170.6H94.9L91.8 167.5L92.3 165.5L94.3 166L95.6 170.9H101.1C102.1 170.7 103.1 170.4 104.1 170C104.5 169.9 104.9 169.7 105.2 169.5C105.4 169.4 105.7 169.3 105.9 169.1C106.4 168.8 106.8 168.6 107.3 168.3C108 167.8 108.7 167.3 109.3 166.8C109.8 166.4 110.2 166 110.6 165.6C110.8 165.4 111.1 165.1 111.3 164.9C111.4 164.7 111.6 164.6 111.7 164.4C111.9 164.2 112.1 163.9 112.3 163.7C112.6 163.3 112.9 163 113.1 162.6C113.3 162.4 113.4 162.1 113.6 161.9C113.7 161.8 113.8 161.6 113.8 161.5C113.9 161.4 114 161.2 114 161.1C114.1 160.9 114.2 160.8 114.3 160.6C114.4 160.4 114.5 160.3 114.6 160.1C114.7 159.9 114.8 159.7 114.9 159.6C115.1 159.3 115.3 158.9 115.4 158.6C115.6 158.2 115.8 157.8 116 157.3C116 157.2 116.1 157.1 116.1 157.1C116.3 156.7 116.4 156.4 116.5 156V155.9C116.9 154.8 117.2 153.7 117.5 152.6C117.6 152.2 117.7 151.8 117.8 151.5C117.9 151.2 117.9 150.8 118 150.5C118.2 149.5 118.3 148.4 118.4 147.4C118.5 146.4 118.5 145.4 118.5 144.4C118.5 144.1 118.5 143.9 118.5 143.6C118.5 143.1 118.5 142.5 118.4 142C118.2 139.7 117.8 137.4 117.1 135.2C117.1 135.1 117 134.9 117 134.8C117 134.7 116.9 134.5 116.9 134.4C117.1 134.3 117.2 134.2 117.4 134.1C119.4 133 121.4 131.6 123.2 129.9C123.3 129.8 123.5 129.7 123.6 129.5C124 129.2 124.3 128.8 124.7 128.5C124.9 128.3 125 128.2 125.2 128C125.4 127.8 125.5 127.7 125.7 127.5C126 127.2 126.3 126.9 126.6 126.5C126.9 126.2 127.2 125.8 127.5 125.5C127.8 125.1 128.1 124.8 128.4 124.4C128.6 124.1 128.9 123.8 129.1 123.5C130.4 121.8 131.6 119.9 132.6 118C133.3 116.7 134 115.3 134.6 114C134.9 113.2 135.3 112.5 135.5 111.7C135.6 111.4 135.7 111.2 135.8 110.9C135.9 110.5 136 110.2 136.2 109.8C136.5 109 136.7 108.3 136.9 107.5C137 107.1 137.1 106.6 137.3 106.2C137.4 105.8 137.5 105.3 137.6 104.9C138.3 101.8 138.8 98.6 139 95.4C139 95.3 139 95.1 139 95C139 94.9 139 94.7 139 94.6V94.5C139 94.3 139 94.1 139 93.8C139 93.2 139 92.5 139 91.9C139 91.4 139 91.2 139 90.9Z" fill="#FFBF18"/>
<path id="Vector_2" d="M95.6 171H90.8L91.4 168.8L93.3 170.7V170.6H94.8L91.8 167.5L92.3 165.6L94.2 166.1L95.6 171Z" fill="#FFBF18"/>
<g id="Group_2" opacity="0.16">
<path id="Vector_3" d="M133.5 116.2C134.2 114.7 134.9 113.2 135.5 111.6H134.7L133.5 116.2Z" fill="#FCFCFC"/>
<path id="Vector_4" d="M138.4 83L138.3 83.1L138.5 83.3C138.4 83.2 138.4 83.1 138.4 83Z" fill="#FCFCFC"/>
<path id="Vector_5" d="M21.2 59.6H21.4L22 59.8V61.3C22.1 61.3 22.2 61.2 22.3 61.2C22.6 61.1 22.8 61.1 23.1 61.1V59.6H21.2ZM24.2 59.6L23.3 61.1C23.5 61.1 23.8 61.2 24.1 61.2C24.2 61.2 24.4 61.3 24.5 61.3L25.5 59.6H24.2ZM32.2 82.7V83L33.3 82.7H32.2ZM32.5 64.5C32.4 64.6 32.3 64.7 32.3 64.8C32.2 65 32 65.3 31.9 65.5C31.9 65.5 31.9 65.6 31.8 65.6L31.9 65.5L34 67.6C34.1 67.2 34.2 66.8 34.4 66.4L32.5 64.5ZM21.2 59.6H21.4L22 59.8V61.3C22.1 61.3 22.2 61.2 22.3 61.2C22.6 61.1 22.8 61.1 23.1 61.1V59.6H21.2ZM32.5 64.5C32.4 64.6 32.3 64.7 32.3 64.8C32.2 65 32 65.3 31.9 65.5C31.9 65.5 31.9 65.6 31.8 65.6L31.9 65.5L34 67.6C34.1 67.2 34.2 66.8 34.4 66.4L32.5 64.5ZM35.8 63.8L35.9 63.7C35.9 63.7 35.8 63.7 35.8 63.8ZM32.2 82.7V83L33.3 82.7H32.2ZM24.2 59.6L23.3 61.1C23.5 61.1 23.8 61.2 24.1 61.2C24.2 61.2 24.4 61.3 24.5 61.3L25.5 59.6H24.2ZM136.6 88.8L138.6 89.3L139 90.9C139 90.5 139 90.1 139 89.6C139 89.1 139 88.6 138.9 88.1C138.8 87.2 138.8 86.3 138.7 85.3L137.6 85.6L138.2 88L135.8 87.3L135.1 89.7L133.3 87.9L131.5 89.7L130.8 87.3L128.4 88L129.1 85.5L126.7 84.8L128.5 83L126.7 81.2L129.1 80.5L128.4 78.1L130.9 78.8L131.6 76.4L133.4 78.2L135.2 76.4L135.8 78.8L137.5 78.3C137.4 77.9 137.3 77.5 137.2 77.2L136.6 77.4L136.1 75.4L136.6 74.9C136.5 74.6 136.4 74.3 136.3 74C136.3 73.9 136.2 73.8 136.2 73.7L135.7 74.2L134.3 68.8C134.1 68.3 133.9 67.8 133.6 67.3C133.4 67 133.3 66.6 133.1 66.3C132.7 65.5 132.3 64.7 131.8 63.9L132.8 67.5L131 74.2L126.1 69.3L124.5 63.2L127.6 61.4H130.3L130.2 61.3C130.2 61.3 130.2 61.2 130.1 61.2V61.1C129.9 60.8 129.7 60.6 129.5 60.3C129.3 60 129.1 59.7 128.8 59.4L127.3 60.3H121.6L123.3 57.4L121.7 54.6H127.4L129 55.5C129.2 55.2 129.3 54.8 129.5 54.5C129.7 54.2 129.8 53.8 129.9 53.5H127.7L124.6 51.7L126.2 45.6L131.1 40.7L131.6 42.6C131.6 42.4 131.6 42.2 131.6 42C131.6 41.9 131.6 41.7 131.6 41.6C131.6 41.4 131.6 41.3 131.6 41.1C131.6 40.8 131.5 40.5 131.5 40.2C131.3 38.8 131 37.5 130.6 36.2L128.7 36.7L129.4 34.3L127 33.6L128.8 31.8L127 30L127.7 29.8C127.6 29.6 127.5 29.5 127.3 29.3C127.1 29.1 127.1 29 126.9 28.8L126 29L122.1 25.1L123.7 25.5C123.5 25.4 123.3 25.2 123.1 25.1C122.9 25 122.7 24.8 122.5 24.7C121.9 24.3 121.4 24 120.8 23.7C120.1 23.4 119.5 23.1 118.8 22.9C118.8 22.7 118.8 22.5 118.8 22.3V22.2C118.8 22 118.8 21.9 118.8 21.7L116 18.9L117.8 15.8L118.5 15.4C118.4 15 118.4 14.6 118.3 14.2C118.2 13.8 118.2 13.4 118.1 13L117 14.9L112.1 17.7V12L115 7.1L116.6 10H117.3C117.3 9.9 117.2 9.8 117.2 9.7C117.1 9.3 116.9 8.9 116.8 8.6C116.6 8.2 116.4 7.7 116.2 7.3C116 6.9 115.8 6.4 115.6 6C115.5 5.8 115.4 5.6 115.3 5.3C115.2 5.1 115.1 4.9 114.9 4.6L114.5 3.8L114 4.2V4.1C113.9 4 113.9 3.9 113.8 3.9C113.7 3.7 113.5 3.4 113.3 3.2C113.1 2.9 112.9 2.6 112.7 2.4C112.4 1.9 112 1.5 111.6 1C111.3 0.7 111 0.4 110.7 0H110.2L110.6 0.6V4.2L104.6 5.8L97.9 4L101.9 0H100.3L96.6 3.7L94.6 3.2L95.1 1.2L99.6 0H94.3L94.2 0.2L92.2 0.7L92.1 0H90.9L91.5 2.2L93.9 1.5L93.3 4L95.7 4.6L93.9 6.4L95.7 8.2L93.3 8.8L93.9 11.2L91.5 10.5L90.8 13L89 11.3L87.3 13L86.6 10.6L84.2 11.3L84.9 8.9L82.5 8.3L84.3 6.5L82.5 4.7L84.8 4L84.1 1.6L86.5 2.2L87.2 0H86L85.8 0.8L83.8 0.3V0H78.5L82.9 1.2L83.4 3.2L81.4 3.7L77.8 0H76.2L80.2 4L73.6 5.8L67.5 4.2V0.6L67.8 0H66.3V0.3L63.4 5.2L61.8 2.4H58.5L59.9 0H58.6L57.2 2.4H52.8L55 1.2L54.6 0H53.4L53.6 0.6L50.5 2.4H47L46.3 0H45.1L46.1 3.5H48.5L44.7 5.7L41 3.5H43.4L44.4 0H43.2L42.6 2.4H39L35.9 0.6L36 0H34.8L34.5 1.2L36.6 2.4H32.2L30.9 0H29.6L31 2.4H27.7L26 5.2L23.1 0.3V0H21.6L22 0.6V4.2L16 5.8L9.3 4L12 1.3C11.7 1.4 11.4 1.5 11.2 1.7C10.9 1.8 10.6 2 10.3 2.1C9.9 2.3 9.7 2.4 9.4 2.6C9.1 2.7 8.8 2.9 8.6 3.1L8 3.7H7.8C7.6 3.8 7.5 3.9 7.3 4.1C7.1 4.2 6.9 4.4 6.7 4.5L7.1 4.6L5.3 6.4L7.1 8.2L4.6 8.8L5.3 11.2L2.9 10.5L2.2 13L1.3 12.1C1.1 12.5 1 12.9 0.9 13.3L1.9 14.3L0.5 19.7L0 18.1V25.7L0.4 24.1L1.7 29.1H4.1L0.3 31.3L0 31.1V32.9L0.4 32.7L4.2 34.9H1.8L0.5 39.9L0 38.2V45.8L0.4 44.2L1.8 49.5L0.4 50.9L0 50.7V52.3L0.4 52.7L2.2 50.9L2.8 53.3L5.2 52.7L4.6 55.1L7 55.7L5.2 57.5L7 59.3L4.6 60L5.3 62.4L2.9 61.8L2.3 64.2L0.5 62.4L0 62.9V64.5L0.4 64.1L1.8 65.5L0.4 70.8L0 69.3V76.9L0.4 75.3L1.7 80.3H4.1L0.3 82.5L0 82.2V84L0.4 83.8L4.2 86H1.8L0.5 91L0 89.4V97L0.4 95.4L1.8 100.7L0.4 102.1L0 101.8V103.4L0.4 103.8L2.2 102L2.8 104.4L5.2 103.7L4.6 106.1L7 106.7L5.2 108.5L7 110.3L4.6 110.9L5.3 113.3L2.9 113L2.3 115.5L0.5 113.7L0 114V115.6L0.4 115.2L1.8 116.6L0.4 122L0 120.5V128.1L0.4 126.5L1.7 131.5H4.1L0.3 133.7L0 133.4V135.2L0.4 135L4.2 137.2H1.8L0.5 142.2L0 140.6V148.2L0.4 146.6L1.8 152L0.4 153.4L0 153C0 153.1 0 153.2 0 153.3C0 153.4 0 153.4 0 153.5C0 153.7 0 154 0.1 154.2C0.1 154.3 0.1 154.4 0.1 154.5V154.6C0.1 154.7 0.1 154.7 0.1 154.8L0.3 155L2.1 153.2L2.7 155.6L5.1 154.9L4.5 157.3L6.9 157.9L5.1 159.7L6.9 161.5L4.5 162.2L5.2 164.6L4.7 164.5C5 164.9 5.4 165.2 5.8 165.6C6 165.8 6.2 165.9 6.3 166.1C6.5 166.3 6.7 166.4 6.9 166.6L6.8 166.3L13.4 168.1L15.9 170.6C16.5 170.7 17.1 170.8 17.7 170.8L15.6 168.7L20.6 170L22 168V171H23.1V166L26 161.1L27.6 164H30.9L28.1 168.9L24.4 171H26.7L26.9 170.9L26.8 171H28.1L28.8 169.7L31.9 167.9L34.9 170.9H37.1L35.7 165.6L38.8 163.8H42.4L44 169.8L43.7 170.8H45.4L45.1 169.8L46.7 163.7H50.3L53.4 165.5L52 170.8H54.2L57.3 167.8L60.4 169.6L61.1 170.9H62.4L62.3 170.8L62.5 170.9H65L61.4 168.8L58.5 163.9H61.8L63.5 161L66.3 165.9V170.9H67.4V167.9L68.6 170L73.6 168.7L71.4 170.9H73L75.8 168.1L82.4 166.3L81.2 170.9H82.4L83.7 166L85.7 165.5L86.2 167.5L82.7 171H84.3L86.5 168.8L87.1 171H88.3L87.5 167.9L88.9 166.5L90.3 167.9L89.5 171H90.7L91.3 168.8L93.2 170.7L93.3 170.6H94.8L91.7 167.5L92.2 165.5L94.2 166L95.5 170.9H96.7L95.5 166.3L102.2 168.1L104 169.9C104.4 169.8 104.8 169.6 105.1 169.4L104.3 168.6L105.8 169C106.3 168.7 106.7 168.5 107.2 168.2L102.7 167L97.8 162.1L104.5 160.3L110.6 161.9V165.3C110.8 165.1 111.1 164.8 111.3 164.6C111.4 164.4 111.6 164.3 111.7 164.1C111.9 163.9 112.1 163.6 112.3 163.4C112.6 163 112.9 162.7 113.1 162.3C113.3 162.1 113.4 161.8 113.6 161.6C113.7 161.5 113.8 161.3 113.8 161.2C113.9 161.1 114 160.9 114.1 160.8C114.2 160.6 114.3 160.5 114.4 160.3C114.5 160.1 114.6 160 114.7 159.8C114.8 159.6 114.9 159.4 115 159.3C115.2 159 115.4 158.6 115.5 158.3C115.7 157.9 115.9 157.5 116.1 157C116.1 156.9 116.2 156.8 116.2 156.8C116.4 156.4 116.5 156.1 116.6 155.7V155.6H116.2L114.6 158.5L111.7 153.6V147.9L116.6 150.7L117.5 152.3C117.6 151.9 117.7 151.5 117.8 151.2C117.9 150.9 117.9 150.5 118 150.2L117.5 149.9L115.7 146.8L118.5 144C118.5 143.7 118.5 143.5 118.5 143.2C118.5 142.7 118.5 142.1 118.4 141.6L113.5 142.9L111.7 139.8V136.2L117 134.8C117 134.7 116.9 134.5 116.9 134.4C116.9 134.3 116.8 134.1 116.8 134C117 133.9 117.1 133.8 117.3 133.7C117.5 133.6 117.6 133.5 117.8 133.4L111.8 131.8V128.2L113.6 125.1L119.6 126.7L122.8 129.8C122.9 129.7 123.1 129.6 123.2 129.4C123.3 129.3 123.5 129.2 123.6 129L121.8 127.2L124.7 128C124.9 127.8 125 127.7 125.2 127.5C125.4 127.3 125.5 127.2 125.7 127L120.3 125.5L115.9 121.1L117.7 118L120.8 116.2L125.2 120.6L126.7 126C127 125.7 127.3 125.3 127.6 125L126.9 122.3L128.5 123.9C128.7 123.6 129 123.3 129.2 123L126.3 120.1L124.7 114L127.8 112.2H131.4L132.8 117.4C133.1 116.9 133.3 116.4 133.6 115.9L132.3 111H129.8L133.6 108.8L136 110.2C136.1 109.8 136.2 109.5 136.4 109.1L134.8 108.2L137.1 106.9C137.2 106.5 137.3 106 137.5 105.6C137.6 105.2 137.7 104.7 137.8 104.3H135.9L134.3 98.3L136.1 91.6L139.3 94.8C139.3 94.7 139.3 94.5 139.3 94.4C139.3 94.3 139.3 94.1 139.3 94V93.9C139.3 93.7 139.3 93.5 139.3 93.2L136.4 90.3L136.6 88.8ZM133.3 69.9L134.7 75.3L133.3 76.7L131.9 75.3L133.3 69.9ZM131 92L132.8 98.6L131.2 104.7H127.6L124.5 102.9L126.1 96.8L131 92ZM60.1 143.2L65.1 144.5L66.3 142.4V146.8L62.5 149L63.7 146.9L60.1 143.2ZM26.9 149L23.1 146.8V142.4L24.3 144.5L29.3 143.2L25.7 146.8L26.9 149ZM8.5 138.4H12.8L15 142.2L12.9 141L9.2 144.6L10.5 139.6L8.5 138.4ZM9.3 124.1L13 127.8L15.1 126.6L12.9 130.4H8.5L10.6 129.2L9.3 124.1ZM10.5 89L10.7 88.4L10 88L8.5 87.1H10H12.8L13.9 89L15 90.9L13 89.7L11.6 91.1L9.4 93.3L10 91.1L10.5 89ZM12.2 82.7L13.5 80.3H14.4H16.8L18.3 82.8L18.5 83.1L18.2 83.6L16.8 86H14.1H13.5L11.8 83.1L12.2 82.7ZM10 75.5L9.3 73L10 73.7L13 76.7L15.1 75.5L12.9 79.3H8.5L10 78.4L10.7 78L10 75.5ZM12.2 52.3L14.2 50.3L20.3 48.7L22.1 51.8V55.4L19.7 56L16 57L10 55.4L9.3 55.2L9.9 54.6L12.2 52.3ZM8.5 36H12.9L15.1 39.8L13 38.5L9.3 42.2L10.6 37.2L8.5 36ZM9.3 21.8L13 25.4L15.1 24.2L12.9 28H8.5L10.6 26.8L9.3 21.8ZM29.3 23.1L24.3 21.8L23.1 23.9V19.5L26.9 17.3L25.7 19.4L29.3 23.1ZM62.5 17.3L66.3 19.5V23.9L65.1 21.8L60.1 23.1L63.8 19.5L62.5 17.3ZM80.9 28H76.5L74.3 24.2L76.4 25.4L80 21.7L78.7 26.7L80.9 28ZM97.9 21.8L101.6 25.5L103.7 24.3L101.5 28.1H97.1L99.2 26.9L97.9 21.8ZM115.5 46.6L111.7 44.4V40L112.9 42.1L117.9 40.8L114.3 44.5L115.5 46.6ZM118 74.3L113 73L111.8 75.1V70.7L115.6 68.5L114.4 70.6L118 74.3ZM119.6 90.4L113.5 92L111.7 88.9V85.3L117.7 83.7L124.4 85.5L119.6 90.4ZM120.2 91.5L126.8 89.7L125 96.3L120.6 100.7L117.5 98.9L115.7 95.8L120.2 91.5ZM111.8 80.9V77.3L113.6 74.2L119.6 75.8L124.5 80.7L117.9 82.5L111.8 80.9ZM102.1 108.8L96.9 110.2L95.5 108.8L96.9 107.4L102 108.8L102.3 108.9L102.1 108.8ZM97.1 138.4H101.4L103.6 142.2L101.5 141L97.8 144.6L99.1 139.6L97.1 138.4ZM80.2 144.6L76.6 141L74.5 142.2L76.7 138.4H81.1L79 139.6L80.2 144.6ZM44.7 139.2L43 141L42.3 138.6L39.9 139.3L40.6 136.9L38.2 136.2L40 134.4L38.2 132.6L40.7 131.9L40.6 131.5L40.1 129.5L42.5 130.2L43.2 127.8L45 129.6L46.8 127.8L47.1 128.9L47.5 130.3L49.9 129.6L49.3 132L51.7 132.6L49.9 134.4L51.7 136.2L49.3 136.9L49.9 139.3L47.5 138.6L46.8 141L44.7 139.2ZM46.2 142.3L44.8 147.7L43.4 142.3L44.8 140.9L46.2 142.3ZM19.3 96L18.2 94.1L21.5 96L22 96.3V100.7L20.8 98.6L15.8 99.9L19.5 96.3L19.3 96ZM15.4 89.2L14.2 87.2H17.5L18.1 86.2L19.1 84.4L21.8 89.2L21.9 89.4V95L17 92.2L16.4 91.2L15.4 89.2ZM14.2 79.2L14.7 78.4L17.1 74.3L19.2 73.1L22 71.5V77.2L19.1 82L18.3 80.7L17.4 79.2H14.2ZM17.2 67.8L15.8 66.4L17.5 66.9L20.3 67.6L20.8 67.7L22 65.6V70L19.4 71.5L18.2 72.2L19.4 70.1L17.2 67.8ZM24.5 61.4L25.5 59.7L26 58.8L26.5 59.6L27.7 61.6H31L28.4 66L28.1 66.5L26 67.7L23.2 69.3V63.6L23.4 63.2L24.5 61.4ZM23.6 52.3L23.1 51.5V45.8L28 48.6L30.2 52.4L30.9 53.6H27.6L27.5 53.8V53.9L26 56.4L23.7 52.4L23.6 52.3ZM18.2 42.9L22 45.1V49.5L20.8 47.4L15.8 48.7L19.5 45L18.2 42.9ZM22 38.1V43.8L17.1 41L14.2 36H17.5L19.1 33.2L22 38.1ZM17.5 28H14.2L17.1 23.1L22 20.3V26L19.1 30.9L17.5 28ZM97.1 87.2H101.5L103.7 91L101.6 89.8L97.9 93.4L99.2 88.4L97.1 87.2ZM95.7 107L93.9 108.8L95.7 110.6L93.3 111.3L93.9 113.7L92.8 113.4L91.5 113.1L90.9 115.6L89.1 113.8L87.3 115.6L86.9 114.2L86.6 113.1L84.2 113.7L84.9 111.3L82.5 110.7L84.3 108.9L82.5 107.1L84.9 106.4L84.2 104L86.6 104.7L87.3 102.3L89.1 104.1L90.7 102.5L90.9 102.3V102.5L91.5 104.7L93.9 104L93.3 106.5L95.7 107ZM94.3 115L95.4 119.2L95.7 120.2L95.3 119.9L91.7 116.3L92.2 114.3L94.3 115ZM97.9 128.6L94.8 130.4H91.2L90 125.8L89.6 124.3L91.4 117.6L95 121.2L96.3 122.5L97.7 127.5L97.9 128.6ZM92.8 131.5L89 133.7L85.2 131.5H87.6L88.9 126.5L90.2 131.5H92.8ZM80.9 130.3H76.5L74.3 126.5L76.4 127.7L77.8 126.3L80 124.1L79 127.8L78.7 129L80.9 130.3ZM77.6 134.3L76 137.2H72.7L71 134.3L72.6 131.4H75.9L77.6 134.3ZM62.8 108.7L62.6 109.1L61.2 111.6H57.9L56.2 108.8L57.8 105.9H61.1L62.7 108.6L62.8 108.7ZM62.3 121.6L57.9 126L51.2 127.8L53 121.2L57.4 116.8L58.9 117.7L60.5 118.6L61.1 119.7L62.3 121.6ZM42 126.8L41.5 128.8L39.5 128.3L39 126L38.1 122.8L41 125.7L42 126.8ZM26.1 120.2L27 119.7L26.3 121L25.8 121.8L29.4 125.4L27.6 124.9L24.4 124.1L23.2 126.2V121.8L26.1 120.2ZM27.1 121.6L28.9 118.5L32 116.7L34.8 119.5L36.4 121.1L37.7 125.9L38.2 127.8L31.5 126L27.1 121.6ZM23.2 102.7V97L28.1 99.8L29.2 101.7L31 104.7H27.7L26.1 107.6L25.6 106.7L23.2 102.7ZM23.1 95.6V91.2L24.3 93.3L29.3 92L25.7 95.7L25.9 96L26.9 97.8L23.8 96L23.1 95.6ZM23.2 89.1L23.1 89V85.4L27.9 84.1L29.2 83.8L32.1 84.6H32.2L35.9 85.6L31 90.4L28.3 91.1L24.9 92L24.4 91.1L23.2 89.1ZM26.3 68.9L27 68.5L26.5 69.4L25.8 70.6L26.9 71.7L29.4 74.2L27.2 73.6L24.4 73L23.2 75.1V70.7L26.3 68.9ZM29 67.3L31.9 65.6L32 65.5L34.1 67.6L36.4 69.9L37 72.1L38.2 76.6L37 76.3L32.7 75.1L31.6 74.8L27.2 70.4L29 67.3ZM27.4 58.8L26.7 57.6L27.5 56.2V56.1L28.3 54.7H31.6L33.1 57.4L33.2 57.6L31.6 60.5H28.3L27.4 58.8ZM56.2 38.6L50.9 37.2L50.4 35.2L52.4 34.7L56.2 38.6ZM51.2 32L52.6 30.6L58 32L52.6 33.4L51.2 32ZM73.7 48.7L68.7 47.4L67.5 49.5V45.1L71.3 42.9L70 45L73.7 48.7ZM89 52.7L90.8 50.9L91.4 53.3L93.8 52.6L93.2 55.1L95.6 55.8L93.8 57.6L95.6 59.4L93.3 60L93.9 62.4L91.5 61.8L90.9 64.2L89 62.4L87.2 64.2L86.5 61.8L84.1 62.4L84.8 60L82.4 59.3L84.2 57.5L82.4 55.7L84.9 55L84.2 52.6L86.7 53.3L87.3 50.9L89 52.7ZM87.6 49.6L89 44.2L90.4 49.6L89 51.1L87.6 49.6ZM95.5 51.1L97.3 44.5L101.7 40.1L104.8 41.9L106.6 45L102.2 49.4L95.5 51.1ZM100.5 50.9L96.6 54.8L94.6 54.3L95.1 52.3L100.5 50.9ZM94.2 51.4L92.2 51.9L91.7 49.9L95.6 46L94.2 51.4ZM89.9 101.4L89 102.2L87.6 100.8L88.9 96L89 95.5L90.4 100.9L89.9 101.4ZM88.5 124.3L88 126L86.8 130.4H83.2L80.1 128.6L81.7 122.6L81.9 122.4L86.6 117.7L88.5 124.3ZM87.6 116.7L89 115.3L90.4 116.7L89 122L87.6 116.7ZM86.3 116.3L82.4 120.2L83.3 117L83.9 114.9L85.9 114.4L86 115L86.3 116.3ZM82.9 114L77.5 115.4L81.4 111.5L83.4 112L82.9 114ZM81.1 110.2L76.5 109L75.8 108.8L76.9 108.5L81.1 107.4L82.5 108.8L81.1 110.2ZM44.7 116.6L43.4 111.6H41L44.8 109.4L48.6 111.6H46.2L44.7 116.6ZM27.1 95.9L31.5 91.5L32.7 91.2L38.2 89.7L37.8 91.2L36.4 96.4L32 100.8L30.8 100.1L28.9 99L27.2 96L27.1 95.9ZM32.2 83L33.3 82.7H33.5L36.9 81.8L37 82L38.2 83.2L37 84.4L36.8 84.6L32.2 83.4L31.5 83.2L32.2 83ZM35.9 63.7L35.8 63.4L37 62.7L38.9 61.6H42.5L43.8 66.4L44.1 67.6L42.3 74.3L41.4 73.4L37.4 69.4L37 67.7L35.9 63.7ZM34.5 57.4L33 54.7H37.1H38.7L43.6 57.5L38.7 60.3H37.1H33L34.7 57.4H34.5ZM53.6 47.4L57.3 51.1L57.7 50.9L59.4 49.9L58.4 51.7L57.3 53.7H52.9L55 52.5L53.6 47.4ZM71.3 57.6L66.3 58.9V61.3L64.1 57.5L66.3 53.7V56.1L71.3 57.6ZM85 84.8L84.7 85L83 86H77.3L78.9 83.1L78.5 82.5L77.2 80.3H83L87.9 83.1L85 84.8ZM80.2 93.4L76.6 89.8L74.5 91L76.7 87.2H81.1L79 88.4L80.2 93.4ZM82.6 102.3L80.4 101.7L75.9 100.5L73.7 98.3L71.5 96L73.3 92.9L73.6 92.7L76.4 91.1L80.8 95.5L81.3 97.5L82.6 102.3ZM73.7 99.9L73.4 99.8L68.7 98.5L67.5 100.6V96.2L71.3 94L70 96.2L73.4 99.6L73.7 99.9ZM53.6 103L53.4 103.1L50.6 104.7H47L45.4 98.6L47.2 91.9L52.1 96.8L53.6 102.4V103ZM39 91.1L39.5 89.3L39.9 89.2L41.4 88.8L41.9 90.8L38 94.7L39 91.1ZM40.3 79.9L39.9 78.3L40.5 78.5L42.3 79L43 76.6L44.8 78.4L46.6 76.6L47.2 79L49.6 78.3L49 80.7L51.4 81.3L49.6 83.1L51.4 84.9L49 85.6L49.6 88L47.2 87.3L46.5 89.7L44.7 88L43 89.8L42.3 87.4L39.9 88L40.5 85.6L39.9 85.4L38.1 84.9L39.9 83.1L38.1 81.3L40.2 80.7L40.6 80.6L40.3 79.9ZM48.5 60.4H46.1L45.2 63.8L44.8 65.4L44.7 64.8L43.5 60.4H41L44.8 58.2L47.9 60L48.5 60.4ZM62.2 70.5L57.9 74.9L57.4 75L51.3 76.6L53 70L57.4 65.6L60.5 67.4L62.2 70.5ZM50.9 78L56.3 76.6L52.4 80.5L50.4 80L50.9 78ZM49.9 77L47.9 77.5L47.4 75.5L51.3 71.6L49.9 77ZM57.3 64.1L53.6 67.8L54.9 62.8L52.8 61.6H57.1L59.3 65.4L57.3 64.1ZM53.6 63.4L52 69.4L47.1 74.3L45.3 67.6L46.9 61.5H50.5L53.6 63.4ZM44.7 69.9L46.1 75.3L44.7 76.7L43.3 75.3L44.7 69.9ZM46.2 91.1L44.8 96.5L43.4 91.1L44.8 89.7L46.2 91.1ZM42.4 92L44.2 98.6L42.6 104.7H39L35.9 102.9L37.5 96.9L42.4 92ZM43.4 105.9L44.7 100.9L46 105.9H48.4L44.6 108.1L40.8 105.9H43.4ZM47.5 90.8L48 88.8L50 89.3L51.4 94.7L47.5 90.8ZM50.4 86.4L52.4 85.9L56.3 89.8L51 88.4L50.4 86.4ZM51.2 83.2L52.6 81.8L58 83.2L52.6 84.6L51.2 83.2ZM53.6 80.8L55.1 79.3L58.4 76L64.4 74.4L66.2 77.5V81.1L61.3 82.4L60.1 82.7L53.6 80.8ZM65.5 73.6L65.1 73H64.8L60.2 74.2L63.9 70.5L62.7 68.4L66.5 70.6V74.1V75L65.5 73.6ZM67.5 74.9V71.4L72.4 74.2L74 77L75.2 79.1H72L70.3 82L67.4 77.1V74.9H67.5ZM79 77.4L78.9 77.9L80.6 78.9L81 79.1H76.6L75.5 77.2L74.4 75.3L76.5 76.5L79.4 73.6L80.2 72.8L80 73.7L79 77.4ZM77.6 83.1L75.9 86H72.6L71 83.2L72.6 80.3H74.1H75.9L77.2 82.5L77.6 83.1ZM76.3 75.1L73.2 73.3L71.4 70.2L75.8 65.8L82.4 64L80.6 70.7L76.3 75.1ZM75.3 64.8L69.2 66.4L67.4 63.3V59.7L73.5 58.1L80.2 59.9L75.3 64.8ZM73.7 66.4L71.1 69L70.1 70L71.3 72.1L67.5 70V65.6L68.7 67.7L69.5 67.5L73.7 66.4ZM72 87.2H75.3L73 91.2L72.5 92.1L67.6 94.9V89.2L69.2 86.4L70.4 84.3L72 87.2ZM85.3 80.3H87.7L88.7 76.4L89 75.3L90.3 80.3H92.7L89 82.5L85.3 80.3ZM87.6 65.5L89 64.1L90.4 65.5L89 70.9L87.6 65.5ZM88.5 73.1L87.6 76.4L86.9 79.2H83.3L81.5 78.2L80.3 77.5L80.2 77.4L81.1 74.1L81.9 71.3L86.8 66.4L88.5 73.1ZM82.4 69.1L83.8 63.7L85.8 63.2L86.3 65.2L82.4 69.1ZM82.9 62.8L77.5 64.2L81.4 60.3L83.4 60.8L82.9 62.8ZM81.1 59L75.7 57.6L81.1 56.2L82.5 57.6L81.1 59ZM77.5 50.9L82.9 52.3L83.4 54.3L81.4 54.8L77.5 50.9ZM80.2 55.2L73.5 57L67.4 55.4V51.8L69.2 48.7L75.2 50.3L80.2 55.2ZM66.3 63.7V69.4L61.4 66.6L58.5 61.7H61.8L63.3 59.2L63.5 58.9L66.3 63.7ZM62.5 58.2L61.2 60.5H57.9L56.2 57.6L57.7 55L57.8 54.8H61.1L62.8 57.6L62.5 58.2ZM56.5 54.7L54.8 57.5L56.5 60.4H50.8L48.6 59.2L45.8 57.6L50.8 54.7H56.5ZM44.7 56.9L41 54.7H43.4L44.7 49.7L46 54.7H48.4L44.7 56.9ZM41.2 74.7L42.1 75.5L41.6 77.5L40.8 77.3L39.5 77L38.1 71.6L41.2 74.7ZM39.1 79.9L37.1 80.4L33.2 76.5L37 77.5L38.6 77.9L39.1 79.9ZM37 86L37.1 85.9L39.1 86.4L38.6 88.4L37 88.8L36 89.1L33.2 89.8L33.9 89.1L37 86ZM32.2 102.2L35.8 98.5L34.5 103.5L36.6 104.7H32.2L30 100.9L32.2 102.2ZM38.6 105.9L43.5 108.7L38.6 111.6H32.9L34.6 108.7L33 105.9H38.6ZM45.9 108.8L50.9 105.9H56.6L54.9 108.7L56.6 111.6H50.9L45.9 108.8ZM52.8 104.7L53.1 104.5L54.9 103.4L54.1 100.4L53.6 98.4L57.3 102.1L59.4 100.9L57.2 104.7H52.8ZM57.5 100.7L55.2 98.4L53 96.3L51.2 89.6L57.8 91.4L62.2 95.8L62 96.2L60.5 99L57.5 100.7ZM62.8 97.3L63.7 95.7L60.1 92L65.1 93.3L66.3 91.2V95.6L63 97.6L62.6 97.9L62.8 97.3ZM64.5 92L58.4 90.4L53.5 85.5L60.2 83.7L66.3 85.3V88.9L64.5 92ZM62.5 83.2L63.2 83L67.5 81.9V79.5L69.7 83.3L68.2 85.9L67.5 87.1V84.7L62.5 83.2ZM67.5 103L69.3 99.9L73.1 100.9L75.4 101.5L80.3 106.4L78 107L73.6 108.2L70.4 107.3L67.5 106.5V103ZM77.5 102.1L80 102.8L82.9 103.6L83.4 105.6L81.4 106.1L77.5 102.1ZM82.4 97.2L86.3 101.1L85.8 103.1L83.8 102.6L82.4 97.2ZM81.8 95L81.6 94.3L80.2 89L81.4 88.3L83.3 87.2H86.9L88.5 93.2L88.3 93.8L86.7 99.8L81.8 95ZM87.7 86H85.3L87 85L89 83.8H89.1L92.8 86H90.4L89 91L87.7 86ZM90.2 83.2L95.2 80.3H100.9L99.2 83.2L100.9 86.1H95.2L90.2 83.2ZM94.8 79.2H91.2L89.6 73.1L91.4 66.4L96.3 71.3L97.9 77.4L94.8 79.2ZM91.8 65.2L92.3 63.2L94.3 63.7L95.7 69.1L91.8 65.2ZM85.8 51.9L83.8 51.4L82.4 46L86.3 49.9L85.8 51.9ZM82.6 51.1L75.9 49.3L71.5 44.9L73.3 41.8L76.4 40L80.8 44.4L82.6 51.1ZM66.3 51.5L63.4 56.4L61.8 53.5H58.5L59.2 52.2L61.3 48.5L66.2 45.7V50.2V51.5H66.3ZM66.3 44.4L62.5 46.6L63.7 44.5L60 40.9L65 42.2L66.2 40.1V44.4H66.3ZM62.3 44.7L60.5 47.8L57.4 49.6L57 49.1L53.1 45.1L51.3 38.4L58 40.2L62.3 44.7ZM51.4 43.5L47.5 39.6L48 37.6L50 38.1L51.4 43.5ZM52 45.7L53.6 51.8L50.5 53.6H47L45.4 47.6L47.2 40.9L52 45.7ZM44.7 45.3L43.3 39.9L44.7 38.5L46.1 39.9L44.7 45.3ZM44.1 47.5L42.5 53.6H39L35.9 51.8L37.5 45.7L42.4 40.8L44.1 47.5ZM38.1 43.5L39.5 38.2L41.5 37.7L42 39.7L38.1 43.5ZM38.6 37.2L33.2 38.6L37.1 34.7L39.1 35.2L38.6 37.2ZM38.2 38.5L36.4 45.2L32 49.6L28.9 47.8L27.1 44.7L31.5 40.3L38.2 38.5ZM32.2 51L35.8 47.3L34.5 52.3L36.6 53.5H32.2L31.5 52.3L30 49.7L32.2 51ZM32.3 61.6H35.2H36.7L34.6 62.8L35.2 65L36 67.8L34.7 66.5L32.7 64.5L32.4 64.2L30.3 65.4L32.3 61.6ZM23.1 77.4L24.9 74.3L27.3 74.9L30.9 75.9L32.4 77.4L35.7 80.8L32.1 81.8L29.1 82.6L27.8 82.3L23 81V77.4H23.1ZM28.3 105.9H31.6L33.3 108.8L31.7 111.7H28.4L26.7 108.9L28.3 105.9ZM32.3 112.8H36.7L34.6 114L35.9 119L32.3 115.4L30.2 116.6L32.3 112.8ZM38.6 129.1L39.1 131.1L37.4 131.6L37.2 131.7L33.3 127.8L38.6 129.1ZM38.2 134.3L36.8 135.7L31.4 134.3L36.7 132.9L38.2 134.3ZM37.5 120.6L37.2 119.6L35.8 114.5L38.9 112.7H42.5L44.1 118.7L43.9 119.5L42.4 124.9L42.3 125.4L42.1 125.2L37.5 120.6ZM44 123.7L44.7 121L45 122.2L46.1 126.3L44.7 127.7L43.3 126.3L44 123.7ZM45.8 120.4L45.6 119.7L45.4 118.9L47 112.8H50.6L53.7 114.6L52.3 119.8L52.1 120.7L51.4 121.4L47.2 125.6L45.8 120.4ZM47.5 126.8L50.7 123.6L51.5 122.8L50.1 128.2L48.1 128.7L47.9 127.9L47.5 126.8ZM50.9 129.1L56.2 127.7L52.3 131.6L50.3 131.1L50.9 129.1ZM57.3 115.3L56.4 116.2L53.6 119L54.9 114L52.8 112.8H55H57.2L59.4 116.6L57.3 115.3ZM61.8 104.7H58.5L61.4 99.8L63.5 98.6L66.3 97V102.7L63.4 107.6L63.1 107.2L61.8 104.7ZM66.3 105V107.4L69.7 108.3L71.2 108.7L69.1 109.3L66.2 110.1V112.5L64 108.7L66.3 105ZM67.5 111L68.4 110.8L73.6 109.4L75.7 110L80.2 111.2L75.3 116.1L69.2 117.7L68.2 116L67.4 114.6V111H67.5ZM75.9 117L82.5 115.2L81.9 117.6L81.2 120.1L80.7 121.8L77.2 125.3L76.3 126.3L73.2 124.5L71.4 121.4L73.2 119.6L75.9 117ZM93.3 102.8L92.3 103.1L92.1 102.5L91.7 101.1L95.6 97.2L94.2 102.6L93.3 102.8ZM91.4 99.9L89.6 93.3L91.2 87.2H94.8L97.9 89L96.3 95L91.4 99.9ZM100.5 83.2L102.1 80.3H105.4L107.1 83.2L105.4 86.1H102.1L100.5 83.2ZM101.5 79.1H97.1L99.2 77.9L97.9 72.9L101.6 76.6L103.7 75.4L101.5 79.1ZM101.8 75.1L97.4 70.7L95.6 64L102.3 65.8L106.7 70.2L104.9 73.3L101.8 75.1ZM95.2 62.8L94.7 60.8L96.7 60.3L100.6 64.2L95.2 62.8ZM95.5 57.6L96.9 56.2L102.3 57.6L97 59L95.5 57.6ZM97.9 55.2L102.8 50.3L108.9 48.7L110.7 51.8V55.4L104.7 57L97.9 55.2ZM109.4 47.4L104.4 48.7L108.1 45.1L106.9 43L110.7 45.2V49.6L109.4 47.4ZM110.6 43.8L105.7 41L102.8 36.1H106.1L107.8 33.3L110.6 38.2V43.8ZM106.1 28H102.8L105.7 23.1L110.6 20.2V25.9L107.8 30.9L106.1 28ZM105.4 29.1L107.1 32L105.5 34.9H102.2L100.5 32L102.1 29.1H105.4ZM103.7 39.8L101.6 38.6L97.9 42.2L99.2 37.2L97.1 36H101.4L103.7 39.8ZM97.9 37.8L96.3 43.8L91.4 48.7L89.6 42L91.2 35.9H94.8L97.9 37.8ZM90.4 34.8L89.1 39.8L87.8 34.8H85.4L89.2 32.6L93 34.8H90.4ZM86.8 36L88.4 42.1L86.6 48.7L81.7 43.8L80.1 37.7L83.2 35.9H86.8V36ZM78.8 37.2L80.1 42.2L76.5 38.6L74.4 39.8L76.6 36H81L78.8 37.2ZM75.9 34.8H72.6L71 32L72.6 29.1H75.9L77.6 32L75.9 34.8ZM72 36H75.3L72.4 40.9L67.5 43.7V38L70.4 33.1L72 36ZM66.3 37.8L65.4 39.4L64.5 40.9L60 39.6L58.5 39.2L53.6 34.3L60.3 32.5L66.4 34.1V37.8H66.3ZM53.6 29.6L58.5 24.7L64.5 23.1L66.3 26.2V29.8L60.3 31.4L53.6 29.6ZM52.3 29.3L50.3 28.8L50.8 26.8L56.2 25.4L52.3 29.3ZM49.9 25.8L47.9 26.3L47.4 24.3L51.3 20.4L49.9 25.8ZM49.6 27.1L49 29.6L51.4 30.2L49.6 32L51.4 33.8L49 34.4L49.6 36.8L47.2 36.1L46.6 38.6L44.8 36.8L43 38.6L42.3 36.2L39.9 36.9L40.6 34.5L38.2 33.8L40 32L38.2 30.2L40.6 29.5L39.9 27.1L42.3 27.8L43 25.4L44.8 27.2L46.6 25.4L47.2 27.8L49.6 27.1ZM41.5 26.4L39.5 25.9L38.1 20.5L42 24.4L41.5 26.4ZM39.1 28.7L37.1 29.2L33.2 25.3L38.6 26.7L39.1 28.7ZM38.2 32L36.8 33.4L31.4 32L36.7 30.6L38.2 32ZM35.9 34.4L31 39.2L24.9 40.8L23.1 37.7V34.1L29.2 32.5L35.9 34.4ZM24.4 42.2L29.4 40.9L25.8 44.6L27 46.7L23.2 44.5V40.1L24.4 42.2ZM20.1 82.6L22 79.4V81.8L25 82.6H25.1L27 83.1L22 84.4V86.9L19.8 83.1L20.1 82.6ZM23.2 107.4V105L24.9 108L25.4 108.8L23.4 112.3L23.2 112.6V110.1L18.2 108.8L23.2 107.4ZM23.2 114.9L26.1 110L27.7 112.8H31L28.2 117.7L24.9 119.6L23.3 120.5V114.9H23.2ZM23.1 128.6L24.9 125.5L28.4 126.4L30.9 127.1L35.8 132L29.2 133.8L23.1 132.2V128.6ZM35.8 136.7L31 141.6L24.9 143.2L23.1 140.1V136.5L29.2 134.9L35.8 136.7ZM37.1 137.1L39.1 137.6L38.6 139.6L33.2 141L37.1 137.1ZM39.5 140.5L41.5 140L42 142L38.1 145.9L39.5 140.5ZM48 140L50 140.5L51.4 145.9L47.5 142L48 140ZM50.4 137.6L52.4 137.1L56.3 141L51 139.6L50.4 137.6ZM51.2 134.3L52.6 132.9L58 134.3L52.6 135.7L51.2 134.3ZM53.6 132L58.5 127.1L64.5 125.5L66.3 128.6V132.2L60.3 133.8L53.6 132ZM65.1 124.1L60.1 125.4L63.8 121.8L62.6 119.7L66.4 121.9V126.3L65.1 124.1ZM66.3 120.5L63 118.6L61.4 117.7L60 115.3L58.5 112.7H61.1H61.8L63.5 109.8L66 114.2L66.3 114.7V118.5V120.5ZM67.5 116.8L68.7 118.9L73.7 117.6L71.6 119.7L70 121.3L71.2 123.4L67.4 121.2V116.8H67.5ZM72.4 125.4L75.3 130.3H72L70.4 133.2L67.5 128.3V122.6L72.4 125.4ZM72 138.4H75.3L72.4 143.3L67.5 146.1V140.4L70.4 135.5L72 138.4ZM71.2 145.3L70 147.4L73.6 151L68.6 149.7L67.4 151.8V147.4L71.2 145.3ZM71.5 147.2L73.3 144.1L76.4 142.3L80.8 146.7L82.6 153.4L75.9 151.6L71.5 147.2ZM77.2 137.2L78.8 134.4L77.1 131.5H82.8L87.8 134.4L82.9 137.3H77.2V137.2ZM89 135L92.8 137.2H90.4L89.1 142.2L87.8 137.2H85.4L89 135ZM90.2 134.4L95.2 131.5H100.9L99.2 134.4L100.9 137.2H95.2L90.2 134.4ZM100.5 134.4L102.1 131.5H105.4L107.1 134.4L105.4 137.3H102.1L100.5 134.4ZM101.5 130.3H97.1L99.2 129.1L98.5 126.4L97.9 124.1L99.2 125.4L101.6 127.8L103.7 126.6L101.5 130.3ZM101.8 126.3L97.4 121.9L95.6 115.2L102.3 117L106.7 121.4L104.9 124.5L101.8 126.3ZM95.2 114L94.7 112L96.7 111.5L100.6 115.4L95.2 114ZM96.6 106L94.6 105.5L95.1 103.5H95.2L100.5 102.1L97.8 104.8L96.6 106ZM95.5 102.2L97.3 95.6L101.7 91.2L104.8 93L106.6 96.1L102.2 100.5L95.5 102.2ZM105.7 92.1L102.8 87.2H106.1L107.8 84.4L110.6 89.3V95L105.7 92.1ZM106.1 79.1H102.8L105.7 74.2L110.6 71.4V77.1L107.8 82.1L106.1 79.1ZM106.8 72.2L108 70.1L104.3 66.4L109.3 67.7L110.5 65.6V70L106.8 72.2ZM108.8 66.4L102.7 64.8L97.8 59.9L104.5 58.1L110.6 59.7V63.3L108.8 66.4ZM106.8 57.6L111.8 56.3V53.9L114 57.7L111.8 61.5V59.1L106.8 57.6ZM111.8 69.4V63.7L114.7 58.8L116.3 61.7H119.6L116.7 66.6L111.8 69.4ZM111.8 51.5V45.8L116.7 48.6L119.6 53.5H116.3L114.7 56.4L111.8 51.5ZM113.5 40.9L111.7 37.8V34.2L117.7 32.6L124.4 34.4L119.5 39.3L113.5 40.9ZM110.6 33.3V35.7L108.4 31.9L110.6 28.1V30.5L115.6 31.8L110.6 33.3ZM110.6 18.8L106.8 21L108 18.9L104.3 15.2L109.3 16.5L110.5 14.4V18.8H110.6ZM106.6 19.1L104.8 22.2L101.7 24L97.3 19.6L95.5 12.9L102.2 14.7L106.6 19.1ZM100.8 29.1L99.2 32L100.9 34.9H95.2L90.2 32L95.2 29.1H100.8ZM89 31.3L85.2 29.1H87.6L88.9 24.1L90.2 29.1H92.6L89 31.3ZM87.9 32L83 34.8H77.3L79 31.9L77.4 29H83L87.9 32ZM76.3 24L73.2 22.2L71.4 19.1L75.8 14.7L82.4 12.9L80.6 19.6L76.3 24ZM70 18.9L71.2 21L67.4 18.8V14.4L68.6 16.5L73.6 15.2L70 18.9ZM72.4 23L75.3 27.9H72L70.4 30.8L67.5 25.9V20.2L72.4 23ZM67.5 30.7V28.3L69.7 32.1L67.5 35.9V33.4L62.5 32.1L67.5 30.7ZM57.9 23.7L51.2 25.5L53 18.9L57.4 14.5L60.5 16.3L62.3 19.4L57.9 23.7ZM57.3 13L53.6 16.6L54.9 11.6L52.8 10.4H57.2L59.4 14.2L57.3 13ZM53.6 12.2L52 18.2L47.1 23.1L45.3 16.5L46.9 10.5H50.5L53.6 12.2ZM46.2 24L44.8 25.4L43.4 24L44.8 18.6L46.2 24ZM42.3 23.1L37.4 18.2L35.8 12.2L38.9 10.4H42.5L44.1 16.4L42.3 23.1ZM34.5 11.6L35.8 16.6L32.2 13L30.1 14.2L32.3 10.4H36.7L34.5 11.6ZM32 14.4L36.4 18.8L38.2 25.5L31.5 23.7L27.1 19.3L28.9 16.2L32 14.4ZM24.9 23.1L30.9 24.7L35.8 29.6L29.2 31.4L23.1 29.8V26.2L24.9 23.1ZM27 32L22 33.3V35.7L19.8 32L22 28.2V30.6L27 32ZM22 18.9L18.2 21L19.4 18.9L15.7 15.2L20.7 16.5L21.9 14.4V18.9H22ZM18 19.1L16.2 22.2L13.1 24L8.7 19.6L6.9 12.9L13.6 14.7L18 19.1ZM13.5 29.1H16.8L18.5 32L16.9 34.9H13.6L11.9 32L13.5 29.1ZM13.1 40L16.2 41.8L18 44.9L13.6 49.3L6.9 51.1L8.7 44.4L13.1 40ZM19 57.4L19.6 57.2L23.1 56.3V53.9L25.3 57.7L24.1 59.7L23.3 61.2L23.2 61.4V59L19.7 58L18.2 57.6L18.9 57.4H19ZM19.7 59.2L21.2 59.6H21.4L22 59.8V61.3V63.4L20.2 66.5L18 65.8L14.2 64.8L9.3 60L10 59.8L16 58.2L19.7 59.2ZM16.7 69L18 70.3L16.2 73.4L15.4 73.9L13.1 75.2L10 72L8.7 70.7L6.9 64L10 64.8L13.6 65.8L16.7 69ZM8.7 95.6L9 95.3L13.1 91.2L16.2 93L18 96L13.6 100.4L6.9 102.2L8.7 95.6ZM14.2 101.5L20.2 99.9L22 103V106.6L16 108.2L9.3 106.4L14.2 101.5ZM22 111V114.6L20.2 117.7L14.2 116.1L9.3 111.2L16 109.4L22 111ZM17.5 130.3H14.2L17.1 125.4L22 122.5V128.2L19.1 133.1L17.5 130.3ZM22 140.4V146.1L17.1 143.3L14.2 138.4H17.5L19.1 135.6L22 140.4ZM18.2 123.4L19.4 121.3L15.7 117.7L20.7 119L21.9 116.9V121.3L18.2 123.4ZM18 121.5L16.2 124.6L13.1 126.4L8.7 122L6.9 115.3L13.6 117.1L18 121.5ZM13.5 131.5H16.8L18.5 134.4L16.9 137.3H13.6L11.9 134.4L13.5 131.5ZM13.1 142.4L16.2 144.2L18 147.3L13.6 151.7L6.9 153.5L8.7 146.9L13.1 142.4ZM14.2 152.7L20.2 151.1L22 154.2V157.8L16 159.4L9.3 157.6L14.2 152.7ZM20.8 149.7L15.8 151L19.5 147.4L18.3 145.3L22.1 147.5V151.9L20.8 149.7ZM22 135.7V138.1L19.8 134.3L22 130.5V132.9L27 134.2L22 135.7ZM31.6 142.6L38.2 140.8L36.4 147.4L32 151.8L28.9 150L27.1 146.9L31.6 142.6ZM32.2 153.4L35.8 149.8L34.5 154.8L36.6 156H32.2L30 152.2L32.2 153.4ZM35.9 154.2L37.5 148.1L42.4 143.2L44.2 149.8L42.6 155.9H39L35.9 154.2ZM43.4 157.1L44.7 152.1L46 157.1H48.4L44.6 159.3L40.8 157.1H43.4ZM47 155.9L45.4 149.9L47.2 143.2L52.1 148.1L53.7 154.2L50.6 156H47V155.9ZM55 154.7L53.7 149.7L57.4 153.3L59.5 152.1L57.3 155.9H52.9L55 154.7ZM57.5 151.9L53.1 147.5L51.3 140.8L57.9 142.6L62.3 147L60.5 150.1L57.5 151.9ZM64.5 143.2L58.4 141.6L53.5 136.7L60.2 134.9L66.3 136.5V140L64.5 143.2ZM62.5 134.3L67.5 133V130.6L69.7 134.4L67.5 138.2V135.8L62.5 134.3ZM67.5 154.2L69.3 151.1L75.3 152.7L80.2 157.6L73.6 159.4L67.5 157.8V154.2ZM81.1 158.5L82.5 159.9L81.1 161.3L75.7 159.9L81.1 158.5ZM77.5 153.3L82.9 154.7L83.4 156.7L81.4 157.2L77.5 153.3ZM82.4 148.4L86.3 152.3L85.8 154.3L83.8 153.8L82.4 148.4ZM81.8 146.2L80.2 140.1L83.3 138.3H86.9L88.5 144.3L86.7 150.9L81.8 146.2ZM89 146.6L90.4 152L89 153.4L87.6 152L89 146.6ZM89.6 144.4L91.2 138.3H94.8L97.9 140.1L96.3 146.1L91.4 151L89.6 144.4ZM95.7 148.4L94.3 153.8L92.3 154.3L91.8 152.3L95.7 148.4ZM95.2 154.7L100.6 153.3L96.7 157.2L94.7 156.7L95.2 154.7ZM95.5 153.4L97.3 146.8L101.7 142.4L104.8 144.2L106.6 147.3L102.2 151.7L95.5 153.4ZM108.1 147.4L106.9 145.3L110.7 147.5V151.9L109.5 149.8L104.5 151.1L108.1 147.4ZM110.6 146.1L105.7 143.3L102.8 138.4H106.1L107.8 135.6L110.6 140.5V146.1ZM106.1 130.3H102.8L105.7 125.4L110.6 122.6V128.3L107.8 133.2L106.1 130.3ZM106.8 123.4L108 121.3L104.3 117.6L106.2 118.1L109.3 118.9L110.5 116.8V121.2L106.8 123.4ZM108.8 117.6L105.9 116.8L102.7 115.9L97.8 111L102.7 109.7L104.4 109.2L110.5 110.8V114.3L108.8 117.6ZM100.7 107.1L97.9 106.4L98.8 105.5L102.8 101.5L108.9 99.9L110.7 103V106.6L104.7 108.2L100.7 107.1ZM109.4 98.5L104.4 99.8L108.1 96.2L106.9 94.1L110.7 96.3V100.7L109.4 98.5ZM110.6 84.5V86.9L108.4 83.1L110.6 79.3V81.7L115.6 83L110.6 84.5ZM111.8 91.3L113 93.4L118 92.1L114.4 95.8L115.6 97.9L111.8 95.7V91.3ZM111.8 97L116.7 99.8L119.6 104.7H116.3L114.7 107.6L111.8 102.7V97ZM116.9 105.9H120.2L121.9 108.8L120.3 111.7H117L115.3 108.8L116.9 105.9ZM118.7 101L120.8 102.2L124.4 98.5L123.1 103.5L125.2 104.7H120.8L118.7 101ZM130.1 88.8L130.6 90.8L126.7 94.7L128.1 89.3L130.1 88.8ZM127.7 86.4L127.2 88.4L121.8 89.8L125.7 85.9L127.7 86.4ZM126.8 83.2L125.4 84.6L120 83.2L125.3 81.8L126.8 83.2ZM125.8 80.4L121.9 76.5L127.3 77.9L127.8 79.9L125.8 80.4ZM130.6 75.6L130.1 77.6L128.1 77.1L126.7 71.7L130.6 75.6ZM125.1 70L126.9 76.7L120.3 74.9L115.9 70.5L117.7 67.4L120.8 65.6L125.1 70ZM125.2 61.6L123.1 62.8L124.4 67.8L120.8 64.2L118.7 65.4L120.9 61.6H125.2ZM121.9 57.6L120.3 60.5H117L115.3 57.6L116.9 54.7H120.2L121.9 57.6ZM125.2 53.6H120.8L118.6 49.8L120.7 51L124.3 47.3L123 52.3L125.2 53.6ZM125.1 45.1L120.7 49.5L117.6 47.7L115.8 44.6L120.2 40.2L126.8 38.4L125.1 45.1ZM130.1 37.6L130.6 39.6L126.7 43.5L128.1 38.2L130.1 37.6ZM127.7 35.2L127.2 37.2L121.8 38.6L125.7 34.7L127.7 35.2ZM126.8 32L125.4 33.4L120 32L125.3 30.6L126.8 32ZM119.6 24.7L124.5 29.6L117.9 31.4L111.9 29.8V26.2L113.7 23.1L119.6 24.7ZM115.5 17.3L114.3 19.4L117.9 23L112.9 21.7L111.7 23.8V19.4L115.5 17.3ZM111.8 5.1V2.6L114 6.4L111.8 10.2V7.7L106.8 6.4L111.8 5.1ZM110.6 8.6V12.2L108.8 15.3L102.7 13.7L97.8 8.8L104.5 7L110.6 8.6ZM95.5 6.4L97 5L102.4 6.4L97 7.8L95.5 6.4ZM96.6 9.1L100.5 13L95.2 11.6L94.7 9.6L96.6 9.1ZM92.3 12L94.3 12.5L95.7 17.9L91.8 14L92.3 12ZM91.4 15.3L96.3 20.2L97.9 26.2L94.8 28H91.2L89.6 21.9L91.4 15.3ZM89 12.9L90.4 14.3L89 19.7L87.6 14.4L89 12.9ZM86.7 15.3L88.5 21.9L86.8 28H83.2L80.1 26.2L81.7 20.2L86.7 15.3ZM85.8 12L86.3 14L82.4 17.9L83.8 12.5L85.8 12ZM83.4 9.6L82.9 11.6L77.5 13L81.4 9.1L83.4 9.6ZM81.1 5L82.5 6.4L81.1 7.8L75.7 6.4L81.1 5ZM80.2 8.8L75.3 13.7L69.2 15.3L67.4 12.2V8.6L73.5 7L80.2 8.8ZM66.3 2.6V5.1L71.3 6.4L66.3 7.7V10.2L64.1 6.4L66.3 2.6ZM66.3 12.5V18.2L61.4 15.4L58.5 10.5H61.8L63.5 7.6L66.3 12.5ZM57.8 3.5H61.1L62.8 6.3L61.1 9.2H57.8L56.1 6.3L57.8 3.5ZM50.8 3.5H56.5L54.8 6.4L56.5 9.2H50.8L45.8 6.4L50.8 3.5ZM48.5 9.2H46.1L44.8 14.2L43.5 9.2H41L44.8 7L48.5 9.2ZM38.6 3.5L43.6 6.3L38.7 9.2H33L34.7 6.3L33.1 3.4H38.6V3.5ZM28.3 3.5H31.6L33.3 6.3L31.7 9.2H28.4L26.7 6.3L28.3 3.5ZM27.7 10.4H31L28.2 15.3L23.3 18.1V12.4L26 7.5L27.7 10.4ZM23.2 5.1V2.6L25.4 6.4L23.2 10.2V7.7L18.2 6.4L23.2 5.1ZM22 8.6V12.2L20.2 15.3L14.2 13.7L9.3 8.8L16 7L22 8.6ZM6.9 6.4L8.4 5L13.7 6.4L8.4 7.8L6.9 6.4ZM8 9.1L11.9 13L6.6 11.6L6 9.6L8 9.1ZM3.7 12L5.7 12.5L7.1 17.9L3.1 14L3.7 12ZM2.6 28L1 21.9L2.8 15.3L7.7 20.2L9.3 26.3L6.2 28H2.6ZM1.6 32L6.6 29.1H12.3L10.6 32L12.2 34.9H6.5L1.6 32ZM2.8 48.7L1 42L2.6 36H6.2L9.3 37.8L7.7 43.8L2.8 48.7ZM3.7 51.9L3.2 49.9L7.1 46L5.7 51.4L3.7 51.9ZM6 54.3L6.5 52.3L11.8 50.9L10.5 52.3L10 52.9L8.1 54.9L6 54.3ZM6.9 57.6L8.3 56.2L10 56.6L12.9 57.4H13L13.7 57.6L10 58.6L8.4 59L6.9 57.6ZM8 60.3L11.9 64.2L10 63.7L6.6 62.8L6.1 60.8L8 60.3ZM3.7 63.2L5.7 63.7L7.1 69.1L3.2 65.2L3.7 63.2ZM2.6 79.2L1 73.1L2.8 66.5L7.7 71.4L9.3 77.5L6.2 79.3H2.6V79.2ZM1.6 83.2L6.6 80.3H10.1H12.3L11 82.6L10.7 83.1L12.3 85.9H6.5L1.6 83.2ZM2.8 99.9L1 93.2L2.6 87.1H6.2L9.3 89L8.7 91.2L7.9 94.1L7.7 95.1L2.8 99.9ZM3.7 103.1L3.2 101.1L7.1 97.2L5.7 102.6L3.7 103.1ZM6 105.5L6.5 103.5L11.8 102.1L8 106L6 105.5ZM6.9 108.8L8.3 107.4L13.6 108.8L8.3 110.2L6.9 108.8ZM8 111.5L11.9 115.4L6.6 114L6 112L8 111.5ZM3.7 114.4L5.7 114.9L7.1 120.3L3.2 116.4L3.7 114.4ZM2.6 130.3L1 124.3L2.8 117.6L7.7 122.5L9.3 128.5L6.2 130.3H2.6ZM1.6 134.4L6.6 131.5H12.3L10.7 134.4L12.3 137.3H6.6L1.6 134.4ZM2.8 151.1L1 144.4L2.6 138.3H6.2L9.3 140.1L7.7 146.1L2.8 151.1ZM3.7 154.3L3.2 152.3L7.1 148.4L5.7 153.8L3.7 154.3ZM6 156.7L6.5 154.7L11.8 153.3L8 157.2L6 156.7ZM6.9 159.9L8.3 158.5L13.6 159.9L8.3 161.3L6.9 159.9ZM6.6 165.1L6.1 163.1L8.1 162.6L12 166.5L6.6 165.1ZM22 165.7L20.2 168.8L14.2 167.2L9.3 162.3L16 160.5L22.1 162.1L22 165.7ZM23.2 163.7V161.3L18.2 160L23.2 158.7V156.3L25.4 160.1L23.2 163.7ZM23.2 153.9V148.2L28.1 151L31 155.9H27.7L26.1 158.8L23.2 153.9ZM28.3 162.8L26.6 160L28.2 157.1H31.5L33.2 160L31.6 162.9L28.3 162.8ZM34.5 165.2L35.8 170.2L32.2 166.6L30.1 167.8L32.3 164H36.7L34.5 165.2ZM38.6 162.8H32.9L34.6 159.9L33 157.1H38.7L43.6 159.9L38.6 162.8ZM46.1 162.8L44.8 167.8L43.5 162.8H41.1L44.9 160.6L48.7 162.8H46.1ZM45.9 159.9L50.9 157H56.6L54.9 159.8L56.6 162.7H50.9L45.9 159.9ZM59.4 167.7L57.3 166.5L53.6 170.1L54.9 165.1L52.8 163.9H57.2L59.4 167.7ZM61.1 162.8H57.8L56.1 159.9L57.7 157H61L62.7 159.9L61.1 162.8ZM61.8 155.9H58.5L61.4 151L66.3 148.2V153.9L63.4 158.8L61.8 155.9ZM66.3 161.3V163.7L64.1 159.9L66.3 156.1V158.5L71.3 159.8L66.3 161.3ZM75.3 167.2L69.2 168.8L67.4 165.7V162.1L73.5 160.5L80.1 162.3L75.3 167.2ZM82.9 165.1L77.5 166.5L81.4 162.6L83.4 163.1L82.9 165.1ZM93.9 164.8L91.5 164.2L90.9 166.7L89.1 164.9L87.3 166.7L86.6 164.3L84.2 165L84.9 162.5L82.5 161.9L84.3 160.1L82.5 158.3L84.9 157.6L84.2 155.2L86.6 155.9L87.2 153.5L89 155.3L90.8 153.5L91.4 155.9L93.8 155.2L93.2 157.7L95.6 158.4L93.8 160.2L95.6 162L93.2 162.6L93.9 164.8ZM100.5 166.6L95.2 165.2L94.7 163.2L96.7 162.7L100.5 166.6ZM97 161.4L95.6 160L97 158.6L102.4 160L97 161.4ZM97.9 157.6L102.8 152.7L108.8 151.1L110.6 154.2V157.8L104.6 159.4L97.9 157.6ZM114 159.9L111.8 163.7V161.3L106.8 160L111.8 158.7V156.3L114 159.9ZM113 144.6L118 143.3L114.4 146.9L115.6 149L111.8 146.8V142.4L113 144.6ZM115.6 134.4L110.6 135.7V138.1L108.4 134.3L110.6 130.5V132.9L115.6 134.4ZM106.8 108.7L111.8 107.4V105L114 108.8L111.8 112.6V110.2L106.8 108.7ZM118 125.5L113 124.2L111.8 126.3V121.9L115.6 119.7L114.4 121.8L118 125.5ZM116.7 117.7L111.8 120.5V114.8L114.7 109.9L116.3 112.8H119.6L116.7 117.7ZM123.1 114L124.4 119L120.8 115.4L118.7 116.6L120.9 112.8H125.3L123.1 114ZM127.3 111.6H121.6L123.2 108.7L121.6 105.9H127.3L132.3 108.7L127.3 111.6ZM134.7 105.9H137.1L133.3 108.1L129.5 105.9H132L133.3 100.9L134.7 105.9ZM133.3 96.5L131.9 91.1L133.3 89.7L134.7 91.1L133.3 96.5ZM24.2 59.6L23.3 61.1C23.5 61.1 23.8 61.2 24.1 61.2C24.2 61.2 24.4 61.3 24.5 61.3L25.5 59.6H24.2ZM32.2 82.7V83L33.3 82.7H32.2ZM32.5 64.5C32.4 64.6 32.3 64.7 32.3 64.8C32.2 65 32 65.3 31.9 65.5C31.9 65.5 31.9 65.6 31.8 65.6L31.9 65.5L34 67.6C34.1 67.2 34.2 66.8 34.4 66.4L32.5 64.5ZM21.2 59.6H21.4L22 59.8V61.3C22.1 61.3 22.2 61.2 22.3 61.2C22.6 61.1 22.8 61.1 23.1 61.1V59.6H21.2Z" fill="#FCFCFC"/>
<path id="Vector_6" d="M90.6 0H88.5H87.5L89 1.5L90.6 0Z" fill="#FCFCFC"/>
<path id="Vector_7" d="M137.8 79.9L137.6 80.8L138 80.9C137.9 80.5 137.9 80.2 137.8 79.9Z" fill="#FCFCFC"/>
</g>
<g id="Group_3">
<path id="Vector_8" d="M27.5002 52.5C27.5002 54.1 27.5002 55.7 27.5002 57.4C27.4002 59.6 27.4002 59.6 25.2002 59.6H21.2002C19.7002 59.6 19.7002 59.6 19.7002 58.1C19.7002 57.8 19.7002 57.6 19.7002 57.3C19.7002 55.9 19.7002 54.6 19.7002 53.2C19.7002 52.6 19.9002 52.4 20.5002 52.4C22.8002 52.5 25.2002 52.5 27.5002 52.5Z" fill="#FEBB0D"/>
<g id="Group_4">
<path id="Vector_9" d="M14.2 82.7C14.6 80.1 14.8 77.4 15.3 74.8C15.9 71.2 17 67.8 18.7 64.6C19.2 63.8 19.7 63.1 20.4 62.4C21.7 60.9 24 60.7 25.5 62.1C25.6 62.2 25.7 62.3 25.9 62.4C27.5 64.1 28.6 66.1 29.3 68.3C29.5 69 29.8 69.7 30.1 70.5C30.6 68.8 31.3 67.2 32 65.6C32.6 64.4 33.4 63.3 34.3 62.4C35 61.6 36 61.2 37.1 61.2V63.2C35.7 63.5 35.3 64.7 34.9 65.8C32.9 71.3 32.5 77 32.2 82.8C32.2 83.7 32.2 84.6 32.1 85.4C32.1 87.2 32 87.2 30.3 87.2C29.8 87.2 29.3 87.2 28.8 87.2C28.3 87.2 28 87 28 86.4C28 85.2 28 84 28 82.8C28 81.8 28 80.9 27.8 79.9C27.6 76 27.1 72.2 26.2 68.4C25.9 66.8 25.3 65.4 24.4 64C23.6 62.9 22.7 63 21.9 64.1C21.4 64.9 20.9 65.8 20.7 66.7C19.2 71.9 18.5 77.3 18.4 82.8C18.2 84.9 18.2 87.1 18.2 89.2C16.9 89.3 15.5 89.3 14.2 89.2C14.1 87 14.1 84.8 14.2 82.7Z" fill="#FDBA0F"/>
<g id="Group_5">
<path id="Vector_10" d="M57.9001 119.6C59.6001 116.5 61.0001 113.2 62.3001 109.9C63.4001 106.8 64.4001 103.6 64.0001 100.2C63.5001 97.3 61.5001 95 58.7001 94.1C58.5001 94 58.2001 94.1 58.0001 94.3C55.3001 98 52.8001 101.8 53.1001 106.7C53.3001 109.6 54.1001 112.2 56.4001 114.2C57.1001 114.7 56.9001 115.2 56.6001 115.8C56.1001 116.8 55.5001 117.8 55.1001 118.9C54.9001 119.5 54.3001 119.8 53.8001 119.7C51.7001 119.7 51.7001 119.7 51.3001 121.6C50.0001 127.8 44.5001 131.9 37.8001 131.6C31.8001 131.1 27.0001 126.5 26.2001 120.6C26.1001 119.9 25.9001 119.5 25.1001 119.6C24.8001 119.6 24.4001 119.6 24.1001 119.6C22.3001 119.6 22.3001 119.6 22.5001 117.8C23.1001 108.3 27.8001 101.4 35.8001 96.6L36.6001 96.1C36.0001 96.1 35.7001 96 35.4001 96H11.6001C9.6001 96.2 7.8001 94.7 7.5001 92.7C7.2001 91.1 7.2001 91.1 8.8001 91.1C18.8001 91.1 28.8001 91.1 38.8001 91.1C39.8001 91.1 40.0001 90.9 40.0001 89.9C39.6001 83 40.5001 76 42.7001 69.5C44.3001 64.4 47.4001 59.9 51.5001 56.6C54.6001 54.2 57.8001 54.2 60.9001 56.7C62.7001 58.2 64.2001 60.1 65.3001 62.1C68.6001 67.6 73.1001 71.7 79.3001 73.7C80.5001 74.1 81.7001 74.3 83.0001 74.4C83.6001 74.4 83.8001 74.7 83.7001 75.3C83.6001 75.9 83.6001 76.5 83.5001 77.2C85.0001 76.8 86.5001 76.6 88.0001 76.5C88.8001 76.4 89.1001 76.6 89.1001 77.5C89.0001 79.8 89.1001 82.2 89.1001 84.5C89.1001 85.1 89.0001 85.4 88.3001 85.3C87.1001 85.2 85.9001 85.1 84.6001 84.9C86.4001 88.5 87.8001 92.2 88.9001 96.1C89.4001 97.9 89.7001 99.7 89.9001 101.5C90.0001 102.1 90.1001 102.3 90.7001 102.3C99.5001 103.7 104 109.4 106.2 117.5C106.8 119.7 106.7 119.7 104.4 119.7C103.6 119.7 102.8 119.7 102.1 119.7C101.2 119.6 101 120 100.9 120.8C99.9001 127.7 93.5001 132.6 86.5001 131.6C81.0001 130.8 76.6001 126.5 75.7001 121C75.6001 120 75.3001 119.6 74.1001 119.7C71.3001 119.8 68.5001 119.7 65.4001 119.7C67.2001 117.6 68.2001 115.3 70.6001 113.9C77.9001 109.6 81.1001 102.9 81.5001 94.6C81.6001 90.8 81.2001 87.1 80.4001 83.4C80.3001 82.8 80.0001 82.6 79.4001 82.6C78.3001 82.7 77.1001 82.7 76.0001 82.7C74.9001 82.6 74.0001 81.7 74.0001 80.6C74.0001 80.1 74.4001 80.2 74.7001 80.2C76.1001 80.2 77.5001 80.2 78.9001 80.2C79.3001 80.3 79.8001 80.1 80.0001 79.7C80.6001 79 81.3001 78.4 82.1001 78L82.0001 77.7C80.6001 77.7 79.2001 77.8 77.8001 77.7C73.5001 77.5 69.4001 76.7 65.7001 74.2C63.9001 72.9 62.3001 71.3 61.0001 69.4C58.6001 72.7 56.6001 76.1 54.8001 79.8C54.5001 80.5 55.0001 80.5 55.4001 80.6C58.8001 81.5 62.0001 82.8 65.1001 84.3C66.0001 84.7 66.8001 85.2 67.6001 85.8C73.2001 89.6 74.9001 94.5 72.9001 101C71.3001 106.2 68.4001 110.7 65.4001 115.2C64.5001 116.6 63.5001 117.9 62.5001 119.3C62.3001 119.8 61.8001 120 61.2001 120C60.4001 119.6 59.2001 119.6 57.9001 119.6ZM88.2001 126C92.1001 126 95.4001 122.9 95.4001 119C95.4001 115.5 92.9001 112.5 89.5001 111.9C89.0001 111.8 88.5001 111.6 88.1001 112.3C86.7001 114.8 84.5001 116.7 81.9001 117.7C81.4001 117.9 81.1001 118.3 81.1001 118.9C81.1001 122.8 84.3001 125.9 88.2001 126ZM38.8001 119.6C36.7001 119.6 34.5001 119.6 32.4001 119.6C31.9001 119.6 31.7001 119.7 31.8001 120.3C32.6001 124.2 36.3001 126.7 40.2001 125.9C43.0001 125.4 45.2001 123.2 45.8001 120.4C45.9001 119.8 45.8001 119.6 45.1001 119.6C43.0001 119.7 40.9001 119.6 38.8001 119.6Z" fill="#DA0109"/>
<path id="Vector_11" d="M37.0001 57.4C37.0001 58.6 37.0001 59.9 37.0001 61.2C36.0001 61.1 34.9001 61.6 34.2001 62.3C33.3001 63.2 32.5001 64.3 31.9001 65.5C31.1001 67.1 30.5001 68.7 30.0001 70.4C29.7001 69.6 29.5001 68.9 29.2001 68.2C28.5001 66 27.3001 64 25.8001 62.3C24.5001 60.8 22.2001 60.6 20.7001 62C20.6001 62.1 20.5001 62.2 20.3001 62.3C19.6001 62.9 19.1001 63.7 18.6001 64.5C16.9001 67.7 15.8001 71.2 15.2001 74.7C14.7001 77.3 14.5001 79.9 14.1001 82.6H10.0001C10.0001 82.4 9.90015 82.2 9.90015 81.9V58.2C9.90015 57.9 9.90015 57.7 10.0001 57.4H19.6001C19.6001 57.7 19.6001 57.9 19.6001 58.2C19.6001 59.7 19.6001 59.7 21.1001 59.7H25.1001C27.3001 59.7 27.3001 59.7 27.4001 57.5L37.0001 57.4Z" fill="#B69981"/>
<path id="Vector_12" d="M64.1002 39.5C65.2002 39.5 66.6002 39.1 67.2002 39.6C67.8002 40.1 67.2002 41.6 67.2002 42.6C67.1002 44.6 67.0002 46.7 66.8002 48.7C66.5002 51.4 63.9002 53.4 61.2002 53C58.9002 52.7 57.2002 50.9 56.9002 48.7C56.7002 47.3 56.6002 45.9 56.6002 44.5C56.5002 41.8 58.7002 39.5 61.4002 39.4C61.5002 39.4 61.5002 39.4 61.6002 39.4C62.4002 39.4 63.3002 39.4 64.1002 39.5Z" fill="#DB030B"/>
<path id="Vector_13" d="M18.1 89.1C18 87 18.1 84.8 18.3 82.7H27.9C27.9 83.9 28 85.1 27.9 86.3C27.9 86.9 28.1 87.2 28.7 87.1C29.3 87 29.7 87.1 30.3 87.1C32 87.1 32.1 87.1 32.1 85.3C32.1 84.4 32.1 83.5 32.2 82.7H37C37 84.6 37 86.5 37 88.3C37 88.9 36.8 89.1 36.2 89.1C30.2 89.1 24.2 89.1 18.1 89.1Z" fill="#DB030A"/>
<path id="Vector_14" d="M37.0001 82.7H32.1001C32.4001 76.9 32.7001 71.2 34.8001 65.7C35.2001 64.6 35.6001 63.4 37.0001 63.1V82.7Z" fill="#B69980"/>
<path id="Vector_15" d="M19.7 57.4H10.1C9.90001 55.9 9.90001 54.4 10 53C9.90001 52.7 10.2 52.4 10.5 52.3C10.6 52.3 10.6 52.3 10.7 52.3H27.4C27.5 52.3 27.5 52.4 27.6 52.4L27.5 52.5C25.2 52.5 22.9 52.5 20.5 52.4C19.9 52.4 19.7 52.6 19.7 53.2C19.7 54.6 19.7 56 19.7 57.4Z" fill="#C9B29E"/>
<path id="Vector_16" d="M37 57.4H27.5C27.5 55.8 27.5 54.2 27.5 52.5L27.6 52.4C30.3 52.4 33 52.4 35.7 52.3C36.8 52.3 37.3 52.5 37.2 53.7C37.1 54.9 37 56.2 37 57.4Z" fill="#C2AC97"/>
<path id="Vector_17" d="M14.2 82.7C14.2 84.8 14.2 87 14.1 89.1C13 89.1 12 89.1 10.9 89.1C10.3 89.1 10 89 10 88.3C10 86.4 10 84.5 10.1 82.7H14.2Z" fill="#DB0509"/>
<path id="Vector_18" d="M27.9 82.7H18.3C18.4 77.3 19.1 71.9 20.6 66.6C20.9 65.7 21.3 64.8 21.8 64C22.6 62.9 23.5 62.9 24.3 63.9C25.2 65.2 25.8 66.7 26.1 68.3C27 72.1 27.6 75.9 27.7001 79.8C27.9001 80.7 27.9 81.7 27.9 82.7Z" fill="#B69980"/>
</g>
</g>
</g>
</g>
</g>
<defs>
<clipPath id="clip0_67_161">
<rect width="139" height="171" fill="white"/>
</clipPath>
</defs>
</svg>
