<svg width="395" height="180" viewBox="0 0 395 180" fill="none" xmlns="http://www.w3.org/2000/svg">
<g clip-path="url(#clip0_1064_5509)">
<path d="M0 0V120.33C37.2334 101.22 80.2234 118.5 90.6155 142.7H123.634C136.048 164.51 167.495 180 204.348 180C241.201 180 272.648 164.51 285.062 142.7H311.993C322.385 118.5 362.322 101.82 395 120.05V0H0Z" fill="#981B21"/>
<path d="M200.13 127.81C200.05 127.58 199.91 127.38 199.72 127.23C199.52 127.08 199.29 127 199.04 127C198.8 127 198.55 127.07 198.35 127.21C198.15 127.35 198 127.55 197.92 127.77L192.75 141.63L195.62 141.6L198.97 132.83L201.62 141.7H204.75L200.13 127.81Z" fill="white"/>
<path d="M191.6 145.56L185.89 159.41C185.4 160.62 185.77 162.01 186.8 162.8L187.52 163.35L194.48 145.56H191.61H191.6Z" fill="white"/>
<path d="M206.87 148.79L205.43 144.66L204.79 144.89C204.57 144.97 204.39 145.04 204.2 145.1C203.93 145.2 203.66 145.3 203.24 145.44L202.56 145.67L205.63 153.47L206.52 152.04C207.13 151.06 207.26 149.87 206.88 148.78L206.87 148.79Z" fill="white"/>
<path d="M207.78 132.06V132.74C207.78 132.93 207.69 147.65 207.66 151.75C207.66 152.81 207.41 154.35 207.03 155.09C206.12 156.82 204.77 157.86 202.79 158.36C200.7 158.89 198.84 158.62 197.54 157.6C196.31 156.64 195.66 155.02 195.66 152.93C195.66 150.01 197.61 147.66 201.14 146.3C202.76 145.69 205.3 144.75 205.68 144.67L206.01 144.63L206.88 143.04C207.04 142.76 207.03 142.42 206.88 142.15C206.72 141.87 206.43 141.7 206.11 141.7L184.57 141.48H184.55C184.3 141.48 184.06 141.56 183.84 141.7C183.63 141.84 183.46 142.03 183.35 142.25C183.24 142.48 183.2 142.73 183.22 142.97C183.25 143.22 183.34 143.46 183.49 143.66L188.73 150.21L189.5 148.47C189.79 147.82 189.67 147.06 189.2 146.52L187.2 144.23H197.54C196.28 145.34 195.34 146.45 194.37 147.95C193.6 149.13 193.09 150.43 192.88 151.82C192.81 152.29 192.78 152.76 192.78 153.23C192.78 159.3 196.75 162.16 200.69 162.3C200.8 162.3 200.9 162.3 201.01 162.3C205.43 162.3 210.03 159.03 210.49 152.61V132.05H207.77H207.78V132.06Z" fill="white"/>
<path d="M211.32 129.3L210.67 128.65V127.73H209.75L209.1 127.08L208.45 127.73H207.53V128.65L206.88 129.3L207.53 129.95V130.87H208.45L209.1 131.53L209.75 130.87H210.67V129.95L211.32 129.3Z" fill="white"/>
</g>
<defs>
<clipPath id="clip0_1064_5509">
<rect width="394.53" height="180" fill="white"/>
</clipPath>
</defs>
</svg>
