<?xml version="1.0" encoding="UTF-8"?>
<svg id="Layer_2" data-name="Layer 2" xmlns="http://www.w3.org/2000/svg" viewBox="0 0 395.04 116">
  <g id="Layer_1-2" data-name="Layer 1">
    <path d="M204.37,0H0v56.33c37.24-19.11,80.24-1.83,90.63,22.37h33.02c12.41,21.81,43.87,37.3,80.72,37.3s68.31-15.49,80.72-37.3h26.93c10.39-24.2,50.34-40.88,83.02-22.65V0h-190.67Z" fill="#981b21"/>
    <g>
      <path d="M200.38,66.02c-.08-.23-.22-.43-.41-.58-.2-.15-.43-.23-.68-.23-.24,0-.49.07-.69.21-.2.14-.35.34-.43.56l-5.17,13.86,2.87-.03,3.35-8.77,2.65,8.87h3.13l-4.62-13.89h0Z" fill="#fff"/>
      <path d="M191.86,83.77l-5.71,13.85c-.49,1.21-.12,2.6.91,3.39l.72.55,6.96-17.79h-2.87,0Z" fill="#fff"/>
      <path d="M207.13,87l-1.44-4.13-.64.23c-.22.08-.4.15-.59.21-.27.1-.54.2-.96.34l-.68.23,3.07,7.8.89-1.43c.61-.98.74-2.17.36-3.26h0Z" fill="#fff"/>
      <path d="M208.03,70.27v.68c0,.19-.09,14.91-.12,19.01,0,1.06-.25,2.6-.63,3.34-.91,1.73-2.26,2.77-4.24,3.27-2.09.53-3.95.26-5.25-.76-1.23-.96-1.88-2.58-1.88-4.67,0-2.92,1.95-5.27,5.48-6.63,1.62-.61,4.16-1.55,4.54-1.63l.33-.04.87-1.59c.16-.28.15-.62,0-.89-.16-.28-.45-.45-.77-.45l-21.54-.22h-.02c-.25,0-.49.08-.71.22-.21.14-.38.33-.49.55-.11.23-.15.48-.13.72.03.25.12.49.27.69l5.24,6.55.77-1.74c.29-.65.17-1.41-.3-1.95l-2-2.29h10.34c-1.26,1.11-2.2,2.22-3.17,3.72-.77,1.18-1.28,2.48-1.49,3.87-.07.47-.1.94-.1,1.41,0,6.07,3.97,8.93,7.91,9.07.11,0,.21,0,.32,0,4.42,0,9.02-3.27,9.48-9.69v-20.56h-2.72.01Z" fill="#fff"/>
      <path d="M211.58,67.51l-.65-.65v-.92s-.92,0-.92,0l-.65-.65-.65.65h-.92v.92s-.65.65-.65.65l.65.65v.92s.92,0,.92,0l.65.66.65-.66h.92s0-.92,0-.92l.65-.65Z" fill="#fff"/>
    </g>
  </g>
</svg>