<svg width="139" height="171" viewBox="0 0 139 171" fill="none" xmlns="http://www.w3.org/2000/svg">
<g id="glovobackgorund 1" clip-path="url(#clip0_67_279)">
<path id="Vector" d="M139.01 90.89C139.01 90.47 139.01 90.05 139.01 89.63C139.01 89.11 139.01 88.63 138.94 88.08C138.88 87.15 138.81 86.23 138.7 85.32C138.64 84.66 138.55 84 138.46 83.32C138.46 83.22 138.46 83.11 138.41 83.01C138.3 82.28 138.17 81.54 138.03 80.82L137.94 80.34C137.94 80.18 137.88 80.02 137.84 79.87C137.75 79.4 137.65 78.93 137.54 78.47C137.43 78.01 137.37 77.72 137.27 77.35C137.07 76.58 136.86 75.81 136.63 75.05C136.54 74.74 136.44 74.44 136.34 74.14L136.23 73.81C135.686 72.1383 135.055 70.4961 134.34 68.89C134.12 68.4 133.9 67.89 133.66 67.44C133.42 66.99 133.32 66.76 133.15 66.44C132.73 65.63 132.3 64.85 131.85 64.08C131.4 63.31 130.85 62.41 130.31 61.61L130.23 61.49C130.206 61.4429 130.176 61.3992 130.14 61.36C130.143 61.3301 130.143 61.2999 130.14 61.27C129.95 60.99 129.76 60.72 129.56 60.46C129.36 60.2 129.14 59.86 128.91 59.57C128.5 59.03 128.08 58.5 127.65 57.99C128.125 57.2357 128.563 56.4581 128.96 55.66C129.13 55.32 129.29 54.98 129.45 54.66C129.61 54.34 129.74 53.97 129.88 53.66C131.073 50.6468 131.671 47.4308 131.64 44.19C131.64 43.75 131.64 43.31 131.59 42.88C131.59 42.68 131.59 42.49 131.59 42.3C131.59 42.11 131.59 42.03 131.59 41.89C131.59 41.75 131.59 41.54 131.59 41.36C131.59 41.18 131.52 40.74 131.48 40.44C131.293 39.0855 130.999 37.7479 130.6 36.44C129.931 34.1915 128.919 32.0598 127.6 30.12C127.49 29.94 127.37 29.78 127.25 29.61C127.13 29.44 127.01 29.28 126.88 29.12C125.952 27.902 124.869 26.8096 123.66 25.87L123.1 25.45C122.91 25.31 122.71 25.18 122.51 25.05C121.959 24.6802 121.384 24.3462 120.79 24.05C120.144 23.7382 119.475 23.4742 118.79 23.26V22.7V22.64C118.79 22.05 118.79 21.45 118.79 20.84C118.803 19.166 118.68 17.4938 118.42 15.84C118.36 15.45 118.29 15.06 118.22 14.68C118.15 14.3 118.07 13.9 117.98 13.52C117.742 12.486 117.451 11.4647 117.11 10.46L117.02 10.18C116.89 9.8 116.75 9.43001 116.6 9.05C116.45 8.67 116.24 8.17 116.04 7.73001C115.84 7.29001 115.62 6.84001 115.4 6.40001L115.06 5.75001L114.7 5.10001L114.27 4.34001L114.2 4.24001L113.98 3.88001C113.84 3.65001 113.69 3.42001 113.53 3.20001C113.341 2.90963 113.138 2.62925 112.92 2.36001C112.58 1.89001 112.22 1.44001 111.84 1.00001C111.46 0.560005 111.26 0.360005 110.96 0.0500052H19.01C16.6126 0.0467473 14.2367 0.501568 12.01 1.39001C11.72 1.50001 11.44 1.62001 11.16 1.75001L10.24 2.19001L9.44002 2.64001C9.16002 2.80001 8.89002 2.97001 8.63002 3.14001C8.16679 3.44602 7.72264 3.77997 7.30002 4.14001L6.74002 4.60001C4.76161 6.25469 3.1436 8.29759 1.98604 10.6024C0.82847 12.9072 0.15594 15.425 0.0100218 18V153V153.28C0.00512293 153.343 0.00512293 153.407 0.0100218 153.47C0.0100218 153.71 0.0100218 153.95 0.0800218 154.19L0.140022 154.63V154.68V154.85C0.67732 158.517 2.29235 161.942 4.78002 164.69C5.12002 165.063 5.45335 165.423 5.78002 165.77L6.32002 166.26L6.89002 166.74H7.01002C10.3935 169.511 14.6365 171.017 19.01 171H101.08C102.106 170.782 103.111 170.471 104.08 170.07C104.47 169.92 104.85 169.75 105.22 169.57L105.91 169.21C106.38 168.95 106.84 168.68 107.29 168.38C107.993 167.911 108.661 167.393 109.29 166.83C109.75 166.43 110.19 166.02 110.62 165.59C110.87 165.35 111.11 165.1 111.33 164.85L111.73 164.4C111.93 164.18 112.12 163.95 112.3 163.72C112.48 163.49 112.86 163.01 113.11 162.65C113.36 162.29 113.43 162.2 113.58 161.97C113.67 161.845 113.754 161.714 113.83 161.58C113.92 161.45 114 161.32 114.08 161.19L114.38 160.69C114.48 160.53 114.57 160.37 114.65 160.21L114.95 159.66C115.14 159.32 115.31 158.97 115.48 158.66C115.65 158.35 115.87 157.82 116.05 157.39C116.05 157.31 116.12 157.22 116.16 157.14C116.31 156.79 116.45 156.43 116.58 156.07V155.97C116.973 154.886 117.307 153.781 117.58 152.66C117.68 152.28 117.76 151.9 117.84 151.51C117.92 151.12 117.96 150.84 118.02 150.51C118.207 149.475 118.334 148.43 118.4 147.38C118.481 146.366 118.508 145.347 118.48 144.33C118.48 144.06 118.48 143.8 118.48 143.54C118.48 143.01 118.48 142.48 118.37 141.95C118.183 139.653 117.747 137.383 117.07 135.18L116.95 134.78L116.82 134.38C116.99 134.29 117.15 134.19 117.31 134.09C119.395 132.914 121.346 131.516 123.13 129.92L123.57 129.54C123.93 129.21 124.28 128.86 124.63 128.54L125.11 128.07L125.58 127.59C125.88 127.28 126.15 126.95 126.45 126.59C126.77 126.25 127.06 125.93 127.36 125.59C127.66 125.25 127.94 124.86 128.23 124.49L128.94 123.56C130.253 121.816 131.429 119.974 132.46 118.05C133.173 116.717 133.84 115.367 134.46 114C134.8 113.23 135.12 112.45 135.46 111.66C135.56 111.39 135.66 111.12 135.74 110.85C135.82 110.58 135.99 110.12 136.12 109.75C136.38 109 136.62 108.24 136.82 107.47C136.95 107.03 137.07 106.59 137.18 106.14C137.29 105.69 137.41 105.25 137.51 104.8C138.242 101.662 138.7 98.4669 138.88 95.25V94.86C138.88 94.73 138.88 94.6 138.88 94.47V94.32C138.88 94.1 138.88 93.89 138.88 93.67C138.88 93.03 138.93 92.39 138.93 91.74C139.01 91.43 139.01 91.16 139.01 90.89Z" fill="#FECC1D"/>
<g id="Group" opacity="0.12">
<path id="Vector_2" d="M133.45 116.22C134.18 114.74 134.86 113.22 135.45 111.62H134.67L133.45 116.22Z" fill="white"/>
<path id="Vector_3" d="M138.35 83L138.21 83.13L138.39 83.31C138.38 83.25 138.36 83.14 138.35 83Z" fill="white"/>
<path id="Vector_4" d="M21.21 59.59H21.37L22.01 59.76V61.23C22.1103 61.1928 22.2142 61.166 22.32 61.15C22.5908 61.0796 22.8704 61.0492 23.15 61.06V59.59H21.21ZM24.21 59.59L23.38 61.05C23.6363 61.0622 23.8908 61.099 24.14 61.16L24.57 61.31L25.57 59.58L24.21 59.59ZM32.21 82.69V83L33.29 82.71L32.21 82.69ZM32.6 64.48C32.6 64.48 32.6 64.48 32.6 64.54L32.43 64.82C32.29 65.05 32.17 65.29 32.04 65.53C32.0242 65.5751 32.0041 65.6187 31.98 65.66L32.11 65.59L34.23 67.71C34.36 67.3 34.48 66.9 34.62 66.49L32.6 64.48ZM21.21 59.59H21.37L22.01 59.76V61.23C22.1103 61.1928 22.2142 61.166 22.32 61.15C22.5908 61.0796 22.8704 61.0492 23.15 61.06V59.59H21.21ZM32.55 64.48C32.55 64.48 32.55 64.48 32.55 64.54L32.38 64.82C32.24 65.05 32.12 65.29 31.99 65.53C31.9742 65.5751 31.9541 65.6187 31.93 65.66L32.06 65.59L34.18 67.71C34.31 67.3 34.43 66.9 34.57 66.49L32.55 64.48ZM35.82 63.78L35.94 63.67C35.8936 63.6991 35.853 63.7363 35.82 63.78ZM32.16 82.69V83L33.24 82.71L32.16 82.69ZM24.16 59.59L23.33 61.05C23.5863 61.0622 23.8408 61.099 24.09 61.16L24.52 61.31L25.52 59.58L24.16 59.59ZM136.59 88.8L138.59 89.33L139 90.89C139 90.47 139 90.05 139 89.63C139 89.21 138.95 88.63 138.93 88.08C138.87 87.1533 138.79 86.2333 138.69 85.32L137.62 85.61L138.21 88L135.78 87.35L135.13 89.78L133.34 88L131.57 89.78L130.91 87.35L128.47 88.02L129.14 85.57L126.7 85L128.49 83.22L126.7 81.44L129.14 80.79L128.46 78.35L130.91 79.01L131.57 76.58L133.34 78.36L135.13 76.58L135.77 79.01L137.49 78.55C137.39 78.18 137.32 77.8 137.21 77.43L136.59 77.59L136.08 75.59L136.58 75.09C136.49 74.78 136.39 74.48 136.28 74.18C136.28 74.07 136.21 73.96 136.18 73.85L135.72 74.3L134.28 68.93C134.07 68.44 133.84 67.93 133.6 67.48C133.36 67.03 133.27 66.8 133.09 66.48C132.67 65.67 132.25 64.89 131.79 64.12L132.79 67.7L131.01 74.29L126.16 69.43L124.52 63.37L127.62 61.59H130.3L130.2 61.47C130.183 61.4213 130.156 61.3769 130.12 61.34C130.12 61.34 130.12 61.28 130.07 61.25C129.88 60.97 129.69 60.7 129.49 60.44C129.285 60.1322 129.065 59.8351 128.83 59.55L127.31 60.43H121.6L123.25 57.56L121.61 54.71H127.31L128.88 55.62C129.06 55.28 129.22 54.94 129.37 54.62C129.52 54.3 129.67 53.93 129.81 53.62H127.61L124.51 51.83L126.13 45.83L131.01 40.85L131.52 42.79C131.52 42.59 131.52 42.4 131.52 42.21C131.529 42.0735 131.529 41.9365 131.52 41.8V41.27C131.52 40.96 131.45 40.65 131.41 40.35C131.218 38.9963 130.924 37.6591 130.53 36.35L128.61 36.86L129.28 34.42L126.84 33.77L128.49 32L126.7 30.22L127.37 30.04C127.26 29.86 127.13 29.7 127.01 29.53C126.89 29.36 126.77 29.2 126.64 29.04L125.75 29.28L121.82 25.36L123.43 25.79L122.87 25.37C122.68 25.23 122.48 25.1 122.27 24.97C121.721 24.6024 121.15 24.2684 120.56 23.97C119.913 23.6586 119.245 23.3946 118.56 23.18C118.56 23 118.56 22.81 118.56 22.62V22.56C118.56 22.4 118.56 22.23 118.56 22.07L115.76 19.27L117.54 16.18L118.23 15.78C118.17 15.39 118.1 15 118.02 14.62C117.94 14.24 117.88 13.84 117.79 13.46L116.69 15.33L111.76 18.18V12.48L114.62 7.53999L116.26 10.4H116.93C116.93 10.31 116.87 10.21 116.82 10.12C116.69 9.73999 116.56 9.36999 116.4 8.98999C116.24 8.60999 116.05 8.10999 115.85 7.66999C115.65 7.22999 115.43 6.77999 115.2 6.33999C115.1 6.11999 114.98 5.89999 114.87 5.68999L114.51 5.03999L114.07 4.27999L114.01 4.17999L113.94 4.04999C113.885 3.97649 113.835 3.89968 113.79 3.81999C113.64 3.58999 113.5 3.35999 113.33 3.13999C113.16 2.91999 112.94 2.56999 112.73 2.29999C112.38 1.82999 112.02 1.37999 111.64 0.93999C111.26 0.49999 111.07 0.29999 110.77 -0.0100098H110.26L110.62 0.58999V4.16999L104.58 5.79999L97.9 3.99999L101.9 -9.76585e-06H100.27L96.63 3.66999L94.63 3.13999L95.17 1.13999L99.59 -9.76585e-06H94.32L94.25 0.22999L92.25 0.75999L92.08 -9.76585e-06H90.89L91.46 2.17999L93.9 1.50999L93.26 3.99999L95.69 4.64999L93.9 6.38999L95.7 8.16999L93.26 8.81999L93.9 11.26L91.47 10.6L90.83 13.05L89.01 11.26L87.26 13L86.61 10.57L84.18 11.22L84.83 8.77999L82.39 8.12999L84.18 6.34999L82.39 4.60999L84.83 3.99999L84.18 1.56999L86.61 2.21999L87.18 -9.76585e-06H86.01L85.79 0.75999L83.79 0.23999L83.77 -9.76585e-06H78.47L82.89 1.17999L83.4 3.17999L81.4 3.71999L77.77 -9.76585e-06H76.14L80.14 3.99999L73.52 5.78999L67.45 4.16999V0.60999L67.81 -9.76585e-06H66.31V0.28999L63.45 5.22999L61.81 2.38999H58.52L59.9 -9.76585e-06H58.57L57.2 2.38999H52.83L54.95 1.16999L54.63 -9.76585e-06H53.44L53.59 0.60999L50.52 2.38999H46.95L46.31 -9.76585e-06H45.12L46.12 3.54999H48.51L44.72 5.72999L40.95 3.54999H43.39L44.34 -9.76585e-06H43.14L42.51 2.38999H38.95L35.86 0.60999L36.01 -9.76585e-06H34.83L34.52 1.16999L36.63 2.38999H32.27L30.89 -9.76585e-06H29.56L30.94 2.38999H27.64L26.01 5.23999L23.15 0.30999V-9.76585e-06H21.64L22.01 0.61999V4.16999L16.01 5.79999L9.28 3.99999L12.01 1.33999C11.73 1.44999 11.44 1.56999 11.17 1.69999L10.25 2.13999L9.44 2.58999L8.63 3.08999L8.01 3.66999H7.83L7.26 4.09999L6.7 4.55999L7.07 4.64999L5.28 6.38999L7.08 8.16999L4.63 8.82999L5.28 11.26L2.86 10.61L2.2 13L1.27 12.08C1.11245 12.4759 0.975596 12.8798 0.86 13.29L1.86 14.29L0.41 19.69L0.01 18.11V25.74L0.41 24.16L1.76 29.16H4.2L0.41 31.32L0.01 31.07V32.89L0.41 32.65L4.21 34.84H1.75L0.41 39.84L0.01 38.24V45.86L0.41 44.29L1.86 49.64L0.41 51.07L0.01 50.66V52.29L0.42 52.71L2.21 50.93L2.85 53.36L5.29 52.71L4.65 55.14L7.09 55.78L5.29 57.58L7.08 59.36L4.63 60L5.28 62.43L2.86 61.78L2.21 64.24L0.41 62.44L0.01 62.87V64.5L0.42 64.08L1.87 65.52L0.41 70.87L0.01 69.29V76.92L0.41 75.34L1.76 80.34H4.2L0.41 82.5L0.01 82.25V84.07L0.41 83.83L4.2 86H1.75L0.41 91L0.01 89.43V97L0.41 95.47L1.86 100.82L0.41 102.26L0.01 101.84V103.47L0.42 103.89L2.21 102.11L2.85 104.55L5.29 103.89L4.65 106.33L7.09 106.96L5.29 108.76L7.08 110.54L4.64 111.19L5.29 113.62L2.86 113L2.21 115.45L0.41 113.63L0 114.05V115.68L0.41 115.26L1.86 116.68L0.41 122.05L0.01 120.47V128.1L0.42 126.52L1.77 131.52H4.2L0.41 133.68L0.01 133.44V135.25L0.41 135.01L4.21 137.2H1.75L0.41 142.2L0.01 140.61V148.22L0.42 146.65L1.86 152L0.41 153.44L0.01 153C0.00505446 153.087 0.00505446 153.173 0.01 153.26C0.00501986 153.323 0.00501986 153.387 0.01 153.45C0.01 153.69 0.06 153.93 0.09 154.17C0.12 154.41 0.09 154.39 0.09 154.5C0.09 154.61 0.09 154.57 0.09 154.61V154.66C0.0852499 154.713 0.0852499 154.767 0.09 154.82L0.3 155.05L2.09 153.27L2.73 155.7L5.17 155.04L4.53 157.48L6.97 158.12L5.17 159.91L6.96 161.69L4.52 162.35L5.17 164.78L4.72 164.66C5.07 165.03 5.41 165.39 5.78 165.74L6.32 166.23L6.89 166.71H7.01L6.93 166.43L13.58 168.21L16.13 170.75C16.7331 170.844 17.3405 170.907 17.95 170.94L15.82 168.81L20.82 170.15L22.01 168V171H23.15V166L26.01 161.1L27.65 164H30.94L28.09 168.92L24.43 171H26.74L26.93 170.89L26.87 171H28.2L28.93 169.74L32.01 168L35.07 171H37.27L35.86 165.73L38.95 164H42.51L44.13 170L43.87 171H45.59L45.33 170L46.95 164H50.51L53.59 165.78L52.19 171H54.39L57.45 168L60.52 169.78L61.26 171.05H62.59L62.53 170.95L62.71 171.05H65.01L61.37 168.94L58.51 164H61.8L63.45 161.13L66.3 166V171H67.44V168L68.67 170.12L73.67 168.79L71.47 171H73.11L75.89 168.22L82.53 166.44L81.32 171H82.52L83.83 166.09L85.83 165.57L86.37 167.57L82.83 171H84.46L86.65 168.8L87.25 171H88.45L87.61 167.87L89.01 166.44L90.45 167.86L89.64 171H90.83L91.41 168.82L93.28 170.69L93.34 170.6H94.83L91.77 167.53L92.28 165.53L94.28 166.05L95.57 171H96.76L95.52 166.43L102.19 168.22L104.03 170.07C104.43 169.92 104.81 169.75 105.18 169.57L104.41 168.82L105.87 169.21C106.33 168.95 106.8 168.68 107.25 168.38L102.77 167.19L97.9 162.32L104.56 160.54L110.62 162.16V165.59C110.866 165.356 111.1 165.109 111.32 164.85L111.73 164.4C111.93 164.18 112.12 163.95 112.3 163.72C112.48 163.49 112.86 163.01 113.11 162.65C113.36 162.29 113.43 162.2 113.57 161.97C113.667 161.849 113.751 161.719 113.82 161.58C113.92 161.46 114.007 161.329 114.08 161.19C114.189 161.029 114.29 160.862 114.38 160.69C114.478 160.536 114.565 160.376 114.64 160.21C114.75 160.03 114.85 159.84 114.94 159.66C115.13 159.32 115.31 158.97 115.48 158.66C115.65 158.35 115.87 157.82 116.05 157.39L116.15 157.14C116.31 156.79 116.44 156.43 116.57 156.07L116.62 155.97H116.26L114.62 158.82L111.76 153.89V148.2L116.69 151.04L117.63 152.66C117.737 152.281 117.823 151.898 117.89 151.51C117.96 151.18 118.01 150.84 118.07 150.51L117.54 150.2L115.76 147.11L118.55 144.32C118.565 144.06 118.565 143.8 118.55 143.54C118.55 143.01 118.55 142.48 118.47 141.95L113.61 143.26L111.83 140.18V136.62L117.18 135.18C117.18 135.05 117.09 134.91 117.06 134.78C117.03 134.65 116.99 134.51 116.94 134.38C117.11 134.29 117.26 134.19 117.43 134.09L117.93 133.78L111.93 132.15V128.59L113.71 125.51L119.71 127.13L122.87 130.27C123.01 130.15 123.15 130.02 123.31 129.9L123.75 129.52L121.95 127.73L124.81 128.5L125.29 128.03L125.75 127.55L120.31 126.09L115.88 121.66L117.66 118.57L120.75 116.79L125.18 121.22L126.63 126.58C126.94 126.24 127.24 125.92 127.54 125.58L126.81 122.88L128.42 124.49L129.13 123.56L126.22 120.65L124.58 114.59L127.68 112.81H131.24L132.64 118.05C132.92 117.55 133.18 117.05 133.43 116.53L132.13 111.66H129.68L133.45 109.47L135.85 110.85C135.98 110.49 136.1 110.12 136.23 109.75L134.6 108.81L136.93 107.47C137.06 107.03 137.18 106.59 137.29 106.14C137.4 105.69 137.51 105.25 137.62 104.8H135.68L134.06 98.75L135.83 92.1L139 95.26C139 95.13 139 94.99 139 94.86C139 94.73 139 94.6 139 94.47V94.32C139 94.1 139 93.89 139 93.67L136.14 90.81L136.59 88.8ZM133.34 69.88L134.78 75.24L133.34 76.67L131.91 75.24L133.34 69.88ZM131.01 92L132.81 98.65L131.18 104.72H127.62L124.52 102.94L126.14 96.88L131.01 92ZM60.11 143.23L65.11 144.57L66.35 142.45V146.81L62.52 149L63.76 146.88L60.11 143.23ZM26.93 149L23.14 146.81V142.45L24.37 144.57L29.37 143.23L25.73 146.88L26.93 149ZM8.52 138.36H12.87L15.06 142.15L12.95 140.93L9.3 144.57L10.64 139.57L8.52 138.36ZM9.3 124.14L12.95 127.79L15.05 126.57L12.89 130.34H8.52L10.64 129.12L9.3 124.14ZM10.46 89L10.64 88.36L10.01 88.05L8.51 87.18H12.86L14.01 89.08L15.06 91L12.95 89.78L11.55 91.18L9.3 93.38L9.9 91.13L10.46 89ZM12.19 82.62L13.51 80.29H16.81L18.27 82.8L18.48 83.14L18.21 83.59L16.84 86H13.56L11.89 83.14L12.19 82.62ZM10.01 75.52L9.3 73L9.99 73.69L12.99 76.64L15.01 75.39L12.85 79.16H8.52L10.01 78.31L10.66 77.94L10.01 75.52ZM12.22 52.28L14.22 50.28L20.28 48.66L22.01 51.8V55.36L19.68 56L15.99 57L9.99 55.4L9.34 55.22L9.98 54.58L12.22 52.28ZM8.51 36H12.88L15.06 39.77L12.95 38.55L9.3 42.2L10.64 37.2L8.51 36ZM9.3 21.78L12.95 25.42L15.01 24.2L12.89 28H8.52L10.64 26.78L9.3 21.78ZM29.3 23.11L24.3 21.78L23.07 23.89V19.53L26.86 17.35L25.63 19.46L29.3 23.11ZM62.49 17.35L66.27 19.51V23.89L65.03 21.77L60.03 23.11L63.68 19.46L62.49 17.35ZM80.94 28H76.58L74.39 24.2L76.52 25.42L80.15 21.77L78.83 26.77L80.94 28ZM97.94 21.8L101.6 25.45L103.71 24.23L101.52 28H97.14L99.26 26.78L97.94 21.8ZM115.58 46.67L111.8 44.48V40.09L113.01 42.21L118.01 40.87L114.38 44.52L115.58 46.67ZM118.01 74.29L113.01 73L111.79 75.12V70.71L115.57 68.53L114.35 70.65L118.01 74.29ZM119.66 90.42L113.55 92L111.77 89V85.39L117.77 83.77L124.44 85.54L119.66 90.42ZM120.25 91.42L126.89 89.64L125.12 96.28L120.69 100.72L117.55 99L115.77 95.92L120.25 91.42ZM111.77 81V77.39L113.55 74.31L119.55 75.92L124.42 80.79L117.78 82.57L111.77 81ZM102.14 108.85L97.01 110.19L95.57 108.75L97.01 107.32L102.07 108.67L102.37 108.75L102.14 108.85ZM97.14 138.41H101.49L103.68 142.2L101.57 140.98L97.91 144.63L99.26 139.63L97.14 138.41ZM80.14 144.61L76.51 140.96L74.39 142.18L76.56 138.41H80.93L78.82 139.63L80.14 144.61ZM44.71 139.27L42.95 141L42.3 138.57L39.86 139.24L40.52 136.79L38.08 136.13L39.87 134.36L38.07 132.58L40.52 131.92L40.39 131.48L39.87 129.48L42.3 130.13L42.95 127.7L44.72 129.48L46.51 127.7L46.8 128.77L47.15 130.13L49.59 129.48L48.95 131.91L51.39 132.55L49.59 134.34L51.38 136.12L48.95 136.78L49.59 139.21L47.16 138.56L46.51 141L44.71 139.27ZM46.15 142.34L44.71 147.7L43.29 142.34L44.71 140.9L46.15 142.34ZM19.33 96L18.21 94.1L21.51 96L22 96.28V100.65L20.77 98.53L15.77 99.86L19.42 96.21L19.33 96ZM15.33 89.18L14.16 87.18H17.45L18.06 86.13L19.06 84.34L21.81 89.1L21.91 89.27V95L16.99 92.16L16.42 91.16L15.33 89.18ZM14.16 79.18L14.64 78.37L17.01 74.27L19.16 73L22.01 71.38V77.07L19.14 82L18.36 80.65L17.5 79.17L14.16 79.18ZM17.16 67.85L15.8 66.48L17.52 66.94L20.3 67.68L20.75 67.8L22.01 65.67V70L19.45 71.48L18.22 72.18L19.46 70.06L17.16 67.85ZM24.47 61.39L25.47 59.66L25.96 58.81L26.42 59.61V59.66L27.57 61.66H30.86L28.39 66L28.1 66.49L26.01 67.73L23.17 69.36V63.66L23.41 63.24L24.47 61.39ZM23.59 52.3L23.13 51.52V45.79L28.06 48.63L30.24 52.4L30.92 53.57H27.62L27.5 53.8L27.45 53.87L26.01 56.42L23.71 52.42L23.59 52.3ZM18.19 42.95L22.01 45.11V49.48L20.78 47.36L15.78 48.7L19.43 45.05L18.19 42.95ZM22.01 38.08V43.78L17.09 40.94L14.21 36H17.5L19.14 33.15L22.01 38.08ZM17.5 28H14.21L17.07 23L22.01 20.2V25.89L19.15 30.83L17.5 28ZM97.13 87.2H101.5L103.68 91L101.57 89.78L97.91 93.37L99.26 88.37L97.13 87.2ZM95.69 107L93.9 108.78L95.7 110.56L93.26 111.22L93.9 113.65L92.76 113.34L91.47 113L90.83 115.45L89.03 113.65L87.26 115.43L86.89 114L86.61 113L84.18 113.65L84.83 111.22L82.39 110.57L84.18 108.79L82.39 107L84.83 106.35L84.18 103.92L86.61 104.57L87.26 102.14L89.01 103.89L90.63 102.25L90.8 102.09V102.29L91.39 104.54L93.83 103.87L93.19 106.32L95.69 107ZM94.27 115L95.39 119.22L95.69 120.22L95.33 119.87L91.77 116.3L92.28 114.3L94.2 114.82V114.89L94.27 115ZM97.9 128.57L94.83 130.35H91.27L90.01 125.75L89.63 124.29L91.4 117.64L95 121.22L96.27 122.5L97.63 127.5L97.9 128.57ZM92.82 131.51L89.06 133.69L85.26 131.5H87.7L89.03 126.5L90.38 131.5L92.82 131.51ZM80.94 130.34H76.58L74.39 126.55L76.52 127.77L77.93 126.36L80.15 124.13L79.15 127.85L78.83 129.1L80.94 130.34ZM77.57 134.34L75.93 137.21H72.64L71.01 134.37L72.66 131.49H75.94L77.57 134.34ZM62.8 108.74L62.57 109.12L61.15 111.59H57.87L56.2 108.74L57.83 105.87H61.14L62.74 108.61L62.8 108.74ZM62.31 121.64L57.89 126.07L51.22 127.85L53.01 121.21L57.45 116.77L58.94 117.63L60.52 118.55L61.15 119.64L62.31 121.64ZM42.01 126.76L41.47 128.76L39.47 128.26L38.95 126L38.08 122.8L40.95 125.66L42.01 126.76ZM26.07 120.21L26.93 119.71L26.19 121L25.7 121.84L29.34 125.48L27.56 125L24.37 124.15L23.14 126.27V121.9L26.07 120.21ZM27.14 121.64L28.93 118.56L32.01 116.77L34.83 119.6L36.44 121.2L37.74 126L38.25 127.89L31.58 126.1L27.14 121.64ZM23.14 102.64V97L28.07 99.84L29.17 101.75L30.93 104.75H27.63L26.01 107.6L25.51 106.75L23.14 102.64ZM23.14 95.59V91.27L24.37 93.39L29.37 92.05L25.7 95.7L25.89 96.02L26.89 97.82L23.82 96L23.14 95.59ZM23.21 89.05L23.14 89V85.39L27.9 84.11L29.17 83.77L32.05 84.54H32.11L35.84 85.54L31.01 90.41L28.33 91.13L24.93 92L24.39 91.09L23.21 89.05ZM26.26 68.88L26.92 68.5L26.38 69.42L25.69 70.59L26.82 71.72L29.29 74.2L27.13 73.62L24.37 73L23.14 75.12V70.71L26.26 68.88ZM28.95 67.31L31.87 65.63L32 65.56L34.12 67.68L36.45 70L37.01 72.16L38.24 76.68L37.01 76.35L32.71 75.19L31.59 74.89L27.15 70.46L28.94 67.37L28.95 67.31ZM27.36 58.74L26.66 57.55L27.47 56.12L27.52 56.05L28.3 54.68H31.59L33.14 57.34L33.26 57.53L31.62 60.39H28.33L27.38 58.77L27.36 58.74ZM56.24 38.63L50.89 37.2L50.36 35.2L52.31 34.66L56.24 38.63ZM51.24 31.99L52.68 30.55L58.01 32L52.65 33.43L51.24 31.99ZM73.67 48.69L68.67 47.36L67.44 49.48V45.11L71.23 42.93L70.01 45.05L73.67 48.69ZM89.05 52.69L90.84 50.89L91.48 53.34L93.92 52.67L93.28 55.12L95.71 55.77L93.92 57.55L95.72 59.33L93.26 60L93.9 62.43L91.47 61.78L90.83 64.22L89.01 62.44L87.24 64.22L86.59 61.79L84.16 62.44L84.83 60L82.39 59.34L84.18 57.57L82.38 55.79L84.83 55.13L84.15 52.69L86.61 53.35L87.25 50.9L89.05 52.69ZM87.61 49.64L89.01 44.28L90.45 49.64L89.01 51.07L87.61 49.64ZM95.53 51.07L97.32 44.43L101.76 40L104.83 41.78L106.62 44.87L102.2 49.3L95.53 51.07ZM100.53 50.93L96.61 54.85L94.61 54.32L95.15 52.32L100.53 50.93ZM94.23 51.42L92.23 51.94L91.72 49.94L95.64 46.02L94.23 51.42ZM89.87 101.42L89.01 102.26L87.59 100.83L88.89 96L89.03 95.46L90.47 100.82L89.87 101.42ZM88.43 124.28L88.01 126L86.83 130.38H83.26L80.16 128.6L81.78 122.6L82.01 122.38L86.66 117.72L88.43 124.28ZM87.59 116.7L89.01 115.26L90.45 116.68L89.01 122.05L87.59 116.7ZM86.3 116.35L82.37 120.28L83.25 117.03L83.81 114.92L85.81 114.4L85.98 115.04L86.3 116.35ZM82.89 114L77.52 115.44L81.45 111.52L83.45 112.04L82.89 114ZM81.11 110.23L76.49 109L75.75 108.8L76.89 108.5L81.11 107.37L82.53 108.81L81.11 110.23ZM44.72 116.63L43.39 111.63H40.95L44.71 109.44L48.51 111.63H46.07L44.72 116.63ZM27.14 95.89L31.58 91.45L32.77 91.13L38.22 89.67L37.83 91.13L36.45 96.32L32.01 100.75L30.86 100.09L28.93 99L27.22 96L27.14 95.89ZM32.14 82.98L33.22 82.69H33.37L36.76 81.78L37.01 82L38.21 83.19L37.01 84.4L36.8 84.61L32.15 83.36L31.48 83.18L32.16 83L32.14 82.98ZM35.92 63.66L35.84 63.37L37.01 62.7L38.94 61.59H42.51L43.8 66.42L44.13 67.64L42.34 74.29L41.47 73.42L37.47 69.42L37.01 67.71L35.93 63.71L35.92 63.66ZM34.44 57.38L32.92 54.73H38.62L43.56 57.58L38.62 60.43H32.93L34.58 57.56L34.44 57.38ZM53.59 47.38L57.26 51L57.69 50.75L59.37 49.75L58.37 51.54L57.23 53.54H52.83L54.95 52.32L53.59 47.38ZM71.25 57.58L66.25 58.92V61.36L64.07 57.58L66.25 53.81V56.25L71.25 57.58ZM85.01 84.8L84.72 84.99L82.93 85.99H77.23L78.87 83.13L78.5 82.49L77.23 80.28H82.93L87.87 83.12L85.01 84.8ZM80.13 93.37L76.5 89.73L74.39 91L76.58 87.23H80.94L78.83 88.45L80.13 93.37ZM82.54 102.26L80.37 101.68L75.87 100.47L73.66 98.25L71.45 96L73.24 93L73.52 92.83L76.33 91.21L80.76 95.64L81.3 97.64L82.54 102.26ZM73.63 99.88L73.32 99.8L68.66 98.54L67.43 100.66V96.3L71.22 94.11L70.01 96.23L73.38 99.62L73.63 99.88ZM53.59 103L53.34 103.14L50.52 104.78H46.95L45.33 98.7L47.11 92.05L52.01 96.92L53.53 102.55L53.59 103ZM39.01 91.12L39.5 89.33L39.92 89.22L41.45 88.8L41.99 90.8L38.06 94.72L39.01 91.12ZM40.25 79.88L39.85 78.33L40.44 78.49L42.28 78.98L42.93 76.54L44.7 78.32L46.49 76.55L47.15 79L49.59 78.33L48.95 80.78L51.39 81.42L49.59 83.21L51.38 85L48.95 85.66L49.59 88L47.16 87.34L46.51 89.78L44.72 88L42.95 89.78L42.3 87.34L39.89 88L40.52 85.62L39.88 85.45L38.08 85L39.87 83.22L38.07 81.44L40.16 80.88L40.52 80.79L40.25 79.88ZM48.51 60.43H46.07L45.14 63.84L44.72 65.4L44.58 64.84L43.39 60.42H40.95L44.71 58.23L47.86 60.04L48.51 60.43ZM62.24 70.52L57.89 74.89L57.37 75.03L51.22 76.67L53.01 70L57.45 65.57L60.52 67.35L62.31 70.43L62.24 70.52ZM50.87 78L56.24 76.56L52.32 80.49L50.32 79.96L50.87 78ZM49.94 77L47.94 77.53L47.42 75.53L51.35 71.61L49.94 77ZM57.26 64.13L53.61 67.79L54.95 62.79L52.83 61.57H57.18L59.37 65.35L57.26 64.13ZM53.59 63.36L52.01 69.42L47.16 74.31L45.37 67.65L46.99 61.59H50.56L53.59 63.36ZM44.72 69.87L46.16 75.23L44.72 76.66L43.28 75.24L44.72 69.87ZM46.16 91.1L44.72 96.45L43.3 91.1L44.72 89.66L46.16 91.1ZM42.36 92.04L44.14 98.68L42.51 104.74H38.95L35.86 103L37.47 97L42.36 92.04ZM43.36 105.9L44.69 100.9L46.04 105.9H48.51L44.72 108.08L40.95 105.9H43.36ZM47.42 90.75L47.94 88.75L49.94 89.27L51.38 94.63L47.42 90.75ZM50.33 86.41L52.28 85.87L56.21 89.81L50.86 88.37L50.33 86.41ZM51.19 83.16L52.63 81.73L58.01 83.17L52.65 84.61L51.19 83.16ZM53.56 80.79L55.11 79.24L58.44 75.92L64.49 74.29L66.29 77.38V81L61.42 82.31L60.24 82.63L53.56 80.79ZM65.43 73.61L65.08 73L64.75 73.09L60.11 74.29L63.76 70.64L62.53 68.53L66.31 70.69V75.08L65.43 73.61ZM67.43 74.87V71.37L72.37 74.21L74.01 77L75.24 79.13H72.01L70.32 82L67.46 77.08L67.43 74.87ZM78.92 77.43L78.8 77.92L80.49 78.92L80.91 79.16H76.58L75.46 77.24L74.39 75.39L76.52 76.61L79.39 73.72L80.15 72.96L79.91 73.87L78.92 77.43ZM77.54 83.14L75.93 86H72.64L71.01 83.19L72.66 80.31H75.94L77.25 82.56L77.54 83.14ZM76.3 75.14L73.21 73.36L71.42 70.28L75.86 65.85L82.5 64.06L80.73 70.71L76.3 75.14ZM75.3 64.81L69.24 66.43L67.45 63.35V59.79L73.51 58.17L80.18 59.94L75.3 64.81ZM73.65 66.44L71.06 69.05L70.06 70.05L71.28 72.17L67.45 70V65.67L68.68 67.79L69.47 67.58L73.65 66.44ZM71.95 87.17H75.25L72.95 91.17L72.4 92.1L67.46 95V89.27L69.11 86.43L70.32 84.33L71.95 87.17ZM85.26 80.3H87.7L88.7 76.41L89.01 75.33L90.36 80.33H92.8L89.06 82.5L85.26 80.3ZM87.61 65.5L89.01 64.07L90.45 65.51L89.01 70.87L87.61 65.5ZM88.45 73.08L87.56 76.39L86.82 79.15H83.26L81.46 78.15L80.27 77.46L80.17 77.4L81.01 74.12L81.76 71.32L86.64 66.45L88.45 73.08ZM82.39 69.08L83.83 63.72L85.83 63.19L86.37 65.19L82.39 69.08ZM82.89 62.77L77.53 64.21L81.44 60.28L83.44 60.81L82.89 62.77ZM81.11 59L75.75 57.56L81.11 56.13L82.53 57.56L81.11 59ZM77.52 50.92L82.89 52.35L83.4 54.35L81.4 54.89L77.52 50.92ZM80.15 55.18L73.52 57L67.45 55.38V51.79L69.24 48.71L75.24 50.32L80.15 55.18ZM66.3 63.66V69.37L61.36 66.52L58.5 61.58H61.78L63.24 59.07L63.43 58.72L66.3 63.66ZM62.45 58.16L61.14 60.44H57.87L56.2 57.58L57.7 55L57.83 54.77H61.14L62.8 57.62L62.45 58.16ZM56.52 54.73L54.89 57.54L56.54 60.4H50.81L48.64 59.15L45.87 57.56L50.87 54.7L56.52 54.73ZM44.72 56.91L40.95 54.73H43.39L44.72 49.73L46.07 54.73H48.51L44.72 56.91ZM41.15 74.73L42.01 75.58L41.47 77.58L40.65 77.36L39.52 77L38.08 71.64L41.15 74.73ZM39.09 79.92L37.14 80.46L33.21 76.53L37.02 77.53L38.58 77.94L39.09 79.92ZM37.01 86L37.13 85.88L39.08 86.4L38.57 88.4L36.94 88.84L35.94 89.1L33.19 89.84L33.93 89.1L37.01 86ZM32.2 102.2L35.84 98.55L34.52 103.55L36.63 104.77H32.27L30.08 101L32.2 102.2ZM38.64 105.91L43.58 108.75L38.64 111.61H32.93L34.58 108.74L32.94 105.89L38.64 105.91ZM45.87 108.77L50.87 105.91H56.57L54.92 108.76L56.57 111.62H50.81L45.87 108.77ZM52.87 104.77L53.15 104.61L54.99 103.55L54.19 100.55L53.65 98.55L57.3 102.2L59.37 101L57.2 104.77H52.87ZM57.49 100.77L55.22 98.51L53.01 96.33L51.21 89.67L57.86 91.45L62.3 95.89L62.05 96.32L60.53 99L57.49 100.77ZM62.86 97.33L63.8 95.72L60.11 92.05L65.11 93.38L66.35 91.27V95.63L63.01 97.56L62.57 97.82L62.86 97.33ZM64.53 92L58.47 90.38L53.61 85.55L60.26 83.77L66.32 85.39V89L64.53 92ZM62.53 83.13L63.2 82.95L67.5 81.8V79.4L69.69 83.16L68.22 85.73L67.46 87V84.51L62.53 83.13ZM67.53 102.93L69.32 99.85L73.1 100.85L75.36 101.46L80.23 106.33L78.03 106.92L73.6 108.11L70.4 107.25L67.53 106.48V102.93ZM77.6 102.07L80.09 102.74L82.97 103.51L83.48 105.51L81.48 106.04L77.6 102.07ZM82.47 97.2L86.4 101.12L85.86 103.12L83.86 102.59L82.47 97.2ZM81.8 95L81.59 94.29L80.16 89L81.34 88.32L83.26 87.22H86.82L88.44 93.22L88.27 93.86L86.65 99.86L81.8 95ZM87.7 86H85.27L87.01 85L89.01 83.82H89.08L92.82 86H90.38L89.01 91L87.7 86ZM90.18 83.16L95.18 80.3H100.88L99.23 83.15L100.83 86H95.12L90.18 83.16ZM94.83 79.16H91.27L89.64 73.16L91.41 66.5L96.28 71.37L97.9 77.43L94.83 79.16ZM91.77 65.16L92.28 63.16L94.28 63.69L95.72 69.05L91.77 65.16ZM85.77 51.94L83.77 51.42L82.33 46.06L86.32 50L85.77 51.94ZM82.55 51.08L75.88 49.29L71.44 44.86L73.24 41.77L76.33 40L80.76 44.43L82.55 51.08ZM66.3 51.48L63.44 56.42L61.81 53.57H58.52L59.26 52.31L61.38 48.64L66.3 45.79V51.48ZM66.3 44.48L62.5 46.66L63.74 44.54L60.11 40.87L65.11 42.2L66.35 40.09L66.3 44.48ZM62.3 44.73L60.52 47.82L57.44 49.6L57.01 49.11L53.07 45.11L51.21 38.48L57.88 40.27L62.3 44.73ZM51.38 43.5L47.45 39.58L47.97 37.58L49.97 38.1L51.38 43.5ZM52.01 45.74L53.63 51.74L50.56 53.52H46.95L45.33 47.52L47.11 40.87L52.01 45.74ZM44.76 45.28L43.34 39.92L44.76 38.49L46.2 39.93L44.76 45.28ZM44.18 47.51L42.51 53.57H38.95L35.86 51.79L37.47 45.79L42.34 40.92L44.18 47.51ZM38.12 43.51L39.56 38.16L41.56 37.63L42.1 39.63L38.12 43.51ZM38.62 37.21L33.26 38.64L37.17 34.72L39.17 35.25L38.62 37.21ZM38.26 38.5L36.49 45.15L32.01 49.57L28.92 47.79L27.13 44.71L31.57 40.27L38.26 38.5ZM32.2 51L35.84 47.35L34.52 52.35L36.63 53.57H32.27L31.58 52.38L30.08 49.78L32.2 51ZM32.26 61.57H35.12H36.62L34.51 62.79L35.09 65L35.84 67.82L34.53 66.52L32.53 64.52L32.18 64.18L30.07 65.4L32.26 61.57ZM23.14 77.37L24.93 74.28L27.32 74.92L30.95 75.92L32.47 77.43L35.81 80.78L32.18 81.78L29.18 82.58L27.92 82.24L23.14 81V77.37ZM28.3 105.89H31.59L33.26 108.75L31.62 111.62H28.33L26.66 108.77L28.3 105.89ZM32.3 112.75H36.67L34.52 114L35.84 119L32.2 115.36L30.09 116.58L32.3 112.75ZM38.62 129.12L39.13 131.12L37.43 131.59L37.19 131.66L33.26 127.73L38.62 129.12ZM38.26 134.33L36.84 135.77L31.48 134.33L36.82 132.9L38.26 134.33ZM37.53 120.59L37.25 119.59L35.9 114.59L38.99 112.81H42.51L44.13 118.81L43.91 119.6L42.46 125L42.34 125.45L42.09 125.2L37.53 120.59ZM44.01 123.75L44.72 121.07L45.06 122.28L46.16 126.42L44.72 127.85L43.28 126.43L44.01 123.75ZM45.75 120.38L45.55 119.66L45.33 118.83L46.95 112.77H50.52L53.59 114.55L52.2 119.74L51.97 120.6L51.27 121.3L47.12 125.49L45.75 120.38ZM47.45 126.76L50.63 123.59L51.38 122.84L49.94 128.2L47.94 128.72L47.74 127.93L47.45 126.76ZM50.89 129.14L56.24 127.71L52.32 131.63L50.32 131.1L50.89 129.14ZM57.26 115.33L56.37 116.21L53.61 119L54.95 114L52.83 112.79H57.18L59.37 116.58L57.26 115.33ZM61.81 104.75H58.52L61.38 99.82L63.49 98.6L66.3 97V102.69L63.44 107.63L63.19 107.19L61.81 104.75ZM66.3 104.98V107.42L69.74 108.34L71.27 108.75L69.18 109.32L66.32 110.09V112.53L64.14 108.75L66.3 104.98ZM67.45 110.98L68.31 110.75L73.51 109.35L75.63 109.91L80.18 111.12L75.3 116L69.24 117.62L68.24 115.95L67.42 114.54L67.45 110.98ZM75.89 117L82.53 115.22L81.89 117.6L81.21 120.11L80.76 121.84L77.27 125.33L76.33 126.33L73.24 124.55L71.45 121.46L73.25 119.67L75.89 117ZM93.33 102.8L92.33 103.08L92.18 102.49L91.82 101.13L95.74 97.2L94.3 102.56L93.33 102.8ZM91.41 99.8L89.64 93.15L91.26 87.09H94.83L97.9 89L96.28 95L91.41 99.8ZM100.51 83.1L102.14 80.23H105.44L107.11 83.1L105.45 86H102.18L100.51 83.1ZM101.51 79.1H97.14L99.26 77.88L97.91 73L101.57 76.65L103.68 75.43L101.51 79.1ZM101.75 75.1L97.32 70.68L95.51 64.02L102.18 65.8L106.61 70.24L104.83 73.32L101.75 75.1ZM95.2 62.78L94.66 60.78L96.66 60.24L100.6 64.17L95.2 62.78ZM95.53 57.57L97.01 56.14L102.37 57.57L97.01 59L95.53 57.57ZM97.9 55.21L102.77 50.33L108.83 48.7L110.63 51.78V55.35L104.58 57L97.9 55.21ZM109.39 47.36L104.39 48.69L108.05 45.05L106.82 42.93L110.6 45.11V49.48L109.39 47.36ZM110.61 43.77L105.69 40.93L102.83 36H106.12L107.77 33.15L110.61 38.07V43.77ZM106.11 28H102.83L105.69 23L110.61 20.15V25.85L107.76 30.85L106.11 28ZM105.44 29.14L107.11 32L105.46 34.86H102.18L100.51 32L102.14 29.13L105.44 29.14ZM103.68 39.8L101.57 38.58L97.91 42.19L99.26 37.19L97.14 36H101.49L103.68 39.8ZM97.9 37.8L96.28 43.8L91.41 48.69L89.64 42.05L91.26 36H94.83L97.9 37.8ZM90.38 34.86L89.03 39.86L87.7 34.86H85.27L89.01 32.64L92.81 34.83L90.38 34.86ZM86.82 36L88.44 42L86.65 48.65L81.8 43.79L80.16 37.73L83.26 36H86.82ZM78.82 37.22L80.14 42.22L76.51 38.58L74.38 39.8L76.58 36H80.94L78.82 37.22ZM75.92 34.85H72.64L71.01 32L72.66 29.12H75.94L77.57 32L75.92 34.85ZM71.92 36H75.22L72.36 40.94L67.43 43.78V38.09L70.29 33.15L71.92 36ZM66.29 37.78L65.36 39.37L64.5 40.87L60.01 39.65L58.47 39.24L53.61 34.37L60.26 32.59L66.32 34.21L66.29 37.78ZM53.59 29.62L58.47 24.74L64.52 23.12L66.32 26.21V29.77L60.27 31.39L53.59 29.62ZM52.32 29.26L50.32 28.74L50.83 26.74L56.2 25.3L52.32 29.26ZM49.94 25.83L47.94 26.36L47.42 24.36L51.35 20.44L49.94 25.83ZM49.59 27.1L48.95 29.56L51.39 30.19L49.59 32L51.38 33.78L48.95 34.43L49.59 36.86L47.16 36.21L46.52 38.66L44.72 36.87L42.95 38.64L42.3 36.21L39.87 36.87L40.52 34.43L38.08 33.78L39.87 32L38.08 30.22L40.52 29.57L39.87 27.14L42.3 27.79L42.95 25.35L44.72 27.13L46.51 25.35L47.15 27.78L49.59 27.1ZM41.47 26.36L39.47 25.84L38.03 20.48L42.01 24.4L41.47 26.36ZM39.09 28.74L37.14 29.28L33.21 25.34L38.58 26.78L39.09 28.74ZM38.22 32L36.8 33.43L31.44 32L36.78 30.56L38.22 32ZM35.87 34.37L31.01 39.23L24.95 40.86L23.16 37.78V34.21L29.22 32.59L35.87 34.37ZM24.37 42.2L29.37 40.87L25.73 44.52L26.96 46.63L23.17 44.45V40.08L24.37 42.2ZM20.11 82.65L22.01 79.4V81.84L25.01 82.65H25.08L26.95 83.15L22.01 84.5V87L19.81 83.17L20.09 82.67L20.11 82.65ZM23.11 107.43V105L24.85 108L25.3 108.78L23.3 112.26L23.13 112.54V110.09L18.13 108.76L23.11 107.43ZM23.11 114.86L26.01 109.92L27.65 112.77H30.94L28.09 117.7L24.77 119.62L23.15 120.55L23.11 114.86ZM23.11 128.57L24.9 125.49L28.43 126.43L30.94 127.1L35.84 132L29.2 133.78L23.14 132.16L23.11 128.57ZM35.81 136.73L31.01 141.6L24.94 143.22L23.15 140.14V136.57L29.2 135L35.81 136.73ZM37.11 137.08L39.06 137.6L38.55 139.6L33.21 141L37.11 137.08ZM39.49 140.51L41.49 139.98L42.03 141.98L38.1 145.91L39.49 140.51ZM48.01 140L50.01 140.53L51.45 145.89L47.52 141.96L48.01 140ZM50.4 137.62L52.4 137.1L56.24 141L50.89 139.56L50.4 137.62ZM51.26 134.37L52.7 132.94L58.01 134.35L52.65 135.79L51.26 134.37ZM53.59 132L58.47 127.12L64.52 125.49L66.32 128.58V132.14L60.27 133.77L53.59 132ZM65.08 124.15L60.08 125.48L63.73 121.84L62.5 119.72L66.28 121.88V126.27L65.08 124.15ZM66.31 120.56L63.01 118.63L61.42 117.71L60.01 115.36L58.51 112.77H61.79L63.44 109.9L66.01 114.32L66.31 114.84V120.55V120.56ZM67.45 116.86L67.52 116.96L68.68 118.96L73.68 117.63L71.62 119.69L70.01 121.28L71.23 123.39L67.44 121.23L67.45 116.86ZM72.39 125.41L75.25 130.34H72.01L70.37 133.21L67.51 128.28V122.56L72.39 125.41ZM71.95 138.41H75.25L72.39 143.34L67.46 146.18V140.5L70.32 135.56L71.95 138.41ZM71.24 145.34L70.01 147.41L73.64 151.06L68.64 149.72L67.41 151.84V147.48L71.24 145.34ZM71.45 147.27L73.24 144.19L76.33 142.41L80.76 146.83L82.56 153.49L75.89 151.71L71.45 147.27ZM77.25 137.27L78.89 134.42L77.22 131.56H82.94L87.89 134.41L82.95 137.27H77.25ZM89.01 135L92.8 137.18H90.38L89.03 142.18L87.7 137.18H85.26L89.01 135ZM90.16 134.34L95.16 131.47H100.86L99.21 134.33L100.86 137.18H95.12L90.16 134.34ZM100.49 134.34L102.12 131.47H105.42L107.09 134.33L105.43 137.19H102.16L100.49 134.34ZM101.49 130.34H97.14L99.26 129.12L98.53 126.44L97.91 124.14L99.2 125.43L101.57 127.78L103.68 126.56L101.49 130.34ZM101.73 126.34L97.3 121.91L95.49 115.25L102.16 117.04L106.59 121.47L104.81 124.55L101.73 126.34ZM95.2 114L94.66 112L96.66 111.46L100.6 115.39L95.2 114ZM96.63 106L94.63 105.47L95.17 103.47H95.24L100.52 102.06L97.8 104.78L96.63 106ZM95.53 102.22L97.32 95.58L101.76 91.14L104.83 93L106.62 96L102.2 100.43L95.53 102.22ZM105.69 92.08L102.83 87.15H106.12L107.77 84.3L110.61 89.23V95L105.69 92.08ZM106.11 79.08H102.83L105.69 74.15L110.61 71.31V77.01L107.76 82.01L106.11 79.08ZM106.83 72.15L108.07 70.03L104.41 66.38L109.41 67.72L110.65 65.6V70L106.83 72.15ZM108.83 66.37L102.77 64.75L97.91 60L104.57 58.22L110.63 59.84V63.4L108.83 66.37ZM106.83 57.5L111.83 56.17V53.8L114.01 57.57L111.83 61.35V58.91L106.83 57.5ZM111.83 69.3V63.6L114.69 58.66L116.33 61.53H119.62L116.76 66.46L111.83 69.3ZM111.83 51.42V45.72L116.76 48.56L119.62 53.5H116.33L114.69 56.35L111.83 51.42ZM113.61 40.79L111.83 37.7V34.21L117.83 32.59L124.5 34.36L119.62 39.23L113.61 40.79ZM110.67 33.26V35.69L108.41 32L110.61 28.21V30.65L115.61 31.98L110.67 33.26ZM110.67 18.78L106.83 21L108.07 18.89L104.41 15.24L109.41 16.57L110.65 14.46L110.67 18.78ZM106.67 19.04L104.89 22.12L101.76 24L97.33 19.58L95.52 12.92L102.19 14.7L106.67 19.04ZM100.88 29.04L99.18 32L100.83 34.86H95.12L90.18 32L95.18 29.14L100.88 29.04ZM89.01 31.31L85.24 29.13H87.68L89.01 24.13L90.36 29.13H92.8L89.01 31.31ZM87.89 32L82.95 34.86H77.24L78.89 32L77.25 29.15H82.95L87.89 32ZM76.33 24L73.24 22.22L71.45 19.14L75.89 14.71L82.53 12.92L80.76 19.57L76.33 24ZM70.02 19L71.24 21L67.45 18.81V14.49L68.68 16.61L73.68 15.27L70.02 19ZM72.39 23L75.25 28H72.01L70.37 30.86L67.51 25.94V20.18L72.39 23ZM67.46 30.63V28.22L69.65 32L67.46 35.79V33.32L62.46 31.99L67.46 30.63ZM57.89 23.68L51.22 25.46L53.01 18.84L57.45 14.41L60.52 16.19L62.31 19.27L57.89 23.68ZM57.26 13L53.61 16.61L54.95 11.61L52.83 10.39H57.19L59.37 14.16L57.26 13ZM53.59 12.23L51.97 18.23L47.11 23.11L45.33 16.46L46.95 10.41H50.51L53.59 12.23ZM46.16 24.05L44.72 25.49L43.28 24.07L44.72 18.7L46.16 24.05ZM42.34 23.11L37.49 18.24L35.86 12.24L38.95 10.46H42.51L44.13 16.51L42.34 23.11ZM34.52 11.63L35.84 16.63L32.2 13L30.09 14.22L32.26 10.45H36.63L34.52 11.63ZM32.01 14.41L36.44 18.83L38.24 25.49L31.57 23.71L27.13 19.28L28.92 16.19L32.01 14.41ZM24.92 23.12L30.92 24.74L35.79 29.61L29.15 31.39L23.09 29.77V26.21L24.92 23.12ZM27.01 32L22.01 33.33V35.77L19.81 32L22.01 28.21V30.65L27.01 32ZM22.01 18.86L18.21 21L19.45 18.88L15.8 15.23L20.8 16.57L22.01 14.49V18.86ZM18.01 19.11L16.23 22.19L13.14 24L8.7 19.55L6.89 12.89L13.56 14.67L18.01 19.11ZM13.53 29.11H16.83L18.49 32L16.84 34.87H13.56L11.89 32L13.53 29.11ZM13.14 40L16.21 41.78L18.01 44.86L13.58 49.29L6.91 51.08L8.7 44.43L13.14 40ZM19.01 57.36L19.65 57.19L23.14 56.25V53.81L25.33 57.56L24.17 59.56L23.34 61.02L23.19 61.26V58.91L19.66 58L18.2 57.61L18.86 57.43L19.01 57.36ZM19.72 59.19L21.21 59.59H21.37L22.01 59.76V63.32L20.21 66.44L18.01 65.85L14.16 64.85L9.3 60L9.99 59.82L15.99 58.22L19.72 59.19ZM16.72 69.02L18.01 70.29L16.23 73.38L15.45 73.84L13.16 75.16L10.01 72L8.7 70.73L6.89 64.07L9.99 64.9L13.57 65.9L16.72 69.02ZM8.72 95.61L9.02 95.31L13.16 91.18L16.21 93L18.01 96L13.58 100.44L6.91 102.26L8.72 95.61ZM14.18 101.51L20.18 99.89L22.01 103V106.56L16.01 108.18L9.34 106.41L14.18 101.51ZM22.01 111V114.56L20.22 117.65L14.22 116.03L9.36 111.16L16.01 109.38L22.01 111ZM17.5 130.36H14.21L17.07 125.43L22.01 122.56V128.26L19.15 133.2L17.5 130.36ZM22.01 140.44V146.14L17.09 143.3L14.23 138.36H17.52L19.16 135.51L22.01 140.44ZM18.23 123.44L19.47 121.32L15.82 117.68L20.82 119.01L22.01 116.86V121.22L18.23 123.44ZM18.01 121.47L16.23 124.56L13.15 126.34L8.71 121.92L6.9 115.25L13.56 117L18.01 121.47ZM13.53 131.47H16.83L18.5 134.33L16.85 137.2H13.56L11.89 134.34L13.53 131.47ZM13.15 142.33L16.22 144.11L18.01 147.22L13.58 151.66L6.91 153.44L8.7 146.79L13.15 142.33ZM14.15 152.67L20.15 151.04L22.01 154.16V157.72L16.01 159.35L9.34 157.57L14.15 152.67ZM20.76 149.67L15.76 151L19.41 147.35L18.18 145.24L22.01 147.46V151.85L20.76 149.67ZM21.98 135.67V138.11L19.8 134.33L22.01 130.58V133L27.01 134.33L21.98 135.67ZM31.57 142.62L38.21 140.84L36.44 147.48L32.01 151.93L28.92 150.15L27.13 147.07L31.57 142.62ZM32.19 153.36L35.83 149.71L34.51 154.71L36.62 155.93H32.26L30.07 152.14L32.19 153.36ZM35.85 154.14L37.46 148.08L42.33 143.21L44.13 149.85L42.5 155.92H38.95L35.85 154.14ZM43.38 157.07L44.71 152.07L46.06 157.07H48.51L44.72 159.25L40.95 157.07H43.38ZM46.94 155.92L45.32 149.87L47.1 143.21L52.01 148.1L53.63 154.16L50.56 155.94L46.94 155.92ZM54.94 154.69L53.6 149.69L57.25 153.34L59.36 152.12L57.18 155.89H52.83L54.94 154.69ZM57.44 151.91L53.01 147.51L51.21 140.85L57.86 142.63L62.3 147.07L60.51 150.15L57.44 151.91ZM64.52 143.2L58.46 141.58L53.6 136.71L60.26 135L66.32 136.63V140.18L64.52 143.2ZM62.52 134.33L67.52 133V130.56L69.7 134.33L67.52 138.11V135.67L62.52 134.33ZM67.52 154.14L69.31 151.05L75.31 152.67L80.18 157.54L73.55 159.32L67.48 157.69L67.52 154.14ZM81.11 158.5L82.53 159.94L81.11 161.37L75.75 159.94L81.11 158.5ZM77.52 153.29L82.89 154.73L83.4 156.73L81.4 157.25L77.52 153.29ZM82.39 148.42L86.32 152.34L85.78 154.34L83.78 153.81L82.39 148.42ZM81.8 146.19L80.16 140.13L83.26 138.35H86.82L88.44 144.4L86.65 151.05L81.8 146.19ZM89.03 146.64L90.47 152L89.01 153.44L87.59 152L89.03 146.64ZM89.64 144.41L91.26 138.35H94.83L97.9 140.12L96.28 146.17L91.43 151.06L89.64 144.41ZM95.69 148.41L94.25 153.77L92.25 154.3L91.74 152.3L95.69 148.41ZM95.18 154.72L100.55 153.28L96.63 157.2L94.63 156.68L95.18 154.72ZM95.53 153.43L97.32 146.78L101.76 142.35L104.83 144.13L106.62 147.21L102.2 151.64L95.53 153.43ZM108.07 147.43L106.84 145.31L110.62 147.49V151.86L109.38 149.74L104.38 151.08L108.07 147.43ZM110.61 146.15L105.69 143.32L102.83 138.38H106.12L107.77 135.53L110.61 140.46V146.15ZM106.11 130.35H102.83L105.69 125.42L110.61 122.58V128.28L107.76 133.22L106.11 130.35ZM106.83 123.42L108.07 121.3L104.41 117.65L106.33 118.16L109.39 118.99L110.63 116.87V121.23L106.83 123.42ZM108.83 117.64L105.96 116.87L102.77 116.02L97.9 111.15L102.85 109.83L104.55 109.37L110.61 111V114.55L108.83 117.64ZM100.69 107.15L97.89 106.41L98.79 105.52L102.79 101.52L108.85 99.9L110.65 102.98V106.54L104.6 108.17L100.69 107.15ZM109.38 98.56L104.38 99.89L108.04 96.25L106.81 94.14L110.59 96.3V100.68L109.38 98.56ZM110.6 84.56V86.99L108.4 83.24L110.6 79.45V81.89L115.6 83.22L110.6 84.56ZM111.76 91.32L113.01 93.39L118.01 92.05L114.38 95.7L115.6 97.81L111.82 95.65L111.76 91.32ZM111.76 97.03L116.69 99.87L119.55 104.8H116.26L114.62 107.65L111.76 102.72V97.03ZM116.9 105.96H120.2L121.87 108.82L120.23 111.69H116.94L115.27 108.83L116.9 105.96ZM118.69 101.03L120.82 102.25L124.45 98.6L123.13 103.6L125.24 104.82H120.88L118.69 101.03ZM130.09 88.8L130.63 90.8L126.7 94.73L128.14 89.37L130.09 88.8ZM127.71 86.42L127.2 88.42L121.83 89.86L125.76 85.94L127.71 86.42ZM126.84 83.17L125.41 84.61L120.06 83.17L125.4 81.74L126.84 83.17ZM125.76 80.45L121.83 76.53L127.2 78L127.71 80L125.76 80.45ZM130.63 75.58L130.09 77.58L128.09 77.08L126.65 71.7L130.63 75.58ZM125.07 70L126.84 76.65L120.2 74.87L115.77 70.44L117.55 67.36L120.64 65.57L125.07 70ZM125.25 61.57L123.14 62.79L124.46 67.79L120.83 64.15L118.71 65.36L120.88 61.59L125.25 61.57ZM121.88 57.57L120.24 60.44H116.95L115.28 57.58L116.91 54.72H120.21L121.88 57.57ZM125.25 53.57H120.89L118.7 49.78L120.83 51L124.46 47.35L123.14 52.35L125.25 53.57ZM125.07 45.14L120.64 49.57L117.55 47.79L115.77 44.71L120.2 40.28L126.84 38.49L125.07 45.14ZM130.07 37.62L130.61 39.62L126.68 43.54L128.12 38.19L130.07 37.62ZM127.69 35.24L127.18 37.24L121.81 38.68L125.74 34.76L127.69 35.24ZM126.84 32L125.41 33.44L120.06 32L125.4 30.57L126.84 32ZM119.59 24.75L124.46 29.62L117.82 31.4L111.82 29.78V26.21L113.6 23.12L119.59 24.75ZM115.59 17.36L114.37 19.48L118.01 23.11L113.01 21.78L111.79 23.9V19.53L115.59 17.36ZM111.77 5.05999V2.61999L113.95 6.38999L111.77 10.17V7.72999L106.77 6.38999L111.77 5.05999ZM110.63 8.60999V12.17L108.84 15.26L102.78 13.64L97.91 8.76999L104.57 6.99999L110.63 8.60999ZM95.53 6.38999L97.01 4.99999L102.37 6.42999L97.01 7.82999L95.53 6.38999ZM96.62 9.09999L100.55 13L95.2 11.59L94.66 9.58999L96.62 9.09999ZM92.28 12L94.28 12.53L95.72 17.88L91.77 14L92.28 12ZM91.41 15.25L96.28 20.12L97.9 26.17L94.83 28H91.27L89.64 21.94L91.41 15.25ZM89.01 12.89L90.45 14.33L89.01 19.68L87.61 14.33L89.01 12.89ZM86.64 15.27L88.43 21.91L86.82 28H83.26L80.16 26.21L81.78 20.16L86.64 15.27ZM85.78 12L86.32 14L82.39 17.9L83.83 12.55L85.78 12ZM83.4 9.63999L82.89 11.64L77.53 13L81.44 9.06999L83.4 9.63999ZM81.11 4.99999L82.53 6.42999L81.11 7.82999L75.75 6.38999L81.11 4.99999ZM80.18 8.79999L75.3 13.68L69.24 15.3L67.45 12.22V8.60999L73.51 6.99999L80.18 8.79999ZM66.3 2.60999V5.05999L71.3 6.38999L66.3 7.71999V10.17L64.12 6.38999L66.3 2.60999ZM66.3 12.47V18.2L61.36 15.35L58.5 10.41H61.78L63.43 7.54999L66.3 12.47ZM57.83 3.53999H61.14L62.8 6.37999L61.14 9.24999H57.87L56.2 6.40999L57.83 3.53999ZM50.83 3.53999H56.53L54.87 6.39999L56.52 9.24999H50.83L45.83 6.39999L50.83 3.53999ZM48.51 9.24999H46.07L44.72 14.25L43.39 9.24999H40.95L44.72 7.06999L48.51 9.24999ZM38.63 3.53999L43.63 6.38999L38.64 9.24999H32.93L34.58 6.39999L32.94 3.53999H38.63ZM28.3 3.53999H31.59L33.26 6.38999L31.62 9.24999H28.33L26.66 6.40999L28.3 3.53999ZM27.65 10.41H30.94L28.09 15.34L23.15 18.19V12.49L26.01 7.54999L27.65 10.41ZM23.15 5.05999V2.61999L25.33 6.39999L23.15 10.17V7.72999L18.15 6.39999L23.15 5.05999ZM22.01 8.61999V12.18L20.21 15.26L14.21 13.65L9.3 8.77999L15.95 6.99999L22.01 8.61999ZM6.91 6.38999L8.36 4.99999L13.7 6.39999L8.36 7.82999L6.91 6.38999ZM8.01 9.10999L11.93 13L6.58 11.61L6.01 9.64999L8.01 9.10999ZM3.66 12L5.66 12.52L7.1 17.88L3.14 14L3.66 12ZM2.66 28L1.01 21.93L2.79 15.28L7.65 20.14L9.28 26.2L6.2 28H2.66ZM1.56 32L6.56 29.13H12.25L10.56 32L12.2 34.85H6.5L1.56 32ZM2.8 48.72L1.01 42.05L2.63 36.05H6.2L9.28 37.84L7.66 43.84L2.8 48.72ZM3.66 52L3.14 50L7.07 46.08L5.63 51.42L3.66 52ZM6.01 54.33L6.54 52.33L11.89 50.89L10.54 52.24L9.91 52.86L8.01 54.85L6.01 54.33ZM6.87 57.58L8.32 56.14L9.97 56.58L12.85 57.36H12.99L13.66 57.54L9.95 58.54L8.36 59L6.87 57.58ZM8.01 60.29L11.94 64.22L10.01 63.7L6.6 62.79L6.07 60.79L8.01 60.29ZM3.66 63.21L5.66 63.73L7.1 69.09L3.14 65.17L3.66 63.21ZM2.66 79.16L1.01 73.11L2.79 66.46L7.65 71.32L9.27 77.38L6.2 79.16H2.66ZM1.58 83.16L6.58 80.3H12.27L10.94 82.63L10.66 83.14L12.2 86H6.5L1.58 83.16ZM2.8 99.9L1.01 93.23L2.63 87.23H6.2L9.28 89L8.7 91.17L7.91 94.06L7.66 95.06L2.8 99.9ZM3.66 103.13L3.13 101.18L7.07 97.25L5.63 102.6L3.66 103.13ZM6.01 105.51L6.54 103.51L11.89 102.07L8.01 106L6.01 105.51ZM6.87 108.76L8.32 107.32L13.66 108.76L8.36 110.2L6.87 108.76ZM8.01 111.48L11.93 115.41L6.58 114L6.01 112L8.01 111.48ZM3.66 114.39L5.66 114.91L7.1 120.27L3.17 116.35L3.66 114.39ZM2.66 130.39L1.04 124.39L2.82 117.74L7.68 122.61L9.3 128.61L6.22 130.39H2.66ZM1.58 134.39L6.58 131.53H12.27L10.63 134.38L12.27 137.24H6.5L1.58 134.39ZM2.82 151.11L1.01 144.42L2.63 138.36H6.2L9.28 140.14L7.66 146.19L2.82 151.11ZM3.68 154.34L3.15 152.39L7.09 148.46L5.65 153.82L3.68 154.34ZM6.01 156.69L6.54 154.69L11.89 153.25L8.01 157.22L6.01 156.69ZM6.87 159.94L8.32 158.51L13.66 159.94L8.32 161.38L6.87 159.94ZM6.54 165.15L6.01 163.15L8.01 162.63L11.93 166.55L6.54 165.15ZM21.96 165.72L20.17 168.81L14.17 167.19L9.31 162.32L15.96 160.54L22.01 162.16L21.96 165.72ZM23.11 163.72V161.28L18.11 159.94L23.11 158.61V156.17L25.29 159.94L23.11 163.72ZM23.11 153.86V148.15L28.08 151L30.94 155.94H27.64L26.01 158.79L23.11 153.86ZM28.29 162.81L26.66 160L28.3 157.13H31.59L33.26 159.99L31.62 162.86L28.29 162.81ZM34.48 165.17L35.8 170.17L32.16 166.53L30.05 167.75L32.26 164H36.63L34.48 165.17ZM38.6 162.8H32.93L34.58 159.93L32.94 157.08H38.64L43.58 159.93L38.6 162.8ZM46.03 162.8L44.68 167.8L43.35 162.8H40.95L44.71 160.61L48.51 162.8H46.03ZM45.83 159.95L50.83 157.09H56.53L54.88 159.94L56.53 162.8H50.83L45.83 159.95ZM59.33 167.73L57.22 166.51L53.57 170.15L54.91 165.15L52.83 164H57.19L59.33 167.73ZM61.1 162.8H57.83L56.2 160L57.83 157.13H61.14L62.8 159.98L61.1 162.8ZM61.77 155.93H58.52L61.38 151L66.3 148.15V153.84L63.44 158.78L61.77 155.93ZM66.26 161.27V163.71L64.08 159.94L66.26 156.16V158.6L71.26 159.94L66.26 161.27ZM75.26 167.18L69.2 168.81L67.41 165.73V162.16L73.47 160.53L80.11 162.32L75.26 167.18ZM82.85 165.18L77.48 166.62L81.41 162.7L83.41 163.23L82.85 165.18ZM93.85 164.84L91.42 164.19L90.78 166.64L89.01 164.8L87.24 166.58L86.59 164.15L84.14 164.82L84.81 162.37L82.37 161.72L84.16 159.94L82.37 158.16L84.81 157.5L84.16 155.07L86.59 155.72L87.23 153.28L89.01 155.07L90.8 153.29L91.44 155.72L93.88 155.05L93.24 157.5L95.67 158.16L93.88 159.94L95.67 161.72L93.24 162.37L93.85 164.84ZM100.5 166.62L95.15 165.19L94.61 163.19L96.61 162.66L100.5 166.62ZM97.01 161.37L95.57 159.94L97.01 158.5L102.37 159.94L97.01 161.37ZM97.94 157.57L102.82 152.69L108.82 151.07L110.62 154.15V157.72L104.57 159.34L97.94 157.57ZM114.01 159.92L111.82 163.71V161.27L106.82 159.94L111.82 158.6V156.17L114.01 159.92ZM113.01 144.57L118.01 143.24L114.38 146.88L115.6 148.99L111.82 146.83V142.45L113.01 144.57ZM115.6 134.36L110.6 135.69V138.13L108.42 134.35L110.6 130.58V133L115.6 134.36ZM106.82 108.75L111.82 107.42V105L114.01 108.75L111.82 112.54V110.1L106.82 108.75ZM118.01 125.48L113.01 124.14L111.79 126.26V121.9L115.57 119.71L114.35 121.83L118.01 125.48ZM116.75 117.71L111.82 120.55V114.85L114.68 109.91L116.32 112.78H119.61L116.75 117.71ZM123.19 113.99L124.51 118.99L120.88 115.35L118.76 116.57L120.93 112.8H125.3L123.19 113.99ZM127.31 111.62H121.61L123.25 108.76L121.61 105.91H127.3L132.3 108.76L127.31 111.62ZM134.74 105.91H137.18L133.39 108.09L129.62 105.91H132.01L133.33 100.91L134.74 105.91ZM133.39 96.47L131.96 91.11L133.39 89.67L134.83 91.11L133.39 96.47ZM24.18 59.59L23.35 61.05C23.6063 61.0622 23.8608 61.099 24.11 61.16L24.54 61.31L25.54 59.58L24.18 59.59ZM32.18 82.69V83L33.26 82.71L32.18 82.69ZM32.57 64.48C32.57 64.48 32.57 64.48 32.57 64.54L32.4 64.82C32.26 65.05 32.14 65.29 32.01 65.53C31.9942 65.5751 31.9741 65.6187 31.95 65.66L32.08 65.59L34.2 67.71C34.33 67.3 34.45 66.9 34.59 66.49L32.57 64.48ZM21.21 59.59H21.37L22.01 59.76V61.23C22.1103 61.1928 22.2142 61.166 22.32 61.15C22.5908 61.0796 22.8704 61.0492 23.15 61.06V59.59H21.21Z" fill="white"/>
<path id="Vector_5" d="M90.57 0H88.5H87.52L89.04 1.52L90.57 0Z" fill="white"/>
<path id="Vector_6" d="M137.79 79.87L137.56 80.74L137.98 80.85C137.92 80.53 137.86 80.2 137.79 79.87Z" fill="white"/>
</g>
<path id="Vector_7" d="M35.51 89C36.45 89 37.39 89 38.33 89C38.6079 88.9644 38.8903 88.9903 39.1571 89.0761C39.4239 89.1618 39.6686 89.3052 39.8738 89.496C40.079 89.6869 40.2396 89.9206 40.3444 90.1805C40.4492 90.4404 40.4954 90.7202 40.48 91C40.48 93.05 40.48 95.11 40.48 97.16C40.4737 97.5777 40.3611 97.9869 40.1529 98.3491C39.9447 98.7112 39.6477 99.0144 39.29 99.23C37.5532 100.482 35.5411 101.297 33.4232 101.609C31.3053 101.92 29.1435 101.718 27.12 101.02C25.2268 100.43 23.5438 99.3068 22.2723 97.7852C21.0007 96.2636 20.1944 94.4079 19.95 92.44C19.6211 90.843 19.6422 89.1936 20.0116 87.6055C20.381 86.0173 21.0901 84.528 22.09 83.24C23.068 81.9392 24.3224 80.8716 25.7629 80.1142C27.2033 79.3568 28.7939 78.9284 30.42 78.86C32.8648 78.6321 35.3227 79.1258 37.49 80.28C37.9454 80.5259 38.3831 80.8032 38.8 81.11C39.1939 81.4118 39.4549 81.8551 39.5277 82.346C39.6005 82.8369 39.4794 83.3369 39.19 83.74C38.9087 84.1484 38.4769 84.4283 37.9893 84.5183C37.5018 84.6083 36.9984 84.501 36.59 84.22C35.2485 83.2385 33.6653 82.6405 32.01 82.49C30.4149 82.2858 28.7979 82.6299 27.4242 83.4657C26.0504 84.3016 25.0017 85.5796 24.45 87.09C23.9411 88.309 23.7205 89.6291 23.8055 90.9474C23.8905 92.2656 24.2787 93.5464 24.94 94.69C25.6916 95.9658 26.8134 96.9828 28.1565 97.6061C29.4996 98.2294 31.0004 98.4296 32.46 98.18C33.8539 98.0213 35.194 97.5495 36.38 96.8C36.4928 96.733 36.5845 96.6355 36.6447 96.5188C36.7048 96.4021 36.7309 96.2708 36.72 96.14C36.72 95.06 36.72 93.99 36.72 92.91C36.72 92.54 36.63 92.41 36.24 92.42C34.9533 92.42 33.6633 92.42 32.37 92.42C32.003 92.437 31.6405 92.3339 31.3374 92.1264C31.0342 91.9189 30.8069 91.6182 30.69 91.27C30.5826 90.9602 30.5699 90.6254 30.6536 90.3084C30.7373 89.9913 30.9136 89.7064 31.16 89.49C31.3589 89.3159 31.5903 89.183 31.8409 89.0989C32.0915 89.0148 32.3563 88.9812 32.62 89H35.51Z" fill="#01A082"/>
<path id="Vector_8" d="M59.65 84.35C61.37 84.3836 63.0416 84.9252 64.4545 85.9066C65.8674 86.8881 66.9584 88.2655 67.5903 89.8656C68.2221 91.4657 68.3666 93.2169 68.0055 94.8989C67.6443 96.5808 66.7938 98.1184 65.5608 99.3181C64.3278 100.518 62.7675 101.326 61.0763 101.641C59.3851 101.956 57.6385 101.764 56.0563 101.088C54.4741 100.413 53.127 99.2845 52.1846 97.8453C51.2422 96.4061 50.7466 94.7203 50.76 93C50.7623 91.8444 50.9956 90.7009 51.4462 89.6367C51.8968 88.5726 52.5556 87.6092 53.3839 86.8033C54.2121 85.9974 55.1931 85.3652 56.2692 84.9439C57.3453 84.5226 58.4948 84.3207 59.65 84.35ZM54.61 93C54.5627 93.8431 54.7247 94.6848 55.0814 95.4501C55.4382 96.2154 55.9787 96.8806 56.6548 97.3865C57.3309 97.8923 58.1216 98.2231 58.9565 98.3493C59.7914 98.4756 60.6446 98.3934 61.44 98.11C63.68 97.37 64.99 95 64.67 92.26C64.5937 91.5664 64.3769 90.8956 64.0329 90.2885C63.6889 89.6814 63.2249 89.1507 62.6691 88.7287C62.1133 88.3067 61.4775 88.0023 60.8003 87.8341C60.123 87.6658 59.4187 87.6372 58.73 87.75C57.5173 87.9641 56.4262 88.6183 55.666 89.5871C54.9057 90.5559 54.5297 91.7712 54.61 93Z" fill="#01A082"/>
<path id="Vector_9" d="M105.3 93.09C105.291 94.2559 105.05 95.4083 104.591 96.48C104.132 97.5517 103.464 98.5212 102.626 99.332C101.788 100.143 100.798 100.779 99.7114 101.202C98.6253 101.626 97.4656 101.829 96.3001 101.8C94.5851 101.747 92.9238 101.19 91.5237 100.198C90.1236 99.206 89.0468 97.8236 88.4279 96.2233C87.8089 94.623 87.6753 92.8758 88.0436 91.2C88.412 89.5242 89.266 87.9941 90.4989 86.8009C91.7319 85.6077 93.2891 84.8042 94.9761 84.4909C96.6631 84.1777 98.405 84.3684 99.9841 85.0394C101.563 85.7104 102.91 86.8319 103.855 88.2637C104.801 89.6955 105.303 91.3742 105.3 93.09ZM96.3701 87.7C95.1685 87.6637 93.9974 88.0814 93.0901 88.87C92.3598 89.546 91.8235 90.405 91.5369 91.358C91.2503 92.311 91.2238 93.3233 91.4601 94.29C91.7126 95.5022 92.3934 96.5829 93.3778 97.334C94.3621 98.0852 95.5842 98.4565 96.8201 98.38C97.9959 98.2963 99.1043 97.7998 99.9496 96.9783C100.795 96.1567 101.323 95.0629 101.44 93.89C101.575 93.1414 101.545 92.3726 101.354 91.6364C101.163 90.9003 100.814 90.2143 100.332 89.6259C99.8505 89.0375 99.2466 88.5606 98.5626 88.2282C97.8785 87.8957 97.1305 87.7155 96.3701 87.7Z" fill="#01A082"/>
<path id="Vector_10" d="M119.26 77.27C119.19 78.5048 118.778 79.6959 118.07 80.71C116.65 82.7633 115.217 84.7967 113.77 86.81C113.524 87.0971 113.219 87.3286 112.877 87.4891C112.534 87.6497 112.162 87.7356 111.783 87.7413C111.405 87.747 111.03 87.6722 110.683 87.522C110.336 87.3718 110.025 87.1496 109.77 86.87C108.38 84.99 107.1 83.04 105.71 81.16C104.747 79.8797 104.224 78.3221 104.22 76.72C104.173 75.0079 104.737 73.3349 105.81 72C107.044 70.4414 108.845 69.4335 110.819 69.1957C112.793 68.9578 114.781 69.5093 116.35 70.73C117.31 71.5193 118.072 72.5212 118.577 73.6564C119.082 74.7916 119.316 76.0288 119.26 77.27ZM107.91 76.59C107.905 77.2961 108.099 77.9894 108.47 78.59C109.47 80.03 110.47 81.44 111.47 82.87C111.72 83.24 111.86 83.15 112.07 82.87C112.94 81.61 113.83 80.37 114.7 79.11C115.176 78.5045 115.459 77.7705 115.515 77.0025C115.57 76.2344 115.394 75.4674 115.01 74.8C114.604 74.0712 113.968 73.4967 113.202 73.1659C112.436 72.8351 111.582 72.7664 110.773 72.9704C109.964 73.1744 109.245 73.6397 108.727 74.2941C108.209 74.9486 107.922 75.7556 107.91 76.59Z" fill="#01A082"/>
<path id="Vector_11" d="M78.0801 96.93C79.1501 94.23 80.1501 91.68 81.1501 89.13C81.5801 88 82.0101 87 82.4301 85.87C82.5026 85.6086 82.63 85.3657 82.8038 85.1575C82.9775 84.9492 83.1936 84.7803 83.4377 84.6621C83.6818 84.5438 83.9482 84.4789 84.2193 84.4716C84.4905 84.4644 84.76 84.5149 85.0101 84.62C85.2497 84.7204 85.4658 84.8696 85.6445 85.0581C85.8233 85.2466 85.9608 85.4703 86.0483 85.7149C86.1358 85.9596 86.1714 86.2197 86.1527 86.4788C86.1341 86.738 86.0617 86.9904 85.9401 87.22C84.6068 90.3133 83.2734 93.4033 81.9401 96.49C81.3701 97.79 80.8101 99.09 80.2001 100.37C80.0274 100.798 79.7208 101.159 79.3261 101.399C78.9314 101.639 78.4698 101.744 78.0101 101.7C77.555 101.697 77.1115 101.557 76.737 101.298C76.3626 101.039 76.0745 100.674 75.9101 100.25C74.9901 98.1833 74.0801 96.1133 73.1801 94.04C72.1801 91.76 71.1801 89.48 70.1801 87.19C70.0038 86.8547 69.9398 86.4716 69.9974 86.0972C70.055 85.7228 70.2312 85.3768 70.5001 85.11C70.758 84.8202 71.0988 84.6167 71.4763 84.5273C71.8537 84.4378 72.2496 84.4667 72.6101 84.61C72.9009 84.7362 73.1591 84.927 73.3653 85.1678C73.5715 85.4086 73.7201 85.6932 73.8001 86C75.1334 89.3333 76.4368 92.69 77.7101 96.07C77.8101 96.3 77.9201 96.53 78.0801 96.93Z" fill="#01A082"/>
<path id="Vector_12" d="M43.9501 89.8C43.9501 86.63 43.9501 83.46 43.9501 80.29C43.9157 80.0163 43.9405 79.7385 44.0226 79.4752C44.1048 79.2118 44.2424 78.9692 44.4262 78.7635C44.6101 78.5579 44.8359 78.3941 45.0884 78.2831C45.3409 78.172 45.6143 78.1165 45.8901 78.12C46.1486 78.1182 46.4048 78.1695 46.6428 78.2707C46.8808 78.3718 47.0954 78.5208 47.2735 78.7082C47.4516 78.8957 47.5893 79.1177 47.6782 79.3606C47.767 79.6034 47.8051 79.8619 47.7901 80.12C47.7901 80.94 47.7901 81.77 47.7901 82.6V99.27C47.8529 99.7597 47.7324 100.255 47.4518 100.661C47.1712 101.068 46.7503 101.356 46.2701 101.47C46.0247 101.53 45.7696 101.539 45.5206 101.497C45.2716 101.454 45.0339 101.361 44.8222 101.224C44.6105 101.086 44.4292 100.906 44.2895 100.696C44.1498 100.485 44.0547 100.249 44.0101 100C43.9649 99.7157 43.9448 99.4279 43.9501 99.14V89.8Z" fill="#01A082"/>
<path id="Vector_13" d="M113.8 91C113.774 91.5519 113.538 92.0731 113.14 92.4562C112.742 92.8394 112.212 93.0555 111.66 93.06C111.378 93.0797 111.095 93.0411 110.829 92.9468C110.562 92.8524 110.318 92.7043 110.112 92.5115C109.905 92.3188 109.74 92.0855 109.627 91.8264C109.515 91.5672 109.457 91.2876 109.457 91.005C109.457 90.7224 109.515 90.4428 109.627 90.1836C109.74 89.9245 109.905 89.6913 110.112 89.4985C110.318 89.3058 110.562 89.1576 110.829 89.0632C111.095 88.9689 111.378 88.9303 111.66 88.95C111.936 88.9393 112.212 88.9843 112.471 89.0824C112.729 89.1804 112.965 89.3296 113.165 89.5209C113.365 89.7122 113.524 89.9417 113.633 90.1959C113.742 90.45 113.799 90.7235 113.8 91Z" fill="#01A082"/>
</g>
<defs>
<clipPath id="clip0_67_279">
<rect width="139" height="171" fill="white"/>
</clipPath>
</defs>
</svg>
