<svg width="18" height="17" viewBox="0 0 18 17" fill="none" xmlns="http://www.w3.org/2000/svg">
<g id="Asset 26 1" clip-path="url(#clip0_87_39)">
<g id="Layer 1">
<g id="Group">
<path id="Vector" d="M9.09628 5.71055C8.82495 5.50134 8.74727 5.09016 8.52055 4.86132C7.96423 4.29982 7.08462 4.82413 7.28983 5.6093C7.3696 5.91562 7.96948 6.67238 8.20565 6.92292C8.38672 7.11456 8.60872 7.23905 8.76984 7.44257L8.63286 9.00052C8.69794 9.10177 10.7049 9.29961 11.0355 9.39207C11.2943 9.46439 11.4381 9.61161 11.6018 9.81359L12.9144 13.1061C13.0991 14.0768 11.9445 14.6269 11.3037 13.8676L10.1423 11.0957C9.22854 10.8514 8.22349 10.8343 7.30557 10.6427C6.72511 10.5213 6.32309 10.2511 6.14255 9.67566C5.76625 8.47879 6.04756 5.14801 7.21688 4.40158C8.37359 3.6629 9.3293 4.47649 9.09681 5.71158L9.09628 5.71055Z" fill="white"/>
<path id="Vector_2" d="M0.341667 5.36133L5.17428 5.37321L5.40992 5.60514V10.3498C5.33802 10.5233 5.18057 10.6158 4.99111 10.607C3.55781 10.5042 1.94974 10.7351 0.537952 10.607C0.208361 10.577 0.0719056 10.5161 0.040416 10.1695C-0.0876419 8.75978 0.142232 7.16567 0.0419905 5.73583C0.0467139 5.55762 0.167949 5.40834 0.342192 5.36184L0.341667 5.36133ZM3.05187 6.01994H2.16229C2.09511 6.07108 2.07255 6.13927 2.04526 6.21365C1.8306 6.80098 1.78442 7.55981 1.56242 8.16212C1.56504 8.27266 1.63904 8.28816 1.73666 8.28454C1.99802 8.27473 2.43468 8.07792 2.71126 8.02884L2.24522 10.108L2.37117 10.1922L3.80868 7.22766L3.81077 7.10214L2.71231 7.30773C2.6677 7.26744 3.10541 6.33556 3.1222 6.18731C3.12955 6.12119 3.12168 6.0406 3.0524 6.01994H3.05187Z" fill="white"/>
<path id="Vector_3" d="M1.08911 15.3439C1.10486 14.3211 1.50372 13.3262 1.87583 12.384C1.63126 12.2843 1.58192 12.2352 1.55778 11.9723C1.53049 11.6779 1.46331 11.0027 1.85116 10.9686L7.93286 11.0032C8.18897 11.1107 8.14069 12.0741 8.04412 12.2239C8.00738 12.2812 7.90189 12.2931 7.89035 12.3411C7.8746 12.4052 7.94283 12.7771 7.96067 12.882C8.04937 13.4125 8.22466 14.007 8.49495 14.4683H13.1265V15.2669C13.1265 15.2824 13.1927 15.3067 13.179 15.3444H7.31724C7.55603 14.3211 7.03435 13.2048 6.11433 12.6908C4.18874 11.6143 1.91676 13.2353 2.34502 15.3444H1.08911V15.3439Z" fill="white"/>
<path id="Vector_4" d="M15.3659 12.7311C18.3285 12.3814 18.6812 16.7174 15.9206 16.986C12.9958 17.2706 12.6394 13.0534 15.3659 12.7311ZM15.4677 14.0163C14.258 14.2586 14.8547 16.2158 16.0744 15.5918C16.9545 15.1414 16.4323 13.8231 15.4677 14.0163Z" fill="white"/>
<path id="Vector_5" d="M4.53191 12.7311C7.50138 12.383 7.85616 16.7164 5.08665 16.986C2.17648 17.2691 1.81592 13.0493 4.53191 12.7311ZM4.68725 14.0163C3.60978 14.1858 3.81762 15.8191 4.93025 15.7008C6.06545 15.5805 5.85814 13.8319 4.68725 14.0163Z" fill="white"/>
<path id="Vector_6" d="M9.08526 0.00771808C9.79797 -0.0604679 10.5705 0.340383 10.9185 0.956123C10.9841 1.07287 11.2323 1.58064 11.0513 1.63333C10.6897 1.73768 10.1129 1.65606 9.85833 2.05588C9.5807 2.49289 10.2693 3.38757 9.53661 3.49088C8.8874 3.58232 7.97787 3.45163 7.62257 2.86016C6.91457 1.68086 7.69814 0.139958 9.08526 0.00720152V0.00771808Z" fill="white"/>
<path id="Vector_7" d="M13.2452 9.40601C13.274 9.4401 13.8875 9.73712 14.034 9.84043C14.7037 10.3141 15.038 10.9138 15.3245 11.6613C16.0435 11.7445 16.656 11.8483 17.2344 12.306C17.4396 12.4682 18.1549 13.1738 17.9702 13.4398C17.8369 13.6315 17.4506 13.0607 17.3147 12.9481C16.4576 12.2352 15.2311 12.151 14.2827 12.7471C14.1794 12.8122 13.8062 13.165 13.7558 13.1294L12.1582 8.49273L12.0648 8.44934C11.7966 8.52424 11.3721 8.8099 11.1086 8.65131C11.0419 8.61102 10.8184 8.31555 11.0047 8.34086C11.6208 8.42506 12.4611 8.55162 12.6295 7.77264C12.6972 7.8212 12.7172 7.89404 12.7487 7.96429C12.8799 8.25769 13.1056 9.24123 13.2457 9.40704L13.2452 9.40601Z" fill="white"/>
<path id="Vector_8" d="M7.82579 4.79467C8.44404 4.65675 8.66972 5.46672 9.01768 5.86654C9.63172 6.57216 10.4321 6.99625 11.3741 7.10163C11.7567 7.14451 12.205 6.97146 12.4144 7.41725C12.5896 7.79072 12.3671 8.18847 11.9504 8.23703C10.4772 8.41008 8.8807 7.58255 7.99899 6.45748C7.883 6.30974 7.49043 5.75444 7.44582 5.61084C7.3503 5.30039 7.47941 4.87216 7.82579 4.79467Z" fill="white"/>
<path id="Vector_9" d="M14.7344 7.1683C15.052 7.42503 15.0667 8.98659 14.6741 9.21697C14.418 9.36781 13.9881 9.19011 13.7808 9.00725C13.2151 8.50774 13.3305 7.50871 14.0333 7.19567C14.2196 7.11251 14.5618 7.02831 14.7339 7.1683H14.7344Z" fill="white"/>
<path id="Vector_10" d="M10.9726 1.80481C11.7493 3.51514 9.56449 4.9517 8.25977 3.573C8.65968 3.57506 9.02601 3.68716 9.43958 3.65255C9.85314 3.61794 10.0332 3.54045 10.0437 3.10912C10.0505 2.83431 9.85104 2.39679 9.96178 2.1571C10.0599 1.94428 10.737 1.7578 10.9726 1.80481Z" fill="white"/>
</g>
</g>
</g>
<defs>
<clipPath id="clip0_87_39">
<rect width="18" height="17" fill="white"/>
</clipPath>
</defs>
</svg>
