<svg width="39" height="48" viewBox="0 0 39 48" fill="none" xmlns="http://www.w3.org/2000/svg">
<g clip-path="url(#clip0_3_41)">
<path d="M29.6164 19.1648L23.3684 0.500853C23.1502 -0.152431 22.2523 -0.170577 22.0091 0.473633L14.8952 19.4134L16.9767 19.3916L22.726 4.4514L27.2723 19.4134H29.7407L29.6164 19.1648Z" fill="#04361D"/>
<path d="M13.6495 22.5038L13.8198 22.061H13.5465L13.6495 22.5038Z" fill="#04361D"/>
<path d="M14.3468 22.061L3.71403 48H6.30303L16.4354 22.061H14.3468Z" fill="#04361D"/>
<path d="M32.8655 35.0577L34.2674 32.8039L30.7592 22.8413C29.9625 23.119 29.5082 23.3113 28.4683 23.6598L32.8655 35.0577Z" fill="#04361D"/>
<path d="M37.969 6.48384L36.9753 6.05739L36.1892 6.81229L35.7811 5.79063L34.7039 5.75797L35.1209 4.73993L34.3828 3.93785L35.38 3.52047L35.4137 2.41715L36.4075 2.84541L37.1936 2.08869L37.6017 3.11035L38.6788 3.14302L38.2618 4.16105L39 4.96314L38.0027 5.38051L37.969 6.48384Z" fill="#04361D"/>
<path d="M36.2194 7.9501C36.2194 7.9501 36.0863 27.3018 36.0437 33.3356C36.033 34.8636 35.7012 37.346 34.9896 38.6889C33.4777 41.5398 31.178 43.2147 28.0939 43.9841C21.9453 45.5193 15.3104 43.0804 15.3104 35.368C15.3104 31.3776 18.6287 26.8699 25.0524 24.4092C25.6433 24.186 30.3422 22.3768 31.2454 22.1445C32.044 21.9394 32.7697 21.738 33.3145 21.6799L33.4405 21.4622L33.5292 21.3097L34.6436 19.3989L34.6134 19.339L0.963555 19.2918C0.165029 19.2918 -0.287469 20.23 0.200519 20.876L9.1724 32.5063L10.0721 30.4739L2.66175 21.3134H22.9975C19.9543 23.5618 17.1736 25.723 15.2767 28.6265C14.2368 30.2162 13.5235 31.9873 13.2342 33.8909C13.1384 34.517 13.0887 35.1575 13.0887 35.809C13.087 52.7726 36.9824 51.6094 38.2139 34.5351V7.9501H36.2211H36.2194Z" fill="#97051D"/>
</g>
<defs>
<clipPath id="clip0_3_41">
<rect width="39" height="48" fill="white"/>
</clipPath>
</defs>
</svg>
