<svg width="39" height="48" viewBox="0 0 39 48" fill="none" xmlns="http://www.w3.org/2000/svg">
<path d="M29.6165 19.1648L23.3685 0.500845C23.1502 -0.152438 22.2523 -0.170585 22.0092 0.473625L14.8953 19.4134L16.9768 19.3916L22.7261 4.4514L27.2724 19.4134H29.7407L29.6165 19.1648Z" fill="white"/>
<path d="M13.6496 22.5038L13.8199 22.061H13.5466L13.6496 22.5038Z" fill="white"/>
<path d="M14.3469 22.061L3.71411 48H6.30311L16.4355 22.061H14.3469Z" fill="white"/>
<path d="M32.8655 35.0577L34.2673 32.8039L30.7591 22.8413C29.9624 23.119 29.5081 23.3113 28.4683 23.6597L32.8655 35.0577Z" fill="white"/>
<path d="M37.9691 6.48384L36.9754 6.05739L36.1893 6.81229L35.7811 5.79063L34.704 5.75797L35.121 4.73993L34.3828 3.93785L35.3801 3.52047L35.4138 2.41715L36.4075 2.84541L37.1936 2.08869L37.6018 3.11035L38.6789 3.14302L38.2619 4.16105L39.0001 4.96314L38.0028 5.38051L37.9691 6.48384Z" fill="white"/>
<path d="M36.2194 7.95009C36.2194 7.95009 36.0863 27.3018 36.0438 33.3356C36.0331 34.8636 35.7013 37.346 34.9897 38.6889C33.4778 41.5397 31.1781 43.2147 28.094 43.9841C21.9453 45.5193 15.3105 43.0804 15.3105 35.368C15.3105 31.3776 18.6288 26.8699 25.0525 24.4092C25.6434 24.186 30.3423 22.3768 31.2455 22.1445C32.044 21.9394 32.7698 21.738 33.3146 21.6799L33.4406 21.4622L33.5293 21.3097L34.6437 19.3989L34.6135 19.339L0.963633 19.2918C0.165107 19.2918 -0.287391 20.23 0.200597 20.876L9.17248 32.5063L10.0722 30.4738L2.66183 21.3134H22.9976C19.9544 23.5617 17.1737 25.723 15.2768 28.6265C14.2369 30.2162 13.5236 31.9873 13.2343 33.8909C13.1385 34.5169 13.0888 35.1575 13.0888 35.809C13.087 52.7726 36.9825 51.6094 38.214 34.5351V7.95009H36.2212H36.2194Z" fill="white"/>
</svg>
