<svg width="106" height="132" viewBox="0 0 106 132" fill="none" xmlns="http://www.w3.org/2000/svg">
<g clip-path="url(#clip0_105_89)">
<path d="M80.2346 52.7028L63.0799 1.37684C62.955 0.984084 62.7105 0.640332 62.3807 0.393791C62.0509 0.14725 61.6523 0.0102835 61.2409 0.00209845C60.8294 -0.00608662 60.4257 0.11492 60.0864 0.348151C59.7471 0.581381 59.4892 0.915137 59.3488 1.30262L39.8191 53.3819L45.5324 53.3225L61.3162 12.2358L73.7988 53.3819H80.5755L80.2346 52.7028Z" fill="#04361D"/>
<path d="M38.3148 60.667L9.12207 132H16.2285L44.0466 60.667H38.3148Z" fill="#04361D"/>
<path d="M89.1566 96.4095L93.0136 90.2118L83.3803 62.812C81.1942 63.5765 79.9456 64.1035 77.0815 65.0647L89.1566 96.4095Z" fill="#04361D"/>
<path d="M103.169 17.8286L100.442 16.6559L98.2823 18.7341L97.1633 15.9247L94.2029 15.832L95.3515 13.0337L93.3248 10.8293L96.0592 9.6788L96.1518 6.64674L98.8825 7.82319L101.039 5.74121L102.162 8.55059L105.118 8.64337L103.973 11.4416L106 13.6461L103.262 14.7965L103.169 17.8286Z" fill="#04361D"/>
<path d="M99.442 21.8627C99.442 21.8627 99.0714 75.0776 98.9603 91.6741C98.9306 95.8752 98.0192 102.7 96.0666 106.393C91.902 114.246 85.6033 118.84 77.1334 120.955C60.2528 125.179 42.0384 118.469 42.0384 97.2632C42.0384 86.2892 51.1456 73.8826 68.782 67.1245C70.4049 66.5122 83.3061 61.5355 85.7886 60.8971C87.9783 60.333 89.9716 59.7838 91.4685 59.6205L91.8131 59.0193L92.0576 58.5999L95.1181 53.3448L95.0329 53.1816L2.64549 53.0517C2.14595 53.0628 1.65924 53.2122 1.2392 53.4833C0.819161 53.7543 0.48216 54.1364 0.265481 54.5874C0.0488023 55.0384 -0.0391083 55.5406 0.0114743 56.0385C0.0620569 56.5364 0.249162 57.0106 0.552089 57.4086L25.1838 89.3806L27.6551 83.8138L7.31024 58.611H63.1428C54.7878 64.7939 47.1515 70.7392 41.9458 78.722C39.0559 83.085 37.1423 88.0225 36.3362 93.1957C36.0758 94.9426 35.9482 96.7068 35.9546 98.473C35.9546 145.123 101.558 141.928 104.937 94.9697V21.859H99.442V21.8627Z" fill="#97051D"/>
</g>
<defs>
<clipPath id="clip0_105_89">
<rect width="106" height="132" fill="white"/>
</clipPath>
</defs>
</svg>
