<svg width="103" height="146" viewBox="0 0 103 146" fill="none" xmlns="http://www.w3.org/2000/svg">
<g filter="url(#filter0_d_1029_7317)">
<path d="M90.7876 101.19C84.8885 87.1626 62.9005 74.7679 62.9005 74.7679C58.1084 71.8658 69.8422 66.2415 69.8422 66.2415C95.4003 52.4557 93.4334 33.8337 93.4334 33.8337V12.3078L51.4278 10.091L9.42564 12.3078V33.8337C9.42564 33.8337 7.46043 52.4557 33.0168 66.2415C33.0168 66.2415 44.7523 71.8658 39.9603 74.7679C39.9603 74.7679 17.9653 87.1626 12.068 101.19C12.068 101.19 9.29509 107.479 9.39082 115.58V137.469H93.4647V115.58C93.5604 107.479 90.7876 101.19 90.7876 101.19ZM84.4933 108.313L84.6134 110.229L82.6656 110.177L80.0181 107.662L79.898 105.747L81.8458 105.798L84.4933 108.313ZM79.7762 103.516L82.3332 100.911L84.2792 100.792L84.227 102.711L81.67 105.317L79.7239 105.435L79.7762 103.516ZM76.9632 110.114L75.0172 110.232L75.0694 108.315L77.6264 105.709L79.5725 105.591L79.5203 107.508L76.9632 110.114ZM76.6151 100.837L79.2627 103.345L79.3828 105.26L77.4332 105.209L74.7857 102.692L74.6656 100.777L76.6151 100.837ZM89.7397 23.0014L89.8163 24.228L88.5682 24.1955L86.8763 22.5765L86.798 21.3499L88.046 21.3824L89.7432 22.9945L89.7397 23.0014ZM86.7179 19.9177L88.3559 18.2491L89.6004 18.1737L89.5674 19.402L87.9311 21.0707L86.6848 21.146L86.7179 19.9177ZM86.5543 22.4754L84.9163 24.1441L83.67 24.2194L83.7031 22.9911L85.341 21.3225L86.5874 21.2471L86.5543 22.4754ZM84.6953 18.2028L86.3907 19.8132L86.4673 21.0398L85.2192 21.0073L83.5238 19.3969L83.4472 18.1703L84.6953 18.2028ZM57.0919 33.1587L60.1154 30.1761V24.216H66.1729L70.4549 20.0016L71.7099 21.2368L74.7369 24.216H80.7944V30.1761L85.0765 34.3922L80.7944 38.6065V44.5666H74.7369L70.4549 48.7827L66.1729 44.5666H60.1154V38.6065L55.8403 34.3973L57.0919 33.1587ZM54.5975 22.9928L54.6741 24.2194L53.426 24.1869L51.7289 22.5765L51.6523 21.3499L52.9004 21.3824L54.5975 22.9945V22.9928ZM51.7289 49.0688L51.6523 47.8422L52.9004 47.8747L54.5975 49.4868L54.6741 50.7134L53.426 50.6809L51.7289 49.0688ZM51.5757 19.9143L53.2119 18.2456L54.4583 18.1703L54.4252 19.3986L52.789 21.0672L51.5426 21.1426L51.5757 19.9143ZM51.5757 46.4083L53.2119 44.7396L54.4583 44.6643L54.4252 45.8926L52.789 47.5612L51.5426 47.6366L51.5757 46.4083ZM51.4452 21.2437L51.4104 22.472L49.7741 24.1406L48.5278 24.216L48.5609 22.9877L50.1989 21.3191L51.4452 21.2437ZM49.7741 50.6346L48.5278 50.71L48.5609 49.4817L50.1989 47.8131L51.4452 47.7377L51.4121 48.9591L49.7759 50.6278L49.7741 50.6346ZM49.5531 18.1994L51.2502 19.8098L51.3268 21.0364L50.0788 21.0038L48.3833 19.3935L48.305 18.1668L49.5531 18.1994ZM49.5531 44.6934L51.2502 46.3038L51.3268 47.5304L50.0788 47.4978L48.3833 45.8874L48.305 44.6608L49.5531 44.6934ZM13.7251 19.3935L13.6467 18.1668L14.8948 18.1994L16.5919 19.8098L16.6685 21.0364L15.4205 21.0038L13.7251 19.3935ZM16.7538 22.4771L15.1176 24.1458L13.8713 24.2211L13.9044 22.9928L15.5406 21.3242L16.7869 21.2488L16.7538 22.4771ZM16.9192 19.9194L18.5554 18.2508L19.8017 18.1754L19.7686 19.4037L18.1307 21.0724L16.8844 21.1477L16.9192 19.9194ZM17.0724 22.5799L16.9958 21.3533L18.2438 21.3859L19.9392 22.998L20.0176 24.2246L18.7695 24.192L17.0724 22.5765V22.5799ZM41.0795 44.5718H36.7906L32.5085 48.7878L28.2265 44.5718H22.169V38.6117L19.142 35.6325L17.8939 34.3973L19.149 33.1604L22.169 30.1761V24.216H28.2265L32.5085 20.0016L33.7635 21.2368L36.7906 24.216H42.848V30.1761L47.1301 34.3922L42.848 38.6065V44.5666L41.0795 44.5718ZM29.0881 108.318L29.2082 110.234L27.2587 110.182L24.6059 107.662L24.4858 105.747L26.4354 105.798L29.0829 108.313L29.0881 108.318ZM24.3709 103.522L26.9262 100.916L28.8723 100.798L28.8218 102.716L26.2665 105.322L24.3205 105.44L24.3709 103.522ZM21.558 110.119L19.612 110.237L19.6642 108.32L22.2212 105.714L24.1673 105.596L24.1168 107.513L21.5598 110.119H21.558ZM21.2099 100.842L23.8575 103.357L23.9776 105.272L22.0298 105.221L19.384 102.692L19.2638 100.777L21.2099 100.842ZM34.2022 123.166L32.002 125.332V129.649H27.6033L24.4911 132.712L21.3787 129.649H16.9784V125.318L13.8661 122.255L14.7782 121.357L16.9784 119.199V114.866H21.3787L24.4911 111.805L27.6033 114.866H32.0037V119.199L35.116 122.26L34.2022 123.166ZM66.4427 118.763H57.6471L51.4278 124.886L45.2084 118.763H36.4111V110.107L30.1917 103.986L36.4111 97.8629V89.2064H45.2084L51.4278 83.0852L57.6471 89.2064H66.4444V97.8629L72.6638 103.986L66.4444 110.107L66.4427 118.763ZM89.3585 123.153L87.16 125.318V129.649H82.7527L79.6421 132.712L76.5298 129.649H72.126V125.318L69.0136 122.255L69.9258 121.357L72.126 119.199V114.866H76.5298L79.6421 111.805L82.7527 114.866H87.1548V119.199L89.3585 121.357L90.2723 122.255L89.3585 123.153Z" fill="#C1C1C1"/>
<path d="M37.3128 59.752C37.3128 59.752 48.1257 65.9194 49.292 70.6957C49.292 70.6957 50.7559 73.7485 50.6636 79.7446V80.1386C50.6636 80.274 50.6636 80.4076 50.6514 80.5446H50.6636V85.4922H52.1954V80.5446H52.2076C52.2076 80.4076 52.2076 80.274 52.1954 80.1386V79.796C52.091 73.7622 53.5653 70.6888 53.5653 70.6888C54.7194 65.9194 65.5376 59.752 65.5376 59.752H37.3128Z" fill="#858585"/>
<path d="M30.7139 116.13H27.069L24.491 113.595L21.9131 116.13H18.2682V119.728L15.692 122.263L18.2682 124.801V128.388H21.9131L24.491 130.925L27.069 128.388H30.7139V124.801L33.2918 122.263L30.7139 119.713V116.13ZM26.961 119.728L26.9349 120.692L25.6486 122.003L24.6703 122.061L24.6964 121.099L25.9828 119.788L26.961 119.728ZM24.4597 117.657L25.1334 118.357L25.1664 120.177L24.5172 120.9L23.8435 120.201L23.8105 118.38L24.4597 117.657ZM23.0028 119.862L24.3344 121.126L24.3953 122.089L23.4153 122.063L22.0837 120.797L22.0228 119.836L23.0028 119.862ZM20.5084 122.877L19.7739 122.239L20.4858 121.575L22.3361 121.544L23.0707 122.181L22.3587 122.846L20.5084 122.877ZM22.075 124.706L22.1011 123.742L23.3875 122.433L24.364 122.373L24.3379 123.338L23.0533 124.646L22.075 124.706ZM24.6059 126.856L23.9323 126.156L23.9097 124.338L24.5589 123.617L25.2326 124.316L25.2656 126.137L24.6059 126.856ZM26.1151 124.629L24.7852 123.365L24.7243 122.402L25.7043 122.428L27.0342 123.692L27.0951 124.655L26.1151 124.629ZM28.4946 122.841L26.6442 122.872L25.9097 122.234L26.6199 121.57L28.4702 121.539L29.2048 122.176L28.4946 122.841Z" fill="#C1C1C1"/>
<path d="M61.8978 42.8192H66.9144L70.4619 46.3106L74.0093 42.8192H79.0259V37.8819L82.5699 34.3973L79.0224 30.9059V25.9634H74.0093L70.4619 22.472L66.9144 25.9634H61.8978V30.9008L58.3521 34.3973L61.8978 37.887V42.8192ZM66.9301 37.9692L66.9684 36.561L68.8448 34.6474L70.2739 34.5601L70.2356 35.9683L68.3592 37.8836L66.9301 37.9692ZM70.6342 41.1129L69.649 40.085L69.602 37.4245L70.5507 36.3692L71.5359 37.397L71.5829 40.0559L70.6342 41.1129ZM72.8396 37.8579L70.8953 36.0094L70.8065 34.6029L72.2374 34.6406L74.1817 36.4891L74.2704 37.8956L72.8396 37.8579ZM77.3479 34.2808L76.3035 35.2505L73.6003 35.2967L72.528 34.363L73.5724 33.3934L76.2757 33.3471L77.3479 34.2808ZM74.0633 30.7037L74.025 32.1137L72.1486 34.0273L70.7195 34.1129L70.7578 32.7047L72.6481 30.7997L74.0633 30.7037ZM70.4079 27.6714L71.3931 28.6993L71.4401 31.3599L70.4932 32.4152L69.508 31.3873L69.4593 28.7285L70.4079 27.6714ZM68.2965 30.8905L70.2408 32.739L70.3296 34.1438L68.8988 34.1078L66.9544 32.2593L66.8674 30.8528L68.2965 30.8905ZM64.6185 33.3951L67.3217 33.3489L68.394 34.2808L67.3496 35.2505L64.6481 35.2967L63.5741 34.363L64.6185 33.3951Z" fill="#C1C1C1"/>
<path d="M41.0795 30.9008V25.9634H36.063L32.5155 22.472L28.968 25.9634H23.9514V30.9008L20.4057 34.3973L23.9514 37.887V42.8243H28.968L32.5155 46.3157L36.063 42.8243H41.0795V37.887L44.6235 34.3973L41.0795 30.9008ZM36.1221 30.7037L36.0838 32.1137L34.2074 34.0273L32.7783 34.1129L32.8166 32.7047L34.7018 30.7997L36.1221 30.7037ZM32.4668 27.6714L33.452 28.6993L33.499 31.3599L32.552 32.4152L31.5668 31.3873L31.5181 28.7285L32.4668 27.6714ZM30.3501 30.8905L32.2944 32.739L32.3832 34.1438L30.9524 34.1078L29.0081 32.2593L28.921 30.8528L30.3501 30.8905ZM26.6947 35.2967L25.6207 34.363L26.6651 33.3934L29.3684 33.3471L30.4406 34.2791L29.3962 35.2487L26.6947 35.2967ZM28.9802 37.9692L29.0185 36.561L30.8949 34.6474L32.324 34.5601L32.2857 35.9683L30.4093 37.8836L28.9802 37.9692ZM32.6843 41.1129L31.6991 40.085L31.6521 37.4245L32.6008 36.3692L33.586 37.397L33.633 40.0559L32.6843 41.1129ZM34.8898 37.8579L32.9454 36.0094L32.8567 34.6029L34.2875 34.6406L36.2318 36.4891L36.3206 37.8956L34.8898 37.8579ZM38.3711 35.2436L35.6678 35.2899L34.5956 34.3562L35.64 33.3865L38.3432 33.3403L39.4155 34.2722L38.3711 35.2436Z" fill="#C1C1C1"/>
<path d="M85.865 116.13H82.2218L79.6456 113.595L77.0677 116.13H73.4193V119.728L70.8413 122.263L73.4193 124.801V128.388H77.0642L79.6421 130.925L82.2183 128.388H85.865V124.801L88.4412 122.263L85.865 119.728V116.13ZM82.1104 119.728L82.0843 120.692L80.7997 122.003L79.8214 122.061L79.8475 121.099L81.1321 119.788L82.1104 119.728ZM79.6108 117.657L80.2862 118.357L80.3175 120.177L79.6682 120.9L78.9946 120.201L78.9615 118.38L79.6108 117.657ZM78.1556 119.862L79.4855 121.126L79.5464 122.089L78.5664 122.063L77.2365 120.797L77.1756 119.836L78.1556 119.862ZM75.6612 122.877L74.9267 122.239L75.6369 121.575L77.4872 121.544L78.2217 122.181L77.5116 122.846L75.6612 122.877ZM77.2278 124.706L77.2539 123.742L78.5386 122.433L79.5168 122.373L79.4907 123.338L78.2061 124.646L77.2278 124.706ZM79.764 126.858L79.0886 126.157L79.0538 124.338L79.7013 123.617L80.3767 124.316L80.408 126.137L79.764 126.858ZM81.2731 124.631L79.9415 123.367L79.8806 122.404L80.8606 122.43L82.1922 123.694L82.2514 124.657L81.2731 124.631ZM83.6509 122.843L81.8005 122.873L81.066 122.236L81.7779 121.571L83.6282 121.541L84.3628 122.178L83.6509 122.843Z" fill="#C1C1C1"/>
<path d="M63.8648 91.7299H56.5801L51.4278 86.6606L46.2754 91.7299H38.989V98.9011L33.8314 103.972L38.982 109.041V116.213H46.2685L51.4208 121.284L56.5732 116.213H63.8578V109.041L69.0102 103.972L63.8578 98.9011L63.8648 91.7299ZM56.5018 99.045L56.4496 100.962L53.8925 103.568L51.9465 103.686L51.9987 101.769L54.5557 99.1632L56.5018 99.045ZM51.5252 94.9129L52.8673 96.3057L52.9317 99.9273L51.6401 101.365L50.2998 99.9736L50.2354 96.3519L51.5252 94.9129ZM48.627 99.2969L51.2746 101.813L51.3947 103.729L49.4469 103.677L46.7993 101.161L46.6775 99.2472L48.627 99.2969ZM43.6662 105.293L42.204 104.023L43.6192 102.703L47.2989 102.639L48.7611 103.91L47.3459 105.23L43.6662 105.293ZM46.7785 108.932L46.8307 107.015L49.386 104.409L51.332 104.291L51.2798 106.208L48.7245 108.813L46.7785 108.932ZM51.8264 113.215L50.4861 111.822L50.4217 108.2L51.7132 106.763L53.0553 108.156L53.1197 111.777L51.8264 113.215ZM54.829 108.793L52.1815 106.276L52.0614 104.361L54.0092 104.412L56.6567 106.929L56.7768 108.844L54.829 108.793ZM59.5601 105.233L55.8804 105.296L54.42 104.027L55.8334 102.706L59.5131 102.643L60.9753 103.914L59.5601 105.233Z" fill="#C1C1C1"/>
<path d="M42.855 42.8192V38.6065L47.137 34.3922L42.855 30.1761V24.216H36.7906L33.7635 21.2368L32.5155 20.0068L28.2335 24.2211H22.169V30.1812L19.142 33.1604L17.8939 34.3973L22.169 38.6065V44.5666H28.2265L32.5085 48.7827L36.7906 44.5666H42.848L42.855 42.8192ZM41.0795 42.8192H36.063L32.5155 46.3106L28.968 42.8192H23.9514V37.8819L20.4057 34.3973L23.9514 30.9059V25.9634H28.968L32.5155 22.472L36.063 25.9634H41.0795V30.9008L44.6235 34.3973L41.0761 37.887L41.0795 42.8192Z" fill="#363636"/>
<path d="M60.1154 38.6065V44.5666H66.1729L70.4549 48.7827L74.7369 44.5666H80.7944V38.6065L85.0765 34.3922L80.7944 30.1761V24.216H74.7369L71.7099 21.2368L70.4619 20.0068L66.1799 24.2211H60.1154V30.1812L57.0884 33.1604L55.8403 34.3973L60.1154 38.6065ZM61.8909 30.8973V25.9634H66.9075L70.4549 22.472L74.0024 25.9634H79.019V30.9008L82.5699 34.3973L79.0225 37.887V42.8243H74.0094L70.4619 46.3157L66.9144 42.8243H61.8978L61.8978 37.887L58.3521 34.3973L61.8909 30.8973Z" fill="#363636"/>
<path d="M72.6638 103.972L66.4444 97.8492V89.1927H57.6471L51.4278 83.0715L45.2084 89.1927H36.4111V97.8492L30.1917 103.972L36.4111 110.093V118.75H45.2084L51.4278 124.873L57.6471 118.75H66.4444V110.093L72.6638 103.972ZM63.8648 109.041V116.213H56.5801L51.4278 121.284L46.2754 116.213H38.989V109.041L33.8314 103.972L38.982 98.9011V91.7299H46.2685L51.4208 86.6606L56.5732 91.7299H63.8578L63.8578 98.9011L69.0102 103.972L63.8648 109.041Z" fill="#363636"/>
<path d="M32.0037 119.199V114.866H27.6033L24.4911 111.805L21.3787 114.866H16.9784V119.199L13.8661 122.26L16.9784 125.323L16.9784 129.649H21.3787L24.4911 132.712L27.6033 129.649H32.0037V125.318L35.116 122.255L34.2039 121.357L32.0037 119.199ZM30.7139 124.797V128.385H27.069L24.491 130.922L21.9131 128.385H18.2682V124.797L15.692 122.26L18.2682 119.725V116.127H21.9131L24.491 113.591L27.069 116.127H30.7139V119.725L33.2918 122.26L30.7139 124.797Z" fill="#363636"/>
<path d="M87.1548 119.199V114.866H82.7527L79.6421 111.805L76.5298 114.866H72.126V119.199L69.0136 122.26L69.9258 123.158L72.126 125.318V129.649H76.5298L79.6421 132.712L82.7527 129.649H87.1548V125.318L89.3585 123.153L90.2723 122.255L89.3585 121.357L87.1548 119.199ZM85.865 124.797V128.385H82.2218L79.6456 130.922L77.0677 128.385H73.4193V124.797L70.8413 122.26L73.4193 119.725V116.127H77.0642L79.6421 113.591L82.2183 116.127H85.865V119.725L88.4412 122.26L85.865 124.797Z" fill="#363636"/>
<path d="M95.1288 6H7.85034C5.72386 6 4 7.69662 4 9.78951C4 11.8824 5.72386 13.579 7.85034 13.579H95.1288C97.2553 13.579 98.9791 11.8824 98.9791 9.78951C98.9791 7.69662 97.2553 6 95.1288 6Z" fill="#363636"/>
<path d="M51.2833 106.215L51.3355 104.296L49.3895 104.414L46.8324 107.02L46.7802 108.939L48.7263 108.82L51.2833 106.215Z" fill="#363636"/>
<path d="M51.9987 101.769L51.9465 103.688L53.8925 103.569L56.4496 100.964L56.5018 99.045L54.5557 99.1632L51.9987 101.769Z" fill="#363636"/>
<path d="M50.2998 99.9736L51.6401 101.366L52.9317 99.929L52.8673 96.3057L51.527 94.9146L50.2354 96.3519L50.2998 99.9736Z" fill="#363636"/>
<path d="M53.0518 108.157L51.7097 106.765L50.4199 108.204L50.4843 111.825L51.8246 113.218L53.1162 111.779L53.0518 108.157Z" fill="#363636"/>
<path d="M59.5131 102.646L55.8334 102.709L54.4182 104.029L55.8786 105.3L59.5584 105.236L60.9735 103.916L59.5131 102.646Z" fill="#363636"/>
<path d="M47.3477 105.236L48.7628 103.916L47.3007 102.646L43.6209 102.709L42.2075 104.029L43.6679 105.3L47.3477 105.236Z" fill="#363636"/>
<path d="M46.8011 101.162L49.4486 103.677V103.679L51.3982 103.729L51.2781 101.814L51.2763 101.815L48.6288 99.2986L46.681 99.2472L46.8011 101.162Z" fill="#363636"/>
<path d="M56.6567 106.931L54.0092 104.416V104.414L52.0596 104.364L52.1797 106.28V106.278L54.8273 108.795L56.7768 108.846L56.6567 106.931Z" fill="#363636"/>
<path d="M32.2909 35.97L32.3292 34.5618L30.9002 34.6474L29.022 36.5627L28.9837 37.971L30.4128 37.8836L32.2909 35.97Z" fill="#363636"/>
<path d="M32.8166 32.7064L32.7783 34.1146L34.2074 34.0273L36.0856 32.1137L36.1221 30.7055L34.6948 30.7928L32.8166 32.7064Z" fill="#363636"/>
<path d="M31.5686 31.3873L32.5538 32.41L33.5007 31.3547L33.4537 28.6942L32.4685 27.6714L31.5216 28.7268L31.5686 31.3873Z" fill="#363636"/>
<path d="M33.5895 37.397L32.6043 36.3743L31.6556 37.4313L31.7043 40.0901L32.6896 41.1129L33.6365 40.0576L33.5895 37.397Z" fill="#363636"/>
<path d="M38.3345 33.3489L35.6313 33.3951L34.5921 34.3648L35.6661 35.2984L38.3676 35.2522L39.4068 34.2825L38.3345 33.3489Z" fill="#363636"/>
<path d="M29.4014 35.2522L30.4389 34.2825L29.3666 33.3489L26.6634 33.3951L25.6242 34.3648L26.6982 35.2984L29.4014 35.2522Z" fill="#363636"/>
<path d="M28.9994 32.2593L30.9437 34.1078L32.3745 34.1455L32.2857 32.739L30.3414 30.8905L28.9106 30.8528L28.9994 32.2593Z" fill="#363636"/>
<path d="M36.237 36.4959L34.2927 34.6491L32.8601 34.6114L32.9489 36.018L34.8932 37.8647L36.3241 37.9024L36.237 36.4959Z" fill="#363636"/>
<path d="M70.2373 35.97L70.2756 34.5618L68.8465 34.6474L66.9684 36.5627L66.9301 37.971L68.3592 37.8836L70.2373 35.97Z" fill="#363636"/>
<path d="M70.763 32.7064L70.7247 34.1146L72.1538 34.0273L74.032 32.1137L74.0703 30.7055L72.6395 30.7928H72.6412L70.763 32.7064Z" fill="#363636"/>
<path d="M69.515 31.3873L70.5002 32.41L71.4471 31.3547L71.4001 28.6942L70.4149 27.6714L69.468 28.7268L69.515 31.3873Z" fill="#363636"/>
<path d="M71.5359 37.397L70.5507 36.3743L69.602 37.4313L69.6507 40.0901L70.6359 41.1129L71.5829 40.0576L71.5359 37.397Z" fill="#363636"/>
<path d="M73.5777 33.3951L72.5385 34.3648L73.6125 35.2984L76.314 35.2522L77.3532 34.2825L76.2809 33.3489L73.5777 33.3951Z" fill="#363636"/>
<path d="M64.6446 35.2984L67.3478 35.2522L68.3853 34.2825L67.313 33.3489L64.6098 33.3951L63.5723 34.3648L64.6446 35.2984Z" fill="#363636"/>
<path d="M66.9457 32.2593L68.8901 34.1078L70.3209 34.1455L70.2321 32.739L68.2878 30.8905L66.857 30.8528L66.9457 32.2593Z" fill="#363636"/>
<path d="M74.1834 36.4959L72.2374 34.6491H72.2391L70.8065 34.6114L70.8953 36.018L72.8396 37.8647L74.2704 37.9024L74.1834 36.4959Z" fill="#363636"/>
<path d="M24.3379 123.336L24.364 122.371L23.3857 122.431L22.0994 123.742L22.0733 124.706L23.0515 124.646L24.3379 123.336Z" fill="#363636"/>
<path d="M24.6982 121.102L24.6721 122.066L25.6503 122.006L26.9349 120.696L26.961 119.733L25.9828 119.791L24.6982 121.102Z" fill="#363636"/>
<path d="M23.8435 120.199L24.5172 120.9L25.1664 120.177L25.1334 118.356L24.4597 117.657L23.8105 118.38L23.8435 120.199Z" fill="#363636"/>
<path d="M25.2256 124.314H25.2273L24.552 123.613L23.9027 124.336L23.9358 126.157L24.6094 126.856L25.2587 126.133L25.2256 124.314Z" fill="#363636"/>
<path d="M28.4737 121.542L26.6251 121.575L25.9132 122.238L26.6477 122.877L28.4981 122.844L29.2082 122.181L28.4737 121.542Z" fill="#363636"/>
<path d="M22.3587 122.844L23.0707 122.181L22.3361 121.542L20.4858 121.575L19.7756 122.238L20.5102 122.877L22.3587 122.844Z" fill="#363636"/>
<path d="M22.0837 120.797L23.4153 122.061L24.3953 122.087L24.3344 121.124L23.0028 119.86L22.0245 119.834L22.0837 120.797Z" fill="#363636"/>
<path d="M27.0376 123.697L25.7078 122.431L24.7278 122.406L24.7887 123.368L26.1186 124.634L27.0986 124.66L27.0376 123.697Z" fill="#363636"/>
<path d="M79.4872 123.336L79.5133 122.371L78.5351 122.431L77.2505 123.742L77.2243 124.706L78.2026 124.646L79.4872 123.336Z" fill="#363636"/>
<path d="M79.8475 121.102L79.8214 122.066L80.7997 122.006L82.0843 120.696L82.1104 119.733L81.1321 119.791L79.8475 121.102Z" fill="#363636"/>
<path d="M78.9929 120.199L79.6682 120.9L80.3158 120.177L80.2844 118.356L79.609 117.657L78.9615 118.38L78.9929 120.199Z" fill="#363636"/>
<path d="M80.3767 124.314L79.703 123.613L79.0538 124.336L79.0869 126.157L79.7605 126.856L80.4098 126.133L80.3767 124.314Z" fill="#363636"/>
<path d="M83.6248 121.542L81.7744 121.575L81.0642 122.238L81.7971 122.877L83.6474 122.844L84.3593 122.181L83.6248 121.542Z" fill="#363636"/>
<path d="M77.5098 122.844L78.22 122.181L77.4854 121.542L75.6369 121.575L74.9249 122.238L75.6595 122.877L77.5098 122.844Z" fill="#363636"/>
<path d="M77.2348 120.797L78.5664 122.061L79.5446 122.087L79.4855 121.124H79.4837L78.1539 119.86L77.1739 119.834L77.2348 120.797Z" fill="#363636"/>
<path d="M82.1887 123.697L80.8571 122.431L79.8789 122.406L79.938 123.368L81.2696 124.634L82.2496 124.66L82.1887 123.697Z" fill="#363636"/>
<path d="M24.1151 107.501L24.1673 105.582L22.2212 105.701L19.6642 108.306L19.612 110.225L21.558 110.107L24.1151 107.501Z" fill="#363636"/>
<path d="M26.2648 105.308L28.8218 102.703L28.874 100.786L26.928 100.904L24.3709 103.51L24.3187 105.427L26.2648 105.308Z" fill="#363636"/>
<path d="M19.384 102.694L22.0315 105.211L23.981 105.26L23.8609 103.347L21.2116 100.83H21.2134L19.2638 100.779L19.384 102.694Z" fill="#363636"/>
<path d="M26.4406 105.798L24.491 105.747L24.6129 107.662L27.2604 110.179L29.2082 110.23L29.0881 108.315L26.4406 105.798Z" fill="#363636"/>
<path d="M79.5203 107.501L79.5725 105.582L77.6264 105.701L75.0694 108.306L75.0189 110.225L76.965 110.107H76.9632L79.5203 107.501Z" fill="#363636"/>
<path d="M81.67 105.308L84.227 102.703L84.2792 100.786L82.3332 100.904L79.7762 103.51L79.7257 105.427L81.67 105.308Z" fill="#363636"/>
<path d="M74.7892 102.694L77.4367 105.211L79.3862 105.26L79.2661 103.347L76.6186 100.83L74.6691 100.779L74.7892 102.694Z" fill="#363636"/>
<path d="M81.8475 105.798L79.898 105.747L80.0181 107.662L82.6656 110.179L84.6152 110.23L84.4951 108.315L81.8458 105.798L81.8475 105.798Z" fill="#363636"/>
<path d="M51.4121 48.966L51.4452 47.7377L50.1989 47.8131L48.5609 49.4834V49.4817L48.5278 50.7117L49.7741 50.6346L51.4121 48.966Z" fill="#363636"/>
<path d="M52.789 47.5629L54.4252 45.8926L54.4252 45.8943L54.46 44.6643L53.2137 44.7414L51.5757 46.41L51.5426 47.6383L52.789 47.5629Z" fill="#363636"/>
<path d="M48.3816 45.8875L50.077 47.4995L51.3251 47.5321L51.2485 46.3055L49.5531 44.6934L48.305 44.6608L48.3816 45.8875Z" fill="#363636"/>
<path d="M54.6741 50.7134L54.5975 49.4868L52.9021 47.8764L51.6523 47.8439L51.7306 49.0705L53.426 50.6809L54.6741 50.7134Z" fill="#363636"/>
<path d="M50.1989 21.3191L48.5609 22.9894L48.5278 24.2177L49.7741 24.1406L51.4121 22.472L51.4452 21.2437L50.1989 21.3191Z" fill="#363636"/>
<path d="M52.789 21.0689L54.4252 19.3986L54.46 18.1703L53.2137 18.2474L51.5757 19.916L51.5426 21.1443L52.789 21.0689Z" fill="#363636"/>
<path d="M48.3816 19.3935L50.077 21.0055L51.3251 21.0381L51.2485 19.8115L49.5531 18.1994L48.305 18.1668L48.3816 19.3935Z" fill="#363636"/>
<path d="M52.9021 21.3824L51.6523 21.3482L51.7306 22.5748L53.426 24.1869L54.6741 24.2194L54.5975 22.9928L52.9021 21.3824Z" fill="#363636"/>
<path d="M15.5423 21.3191L13.9044 22.9894L13.8713 24.2177L15.1176 24.1406L16.7556 22.472L16.7886 21.2437L15.5423 21.3191Z" fill="#363636"/>
<path d="M18.1324 21.0689L19.7686 19.3986L19.8017 18.1703L18.5571 18.2474L16.9192 19.916L16.8861 21.1443L18.1324 21.0689Z" fill="#363636"/>
<path d="M15.4205 21.0055L16.6685 21.0381L16.5919 19.8115L14.8965 18.1994L13.6467 18.1668L13.7251 19.3935L15.4205 21.0055Z" fill="#363636"/>
<path d="M18.7695 24.1869L20.0176 24.2194L19.941 22.9928L18.2438 21.3824L16.9958 21.3482L17.0741 22.5748L18.7695 24.1869Z" fill="#363636"/>
<path d="M85.3445 21.3191L83.7066 22.9894L83.6735 24.2177L84.9198 24.1406L86.5578 22.472L86.5908 21.2437L85.3445 21.3191Z" fill="#363636"/>
<path d="M87.9346 21.0689L89.5726 19.3986L89.6057 18.1703L88.3593 18.2474L86.7214 19.916L86.6883 21.1443L87.9346 21.0689Z" fill="#363636"/>
<path d="M83.5273 19.3935L85.2227 21.0055L86.4707 21.0381L86.3941 19.8115L84.6987 18.1994L83.4507 18.1668L83.5273 19.3935Z" fill="#363636"/>
<path d="M88.0478 21.3824L86.7997 21.3482L86.8763 22.5748L88.5717 24.1869L89.8198 24.2194L89.7432 22.9928L88.0478 21.3824Z" fill="#363636"/>
<path d="M60.6828 130.656C60.6828 130.656 52.9839 125.457 51.4278 125.215C49.8716 125.457 42.1709 130.656 42.1709 130.656C33.8767 137.187 26.5659 140.211 26.5659 140.211H76.2879C76.2879 140.211 68.9771 137.187 60.6828 130.656Z" fill="#858585"/>
<path d="M95.1497 136.421H7.87123C5.74474 136.421 4.02089 138.118 4.02089 140.21C4.02089 142.303 5.74474 144 7.87123 144H95.1497C97.2761 144 99 142.303 99 140.21C99 138.118 97.2761 136.421 95.1497 136.421Z" fill="#363636"/>
</g>
<defs>
<filter id="filter0_d_1029_7317" x="0" y="0" width="103" height="146" filterUnits="userSpaceOnUse" color-interpolation-filters="sRGB">
<feFlood flood-opacity="0" result="BackgroundImageFix"/>
<feColorMatrix in="SourceAlpha" type="matrix" values="0 0 0 0 0 0 0 0 0 0 0 0 0 0 0 0 0 0 127 0" result="hardAlpha"/>
<feOffset dy="-2"/>
<feGaussianBlur stdDeviation="2"/>
<feComposite in2="hardAlpha" operator="out"/>
<feColorMatrix type="matrix" values="0 0 0 0 0 0 0 0 0 0 0 0 0 0 0 0 0 0 0.25 0"/>
<feBlend mode="normal" in2="BackgroundImageFix" result="effect1_dropShadow_1029_7317"/>
<feBlend mode="normal" in="SourceGraphic" in2="effect1_dropShadow_1029_7317" result="shape"/>
</filter>
</defs>
</svg>
