<svg width="155" height="253" viewBox="0 0 155 253" fill="none" xmlns="http://www.w3.org/2000/svg">
<path d="M144.921 252H9.17718C4.17145 252 0.0981515 247.928 0.0981515 242.923V156.47C0.0981515 151.465 4.17145 147.393 9.17718 147.393H11.0421C5.64372 137.04 2.11026 125.755 0.736138 114.519C-1.32248e-07 108.386 -0.83429 95.9229 2.01211 81.1051C2.06119 80.7617 2.15934 80.222 2.25749 79.5351C2.79732 75.8551 3.87699 68.25 7.50861 59.5654C16.195 38.8107 29.2983 27.2313 35.58 21.6869C35.9726 21.3435 36.3161 21.0491 36.6106 20.7547C47.9962 10.6472 61.6883 3.53271 76.2639 0.147196L77 0L77.7361 0.147196C92.3117 3.48365 106.004 10.6472 117.389 20.8037C117.684 21.0981 118.027 21.3925 118.42 21.736C124.702 27.2804 137.805 38.8107 146.491 59.6145C150.074 68.25 151.203 75.8551 151.743 79.5351C151.841 80.222 151.939 80.8107 151.988 81.1542C154.883 95.972 154.049 108.435 153.264 114.568C151.89 125.804 148.356 137.04 142.958 147.442H144.921C149.927 147.442 154 151.514 154 156.519V242.972C154 247.977 149.927 252.049 144.921 252.049V252ZM9.17718 153.771C7.70491 153.771 6.47801 154.998 6.47801 156.47V242.923C6.47801 244.395 7.70491 245.622 9.17718 245.622H144.921C146.393 245.622 147.62 244.395 147.62 242.923V156.47C147.62 154.998 146.393 153.771 144.921 153.771H134.86C133.584 153.771 132.799 152.397 133.437 151.269L134.811 148.963C141.24 138.07 145.461 125.902 146.933 113.734C147.62 107.993 148.405 96.2664 145.706 82.3318C145.608 81.8411 145.51 81.2033 145.412 80.4182C144.921 77.0327 143.89 69.9182 140.602 62.0678C132.456 42.6379 120.138 31.7453 114.199 26.4953C113.807 26.1519 113.463 25.8575 113.12 25.5631C102.716 16.2897 90.2505 9.71495 77 6.5257C63.7495 9.71495 51.2843 16.2897 40.8802 25.5631C40.5367 25.8575 40.1931 26.1519 39.8005 26.4953C33.8623 31.7453 21.5443 42.6379 13.3977 62.0678C10.1096 69.9673 9.07903 77.0818 8.58827 80.4673C8.49012 81.2523 8.39197 81.8902 8.29382 82.3318C5.59465 96.2664 6.37986 107.993 7.06692 113.734C8.5392 125.853 12.7597 138.021 19.1887 148.963L20.5628 151.269C21.2008 152.348 20.4156 153.771 19.1396 153.771H9.17718Z" fill="white"/>
</svg>
