<svg width="19" height="25" viewBox="0 0 19 25" fill="none" xmlns="http://www.w3.org/2000/svg">
<g clip-path="url(#clip0_409_1448)">
<path d="M18.0677 7.62877C18.0723 7.54996 18.0689 7.47086 18.0577 7.39278C18.05 7.34202 18.0315 7.29371 18.0035 7.25141C17.9754 7.20911 17.9386 7.1739 17.8958 7.14839C17.8529 7.12289 17.8051 7.10773 17.7558 7.10404C17.7066 7.10036 17.6571 7.10824 17.6112 7.1271C17.5327 7.15382 17.4571 7.19241 17.3801 7.22654L15.383 8.09779C15.6939 6.01986 15.1476 4.2002 13.8138 2.66551C12.48 1.13081 10.771 0.403538 8.77954 0.511887C4.57982 0.750848 2.12476 4.90818 2.84944 8.1438C2.77241 8.11263 2.70678 8.0874 2.63831 8.05771C1.96641 7.76087 1.29737 7.46402 0.625473 7.16717C0.285958 7.01875 0.0776837 7.16717 0.0776837 7.55159C0.0776837 12.4278 0.0776837 17.303 0.0776837 22.1772C0.0711816 22.2727 0.0957986 22.3677 0.147562 22.4469C0.199326 22.5261 0.275218 22.5848 0.36299 22.6136C1.76813 23.234 3.17183 23.8588 4.58125 24.4688C4.69897 24.5149 4.82873 24.5149 4.94644 24.4688C6.29737 23.8752 7.64402 23.2815 8.99352 22.6878C9.06865 22.6595 9.15091 22.6595 9.22604 22.6878C10.577 23.2815 11.9236 23.8826 13.2731 24.4688C13.3756 24.5134 13.4902 24.5176 13.5955 24.4807C14.9735 23.8737 16.343 23.2488 17.721 22.6432C17.8363 22.6069 17.9357 22.5297 18.0019 22.425C18.0681 22.3203 18.0969 22.1948 18.0834 22.0703C18.0691 17.2545 18.0639 12.4406 18.0677 7.62877ZM3.98211 4.47033C4.50602 3.36375 5.34822 2.45445 6.39167 1.86878C7.43511 1.2831 8.62799 1.05014 9.80454 1.20226C10.9811 1.35438 12.0829 1.88403 12.9568 2.71761C13.8308 3.55118 14.4334 4.6473 14.6811 5.85363C14.8779 6.69659 14.8378 7.58064 14.5656 8.40057C14.0963 9.75352 13.4945 11.0526 12.7696 12.2774C11.5898 14.3063 10.3687 16.31 9.16327 18.3241C9.14758 18.3508 9.12619 18.3731 9.09338 18.4176C8.48139 17.4202 7.88082 16.4495 7.28738 15.4759C6.26599 13.7987 5.25743 12.1141 4.40721 10.3345C4.02776 9.54046 3.66256 8.73749 3.47283 7.8707C3.21178 6.67293 3.46855 5.54046 3.98211 4.47033ZM17.1932 22.1475C16.1533 22.5928 15.1191 23.0484 14.082 23.5011C13.9921 23.5412 13.9022 23.5783 13.7795 23.6303V14.8555C13.7795 14.7768 13.7795 14.6967 13.7795 14.618C13.7795 14.5243 13.7438 14.4345 13.6801 14.3682C13.6164 14.302 13.5301 14.2648 13.44 14.2648C13.35 14.2648 13.2636 14.302 13.1999 14.3682C13.1363 14.4345 13.1005 14.5243 13.1005 14.618C13.0969 14.6892 13.0969 14.7605 13.1005 14.8317V23.6406L11.7125 23.0336C10.9208 22.6878 10.129 22.3449 9.34017 21.9946C9.25894 21.954 9.16996 21.9329 9.07982 21.9329C8.98969 21.9329 8.90071 21.954 8.81948 21.9946C7.67825 22.5067 6.52704 23.0084 5.38011 23.513C5.3045 23.5457 5.22604 23.5753 5.11477 23.6199V14.8228C5.11477 14.4458 4.9978 14.2662 4.76242 14.2752C4.52704 14.2841 4.43004 14.4518 4.43004 14.8228V23.6288C4.35728 23.605 4.30022 23.5931 4.24744 23.5694C3.14045 23.0855 2.03631 22.5972 0.927898 22.1178C0.87073 22.1022 0.820856 22.0657 0.787346 22.0151C0.753836 21.9644 0.738917 21.9029 0.745301 21.8418C0.745301 17.2901 0.745301 12.7385 0.745301 8.18684C0.745301 8.13341 0.752434 8.07998 0.759567 7.99686L1.75814 8.42729C2.16613 8.60391 2.57412 8.7746 2.97783 8.95864C3.0669 8.99828 3.1393 9.06992 3.18182 9.16049C3.91363 11.0544 4.9065 12.8043 5.9336 14.5334C6.86798 16.1082 7.82519 17.6681 8.77241 19.234C8.95358 19.5308 9.2346 19.5501 9.40721 19.2622C10.731 17.0462 12.062 14.8347 13.3658 12.6054C14.017 11.4987 14.5755 10.3357 15.0349 9.12933C15.0644 9.05168 15.1195 8.98749 15.1904 8.94825C15.9036 8.63062 16.6169 8.3219 17.3302 8.01319C17.3606 8.00575 17.3917 8.00226 17.4229 8.0028V8.25957C17.4229 12.7637 17.4229 17.2659 17.4229 21.7661C17.435 21.8477 17.4184 21.9312 17.3763 22.0012C17.3341 22.0713 17.2691 22.1232 17.1932 22.1475Z" fill="black"/>
<path d="M6.43418 8.46886C6.44691 8.4818 6.457 8.49727 6.46387 8.51436C6.47073 8.53144 6.47422 8.54979 6.47412 8.5683V9.8106C6.47412 9.92869 6.51921 10.0419 6.59947 10.1255C6.67973 10.209 6.78858 10.2559 6.90208 10.2559H8.09609C8.13164 10.2564 8.16572 10.2707 8.19167 10.2959L9.03618 11.1746C9.07506 11.2156 9.12137 11.2481 9.17243 11.2703C9.22348 11.2925 9.27827 11.304 9.33361 11.304C9.38895 11.304 9.44374 11.2925 9.49479 11.2703C9.54585 11.2481 9.59216 11.2156 9.63104 11.1746L10.4756 10.2959C10.4881 10.2829 10.503 10.2726 10.5194 10.2657C10.5358 10.2589 10.5534 10.2555 10.5711 10.2559H11.7651C11.8774 10.2539 11.9844 10.2062 12.0631 10.1229C12.1419 10.0396 12.186 9.92742 12.186 9.8106V8.56682C12.1856 8.54839 12.1888 8.53009 12.1954 8.513C12.2021 8.49591 12.2119 8.48039 12.2245 8.46737L13.069 7.58871C13.1461 7.50568 13.1892 7.39472 13.1892 7.27925C13.1892 7.16377 13.1461 7.05281 13.069 6.96978L12.2245 6.09112C12.2002 6.06412 12.1864 6.02866 12.186 5.99168V4.75086C12.186 4.63404 12.1419 4.5219 12.0631 4.4386C11.9844 4.35531 11.8774 4.30754 11.7651 4.30559H10.5597C10.5419 4.30569 10.5243 4.30206 10.5079 4.29492C10.4914 4.28778 10.4766 4.27728 10.4641 4.26403L9.61963 3.38537C9.53983 3.30511 9.43318 3.26025 9.3222 3.26025C9.21121 3.26025 9.10457 3.30511 9.02477 3.38537L8.18026 4.26403C8.15453 4.28986 8.12042 4.30469 8.08468 4.30559H6.89067C6.77717 4.30559 6.66832 4.3525 6.58806 4.43601C6.5078 4.51951 6.46271 4.63277 6.46271 4.75086V5.99316C6.46184 6.03035 6.44759 6.06584 6.42277 6.09261L5.57826 6.97127C5.50113 7.0543 5.45801 7.16526 5.45801 7.28073C5.45801 7.39621 5.50113 7.50717 5.57826 7.59019L6.43418 8.46886ZM11.6068 6.47702L12.283 7.18055C12.3066 7.20782 12.3197 7.24325 12.3197 7.27999C12.3197 7.31673 12.3066 7.35216 12.283 7.37943L11.6054 8.08296C11.5272 8.16577 11.4831 8.27707 11.4827 8.39316V9.3876C11.4827 9.42696 11.4677 9.46471 11.4409 9.49255C11.4141 9.52038 11.3779 9.53602 11.34 9.53602H10.3843C10.2727 9.5365 10.1657 9.5823 10.0861 9.66366L9.40993 10.3672C9.38372 10.3918 9.34966 10.4054 9.31435 10.4054C9.27904 10.4054 9.24499 10.3918 9.21877 10.3672L8.5426 9.66366C8.50362 9.62315 8.45735 9.59103 8.40644 9.56913C8.35553 9.54723 8.30097 9.53598 8.24588 9.53602H7.2901C7.25227 9.53602 7.21598 9.52038 7.18923 9.49255C7.16248 9.46471 7.14745 9.42696 7.14745 9.3876V8.39316C7.14776 8.33558 7.13707 8.27851 7.11601 8.22526C7.09495 8.17201 7.06394 8.12364 7.02477 8.08296L6.36143 7.37943C6.33777 7.35216 6.32467 7.31673 6.32467 7.27999C6.32467 7.24325 6.33777 7.20782 6.36143 7.18055L7.0376 6.47702C7.07667 6.43657 7.10762 6.38845 7.12868 6.33545C7.14974 6.28246 7.16048 6.22564 7.16029 6.1683V5.17238C7.16212 5.13432 7.17795 5.09845 7.20451 5.0722C7.23107 5.04595 7.26631 5.03133 7.30294 5.03138H8.26014C8.31528 5.03175 8.36993 5.02065 8.42089 4.99873C8.47185 4.97681 8.51808 4.94451 8.55686 4.90374L9.23304 4.20021C9.25934 4.17518 9.29369 4.1613 9.32933 4.1613C9.36497 4.1613 9.39932 4.17518 9.42562 4.20021L10.1004 4.90374C10.18 4.9851 10.2869 5.0309 10.3985 5.03138H11.3543C11.3909 5.03133 11.4262 5.04595 11.4527 5.0722C11.4793 5.09845 11.4951 5.13432 11.4969 5.17238V6.1683C11.4933 6.28221 11.5327 6.39307 11.6068 6.47702Z" fill="black"/>
</g>
<defs>
<clipPath id="clip0_409_1448">
<rect width="18" height="24" fill="white" transform="translate(0.0732422 0.5)"/>
</clipPath>
</defs>
</svg>
