<svg width="31" height="38" viewBox="0 0 31 38" fill="none" xmlns="http://www.w3.org/2000/svg">
<g clip-path="url(#clip0_1028_3589)">
<path d="M18.653 0.849031C18.5704 0.60625 18.4135 0.397377 18.1983 0.244113C17.9816 0.0894923 17.7221 0.00540052 17.4527 -2.47593e-05C17.1833 -0.00680636 16.9196 0.0691475 16.6958 0.21563C16.4719 0.362113 16.3066 0.566917 16.2168 0.802916L10.5117 15.2993L13.6779 15.2681L17.3743 6.1007L20.2995 15.3739H23.7508L18.653 0.849031Z" fill="#08361F"/>
<path d="M9.25039 19.4008L2.94946 33.8849C2.40205 35.1422 2.81403 36.5975 3.95162 37.4235L4.74423 38L12.418 19.4008H9.24896H9.25039Z" fill="#08361F"/>
<path d="M26.0987 22.7875L24.5064 18.4717L23.7965 18.7077C23.5527 18.7891 23.3517 18.8596 23.1464 18.9328C22.8513 19.0359 22.5463 19.1444 22.0901 19.2895L21.3374 19.5296L24.7302 27.6865L25.7067 26.1905C26.3767 25.1651 26.5193 23.9254 26.0987 22.7861V22.7875Z" fill="#08361F"/>
<path d="M27.0908 5.29369V6.00847C27.0908 6.20513 26.9896 21.6034 26.9597 25.8826C26.9511 26.9921 26.6874 28.602 26.2583 29.3724C25.2476 31.1872 23.7621 32.2736 21.5825 32.7931C19.2788 33.3424 17.2217 33.0603 15.7905 31.9969C14.4319 30.9892 13.7149 29.3005 13.7149 27.1155C13.7149 24.0679 15.8617 21.6061 19.7564 20.1847C21.5411 19.5432 24.348 18.5626 24.7686 18.4744L25.1364 18.4364L26.1 16.7776C26.2711 16.4833 26.2668 16.1334 26.0886 15.8431C25.9104 15.5529 25.5926 15.3766 25.239 15.3738L1.47938 15.146H1.45515C1.18002 15.1514 0.912012 15.2301 0.679647 15.3725C0.448708 15.5149 0.263387 15.7143 0.145066 15.9503C0.0267457 16.1863 -0.021723 16.4481 0.00536246 16.7098C0.0324479 16.9702 0.135087 17.2184 0.301877 17.426L6.08248 24.2754L6.93068 22.4552C7.24715 21.7757 7.11885 20.9754 6.60566 20.4166L4.40176 18.02H15.8062C14.4148 19.1783 13.3742 20.3475 12.3079 21.9072C11.4554 23.1347 10.9023 24.4951 10.6628 25.9545C10.5858 26.4414 10.5487 26.9392 10.5502 27.4302C10.5502 33.7764 14.9323 36.7657 19.2745 36.9149C19.3928 36.919 19.5097 36.9217 19.6295 36.9217C24.5049 36.9217 29.5827 33.5011 30.0887 26.7954V5.29369H27.088H27.0908Z" fill="#981B21"/>
<path d="M30.9998 2.40337L30.2799 1.7225L30.2827 0.756797L29.2677 0.759509L28.5521 0.0732117L27.8365 0.759509L26.8201 0.756797L26.8229 1.7225L26.103 2.40337L26.8229 3.08424L26.8201 4.0513L27.8365 4.04723L28.5521 4.73352L29.2677 4.04723L30.2827 4.0513L30.2799 3.08424L30.9998 2.40337Z" fill="#08361F"/>
</g>
<defs>
<clipPath id="clip0_1028_3589">
<rect width="31" height="38" fill="white"/>
</clipPath>
</defs>
</svg>
