<svg width="29" height="29" viewBox="0 0 29 29" fill="none" xmlns="http://www.w3.org/2000/svg">
<path d="M14.5 10.875V15.7083M14.5 20.5417H14.5121M12.4337 4.66417L2.19916 21.75C1.98815 22.1154 1.8765 22.5297 1.87531 22.9517C1.87413 23.3737 1.98346 23.7886 2.19243 24.1552C2.40139 24.5218 2.7027 24.8273 3.06639 25.0413C3.43008 25.2553 3.84346 25.3704 4.26541 25.375H24.7346C25.1565 25.3704 25.5699 25.2553 25.9336 25.0413C26.2973 24.8273 26.5986 24.5218 26.8076 24.1552C27.0165 23.7886 27.1259 23.3737 27.1247 22.9517C27.1235 22.5297 27.0118 22.1154 26.8008 21.75L16.5662 4.66417C16.3508 4.30905 16.0475 4.01544 15.6856 3.81167C15.3237 3.6079 14.9153 3.50085 14.5 3.50085C14.0846 3.50085 13.6763 3.6079 13.3144 3.81167C12.9525 4.01544 12.6492 4.30905 12.4337 4.66417Z" stroke="#97051D" stroke-width="2.5" stroke-linecap="round" stroke-linejoin="round"/>
</svg>
