<svg width="30" height="37" viewBox="0 0 30 37" fill="none" xmlns="http://www.w3.org/2000/svg">
<path d="M17.6137 14.7391C17.3466 14.6803 17.0795 14.626 16.7853 14.5808H16.7174C17.6786 14.3536 18.523 13.7824 19.091 12.9753C19.6589 12.1682 19.911 11.1811 19.7995 10.2009C19.6879 9.22071 19.2206 8.31532 18.4858 7.65606C17.751 6.99681 16.7997 6.6294 15.812 6.62337C14.8178 6.6226 13.8584 6.98858 13.1178 7.65107C12.3772 8.31357 11.9077 9.22589 11.7994 10.2129C11.6911 11.2 11.9516 12.1922 12.5309 12.9992C13.1102 13.8062 13.9676 14.371 14.9383 14.5853H14.884C13.2674 14.7733 11.7413 15.4301 10.4943 16.4746C9.24735 17.5192 8.33407 18.9058 7.86734 20.463C7.53743 21.8679 7.43806 23.317 7.5731 24.7537V24.9662C7.6176 25.2178 7.75489 25.4436 7.95788 25.5992C8.18347 25.7169 8.43727 25.7701 8.69123 25.7529C12.2086 25.7529 15.7441 25.7529 19.266 25.7529H23.055C23.1913 25.7684 23.3294 25.7527 23.4588 25.7071C23.5882 25.6615 23.7055 25.5871 23.8018 25.4895C23.8982 25.392 23.9711 25.2738 24.015 25.144C24.059 25.0142 24.0728 24.8761 24.0554 24.7401C24.0554 24.0212 24.0554 23.3204 24.0554 22.6016C24.0145 20.7609 23.3581 18.9868 22.1907 17.562C21.0233 16.1371 19.4121 15.1434 17.6137 14.7391ZM13.5395 10.6699C13.5395 10.0704 13.778 9.49535 14.2025 9.0714C14.6269 8.64745 15.2027 8.40928 15.803 8.40928C16.1026 8.4075 16.3996 8.46467 16.6771 8.57754C16.9546 8.69041 17.2071 8.85677 17.4202 9.06711C17.6333 9.27745 17.8029 9.52765 17.9192 9.80344C18.0355 10.0792 18.0963 10.3752 18.0981 10.6744C18.0999 10.9737 18.0426 11.2703 17.9296 11.5475C17.8166 11.8246 17.65 12.0768 17.4394 12.2897C17.2288 12.5026 16.9783 12.6719 16.7022 12.7881C16.4261 12.9042 16.1297 12.9649 15.8301 12.9667H15.803C15.1982 12.9608 14.6205 12.7157 14.1963 12.2852C13.772 11.8547 13.5359 11.2739 13.5395 10.6699ZM22.29 23.8268V23.9941H9.34763V23.8268C9.10771 21.0101 10.0493 18.8534 12.1362 17.4518C13.1497 16.6985 14.3712 16.2757 15.6341 16.2409C16.897 16.2061 18.14 16.561 19.1936 17.2574C21.4615 18.6183 22.5027 20.8247 22.29 23.8268Z" fill="#97051D"/>
<path d="M21.9369 30.057C21.9635 30.2636 21.9098 30.4725 21.7868 30.6407C21.6639 30.8089 21.481 30.9236 21.2759 30.9613C21.1096 30.9981 20.9392 31.0133 20.7689 31.0065C18.2927 31.0065 15.7894 31.0065 13.3177 31.0065H10.7555C10.5972 31.0192 10.4379 30.9993 10.2876 30.9479C10.1373 30.8966 9.99918 30.815 9.8818 30.7081C9.80466 30.6316 9.74461 30.5397 9.7056 30.4384C9.66658 30.3371 9.6495 30.2287 9.65546 30.1203C9.65546 29.5687 10.0629 29.2477 10.7419 29.2477H20.9364C21.0554 29.2346 21.1759 29.2451 21.2908 29.2788C21.4057 29.3124 21.5127 29.3685 21.6058 29.4438C21.6988 29.5191 21.776 29.612 21.8328 29.7173C21.8897 29.8225 21.925 29.938 21.9369 30.057Z" fill="#97051D"/>
<path d="M26.1514 0.822321H5.45902C5.03224 0.801422 4.60581 0.87029 4.20737 1.02446C3.80893 1.17864 3.44735 1.41468 3.14606 1.71731C2.84477 2.01993 2.61048 2.38239 2.45837 2.7812C2.30626 3.18001 2.23971 3.60629 2.26305 4.03243V7.6178C2.2695 7.71264 2.2695 7.8078 2.26305 7.90264V8.21008H1.81036C1.57044 8.21008 1.35768 8.21008 1.14944 8.21008C0.889847 8.19833 0.636087 8.28931 0.443248 8.46328C0.359214 8.5425 0.293119 8.63876 0.249396 8.74559C0.205673 8.85242 0.185333 8.96736 0.189743 9.08269C0.19149 9.20261 0.217104 9.32098 0.265095 9.43092C0.313085 9.54086 0.382493 9.64017 0.469278 9.72306C0.556063 9.80595 0.658491 9.87077 0.770598 9.91374C0.882705 9.95672 1.00225 9.97699 1.12228 9.97338H2.23136V17.6912H1.1087C0.989042 17.6857 0.869491 17.7041 0.756972 17.7451C0.644454 17.7861 0.541203 17.849 0.453204 17.9302C0.365204 18.0113 0.294205 18.1091 0.244318 18.2179C0.194431 18.3267 0.16665 18.4442 0.162582 18.5638C0.162505 18.6811 0.186109 18.7972 0.231984 18.9052C0.277859 19.0132 0.345063 19.1108 0.429579 19.1923C0.514094 19.2738 0.614186 19.3374 0.723872 19.3793C0.833557 19.4212 0.950584 19.4407 1.06796 19.4364H2.20873V27.1542H1.02269C0.906013 27.1547 0.790642 27.1788 0.683524 27.225C0.576405 27.2712 0.479756 27.3385 0.399396 27.423C0.319035 27.5075 0.256626 27.6073 0.215927 27.7166C0.175229 27.8258 0.157083 27.9421 0.162582 28.0585C0.170473 28.2874 0.265055 28.5048 0.427224 28.6668C0.589393 28.8287 0.807062 28.9232 1.03627 28.9311H2.26305V33.1359C2.24232 33.557 2.31009 33.9777 2.462 34.3711C2.61392 34.7645 2.84661 35.1217 3.1451 35.4198C3.44359 35.7179 3.80126 35.9503 4.19511 36.1021C4.58895 36.2538 5.01024 36.3215 5.43186 36.3008H26.1649C26.5873 36.3243 27.0098 36.2586 27.405 36.1079C27.8001 35.9572 28.1589 35.7249 28.458 35.4261C28.7571 35.1274 28.9897 34.769 29.1406 34.3744C29.2915 33.9797 29.3573 33.5577 29.3337 33.1359V4.01886C29.3337 2.0928 28.0798 0.822321 26.1514 0.822321ZM27.5864 32.9686C27.5883 33.2779 27.5315 33.5847 27.4189 33.8728C27.3354 34.0573 27.2005 34.2137 27.0303 34.3236C26.8601 34.4334 26.6618 34.492 26.4592 34.4923C26.3461 34.499 26.2327 34.499 26.1197 34.4923H5.49976C5.18256 34.4944 4.87035 34.4134 4.59439 34.2572C4.32401 34.0779 4.13407 33.8006 4.06475 33.484C4.03758 32.417 4.03759 31.359 4.03759 30.2332V28.9401H5.24173C5.47885 28.9401 5.70626 28.8461 5.87393 28.6786C6.0416 28.5111 6.13579 28.284 6.13579 28.0472C6.13579 27.8104 6.0416 27.5832 5.87393 27.4158C5.70626 27.2483 5.47885 27.1542 5.24173 27.1542H4.05117V19.4364H5.20552C5.32025 19.4364 5.43386 19.4138 5.53986 19.37C5.64586 19.3261 5.74218 19.2619 5.82331 19.1808C5.90444 19.0998 5.96879 19.0036 6.0127 18.8977C6.05661 18.7919 6.0792 18.6784 6.0792 18.5638C6.0792 18.4492 6.05661 18.3357 6.0127 18.2299C5.96879 18.124 5.90444 18.0278 5.82331 17.9468C5.74218 17.8657 5.64586 17.8015 5.53986 17.7576C5.43386 17.7138 5.32025 17.6912 5.20552 17.6912H4.06475V9.97338H4.65777C5.31869 9.97338 5.72611 9.87391 5.93887 9.66141C6.00825 9.58686 6.06041 9.49803 6.0917 9.40116C6.12298 9.3043 6.13262 9.20176 6.11995 9.10078C6.11995 8.56727 5.86644 8.24173 4.64419 8.22817H4.07833L4.05117 7.96141C4.04477 7.88167 4.04477 7.80154 4.05117 7.72179V3.96009C4.03022 3.77689 4.05094 3.59134 4.11178 3.41725C4.17262 3.24317 4.27202 3.08504 4.40256 2.95466C4.5331 2.82428 4.69142 2.72501 4.86572 2.66424C5.04002 2.60347 5.22581 2.58278 5.40923 2.6037H26.2328C26.4159 2.58452 26.6009 2.60641 26.7744 2.6678C26.9479 2.72918 27.1055 2.82849 27.2357 2.95848C27.3658 3.08848 27.4653 3.24587 27.5267 3.41915C27.5882 3.59244 27.6101 3.77725 27.5909 3.96009L27.5864 32.9686Z" fill="#97051D"/>
</svg>
