<?xml version="1.0" encoding="UTF-8" standalone="no"?>
<svg
   xmlns:dc="http://purl.org/dc/elements/1.1/"
   xmlns:cc="http://creativecommons.org/ns#"
   xmlns:rdf="http://www.w3.org/1999/02/22-rdf-syntax-ns#"
   xmlns:svg="http://www.w3.org/2000/svg"
   xmlns="http://www.w3.org/2000/svg"
   xmlns:sodipodi="http://sodipodi.sourceforge.net/DTD/sodipodi-0.dtd"
   xmlns:inkscape="http://www.inkscape.org/namespaces/inkscape"
   width="609"
   height="609"
   version="1.1"
   id="svg8"
   sodipodi:docname="66.svg"
   inkscape:version="0.92.2 (5c3e80d, 2017-08-06)">
  <metadata
     id="metadata14">
    <rdf:RDF>
      <cc:Work
         rdf:about="">
        <dc:format>image/svg+xml</dc:format>
        <dc:type
           rdf:resource="http://purl.org/dc/dcmitype/StillImage" />
        <dc:title></dc:title>
      </cc:Work>
    </rdf:RDF>
  </metadata>
  <defs
     id="defs12" />
  <sodipodi:namedview
     pagecolor="#ffffff"
     bordercolor="#666666"
     borderopacity="1"
     objecttolerance="10"
     gridtolerance="10"
     guidetolerance="10"
     inkscape:pageopacity="0"
     inkscape:pageshadow="2"
     inkscape:window-width="1920"
     inkscape:window-height="1057"
     id="namedview10"
     showgrid="false"
     inkscape:zoom="1.1106636"
     inkscape:cx="326.28249"
     inkscape:cy="251.48439"
     inkscape:window-x="-8"
     inkscape:window-y="-8"
     inkscape:window-maximized="1"
     inkscape:current-layer="svg8" />
  <circle
     cx="304.5"
     cy="304.5"
     r="304"
     id="circle2"
     style="fill:#000000;stroke:none;stroke-width:1.01333332" />
  <path
     id="circle4"
     style="fill:#006233;fill-opacity:1;stroke:none;stroke-width:1.5"
     sodipodi:type="arc"
     sodipodi:cx="304.5"
     sodipodi:cy="304.5"
     sodipodi:rx="300"
     sodipodi:ry="300"
     sodipodi:start="1.5707963"
     sodipodi:end="4.712389"
     d="m 304.50001,604.5 a 300,300 0 0 1 -259.807629,-150 300,300 0 0 1 -2e-6,-300 300,300 0 0 1 259.807631,-150"
     sodipodi:open="true" />
  <path
     id="circle6"
     style="fill:#ffffff;stroke:none;stroke-width:3"
     sodipodi:type="arc"
     sodipodi:cx="304.5"
     sodipodi:cy="304.5"
     sodipodi:rx="300"
     sodipodi:ry="300"
     sodipodi:start="4.712389"
     sodipodi:end="1.5707963"
     d="M 304.50001,4.5 A 300,300 0 0 1 604.5,304.5 300,300 0 0 1 304.50001,604.5"
     sodipodi:open="true" />
  <path
     style="opacity:1;fill:#d21034;fill-opacity:1;fill-rule:nonzero;stroke:none;stroke-width:111.85777283;stroke-linecap:butt;stroke-linejoin:miter;stroke-miterlimit:4;stroke-dasharray:none;stroke-opacity:1;paint-order:stroke fill markers"
     d="m 304.5,104.5 a 200,200 0 0 0 -200,200 200,200 0 0 0 200,200 A 200,200 0 0 0 478.66211,402.5938 160,160 0 0 1 352.5,464.5 a 160,160 0 0 1 -160,-160 160,160 0 0 1 160,-160 160,160 0 0 1 125.03711,60.2071 A 200,200 0 0 0 304.5,104.5 Z"
     id="path869"
     inkscape:connector-curvature="0" />
  <path
     d="M 304.5,362.979 415.73373,209.87883 V 399.121 L 304.50002,246.02096 484.47999,304.49995"
     id="path4"
     inkscape:connector-curvature="0"
     style="fill:#d21034;fill-opacity:1;stroke:none;stroke-width:0.6574114"
     sodipodi:nodetypes="ccccc" />
</svg>
