<svg width="36" height="36" viewBox="0 0 36 36" fill="none" xmlns="http://www.w3.org/2000/svg">
<g clip-path="url(#clip0_1028_4166)">
<path d="M18.4151 0.392746C18.553 0.432805 18.7144 0.404528 18.8589 0.410812C25.9749 0.717541 32.2804 5.463 34.6274 12.1462C35.1623 13.6693 35.568 15.5045 35.588 17.1238C35.5884 17.1556 35.5758 17.2075 35.6073 17.2271V18.7918C35.5668 18.9167 35.5959 19.0663 35.5892 19.1979C35.165 27.6186 28.1126 34.8104 19.7441 35.5319L18.6979 35.6073H17.3406L16.5017 35.5507C7.65997 34.8029 0.604808 27.3971 0.431218 18.5L0.393515 18.1701C0.395871 18.0636 0.390373 17.956 0.393515 17.8496C0.400584 17.6139 0.417472 17.3473 0.431218 17.105C0.966913 7.84771 8.3449 0.652739 17.6234 0.392746H18.4151ZM19.7159 0.920587L18.7647 0.844395L17.6422 0.845181L18.5098 2.975L19.7159 0.920587ZM14.6075 5.18102C15.2701 5.24582 15.9684 5.30787 16.6313 5.21636C18.498 4.95794 18.4069 3.61045 17.8641 2.16046C17.7027 1.72963 17.4941 1.31922 17.3029 0.902128C16.7224 1.27994 16.039 1.56861 15.4798 1.97234C14.6629 2.56263 14.7481 3.33161 14.6452 4.24826L14.6075 5.18102ZM15.9456 0.95829L14.8899 1.11853L14.8526 1.17547L14.8145 1.6554L15.9456 0.95829ZM22.8641 5.21872L22.6096 2.40985C22.2577 2.1424 21.9415 1.83135 21.5908 1.56232C21.2401 1.2933 20.8356 0.994029 20.3662 0.994422C20.1062 0.994422 20.0187 1.23635 19.9134 1.42918C19.6927 1.83292 19.4771 2.30303 19.285 2.72365C19.2194 2.86739 19.0207 3.25385 19.0007 3.38188C18.9198 3.90619 19.6464 4.56599 19.6028 5.12446L22.8641 5.21872ZM14.3809 1.22221C13.3142 1.44568 12.277 1.78854 11.2724 2.20406C11.3843 2.73818 11.6392 3.23185 11.8953 3.70825L11.9487 3.70078C12.4745 3.33593 13.068 3.03823 13.577 2.65178C14.0891 2.26297 14.3079 1.8718 14.3813 1.22221H14.3809ZM22.6543 1.46964L22.0534 1.31647L22.6661 1.71196L22.6543 1.46924V1.46964ZM25.918 2.74957C25.0292 2.30774 24.1161 1.91147 23.1661 1.61809C23.2713 2.28535 23.8337 2.67299 24.351 3.02488C24.7351 3.28605 25.1416 3.51659 25.5343 3.7648L25.918 2.74957ZM11.6651 3.8783L10.8498 2.39336L9.80628 2.92513C9.70103 3.10382 9.58046 3.27348 9.47638 3.45297C9.37231 3.63245 9.04673 4.19092 9.08404 4.37944C9.09425 4.43206 9.3024 4.55813 9.36092 4.59309C10.179 5.08205 10.6153 4.79456 11.2606 4.23805C11.3953 4.1218 11.5194 3.97649 11.6651 3.8783ZM23.1657 2.71148C23.225 2.92198 23.2132 3.13013 23.2215 3.34378C23.258 4.28243 22.9296 5.64916 24.3573 5.38288C24.5187 5.35264 24.7335 5.31101 24.8431 5.19005C25.409 4.5652 25.1522 3.97217 24.5104 3.56333L23.1661 2.71148H23.1657ZM14.0373 2.8289C13.9096 2.84933 13.6257 3.06573 13.5082 3.14859C13.1029 3.43529 12.7232 3.76127 12.3292 4.0625C12.3053 4.1324 12.4789 4.73997 12.5193 4.8468C12.7416 5.42923 13.0919 5.24385 13.599 5.21911C13.6822 5.21518 14.1225 5.236 14.1464 5.20144C14.1441 5.01528 14.1319 4.82991 14.135 4.64336C14.1421 4.2247 14.1983 3.80133 14.212 3.38188C14.2175 3.21536 14.2776 2.79042 14.0369 2.8293L14.0373 2.8289ZM26.2212 2.93926L25.8072 3.92347C26.0759 4.20153 26.3681 4.48862 26.6999 4.69127C27.2533 5.02903 27.626 4.97954 28.1323 4.59584C28.168 4.56874 28.3895 4.38768 28.3981 4.3704C28.4139 4.33898 28.397 4.33349 28.3793 4.31306C28.3432 4.27143 28.2375 4.20545 28.1865 4.16657C27.6704 3.77737 26.8924 3.23696 26.3151 2.96518C26.2856 2.95144 26.2569 2.93023 26.2216 2.93887L26.2212 2.93926ZM9.14059 3.31472L8.30406 3.8406L8.29228 3.87948C8.37357 3.88576 8.54559 4.03343 8.61196 4.00319L9.1402 3.31472H9.14059ZM6.08665 5.89737C6.7009 5.87184 7.43453 5.85299 7.8583 5.34086C8.07666 5.07694 8.18624 4.68695 8.18898 4.35155L7.87754 4.17089L7.84063 4.17246C7.61873 4.34723 7.39015 4.51375 7.17101 4.69206C6.87174 4.93516 6.55951 5.19437 6.2842 5.46418C6.25278 5.49481 6.14792 5.58907 6.13496 5.61656C6.122 5.64405 6.07684 5.88834 6.08665 5.89816V5.89737ZM33.741 12.1745C33.3734 11.7661 32.8055 11.27 32.8793 10.6625C32.9111 10.4017 33.0831 10.1535 33.157 9.90448C33.067 9.73168 32.9739 9.56005 32.8773 9.39078C32.7937 9.24429 32.6429 8.95681 32.5435 8.83859C32.4869 8.77143 32.3295 8.68817 32.2517 8.62141C31.8821 8.30329 31.6469 7.90466 31.5432 7.42591L30.9227 6.67028C30.8135 6.64161 30.6992 6.63415 30.5892 6.60784C29.6828 6.39222 29.303 5.44219 28.7335 4.80556C28.4119 4.99172 28.0655 5.26938 27.6944 5.34518C26.987 5.48932 26.3382 4.82951 25.7597 4.522C25.4715 4.93123 25.2523 5.6307 24.7307 5.7933C24.3011 5.92722 23.7705 5.78426 23.3357 5.72732C23.4037 6.27911 23.5411 6.94049 23.3868 7.48443C23.2006 8.14109 22.4603 8.39715 21.8842 8.61159C22.0974 9.30359 22.6543 9.96811 22.5196 10.7265C22.4497 11.1208 22.207 11.5084 22.0012 11.8446C22.251 12.1341 22.5825 12.4616 22.9332 12.6242C23.0357 12.6717 23.2745 12.7243 23.3405 12.7774C23.4363 12.854 23.3994 13.0374 23.4308 13.1446L23.4111 14.8326C24.239 14.7815 25.321 14.6704 25.7896 15.5175C25.9078 15.7312 25.9938 16.0018 26.0126 16.2464C26.4879 16.0905 26.9128 15.7971 27.3841 15.629C27.842 15.4657 28.0843 15.4904 28.5266 15.6836C28.9083 15.8505 29.283 16.109 29.6416 16.3214C29.9125 15.805 30.1619 15.2214 30.7675 15.0348C31.1866 14.906 31.6661 14.9335 32.1005 14.9256C32.2085 14.3813 32.1629 13.7376 32.3648 13.22C32.5902 12.6423 33.1998 12.3811 33.7414 12.1741L33.741 12.1745ZM12.4042 5.7442C12.2798 5.30551 12.1501 4.38847 11.4915 4.61979C10.9637 4.80517 10.5914 5.26624 9.96102 5.29491C9.45989 5.31769 9.07382 5.04081 8.71683 4.72858C8.30681 5.30591 7.96866 6.01087 7.2362 6.22727C6.83561 6.34549 6.40634 6.34313 5.992 6.34981C5.98533 6.86312 5.96098 7.41806 5.75597 7.89523C5.43117 8.65126 4.64098 9.0436 4.01457 9.51057C4.08015 9.67827 4.17873 9.83654 4.24785 10.0078C4.32797 10.2065 4.41005 10.4449 4.42498 10.6601C4.47171 11.327 3.97372 11.9891 3.63597 12.5244C3.63007 12.5661 3.64146 12.5468 3.66424 12.5519C3.98786 12.6277 4.33347 12.7059 4.59739 12.9195C5.36009 13.5373 4.56951 14.5408 5.17275 15.0211C5.52033 15.298 6.28577 15.3133 6.71896 15.305C6.80969 15.3035 6.8902 15.2618 6.99074 15.2956C7.20792 15.3691 7.42197 15.9377 7.57631 16.1239C7.74794 16.3305 7.86733 16.3156 8.10298 16.2178C8.73646 15.9558 9.01452 15.4119 9.78822 15.759C10.2218 15.9538 10.6063 16.2869 11.0544 16.4558L11.0788 16.4507C11.4534 15.88 11.8124 15.0611 12.5193 14.8467C12.7216 14.7854 12.9187 14.7807 13.1265 14.7568L13.7879 14.8153L13.8813 12.7782C14.291 12.5244 14.8989 12.3827 15.2673 12.0716C15.5509 11.832 15.4362 11.6482 15.2893 11.3706C15.0894 10.9939 14.8247 10.6444 14.6707 10.2426C14.8769 9.83536 15.1994 9.46265 15.4024 9.05853C15.5929 8.67953 15.5693 8.51851 15.2092 8.28404C14.849 8.04958 14.4375 7.9349 14.0702 7.74521C14.0506 7.71261 14.0577 7.26646 14.06 7.1883C14.071 6.82581 14.1555 6.36552 14.137 6.01951C14.1252 5.80429 14.0612 5.72732 13.8448 5.70886C13.5931 5.68686 13.2718 5.74145 13.0154 5.74813C12.8123 5.75324 12.6073 5.7446 12.4046 5.74499L12.4042 5.7442ZM30.2723 5.99163L29.7256 5.46418C29.7437 5.52545 29.7983 5.59418 29.8391 5.64248C29.951 5.77562 30.1128 5.92369 30.2723 5.99163ZM18.5997 5.56354C18.0255 5.58593 17.8578 5.64916 17.5248 6.10984C17.0358 6.78692 16.7311 7.61796 16.3053 8.33589C16.8226 8.84959 17.4615 9.36486 18.1382 9.65195C18.8149 9.93904 19.1751 9.80591 19.8101 9.47012C20.7036 8.99804 21.0692 8.45371 20.6364 7.45537C20.3737 6.84898 19.9492 6.29443 19.6102 5.72928C19.3809 5.582 19.0993 5.59261 18.8385 5.55844L18.5993 5.56394L18.5997 5.56354ZM17.1898 5.6146L14.5682 5.67901C14.4791 6.18761 14.3624 6.82149 14.5553 7.31594C14.7815 7.8968 15.4735 8.07746 16.0198 8.21531L17.1898 5.6146ZM22.9006 5.71004L20.2814 5.63345L21.4149 8.11909C21.7636 8.12145 22.1544 8.05508 22.4548 7.87285C23.1767 7.43455 23.0117 6.41422 22.9006 5.70964V5.71004ZM5.27054 6.52261C5.22616 6.53518 4.94339 6.87097 4.88959 6.9342C4.41712 7.48796 3.9965 8.08571 3.58923 8.68857L3.58098 8.73255C4.08329 9.09819 4.71089 8.71095 5.03922 8.29033C5.34791 7.89445 5.53014 7.35915 5.44139 6.85526C5.43117 6.79674 5.37344 6.57642 5.34281 6.53911C5.32278 6.51476 5.30078 6.51476 5.27133 6.523L5.27054 6.52261ZM15.7225 11.512C15.7724 11.519 15.8254 11.519 15.8753 11.5104C16.2814 11.4421 17.5342 10.7092 17.8586 10.4209C17.9049 10.3797 18.0499 10.2564 18.011 10.1951L15.7763 8.93206C15.6235 9.30124 15.4087 9.70419 15.3792 10.1095C15.3427 10.611 15.5234 11.0642 15.7225 11.5116V11.512ZM19.188 10.0828C19.6071 10.9822 20.7723 11.0305 21.3842 11.7409C21.6116 11.5143 21.83 11.2312 21.9494 10.9303C22.2514 10.1692 21.8575 9.49682 21.3442 8.95366L19.188 10.0824V10.0828ZM3.05157 9.59226L3.30724 9.44145L3.24951 9.25332L3.05157 9.59226ZM3.6882 9.86089C3.60101 9.75721 3.05785 9.98735 2.94475 10.0415C2.89408 10.0659 2.78333 10.1115 2.74955 10.148C2.66786 10.236 2.45382 10.7375 2.38863 10.8804C2.26217 11.1569 2.14945 11.4413 2.03359 11.7225L3.2122 12.1498C3.56017 11.8694 3.92541 11.4892 3.95723 11.0163C3.98393 10.6173 3.80995 10.2305 3.6882 9.86089ZM33.4582 10.516V10.9024C33.4582 10.9295 33.5077 11.1008 33.5202 11.142C33.6235 11.4809 33.8556 11.7869 34.0705 12.0622L34.1364 12.0524L33.4582 10.516ZM21.2617 11.9868C20.7071 11.7193 20.1978 11.3639 19.653 11.0784C18.897 10.6817 18.5695 10.6098 17.7993 11.0407C17.2679 11.338 16.7758 11.739 16.266 12.0716L16.2472 12.1081C16.3905 12.3858 16.5449 12.6584 16.678 12.9411C16.8846 13.379 17.1426 14.2187 17.5004 14.5129C17.9167 14.8553 18.617 14.8074 19.1213 14.7945C19.2281 14.7917 19.8168 14.796 19.862 14.7528L21.2617 11.9868ZM1.09141 15.1723C1.86786 14.549 2.27316 13.6053 2.86306 12.8253L1.83565 12.2503C1.50968 13.2 1.23044 14.1739 1.09141 15.1723ZM17.0771 14.7953C17.1097 14.7631 16.9164 14.3452 16.8858 14.2796C16.6454 13.7627 16.1541 12.8355 15.7857 12.42C15.7465 12.3756 15.6271 12.2393 15.5701 12.2597C15.1043 12.5637 14.4229 12.8186 14.2698 13.4112C14.1692 13.8001 14.2124 14.3271 14.2493 14.7297C14.2521 14.7579 14.2584 14.7862 14.2709 14.8118L17.0771 14.7953ZM20.3757 14.7953C20.6918 14.7886 21.0099 14.7627 21.3285 14.776C21.7102 14.7921 22.2494 14.9182 22.608 14.8695C23.0447 14.8102 22.9206 14.13 22.9403 13.824L22.8743 13.004C22.6068 12.916 22.3704 12.742 22.1167 12.6305C21.9615 12.5621 21.6788 12.4459 21.526 12.5621L20.3757 14.7953ZM34.9475 15.0969C34.8874 14.8019 34.8347 14.5046 34.7688 14.2109C34.7051 13.9289 34.6352 13.5958 34.5421 13.3252C34.4738 13.1265 34.3536 12.951 34.2503 12.7687C33.6165 12.6921 32.8722 12.9411 32.6197 13.5707C32.4972 13.8755 32.5011 14.1445 32.5777 14.4603C32.6185 14.6283 32.6939 14.7862 32.7638 14.9433L34.9475 15.0969ZM1.80777 15.3231L2.51391 15.2662C3.50243 15.2277 4.83185 15.4853 4.7482 14.051C4.7427 13.9564 4.69832 13.6057 4.66258 13.5334C4.6237 13.4541 3.99571 13.1658 3.87514 13.1143C3.75457 13.0629 3.26011 12.8579 3.16546 12.9003L1.80777 15.3231ZM32.0003 15.3675C31.5593 14.9311 31.0381 15.2186 30.6964 15.6059C30.4133 15.9267 30.1933 16.3643 30.0449 16.7633L32.4025 17.8873C32.4842 17.3155 32.5301 16.7197 32.3931 16.153C32.3322 15.9012 32.1857 15.5517 31.9999 15.3679L32.0003 15.3675ZM34.982 15.3262C34.7032 15.2544 34.4141 15.2528 34.1278 15.2473C33.9322 15.2438 33.7249 15.2355 33.5246 15.2473C33.3804 15.2563 33.0442 15.2787 32.9201 15.3215C32.8695 15.3392 32.7941 15.4024 32.7611 15.4452C32.4347 15.8674 32.7281 17.1305 32.7611 17.6697C32.7701 17.8217 32.752 17.9764 32.7642 18.1284L35.1364 19.3004C35.1674 19.2721 35.1713 18.5628 35.1745 18.4615C35.1968 17.7604 35.1835 17.07 35.1175 16.369C35.0845 16.0202 35.0284 15.6726 34.9824 15.3258L34.982 15.3262ZM14.9806 15.2532C14.4174 15.2944 14.2815 15.4971 14.2485 16.0481C14.216 16.5956 14.2894 17.18 14.3247 17.7267C14.3373 17.9242 14.3306 18.1284 14.3467 18.3268L16.9337 19.7516C17.0621 19.5313 17.1725 19.3015 17.2997 19.0804C17.6446 18.4827 18.214 17.7675 18.2619 17.0641C18.3036 16.4507 17.9034 15.7543 17.535 15.2885C16.8685 15.2874 16.2036 15.2834 15.5395 15.2669C15.3494 15.2622 15.1797 15.2383 14.9802 15.2528L14.9806 15.2532ZM22.9583 15.3042C22.1748 15.2477 21.3375 15.1856 20.5606 15.329C18.9807 15.6208 19.0352 16.6729 19.5132 17.9482C19.7453 18.5671 20.0658 19.1739 20.3847 19.7516C20.9314 19.4441 21.5291 19.1841 22.0519 18.8377C22.7997 18.3417 22.9053 17.9729 22.9403 17.0869C22.9634 16.4946 22.9061 15.8945 22.9583 15.3046V15.3042ZM13.7753 15.307C12.9172 15.1452 11.9919 15.3828 11.737 16.3081C11.6832 16.5037 11.6494 16.7232 11.6757 16.9259L13.7588 17.868L13.7753 15.307ZM25.2551 15.3639C24.8144 15.3498 24.351 15.2713 23.9107 15.3046C23.5101 15.3349 23.3644 15.4527 23.3723 15.8615C23.3785 16.1836 23.4547 16.5308 23.4681 16.8591C23.4818 17.1949 23.4614 17.5334 23.4488 17.8684L25.7782 16.7193L25.2554 15.3643L25.2551 15.3639ZM4.7859 17.9058C4.85306 17.9741 5.49833 17.6945 5.60948 17.6454C5.86947 17.5303 6.15342 17.3889 6.40124 17.2495C6.75313 17.0511 7.21539 16.8104 7.11524 16.3214C6.99152 15.7147 5.62283 15.3706 5.12012 15.5536C5.0459 15.5807 4.93514 15.6369 4.93632 15.728L4.7859 17.9058ZM1.00383 16.2158C0.975161 16.2476 0.929603 16.3089 0.922926 16.3517C0.848699 16.8222 0.875798 17.3237 0.850663 17.7981C1.14011 18.4678 1.58469 19.058 2.07208 19.5941C2.08504 19.6043 2.09604 19.5985 2.10939 19.5953C2.17419 19.5796 2.40984 19.4512 2.4931 19.4115C2.99816 19.1712 4.0346 18.7062 4.31108 18.2321C4.60328 17.7314 4.56047 16.5889 4.57775 15.9915C4.57932 15.9307 4.62959 15.7241 4.57972 15.6895C3.84726 15.6149 3.09909 15.5646 2.36624 15.6652C1.95151 15.7221 1.29171 15.8957 1.00344 16.2158H1.00383ZM27.7615 16.0827C27.271 16.1255 26.8146 16.4196 26.5656 16.8403L27.6739 19.0058C27.8774 19.1967 28.1205 18.9304 28.245 18.7713C28.6546 18.2463 28.851 17.5558 29.2865 17.0484C29.0536 16.4106 28.4421 16.0237 27.7623 16.0827H27.7615ZM9.34403 16.1392C8.79223 16.1742 8.33037 16.5139 8.14578 17.0323L9.28237 19.2442C9.82867 18.7886 10.5823 17.9686 10.6004 17.2177C10.6173 16.506 10.0113 16.0972 9.34442 16.1396L9.34403 16.1392ZM23.4296 21.3933C24.2555 21.4428 25.1027 21.4977 25.9184 21.3273C27.8043 20.933 27.7018 19.644 26.8496 18.2466C26.5782 17.8013 26.2451 17.3952 25.9188 16.9903C25.3968 17.2664 24.8391 17.5275 24.3439 17.8488C23.73 18.247 23.4767 18.5491 23.4304 19.3102V21.3933H23.4296ZM32.3463 21.2048C32.3507 21.0449 32.3405 20.8831 32.3456 20.7233C32.3656 20.0599 32.397 19.3715 32.366 18.7062C32.3613 18.604 32.3401 18.4992 32.3369 18.3959C31.9579 18.1591 31.5785 17.9167 31.1901 17.6952C30.8221 17.4855 30.1486 17.026 29.7386 17.2683C29.4444 17.4423 29.0112 18.3358 28.8172 18.6657C28.6318 18.9807 28.4374 19.2905 28.2399 19.5981C28.3 19.9452 28.4229 20.3125 28.6169 20.6074C29.2476 21.5665 30.5743 21.2766 31.544 21.2228C31.8103 21.2079 32.0793 21.2055 32.3459 21.2048H32.3463ZM4.84246 21.2236L6.73624 21.2809C7.21303 21.2334 7.76011 21.3548 8.22669 21.2994C8.35708 21.2841 8.58133 21.0107 8.65477 20.898C9.36681 19.8015 8.47451 18.046 7.52565 17.3622C7.47695 17.3269 7.30454 17.2004 7.25662 17.2173C6.74567 17.5177 6.18955 17.7644 5.69235 18.0864C4.72582 18.7124 4.83814 19.1892 4.84324 20.252C4.84482 20.576 4.8405 20.9 4.84246 21.2236ZM13.778 21.3933L13.76 20.1389C13.7081 19.6409 13.7592 19.1009 13.4917 18.6539C13.196 18.1602 11.9958 17.546 11.4601 17.2734C11.4279 17.2569 11.316 17.1917 11.2916 17.209C11.1813 17.4345 11.0552 17.654 10.9209 17.8661C10.622 18.3378 10.0152 18.983 9.93785 19.5223C9.87658 19.9496 10.0584 20.4338 10.2312 20.8211C10.2803 20.931 10.4193 21.2444 10.4814 21.3249C10.5042 21.3544 10.5097 21.352 10.5442 21.3564C11.0092 21.4106 11.5626 21.2982 12.0339 21.3748L13.7784 21.3929L13.778 21.3933ZM18.9571 17.6465C18.9437 17.6359 18.8086 17.6088 18.7808 17.6065C18.4603 17.5782 18.5518 17.7098 18.4442 17.925C18.128 18.5561 17.5346 19.2607 17.3359 19.946C17.3206 19.9987 17.2844 20.0756 17.3225 20.1204C17.3759 20.1832 17.6579 20.3525 17.7431 20.3973C18.6464 20.8705 19.4264 20.5493 20.1098 19.891L18.9571 17.6465ZM0.997154 20.2433C1.11576 20.1628 1.37654 20.1177 1.47826 20.0367C1.58823 19.9488 1.48454 19.6593 1.43977 19.5462C1.30702 19.2124 1.07727 18.8735 0.865194 18.5844C0.865194 19.1393 0.922926 19.6943 0.997154 20.2433ZM32.8172 21.2048C33.2846 21.3312 33.7959 21.2173 34.2126 20.9884C34.6105 20.77 35.112 20.3101 34.8124 19.8223C34.6753 19.5992 33.9845 19.2265 33.7276 19.0785C33.3121 18.8381 32.8989 18.4685 32.8196 19.2375C32.7595 19.8196 32.8946 20.4232 32.8557 21.008C32.851 21.0799 32.8349 21.1368 32.8172 21.2051V21.2048ZM16.094 21.3717L16.484 20.2237L14.2493 18.8295C14.2635 19.2199 14.2859 19.6169 14.2686 20.0085C14.2576 20.2586 14.2042 20.5128 14.1924 20.7621C14.1837 20.9475 14.1873 21.18 14.3558 21.2959C14.6036 21.4663 15.1899 21.4054 15.4837 21.3937C15.6868 21.3854 15.8906 21.3807 16.0936 21.3721L16.094 21.3717ZM22.9395 21.3933C22.9379 21.3151 22.9422 21.2362 22.9395 21.1576C22.9167 20.5607 22.9434 19.9409 22.9018 19.3479C22.8656 18.8354 22.6445 18.9591 22.3048 19.1464C21.8025 19.4233 21.3257 19.8243 20.8371 20.129C20.8171 20.1711 21.1266 20.9055 21.1765 20.9974C21.4584 21.5154 21.7487 21.3772 22.2506 21.3732C22.48 21.3713 22.7129 21.3642 22.9395 21.3929V21.3933ZM4.20151 19.018C3.91952 19.0903 3.63479 19.1971 3.37833 19.3353C2.9636 19.5584 2.31008 20.0733 2.55829 20.6145C2.80768 21.1584 3.85511 21.2393 4.37156 21.2048L4.2019 19.018H4.20151ZM4.38924 21.6584C3.93641 21.5798 3.44235 21.7228 2.99423 21.6301C2.92 21.6148 2.81789 21.5924 2.77194 21.5319C2.69693 21.4337 2.60856 21.2165 2.53198 21.0932C2.40748 20.8933 2.12196 20.4695 1.88435 20.4212C1.56388 20.3564 1.33844 20.5662 1.05528 20.6596C1.54306 23.855 2.96792 26.9003 5.10638 29.3109C5.10206 29.1774 5.08831 29.0411 5.10834 28.9075C5.2191 28.1743 6.1872 27.9112 6.64866 27.4356C6.33644 26.9953 5.73947 26.4227 5.80899 25.8383C5.85847 25.4228 6.21783 25.0791 6.4248 24.7414C5.98415 24.446 5.48734 24.2316 5.05532 23.9237C4.67358 23.6515 4.52827 23.419 4.46818 22.9462C4.41437 22.5236 4.43323 22.0821 4.38924 21.6584ZM20.583 20.4884C20.1546 20.6612 19.7375 20.9055 19.3062 21.0685C18.4984 21.3736 18.1096 21.1494 17.3967 20.781C17.2518 20.706 17.0276 20.5457 16.8889 20.4966C16.8705 20.49 16.852 20.4845 16.832 20.4888C16.702 20.8576 16.5425 21.6446 16.1655 21.8304C15.8996 21.9616 15.4747 21.8563 15.1825 21.8449C14.8903 21.8335 14.5702 21.8469 14.2674 21.8646C14.3243 22.3641 14.417 22.8924 14.3153 23.3923C14.1539 24.1849 13.3079 24.5399 12.7408 25.0033C13.3213 25.6144 13.8185 26.3441 13.4411 27.2121C13.3024 27.5314 13.0688 27.7819 12.8535 28.0474C13.5247 28.3699 14.3699 28.9602 14.4367 29.7727C14.4787 30.2841 14.1425 30.8536 14.7948 31.0358C15.2335 31.1583 15.7209 31.0696 16.1714 31.1108C16.4082 31.4666 16.6309 31.9273 16.973 32.1944C17.3779 32.5105 17.6811 32.1826 18.0569 32.0349C18.7965 31.7439 19.4602 32.0659 20.0835 32.4579C20.4778 31.8283 21.0143 30.9623 21.8543 30.9498C22.145 30.9455 22.4729 31.1069 22.6351 30.7695C22.7608 30.5072 22.7957 29.9585 22.8079 29.6604C22.8177 29.4193 22.7914 29.1746 22.8161 28.9335C23.1873 28.7178 23.5694 28.5156 23.917 28.2623C24.0929 28.1342 24.4519 27.8664 24.4452 27.6252C24.4393 27.4132 24.1063 27.0668 24.0128 26.8323C23.8204 26.3481 23.9641 25.8379 24.1668 25.3831C24.2496 25.1969 24.4063 24.9911 24.4743 24.8234C24.481 24.8066 24.4927 24.7877 24.4821 24.77C23.8974 24.3973 23.1217 24.0482 22.9249 23.3204C22.7989 22.8539 22.8739 22.3362 22.9383 21.8649C22.5204 21.8787 22.0829 21.9529 21.665 21.9223C20.8631 21.8634 20.7382 21.1352 20.5815 20.4888L20.583 20.4884ZM30.7059 27.595C31.1041 27.747 31.5012 27.9112 31.8625 28.1401C31.9194 28.1307 32.452 27.3103 32.5235 27.1979C33.7245 25.3097 34.5543 23.1724 34.9282 20.9597C34.7888 21.1007 34.6635 21.255 34.5009 21.3709C34.0021 21.7259 33.3824 21.7134 32.7984 21.6383C32.8349 22.0927 32.8738 22.5467 32.7234 22.9866C32.4712 23.7222 31.621 24.0871 31.0248 24.4971C31.1893 24.8867 31.4199 25.292 31.4576 25.7224C31.5181 26.416 31.0519 27.0393 30.7059 27.5954V27.595ZM9.5891 21.6438C8.45173 21.7008 7.55707 23.1465 7.3175 24.1417C7.29511 24.2339 7.21578 24.6122 7.24602 24.6734L9.43279 25.9098C10.0286 25.6749 10.6907 25.4919 11.2594 25.1989C12.0143 24.8097 12.0103 24.4873 11.6325 23.7748C11.2877 23.1241 10.8211 22.5181 10.461 21.8736C10.2061 21.7134 9.8919 21.6289 9.58949 21.6442L9.5891 21.6438ZM32.3275 21.6572L29.5186 21.7518L30.5555 24.1644C31.2031 23.895 31.9948 23.5663 32.2474 22.8499C32.3259 22.6273 32.3401 22.4085 32.3648 22.176L32.3271 21.6576L32.3275 21.6572ZM7.89639 21.7703L4.86131 21.6756C4.81143 22.2974 4.79533 23.0082 5.22027 23.5133C5.60516 23.9708 6.2842 24.1358 6.85682 24.1798L7.89639 21.7699V21.7703ZM30.1969 24.4276C29.7912 23.4764 29.371 21.8881 28.1688 21.6969C27.8118 21.6399 27.4116 21.7173 27.0785 21.8469C26.6426 22.4529 26.0959 23.0259 25.7102 23.6645C25.281 24.3753 25.3811 24.6448 26.0873 25.0414C26.6198 25.3407 27.2144 25.559 27.7592 25.8383L30.1969 24.4276ZM13.7969 21.8646L10.9876 21.8367L12.5645 24.3734C13.1249 24.1998 13.6732 23.9437 13.8059 23.3165C13.9088 22.8303 13.8138 22.3519 13.7965 21.8646H13.7969ZM26.2196 21.8269L23.4119 21.8653C23.3408 22.3893 23.2694 22.9756 23.5466 23.4536C23.7391 23.7858 24.0831 24.0014 24.4221 24.1617C24.4951 24.1962 24.9515 24.3954 24.9919 24.3694L26.2196 21.8269ZM28.1236 26.332L30.5178 27.2667C30.7829 26.775 31.0955 26.2298 31.0024 25.6494C30.9816 25.5194 30.7848 24.8804 30.6874 24.8333C30.6599 24.8199 30.6316 24.8234 30.6026 24.8227C30.1568 24.8093 28.9511 25.5975 28.578 25.8909C28.4622 25.982 28.2202 26.1713 28.1421 26.2844C28.1311 26.3001 28.1158 26.3033 28.1236 26.3316V26.332ZM27.181 26.3885C27.1905 26.3759 27.1327 26.3375 27.1194 26.328C26.6693 26.0017 26.136 25.6741 25.6639 25.3705C25.5924 25.3246 25.2782 25.1082 25.2303 25.1054C24.8356 25.0819 24.3836 25.8615 24.2807 26.191L24.8439 27.6331L27.181 26.3885ZM12.4494 25.1317C12.0959 25.2696 11.7354 25.3988 11.3898 25.5563C11.1212 25.6788 10.4916 25.9695 10.3887 26.2518C10.2705 26.5758 10.6601 26.8457 10.8879 27.0079C11.3776 27.3562 11.9538 27.6158 12.4848 27.8958C12.8645 27.2777 13.2769 26.7593 12.9647 26.0056C12.9203 25.8984 12.5052 25.1384 12.4494 25.1321V25.1317ZM7.03119 27.3492L9.06519 26.1344C9.06754 26.0735 8.12183 25.5897 8.00361 25.5371C7.15726 25.1608 5.99554 24.8953 6.50139 26.3041C6.63374 26.6729 6.84307 27.0083 7.03119 27.3488V27.3492ZM9.64526 26.6748C9.08521 26.9054 8.42777 27.077 7.90975 27.392C7.48166 27.6523 7.48127 27.8617 7.71181 28.2799C7.85948 28.5478 8.06056 28.7905 8.22512 29.0485C8.54795 29.5556 8.85389 30.0732 9.1025 30.6218C9.19832 30.6811 9.31182 30.7086 9.41983 30.7381C11.0081 31.176 11.6671 30.1502 11.9628 28.7677C11.9883 28.6487 12.081 28.225 12.063 28.1327C12.0602 28.1177 12.0575 28.104 12.0441 28.0946L9.64526 26.6744V26.6748ZM30.0276 27.5388C29.4224 27.3637 28.8494 27.02 28.2513 26.8362C27.6798 26.6607 27.3256 26.7412 26.8103 27.0075C26.295 27.2737 25.8151 27.6618 25.3175 27.9752L26.4364 30.7059L26.5303 30.7247L28.4217 30.4569L30.0276 27.5388ZM31.5911 28.4822C31.2742 28.3377 30.9537 28.1551 30.6214 28.0474C30.5307 28.018 30.2998 27.9351 30.2236 27.9897L28.8396 30.5547C29.1341 30.5005 29.4597 30.5095 29.7515 30.4585C29.7931 30.451 29.8293 30.4439 29.867 30.4231C29.9781 30.3619 30.2263 30.0858 30.3288 29.9801C30.773 29.5237 31.1795 29.0305 31.5821 28.5376L31.5907 28.4818L31.5911 28.4822ZM8.61275 30.6305L7.21813 28.0569C7.18082 28.0333 6.85603 28.102 6.78769 28.1173C5.98533 28.2992 5.52504 28.6829 5.59927 29.563C5.60594 29.6443 5.64639 29.8866 5.68292 29.9507C5.69941 29.9797 6.05406 30.3324 6.07998 30.3454L8.61275 30.6305ZM25.0296 28.3518C24.4115 28.4802 23.637 28.7076 23.3067 29.2916C23.1276 29.609 23.0981 29.9432 23.0699 30.3002L23.1087 30.9698L25.9553 30.7998L25.0292 28.3514L25.0296 28.3518ZM14.117 31.0075C14.1633 30.398 14.1625 29.6801 13.7309 29.1974C13.5581 29.0038 13.2738 28.8258 13.0366 28.7229C12.9871 28.7013 12.8139 28.6216 12.7789 28.6405L11.497 30.7436L14.117 31.0075ZM10.0074 33.1943C10.0773 32.3841 9.53411 31.6983 9.02709 31.1304L6.67105 30.8759C6.9279 31.1242 7.20949 31.3531 7.49187 31.5723C8.28049 32.1849 9.12527 32.7265 10.0074 33.1943ZM29.3486 30.8944C28.6436 31.0484 27.8491 31.4293 27.6712 32.1952C28.2642 31.8095 28.8254 31.37 29.3486 30.8944ZM26.3673 31.2361L23.093 31.4627L23.0722 33.0725C23.0337 33.3204 23.0585 33.5756 23.0534 33.8266C23.0514 33.9216 22.9988 34.1891 23.0514 34.2606C23.0671 34.2822 23.1959 34.3752 23.2242 34.3729C24.4334 33.9864 25.5956 33.4637 26.6909 32.8267C26.8464 32.2733 26.6587 31.7058 26.3673 31.2357V31.2361ZM14.1523 31.4812C13.1143 31.2781 10.6876 30.9839 10.7618 32.6378C10.7779 32.9975 10.9283 33.3643 11.0654 33.6915C11.8422 34.0575 12.6929 34.3666 13.5287 34.5838C13.6076 34.6042 13.8232 34.6749 13.8825 34.6478C14.0157 34.5865 14.1779 34.332 14.2211 34.1934C14.3946 33.6353 14.1947 32.419 14.1551 31.7895C14.1488 31.6873 14.1618 31.5833 14.1523 31.4812ZM16.7939 32.9677L16.1235 31.6496C16.0528 31.5444 15.9165 31.5354 15.8014 31.5193C15.514 31.4784 15.0925 31.4541 14.8055 31.4792C14.7583 31.4831 14.6358 31.4965 14.6165 31.5354L14.5321 34.0426L16.7943 32.9681L16.7939 32.9677ZM22.6567 31.4788C22.6418 31.4635 22.3252 31.5149 22.271 31.5173C21.7573 31.5401 21.3347 31.3531 21.0323 31.8621C20.9534 31.9949 20.7064 32.5451 20.6969 32.6782C20.6702 33.0533 21.1753 33.3467 21.4565 33.4994C21.7726 33.6715 22.1261 33.7857 22.4026 34.0237L22.6567 31.4788ZM18.8459 35.1517C18.9862 34.8018 19.2249 34.5045 19.4107 34.1804C19.6782 33.7131 19.913 33.2422 19.5183 32.7607C18.864 31.9623 17.7039 32.311 17.4934 33.2803L18.5192 35.156L18.8459 35.1521V35.1517ZM18.0192 35.1737L17.0107 33.2139L14.8447 34.5728C14.796 34.6097 14.7972 34.8717 14.8459 34.8882C15.8933 35.0692 16.9553 35.1784 18.0192 35.1741V35.1737ZM19.3011 35.1171C20.1769 35.0641 21.0689 34.9345 21.9215 34.7311C21.9835 34.7161 22.4489 34.6101 22.4485 34.5799L20.349 33.4598C19.9484 33.9766 19.5552 34.5103 19.3007 35.1171H19.3011Z" fill="#97051D"/>
<path d="M18.7123 36L17.3146 35.9992L16.469 35.9419C12.0872 35.5715 7.98937 33.5858 4.93072 30.3512C1.86618 27.11 0.129489 22.9112 0.0391592 18.5259L0.00067083 18.1877L0.00145631 18.161C0.00224178 18.1174 0.00145631 18.0715 0.00145631 18.0232C0.00067083 17.9635 -0.000114647 17.9018 0.00145631 17.8374C0.00774013 17.6304 0.0210932 17.4054 0.0336609 17.1882L0.0399447 17.0822C0.587422 7.60931 8.14215 0.265491 17.6126 0H17.6236H18.4712L18.525 0.0157095C18.556 0.0247425 18.6338 0.0219934 18.6962 0.0200297C18.7508 0.018066 18.8125 0.0161023 18.8761 0.0188515C26.1084 0.330686 32.5874 5.15195 34.998 12.0166C35.5875 13.6956 35.9429 15.5022 35.9787 16.9969L36.0003 17.0103V18.8542L35.981 18.9131C35.9759 18.9335 35.9787 19.0007 35.9802 19.0451C35.9822 19.0973 35.9846 19.1562 35.9814 19.2183C35.7721 23.377 33.9769 27.3931 30.9273 30.5268C27.8883 33.6495 23.9287 35.566 19.7778 35.9238H19.7723L18.7119 36.0008L18.7123 36ZM14.294 34.8159C14.3364 34.8253 14.38 34.8347 14.4228 34.8442C14.4177 34.8006 14.4134 34.733 14.4193 34.6572C14.382 34.7118 14.3403 34.766 14.294 34.8159ZM15.5406 34.5999C16.1768 34.691 16.7824 34.7472 17.3703 34.7696L16.8578 33.7736L15.5406 34.5999ZM20.4588 33.9633C20.2892 34.1891 20.1226 34.4228 19.975 34.6667C20.4466 34.6164 20.9136 34.5441 21.3723 34.4503L20.4592 33.9629L20.4588 33.9633ZM17.9158 33.2332L18.6738 34.6191C18.7386 34.508 18.8074 34.4023 18.8749 34.2979C18.9448 34.1899 19.0108 34.0882 19.0701 33.9849C19.3788 33.446 19.4082 33.2453 19.2146 33.0089C19.0147 32.765 18.741 32.6637 18.4637 32.7305C18.2127 32.7909 18.0113 32.9783 17.9154 33.2328L17.9158 33.2332ZM11.3701 33.4001C12.0907 33.7296 12.8684 34.0065 13.6279 34.204C13.644 34.2083 13.6648 34.2138 13.6884 34.2209C13.7041 34.2252 13.7285 34.2323 13.7536 34.239C13.7937 34.1848 13.8345 34.1137 13.8459 34.0772C13.9527 33.7335 13.873 32.9539 13.8149 32.3844C13.7937 32.1751 13.7732 31.9776 13.763 31.8146V31.8111C12.6284 31.6276 11.7467 31.705 11.3724 32.0275C11.2711 32.1146 11.1383 32.2709 11.1541 32.6209C11.1651 32.8703 11.268 33.1526 11.3693 33.4005L11.3701 33.4001ZM23.4813 31.8295L23.4648 33.1051L23.4605 33.1326C23.4397 33.2681 23.4421 33.4185 23.4452 33.5776C23.4468 33.6609 23.4483 33.7465 23.4464 33.8344C23.4464 33.8513 23.4452 33.8686 23.4436 33.8863C24.4361 33.545 25.4097 33.1043 26.3436 32.5734C26.3892 32.2411 26.2824 31.9112 26.1472 31.6445L23.4809 31.8291L23.4813 31.8295ZM10.3827 33.4205C10.4456 33.4519 10.5072 33.4825 10.5704 33.5132C10.5033 33.3357 10.4416 33.1444 10.4043 32.9453C10.409 33.038 10.4075 33.1322 10.3992 33.2281L10.3827 33.4205ZM14.999 31.8621L14.9467 33.4107L16.2616 32.7858L15.8202 31.9179C15.8068 31.9159 15.7927 31.9139 15.7813 31.9124L15.7471 31.9077C15.5417 31.8782 15.244 31.857 14.9994 31.8617L14.999 31.8621ZM21.09 32.7132C21.0966 32.7454 21.1548 32.8879 21.6445 33.1542C21.7352 33.2033 21.8314 33.2485 21.9339 33.2964C21.9799 33.318 22.0266 33.34 22.0745 33.3628L22.2195 31.9116C22.104 31.9132 21.9968 31.9077 21.8998 31.9022C21.5377 31.8825 21.4725 31.8916 21.3708 32.0624C21.3099 32.1645 21.1253 32.5812 21.0903 32.7128L21.09 32.7132ZM20.0504 32.9009C20.0787 32.9775 20.0979 33.0537 20.1093 33.1287L20.242 32.9575L20.3653 33.023C20.3406 32.963 20.3225 32.8997 20.3123 32.833L20.2079 32.9999L20.05 32.9009H20.0504ZM17.1944 32.7112L17.2443 32.8078C17.2592 32.7776 17.2745 32.7481 17.291 32.7191C17.2592 32.7183 17.227 32.7155 17.1944 32.7108V32.7112ZM17.0942 32.6908L17.097 32.6963L17.1021 32.6931C17.0993 32.6924 17.097 32.6916 17.0942 32.6912V32.6908ZM9.5886 31.1811C9.95699 31.6308 10.2669 32.117 10.3702 32.6633C10.3702 32.6609 10.3702 32.6582 10.3702 32.6558C10.3474 32.1512 10.517 31.7282 10.8603 31.4325C11.0107 31.3028 11.1874 31.2027 11.3826 31.1269L10.9023 31.0786C10.5217 31.2412 10.0819 31.2757 9.5886 31.1811ZM26.7395 31.0919C27.0506 31.617 27.1825 32.1417 27.1279 32.6307C27.1428 32.6213 27.1586 32.6115 27.1735 32.602L27.2885 32.1064C27.4001 31.6269 27.7158 31.2223 28.1926 30.9274L28.2166 30.883L26.7391 31.0923L26.7395 31.0919ZM7.92103 31.4057C8.41628 31.7792 8.9398 32.1288 9.48452 32.4512C9.33646 32.1127 9.08747 31.7953 8.83376 31.5047L7.92064 31.4061L7.92103 31.4057ZM15.8622 30.7063C15.9761 30.7063 16.092 30.7094 16.2082 30.72L16.3952 30.7373L16.4992 30.8936C16.5621 30.9883 16.6237 31.0888 16.683 31.1858C16.846 31.4525 17.0145 31.7282 17.2156 31.8853C17.3043 31.9548 17.3228 31.9689 17.6142 31.8138C17.703 31.7667 17.8031 31.7133 17.9139 31.6697C18.6687 31.3728 19.3407 31.5848 19.9573 31.9257C20.3681 31.3001 20.9556 30.5704 21.8495 30.557C21.9504 30.5559 22.0447 30.5672 22.128 30.5779C22.1759 30.5837 22.243 30.5924 22.2839 30.5924H22.2854C22.3133 30.5292 22.3899 30.2998 22.4162 29.6447C22.4198 29.5571 22.4178 29.4652 22.4158 29.3682C22.4127 29.2162 22.4092 29.0587 22.4264 28.893L22.4469 28.6943L22.6197 28.5937C22.701 28.5466 22.7823 28.5003 22.8643 28.4535C23.1562 28.2874 23.4322 28.1303 23.6867 27.9449C23.9228 27.7729 24.01 27.6767 24.0422 27.628C24.0092 27.562 23.9342 27.452 23.8859 27.3814C23.7959 27.2498 23.7028 27.1135 23.6486 26.9768C23.3863 26.3166 23.6145 25.6596 23.8089 25.2229C23.8564 25.1164 23.9161 25.0159 23.975 24.9189C23.4267 24.5902 22.752 24.1797 22.547 23.4222C22.4449 23.0451 22.4531 22.6567 22.4905 22.2883C22.2132 22.3115 21.9273 22.3343 21.6374 22.3131C20.7781 22.2498 20.4773 21.6069 20.3159 21.0386C20.2648 21.0634 20.213 21.0885 20.1603 21.114C19.9302 21.2263 19.6922 21.3422 19.4452 21.4357C18.4987 21.7935 17.9877 21.5292 17.2812 21.1631L17.2168 21.1297C17.1696 21.1054 17.1209 21.0771 17.0703 21.0461C16.9297 21.4942 16.7392 21.9855 16.3398 22.1823C16.0417 22.3292 15.6831 22.2895 15.3952 22.2577C15.3112 22.2483 15.2315 22.2396 15.1678 22.2373C15.0162 22.2314 14.8619 22.2322 14.7083 22.2373C14.7535 22.628 14.7857 23.0538 14.7005 23.4709C14.5473 24.2222 13.95 24.6322 13.4229 24.9939C13.3887 25.0171 13.3554 25.0402 13.322 25.063C13.73 25.5594 14.2268 26.3905 13.8019 27.3688C13.7096 27.5816 13.5879 27.7611 13.4586 27.928C14.0611 28.2917 14.7586 28.8906 14.8285 29.7409C14.8438 29.9259 14.8218 30.1026 14.8026 30.2589C14.7582 30.6179 14.761 30.6187 14.9008 30.658C15.1172 30.7185 15.3709 30.7137 15.6391 30.7094C15.7126 30.7082 15.7868 30.7067 15.8618 30.7067L15.8622 30.7063ZM12.1575 30.4153L13.7446 30.5751C13.7477 30.1521 13.6868 29.7362 13.439 29.4593C13.3341 29.3423 13.1441 29.2092 12.9504 29.1153L12.1579 30.4153H12.1575ZM23.4637 30.3041L23.4782 30.5543L25.3995 30.4396L24.7837 28.8121C24.3391 28.9295 23.8521 29.1243 23.6486 29.4849C23.5124 29.726 23.4868 30.0068 23.4637 30.3045V30.3041ZM9.39694 30.3237C9.42679 30.3332 9.45939 30.3422 9.49199 30.3508L9.52419 30.3595C10.0253 30.4977 10.4177 30.4746 10.7236 30.2892C11.1195 30.0488 11.3995 29.5241 11.579 28.6852L11.5829 28.6664C11.6175 28.5054 11.6391 28.3946 11.6521 28.3184L9.61099 27.1104C9.47667 27.1618 9.3396 27.2105 9.20568 27.2584C8.82355 27.3947 8.42845 27.5357 8.11387 27.727C8.00469 27.7933 7.96463 27.8346 7.95167 27.8507C7.9552 27.8742 7.97287 27.9394 8.05574 28.0899C8.1335 28.2305 8.2313 28.3687 8.33537 28.5148C8.40881 28.6185 8.485 28.7253 8.55648 28.8376C8.80862 29.2339 9.12674 29.7531 9.39734 30.3237H9.39694ZM25.8036 28.126L26.6963 30.3049L28.1722 30.096L29.4596 27.7564C29.2852 27.6869 29.1152 27.6111 28.9479 27.5369C28.6671 27.412 28.4024 27.2938 28.1357 27.2121C27.71 27.0813 27.4641 27.1123 26.9905 27.357C26.6845 27.5153 26.3959 27.716 26.0903 27.9284C25.996 27.994 25.9006 28.0604 25.8032 28.1264L25.8036 28.126ZM6.25071 29.9695L7.90925 30.1561L6.9981 28.4747C6.95489 28.483 6.9113 28.492 6.87478 28.5003C6.17138 28.6597 5.94006 28.9291 5.99072 29.53C5.99465 29.5775 6.01311 29.6832 6.02803 29.7468C6.0838 29.8049 6.1812 29.9023 6.25071 29.9695ZM30.4473 28.4036L29.5362 30.0924C29.5872 30.0869 29.6367 30.0803 29.6843 30.072C29.685 30.072 29.6858 30.072 29.6866 30.0716C29.7581 30.0131 29.9109 29.8513 29.9717 29.7873C30.0012 29.7558 30.0275 29.7284 30.0483 29.7071C30.3763 29.3702 30.6806 29.0155 30.998 28.6322C30.8279 28.5497 30.6637 28.4743 30.5008 28.4213L30.4748 28.4127C30.4682 28.4103 30.4583 28.4072 30.447 28.4036H30.4473ZM12.4462 28.3188C12.4407 28.3624 12.4328 28.4123 12.4226 28.4712L12.4988 28.3463L12.4466 28.3188H12.4462ZM1.4919 20.8976C1.96162 23.6264 3.14572 26.2585 4.86788 28.4174C5.0886 28.0211 5.4943 27.7643 5.83677 27.5479C5.93063 27.4886 6.02175 27.4308 6.1054 27.3731C5.76372 26.9431 5.34545 26.4097 5.41929 25.7915C5.46367 25.4184 5.66946 25.1204 5.86308 24.8572C5.77668 24.8077 5.68792 24.7586 5.5972 24.7088C5.34152 24.5674 5.07721 24.4217 4.82743 24.2434C4.35418 23.9064 4.15113 23.5683 4.07848 22.9956C4.04745 22.751 4.03881 22.5055 4.03056 22.2683C4.02781 22.1862 4.02506 22.1057 4.02153 22.0268C3.92963 22.0283 3.8338 22.0342 3.73562 22.0401C3.47091 22.0562 3.19678 22.0727 2.91479 22.0146C2.8115 21.9934 2.59628 21.9486 2.46 21.7707C2.39441 21.6851 2.33864 21.5727 2.28445 21.464C2.25381 21.4023 2.222 21.3383 2.19844 21.301C1.98714 20.9613 1.84104 20.8316 1.79352 20.8042C1.71772 20.7932 1.64271 20.8242 1.49151 20.8976H1.4919ZM31.2909 27.4065C31.4571 27.4772 31.6142 27.5502 31.765 27.6303C31.9083 27.4238 32.1 27.1327 32.1923 26.9874C33.1816 25.4322 33.9137 23.6935 34.3359 21.9074C33.973 22.0558 33.59 22.0872 33.2213 22.0711C33.2346 22.4116 33.2165 22.7592 33.0948 23.1139C32.8509 23.8255 32.2072 24.2214 31.6397 24.5705C31.5992 24.5953 31.5596 24.6196 31.5207 24.644C31.6625 24.9554 31.8153 25.3057 31.849 25.6879C31.906 26.3402 31.5934 26.9211 31.2906 27.4061L31.2909 27.4065ZM10.7652 26.3795C10.7951 26.44 10.909 26.5405 11.1042 26.6791L11.1156 26.6874C11.462 26.9336 11.8712 27.1414 12.2675 27.3421C12.2926 27.355 12.3181 27.3676 12.3437 27.3806C12.6457 26.8924 12.7824 26.5892 12.6025 26.1552C12.573 26.0881 12.4218 25.8096 12.3036 25.6085C12.053 25.7044 11.7946 25.8033 11.5535 25.9133C10.973 26.1776 10.8104 26.3233 10.7656 26.3795H10.7652ZM24.7012 26.1882L25.0492 27.0789L26.4418 26.3375C26.2242 26.1929 25.9976 26.0488 25.7757 25.9078C25.6658 25.8379 25.5574 25.7688 25.4517 25.7012C25.4368 25.6918 25.412 25.6753 25.3818 25.6549C25.3425 25.6286 25.2498 25.5669 25.1772 25.5213C25.0385 25.6148 24.8147 25.9298 24.7012 26.1882ZM6.78091 25.6478C6.77227 25.6725 6.74007 25.8069 6.87124 26.1717C6.94822 26.3862 7.05701 26.5927 7.17601 26.8052L8.30474 26.1309C8.10091 26.0225 7.90022 25.9208 7.84445 25.896C7.15009 25.5873 6.83904 25.6187 6.78091 25.6474V25.6478ZM28.8355 26.1886L30.3358 26.7746C30.52 26.4184 30.67 26.0574 30.615 25.7118C30.6021 25.6392 30.5294 25.4043 30.467 25.2409C30.1064 25.356 29.2837 25.8402 28.8355 26.1886ZM9.67697 26.2369L9.97348 26.4125C9.96877 26.3194 9.98212 26.2208 10.0198 26.1171C10.0206 26.1148 10.0214 26.1128 10.0222 26.1104C9.86902 26.1646 9.72135 26.2181 9.57682 26.275L9.45075 26.3245V26.3292C9.46567 26.3229 9.48099 26.317 9.49591 26.3107L9.67697 26.2361V26.2369ZM27.4959 26.145C27.5297 26.1914 27.5584 26.2495 27.5697 26.3221C27.5713 26.3331 27.5729 26.3437 27.5737 26.3547C27.6247 26.3512 27.677 26.3496 27.73 26.3508C27.7276 26.3221 27.7284 26.2935 27.7319 26.2656L27.58 26.1878C27.5521 26.1737 27.5238 26.1595 27.4955 26.1454L27.4959 26.145ZM7.65475 24.4535L9.46489 25.477C9.6212 25.4184 9.78026 25.3631 9.935 25.3085C10.3262 25.1714 10.7307 25.0296 11.079 24.8498C11.3972 24.6856 11.469 24.5835 11.4836 24.5367C11.5236 24.4083 11.3441 24.0698 11.2852 23.9582C11.1097 23.6268 10.9019 23.309 10.682 22.9729C10.51 22.7101 10.3328 22.4391 10.1722 22.1607C9.99901 22.0715 9.79832 22.0268 9.60902 22.0362C8.70965 22.0813 7.90886 23.364 7.69953 24.2335C7.685 24.2944 7.66811 24.3781 7.65475 24.4535ZM27.3251 22.1752C27.1684 22.3865 27.0011 22.5935 26.8389 22.7946C26.5581 23.1421 26.2678 23.5015 26.0467 23.8675C25.8413 24.2072 25.8405 24.3251 25.8499 24.36C25.8613 24.4028 25.932 24.5041 26.28 24.6993C26.5659 24.86 26.8703 24.9959 27.1923 25.1396C27.3746 25.2209 27.5611 25.3042 27.7453 25.3929L29.7051 24.2587C29.6854 24.2092 29.6658 24.1585 29.6458 24.1071C29.3167 23.2627 28.9074 22.2121 28.1074 22.0849C27.8839 22.0491 27.6039 22.0821 27.3251 22.1752ZM6.86535 24.7747L6.82058 24.8482C6.84454 24.8466 6.86849 24.8458 6.89323 24.8458C6.88459 24.8282 6.87399 24.8066 6.86535 24.7751V24.7747ZM12.2647 24.6341C12.258 24.6801 12.2478 24.726 12.2333 24.772C12.2306 24.7806 12.2278 24.7893 12.2247 24.7979C12.2522 24.7873 12.2796 24.7767 12.3067 24.7661L12.3386 24.7535L12.2643 24.6341H12.2647ZM24.8791 24.7543C24.8799 24.7661 24.8803 24.7787 24.8803 24.7912C24.9015 24.781 24.9235 24.7716 24.9455 24.7634C24.9235 24.7618 24.9015 24.7586 24.8795 24.7543H24.8791ZM11.6992 22.2365L12.7329 23.8993C13.1598 23.7293 13.3597 23.5313 13.4225 23.2352C13.4846 22.9426 13.4594 22.6343 13.4327 22.308C13.4312 22.2899 13.4296 22.2718 13.4284 22.2538L11.6988 22.2365H11.6992ZM23.7594 22.2538C23.7241 22.6041 23.7233 22.976 23.8863 23.2572C24.0049 23.4614 24.2283 23.6362 24.5896 23.807C24.6317 23.8267 24.7079 23.8597 24.7864 23.8923L25.5896 22.229L23.7594 22.2541V22.2538ZM5.23116 22.0806C5.2182 22.5169 5.26415 22.9556 5.52101 23.2607C5.77982 23.5686 6.24522 23.7006 6.61164 23.7568L7.30718 22.145L5.23077 22.0802L5.23116 22.0806ZM30.1064 22.1249L30.7619 23.6499C31.2517 23.4316 31.721 23.1626 31.8769 22.7195C31.9295 22.5699 31.946 22.4109 31.9649 22.2267C31.9669 22.2074 31.9688 22.1886 31.9708 22.1693L31.9629 22.0625L30.1064 22.1249ZM8.36875 21.6682L8.32477 21.7703C8.68805 21.4738 9.10789 21.275 9.57014 21.2519C9.71703 21.2444 9.86548 21.255 10.0108 21.2829C9.9727 21.2036 9.92793 21.1062 9.87451 20.986L9.87255 20.9813C9.6911 20.574 9.49277 20.0473 9.54069 19.5407C9.53872 19.5423 9.53676 19.5443 9.5344 19.5458L9.29758 19.7434C9.33843 20.2249 9.25242 20.6997 8.98496 21.1117C8.93233 21.1926 8.67509 21.5684 8.36915 21.6678L8.36875 21.6682ZM27.9185 21.2853C28.0206 21.2853 28.1251 21.2923 28.2303 21.3092C28.5477 21.3599 28.8179 21.4844 29.0504 21.658L28.9514 21.4278C28.6989 21.2951 28.4719 21.1015 28.2889 20.8234C28.0245 20.4216 27.9059 19.9715 27.8529 19.6648L27.827 19.5144L27.8592 19.4645C27.8337 19.4657 27.8085 19.4653 27.7834 19.4633C27.8635 19.8781 27.8341 20.2492 27.6935 20.5732C27.5375 20.933 27.2544 21.2181 26.8475 21.4259H26.8495L26.7517 21.6289C26.7544 21.6254 26.7572 21.6214 26.7595 21.6179L26.8275 21.5237L26.9359 21.4816C27.1417 21.4015 27.5097 21.286 27.9185 21.286V21.2853ZM23.8226 21.0229C24.5017 21.0606 25.1921 21.0783 25.8382 20.9428C26.4508 20.8148 26.8326 20.585 26.9732 20.2606C27.1483 19.8561 26.9897 19.2301 26.5145 18.4509C26.3114 18.1178 26.064 17.7977 25.8146 17.4867C25.769 17.5103 25.7235 17.5334 25.6783 17.5566C25.2981 17.7514 24.905 17.9525 24.5574 18.1783C24.0245 18.5239 23.8615 18.7175 23.8226 19.3227V21.0229ZM14.5937 20.9801C14.7311 21.0414 15.1792 21.0166 15.3304 21.008C15.3807 21.0052 15.4274 21.0025 15.4683 21.0009C15.5657 20.997 15.6635 20.9938 15.7609 20.9907C15.777 20.9903 15.7931 20.9895 15.8092 20.9891L16.0118 20.3922L14.6663 19.5525C14.6687 19.7092 14.6679 19.8675 14.6612 20.0254C14.6549 20.1683 14.6373 20.3062 14.6204 20.4393C14.6051 20.5591 14.5905 20.6726 14.5854 20.7798C14.5799 20.9019 14.5874 20.9561 14.5937 20.9797V20.9801ZM21.3032 20.2936C21.3822 20.4939 21.4929 20.7543 21.5228 20.812C21.6323 21.0135 21.6449 21.0127 21.9709 20.9923C22.0526 20.9872 22.1452 20.9813 22.2474 20.9805L22.3341 20.9797C22.4025 20.9789 22.4712 20.9781 22.5411 20.9785C22.5368 20.7841 22.536 20.5885 22.5356 20.3981C22.5348 20.0929 22.5337 19.7787 22.5168 19.4783C22.5105 19.4818 22.5046 19.4849 22.4987 19.4885L22.4952 19.4904C22.2258 19.6393 21.9622 19.8274 21.683 20.0265C21.5589 20.1153 21.432 20.2056 21.3036 20.2932L21.3032 20.2936ZM12.066 20.9829L13.3797 20.9966L13.3675 20.162C13.355 20.0356 13.3483 19.9095 13.342 19.7874C13.3239 19.4386 13.3067 19.1095 13.1547 18.8562C13.0035 18.604 12.436 18.2215 11.4667 17.7188C11.4003 17.837 11.3288 17.9564 11.2522 18.077C11.1596 18.2231 11.0461 18.3762 10.9259 18.5384C10.6773 18.8738 10.3678 19.2909 10.3266 19.5784C10.279 19.9087 10.4424 20.3309 10.5897 20.662L10.5917 20.6667C10.658 20.8159 10.704 20.9137 10.7354 20.9777C10.8842 20.9836 11.0476 20.9758 11.2177 20.9679C11.4965 20.955 11.7844 20.9416 12.066 20.9832V20.9829ZM6.98553 20.8768C7.15716 20.8768 7.32839 20.8886 7.49609 20.9C7.72191 20.9153 7.93596 20.9302 8.12486 20.9149C8.18102 20.8674 8.27803 20.757 8.32555 20.684C8.8962 19.805 8.09462 18.2561 7.29618 17.6807L7.29029 17.6764C7.28322 17.6713 7.27655 17.6666 7.27026 17.6619C7.10571 17.7538 6.93918 17.8409 6.77659 17.9262C6.46908 18.0872 6.17884 18.2396 5.90628 18.4159C5.21624 18.8628 5.22017 19.1154 5.23313 19.9519C5.2347 20.0462 5.23627 20.1451 5.23666 20.2496C5.23745 20.4091 5.23666 20.5685 5.23627 20.728C5.23627 20.7661 5.23627 20.8042 5.23588 20.8423L6.72475 20.8874C6.81154 20.8796 6.89873 20.8768 6.98631 20.8768H6.98553ZM28.6565 19.6762C28.7189 19.9496 28.8194 20.1997 28.9455 20.3914C29.3253 20.9687 30.0625 20.9522 31.0624 20.8658C31.2226 20.8521 31.3738 20.8387 31.5227 20.8305C31.6672 20.8226 31.8121 20.8179 31.9515 20.8155C31.9515 20.7814 31.9519 20.7464 31.9531 20.7111C31.9559 20.6164 31.959 20.521 31.9621 20.4256C31.9806 19.862 31.9994 19.2792 31.9739 18.7242C31.9727 18.6955 31.9688 18.6618 31.9645 18.6256L31.9401 18.6103C31.6318 18.4167 31.3129 18.2168 30.9956 18.0361C30.9528 18.0118 30.9061 17.9843 30.8562 17.9544C30.67 17.8441 30.1033 17.5087 29.9387 17.6061C29.7899 17.707 29.4447 18.3409 29.3147 18.5793C29.2534 18.6916 29.2004 18.7886 29.156 18.8644C29.0123 19.1087 28.8516 19.3695 28.6565 19.6758V19.6762ZM33.2165 19.2285C33.2146 19.2434 33.2126 19.2595 33.2107 19.2772C33.1824 19.5505 33.2032 19.8384 33.2256 20.1436C33.2425 20.378 33.2601 20.6192 33.255 20.8639C33.5036 20.858 33.7707 20.7829 34.024 20.6439C34.2691 20.5092 34.467 20.3152 34.5047 20.1722C34.5142 20.1365 34.5177 20.0945 34.4804 20.0316C34.4105 19.9425 34.1285 19.7575 33.6423 19.4814C33.6003 19.4575 33.5625 19.4362 33.5315 19.4182C33.4754 19.3856 33.4212 19.3522 33.3689 19.32C33.3242 19.2925 33.268 19.2579 33.2165 19.2285ZM3.84912 19.5474C3.74975 19.5882 3.65432 19.633 3.56477 19.6813C3.23095 19.8608 2.80875 20.2186 2.91558 20.4511C3.00905 20.6549 3.47287 20.7841 3.9473 20.8132L3.84912 19.5474ZM17.7489 19.9452C17.8157 19.9873 17.8872 20.0293 17.9257 20.0497C18.5061 20.3541 19.0379 20.2787 19.6223 19.8007L18.7728 18.1461C18.6479 18.3876 18.49 18.6351 18.3372 18.8746C18.1087 19.2328 17.873 19.6024 17.7493 19.9452H17.7489ZM1.90899 20.0269C1.92666 20.0297 1.94433 20.0324 1.9624 20.0364C2.01503 20.047 2.07629 20.065 2.14699 20.1012C2.15838 20.0603 2.17252 20.0199 2.18901 19.9802C2.07629 20.0065 1.98361 19.9853 1.91763 19.9554C1.91606 19.9802 1.91331 20.0038 1.90899 20.0269ZM21.6488 15.6338C21.3016 15.6338 20.9596 15.655 20.6324 15.7154C20.1564 15.8034 19.8465 15.9691 19.7114 16.2079C19.5347 16.5202 19.5889 17.0295 19.8815 17.8103C20.0531 18.2678 20.2727 18.7168 20.5429 19.2202C20.6391 19.17 20.7349 19.1209 20.8296 19.0726C21.1874 18.8892 21.5251 18.7164 21.8354 18.5102C22.4473 18.1045 22.5168 17.8751 22.5486 17.0712C22.558 16.8316 22.5537 16.5916 22.5486 16.3379C22.5447 16.1188 22.5403 15.8949 22.5458 15.6691C22.2466 15.6495 21.9457 15.6338 21.6488 15.6338ZM14.7284 18.0888L16.7781 19.2179C16.8358 19.1091 16.8955 18.9964 16.9599 18.8848C17.042 18.7423 17.1327 18.5993 17.2289 18.4477C17.5156 17.9953 17.8404 17.4828 17.8707 17.0382C17.8954 16.6753 17.699 16.1773 17.3401 15.6817C16.7855 15.6801 16.1548 15.6758 15.5303 15.6605C15.4593 15.6589 15.3929 15.6546 15.3289 15.6506C15.2142 15.6436 15.1156 15.6377 15.0096 15.6455C14.7712 15.6628 14.7201 15.7088 14.7123 15.7178C14.6922 15.741 14.6561 15.8176 14.6408 16.072C14.618 16.4522 14.6518 16.8685 14.6844 17.2711C14.6958 17.4129 14.7076 17.5593 14.717 17.7023C14.7233 17.8021 14.7252 17.9002 14.7268 17.9953C14.7276 18.0271 14.728 18.0585 14.7288 18.0895L14.7284 18.0888ZM1.24722 17.7231C1.45616 18.1807 1.75778 18.6335 2.18391 19.1276C2.19255 19.1228 2.20079 19.1189 2.20786 19.1154C2.25538 19.091 2.29741 19.0694 2.32451 19.0565L2.43408 19.0046C2.83546 18.8149 3.77528 18.3707 3.97204 18.0338C4.16488 17.7039 4.1743 16.8344 4.1802 16.3148C4.18137 16.2201 4.18216 16.1294 4.18412 16.0461C3.60248 15.9962 2.99962 15.9743 2.42033 16.054C2.00403 16.1109 1.48994 16.2723 1.30221 16.4715C1.26568 16.737 1.26136 17.0174 1.25704 17.3127C1.25508 17.447 1.25311 17.5853 1.24762 17.7227L1.24722 17.7231ZM22.8954 18.626C22.9174 18.6347 22.9394 18.6445 22.9614 18.6567C23.0218 18.6893 23.0709 18.7305 23.111 18.7764C23.1444 18.6406 23.188 18.5192 23.2418 18.4081L23.0317 18.5117L23.0348 18.43C22.9943 18.4968 22.948 18.562 22.8958 18.626H22.8954ZM4.56037 18.5624L4.5749 18.7517C4.63302 18.6009 4.71628 18.454 4.8345 18.3091C4.79169 18.3103 4.75281 18.3075 4.71707 18.3001C4.69665 18.3456 4.67465 18.3888 4.6503 18.43C4.62399 18.4748 4.59375 18.5192 4.56037 18.5624ZM33.1545 17.8838L34.7773 18.6857C34.7781 18.6492 34.7785 18.6103 34.7793 18.5703C34.78 18.5133 34.7808 18.4701 34.7816 18.4497C34.8048 17.718 34.7867 17.0496 34.7262 16.4063C34.7046 16.1746 34.6705 15.935 34.6379 15.7033C34.6359 15.6899 34.6339 15.6762 34.632 15.6628C34.4835 15.6471 34.3276 15.644 34.1658 15.6412L34.0173 15.6381C33.8602 15.6345 33.6977 15.631 33.5484 15.64C33.2464 15.6585 33.1188 15.6785 33.0708 15.6883C33.0701 15.6891 33.0693 15.6899 33.0685 15.6903C33.0528 15.7147 32.9943 15.8301 33.0013 16.193C33.0072 16.486 33.052 16.8214 33.092 17.1171C33.1199 17.3229 33.1435 17.5008 33.1525 17.6469C33.1576 17.7306 33.1561 17.8087 33.1541 17.8841L33.1545 17.8838ZM8.58123 17.0197L9.39655 18.6068C9.81639 18.1818 10.1973 17.6489 10.2079 17.2086C10.2127 17.0182 10.1518 16.8607 10.0277 16.7417C9.87177 16.5916 9.6318 16.5154 9.36906 16.5319C9.02777 16.5535 8.73793 16.7366 8.58083 17.0201L8.58123 17.0197ZM27.0242 16.874L27.8961 18.5781C27.9083 18.564 27.9212 18.5479 27.9354 18.5298C28.1058 18.3111 28.2398 18.0503 28.3811 17.7742C28.5147 17.5134 28.6517 17.2459 28.8293 16.9966C28.6188 16.6415 28.2252 16.4365 27.7964 16.4738C27.5018 16.4993 27.2206 16.6478 27.0246 16.8736L27.0242 16.874ZM13.6947 18.2698C13.7473 18.3307 13.7921 18.3916 13.8286 18.452C13.8337 18.4607 13.8388 18.4697 13.8439 18.4784L13.8388 18.335L13.6947 18.2698ZM5.31796 15.9067L5.21585 17.3854C5.28929 17.3559 5.36862 17.3225 5.45071 17.286C5.70481 17.1737 5.97383 17.039 6.2083 16.907L6.24404 16.887C6.65681 16.6553 6.76127 16.5508 6.73025 16.3996C6.722 16.3595 6.65641 16.2629 6.46279 16.1545C6.07948 15.9401 5.55596 15.8659 5.31757 15.9067H5.31796ZM30.551 16.5693L32.0745 17.2954C32.1 16.949 32.0945 16.5869 32.0116 16.2445C31.9559 16.0135 31.8294 15.7508 31.7241 15.6463C31.6252 15.5485 31.5498 15.5391 31.5015 15.5411C31.3585 15.5458 31.1629 15.6703 30.9909 15.8651C30.8338 16.0434 30.6822 16.2865 30.5506 16.5689L30.551 16.5693ZM12.0656 16.671L13.3703 17.2613L13.3805 15.6577C12.9618 15.6416 12.3036 15.7308 12.1159 16.4122C12.0907 16.5041 12.0739 16.5912 12.0656 16.671ZM23.7731 15.7217C23.7688 15.7429 23.7641 15.7838 23.7653 15.8537C23.768 16.0014 23.7889 16.1628 23.8108 16.3332C23.8321 16.4986 23.854 16.6698 23.8611 16.8426C23.8662 16.9706 23.867 17.0983 23.865 17.2247L25.2828 16.5253L24.9808 15.7421C24.8987 15.7363 24.817 15.7296 24.7369 15.7229C24.4557 15.6993 24.1902 15.6773 23.9408 15.6962C23.847 15.7033 23.7975 15.7143 23.7735 15.7217H23.7731ZM18.7135 17.2106C18.7457 17.2106 18.7795 17.2122 18.8156 17.2153C18.8313 17.2165 18.8564 17.2192 18.8871 17.2239C18.7897 16.7425 18.7881 16.2449 19.0277 15.8211C19.1801 15.5517 19.4169 15.338 19.7354 15.1813L19.7401 15.1719C19.6156 15.1813 19.4499 15.1845 19.2193 15.186C19.1801 15.186 19.149 15.1864 19.1318 15.1868C19.0972 15.1876 19.0615 15.1888 19.0249 15.19C18.6927 15.1998 18.2846 15.2123 17.9033 15.1228C18.188 15.4986 18.7076 16.3018 18.6538 17.0912C18.651 17.132 18.6467 17.1729 18.6416 17.2133C18.6644 17.2118 18.6884 17.2106 18.7135 17.2106ZM7.43404 16.8536C7.54243 16.8925 7.64219 16.962 7.73134 17.026L7.77611 16.9003C7.8036 16.8234 7.83581 16.7491 7.87233 16.6784C7.76158 16.682 7.63905 16.6592 7.51455 16.5857C7.50119 16.6831 7.47331 16.7719 7.43404 16.8536ZM10.9518 16.8371C10.9616 16.8776 10.9699 16.9184 10.9761 16.96L10.9816 16.9486L11.0614 16.8913C11.1014 16.8622 11.1419 16.843 11.1819 16.8308L11.0233 16.8642L10.9518 16.8371ZM11.2746 16.8112L11.2487 16.8167C11.2573 16.8155 11.2664 16.8147 11.275 16.8143C11.275 16.8131 11.275 16.8124 11.275 16.8112H11.2746ZM29.5841 16.7444C29.5935 16.7641 29.6022 16.7837 29.6112 16.8033L29.6242 16.768L29.5841 16.7444ZM26.1579 16.6125L26.192 16.7008L26.2278 16.6403C26.2415 16.6172 26.2556 16.5944 26.2702 16.572C26.2333 16.5861 26.1956 16.5995 26.1579 16.6121V16.6125ZM9.32389 15.254C9.50809 15.254 9.71467 15.2956 9.94953 15.4009C10.1706 15.5002 10.3721 15.6263 10.5669 15.748C10.6879 15.8238 10.8053 15.8973 10.9216 15.9609C10.9329 15.9424 10.9439 15.9236 10.9553 15.9047C11.2813 15.3632 11.6874 14.6888 12.4057 14.4709C12.5962 14.4131 12.7702 14.3966 12.9387 14.3809C12.9858 14.3766 13.0337 14.3719 13.0816 14.3664L13.1213 14.3617L13.4143 14.3876L13.4987 12.5531L13.6747 12.4439C13.873 12.321 14.0992 12.226 14.318 12.1341C14.5776 12.0253 14.8462 11.9126 15.0139 11.7708C15.0249 11.7617 15.0331 11.7539 15.0398 11.7472C15.0225 11.7048 14.9872 11.6384 14.9597 11.5866L14.9424 11.554C14.8753 11.4271 14.7991 11.3022 14.7186 11.1699C14.5693 10.9248 14.415 10.6715 14.3042 10.3824L14.2418 10.2198L14.3203 10.0643C14.4342 9.83928 14.5752 9.63113 14.7111 9.43005C14.8395 9.24036 14.9609 9.06127 15.0512 8.881C15.0983 8.78674 15.1164 8.73569 15.1231 8.70977C15.1058 8.69249 15.0689 8.66067 14.9943 8.61197C14.8163 8.49612 14.6039 8.40736 14.3788 8.31349C14.2174 8.24634 14.0505 8.17643 13.8895 8.09317L13.7909 8.04211L13.7336 7.94707C13.6857 7.86774 13.6479 7.80529 13.6672 7.17494C13.6719 7.01235 13.69 6.8368 13.7076 6.66674C13.7281 6.46684 13.7493 6.26065 13.7465 6.0953C13.6322 6.09256 13.4932 6.10473 13.3577 6.11651C13.2474 6.12633 13.1335 6.13615 13.0255 6.1389C12.8923 6.14243 12.7608 6.14047 12.6335 6.13811C12.5585 6.13694 12.4831 6.13576 12.4085 6.13576H12.1076L12.0263 5.85024C12.0094 5.79015 11.9929 5.72574 11.9757 5.65701C11.9333 5.48852 11.8205 5.0408 11.7004 4.97639C11.6921 4.97168 11.6623 4.97482 11.6218 4.98896C11.4592 5.0463 11.3013 5.14448 11.1344 5.24856C10.8226 5.44297 10.4687 5.66369 9.97898 5.68568C9.51202 5.70689 9.13499 5.53487 8.80391 5.29962C8.46183 5.81607 8.0687 6.38947 7.34763 6.60233C7.02205 6.69855 6.69529 6.72447 6.37443 6.7339C6.3544 7.16787 6.29666 7.62934 6.11679 8.04839C5.81635 8.74747 5.19935 9.1677 4.65541 9.53884C4.60632 9.57222 4.55762 9.60521 4.51049 9.63781C4.54544 9.70732 4.5804 9.77998 4.61221 9.85892C4.73671 10.1672 4.8019 10.4123 4.81722 10.6307C4.86042 11.2441 4.55212 11.8152 4.24696 12.2986C4.45393 12.3673 4.65973 12.4624 4.84471 12.6124C5.4079 13.0684 5.36391 13.6744 5.33171 14.1166C5.30657 14.463 5.30696 14.624 5.41732 14.712C5.4994 14.7776 5.79003 14.9272 6.7114 14.9107C6.71375 14.9107 6.72986 14.9076 6.74164 14.9052C6.82136 14.8911 6.95529 14.8671 7.11631 14.9217C7.40222 15.0183 7.57228 15.3302 7.73723 15.6318C7.78397 15.7174 7.84798 15.8344 7.87822 15.871C7.88058 15.8741 7.88294 15.8769 7.88529 15.8792C7.90179 15.8733 7.92378 15.8651 7.95284 15.8529C8.1068 15.7893 8.23994 15.7021 8.38093 15.6098C8.63267 15.4448 8.92684 15.252 9.3235 15.252L9.32389 15.254ZM27.9004 15.1291C28.1435 15.1291 28.3835 15.1931 28.6836 15.3243C28.964 15.4468 29.2299 15.6078 29.4875 15.7673C29.7282 15.3219 30.0499 14.8455 30.652 14.6602C31.0168 14.5478 31.4072 14.5376 31.7607 14.5357C31.7713 14.4383 31.7795 14.3369 31.7882 14.2332C31.8204 13.848 31.8537 13.4493 31.9987 13.0782C32.2056 12.5476 32.6545 12.2346 33.0732 12.03C32.7464 11.6592 32.4197 11.1895 32.4892 10.6153C32.5155 10.3993 32.6015 10.2104 32.6777 10.0435C32.695 10.0054 32.7119 9.96849 32.7276 9.93236C32.6632 9.81179 32.5992 9.69554 32.5363 9.58597C32.5183 9.55416 32.4967 9.51567 32.4735 9.47404C32.4146 9.3676 32.3066 9.17398 32.25 9.10093C32.2308 9.08562 32.1887 9.05773 32.1601 9.03888C32.1039 9.00157 32.0462 8.96308 31.9951 8.91949C31.5867 8.56799 31.3133 8.12616 31.1814 7.60499L30.7081 7.02845C30.7003 7.02727 30.6924 7.0261 30.6846 7.02492C30.6284 7.01628 30.5648 7.00646 30.498 6.99036C29.7039 6.80145 29.2589 6.17621 28.8666 5.62441C28.7923 5.51994 28.7201 5.41822 28.6474 5.322C28.3906 5.48577 28.1011 5.66329 27.7724 5.73045C27.0918 5.86909 26.4952 5.46849 26.0157 5.14645C25.9741 5.11856 25.9328 5.09107 25.8924 5.06397C25.8857 5.07576 25.879 5.08793 25.8723 5.10011C25.6508 5.50266 25.3755 6.0038 24.8469 6.16875C24.5009 6.27675 24.1352 6.24769 23.7944 6.19742C23.8529 6.65103 23.8918 7.14038 23.7637 7.59243C23.5674 8.28443 22.9476 8.61629 22.3911 8.83937C22.4315 8.9297 22.4751 9.02199 22.5203 9.11625C22.7536 9.606 23.0179 10.1609 22.9052 10.796C22.8412 11.1573 22.6637 11.5002 22.4881 11.7975C22.7595 12.0759 22.9645 12.2071 23.0972 12.2684C23.1173 12.2774 23.1805 12.2974 23.2225 12.3104C23.3651 12.3552 23.4884 12.3937 23.585 12.471C23.7841 12.6305 23.7979 12.8653 23.8053 12.9914C23.8065 13.0087 23.8077 13.0319 23.8093 13.0432L23.823 13.0908L23.8077 14.4155C24.634 14.3746 25.6288 14.4178 26.1323 15.3274C26.1975 15.4448 26.2529 15.5729 26.2965 15.7041C26.3805 15.6636 26.4654 15.6208 26.5518 15.5768C26.7733 15.4645 27.0026 15.3482 27.2508 15.2595C27.4936 15.1731 27.6974 15.1287 27.8993 15.1287L27.9004 15.1291ZM1.21541 15.5764L1.162 15.6192C1.17575 15.6122 1.18949 15.6051 1.20324 15.5984L1.21541 15.5764ZM4.66837 15.3039L4.72021 15.309L4.73985 15.3227C4.7693 15.298 4.80269 15.2736 4.84118 15.2512C4.82232 15.2328 4.80465 15.2139 4.78776 15.1947C4.74967 15.2343 4.70961 15.2705 4.66798 15.3039H4.66837ZM32.4472 15.1966L32.4436 15.2143C32.446 15.2112 32.448 15.2084 32.4503 15.2053C32.4503 15.2053 32.4503 15.2053 32.4503 15.2049L32.4468 15.1966H32.4472ZM3.36998 13.339L2.51027 14.873C2.66226 14.8675 2.82053 14.8683 2.9741 14.8691C3.45913 14.8718 4.00935 14.8746 4.22261 14.6499C4.32708 14.5396 4.37225 14.346 4.35654 14.0738C4.35339 14.0165 4.33415 13.8672 4.31648 13.7651C4.16566 13.6803 3.8609 13.535 3.72226 13.4757C3.58559 13.4175 3.46423 13.3712 3.37037 13.339H3.36998ZM33.028 14.5679L34.4635 14.6688C34.4387 14.5443 34.4132 14.419 34.3857 14.2969L34.3629 14.1948C34.308 13.9489 34.2459 13.6704 34.1709 13.4521C34.1375 13.3543 34.0806 13.2534 34.0181 13.1477C33.592 13.1501 33.1392 13.3311 32.9848 13.7164C32.9027 13.9206 32.8957 14.1032 32.9601 14.3672C32.9758 14.432 33.0001 14.4987 33.0288 14.5679H33.028ZM21.1402 14.3793C21.2082 14.3793 21.2761 14.3805 21.3448 14.3833C21.5039 14.3899 21.6818 14.4127 21.8534 14.4351C22.0867 14.4654 22.3495 14.4991 22.5238 14.4834C22.5553 14.3892 22.5502 14.1645 22.5474 14.051C22.5454 13.9729 22.5439 13.8986 22.5466 13.8295L22.5019 13.275C22.4056 13.2286 22.3157 13.1787 22.2316 13.132C22.1358 13.0786 22.0451 13.0283 21.9579 12.9898C21.879 12.9553 21.8224 12.9345 21.782 12.9223L21.0306 14.3805C21.0668 14.3797 21.1029 14.3797 21.1394 14.3797L21.1402 14.3793ZM15.5402 12.7369C15.5087 12.755 15.4773 12.773 15.4463 12.7907C15.0775 13.0024 14.7292 13.2023 14.6498 13.509C14.5846 13.7612 14.5952 14.1194 14.6168 14.4163L16.5114 14.4053C16.2443 13.8366 15.8304 13.0931 15.5402 12.7365V12.7369ZM16.7502 12.2189C16.8456 12.398 16.9438 12.583 17.0337 12.7734C17.0919 12.8964 17.1512 13.0425 17.2136 13.1968C17.3523 13.5385 17.562 14.0545 17.7501 14.2097C18.0235 14.4343 18.5886 14.4174 19.0014 14.4053C19.0387 14.4041 19.0756 14.4029 19.1113 14.4021C19.1314 14.4017 19.1671 14.4013 19.2131 14.4009C19.3815 14.3998 19.5123 14.397 19.6042 14.3931L20.7361 12.1564C20.5385 12.0477 20.3469 11.933 20.1592 11.821C19.9239 11.6804 19.7016 11.5473 19.4711 11.4263C18.7995 11.0741 18.6137 11.0356 17.9912 11.3835C17.681 11.5571 17.3849 11.768 17.0718 11.9915C16.9662 12.0669 16.859 12.1435 16.7502 12.2189ZM2.05862 12.8253C1.95612 13.1438 1.86657 13.4462 1.7892 13.7353C1.85322 13.6363 1.91724 13.5353 1.98164 13.4336C2.08179 13.2754 2.18351 13.1143 2.29034 12.9549L2.05862 12.8253ZM21.6661 12.0583L21.6335 12.1227C21.6626 12.1203 21.6916 12.1199 21.7203 12.1207C21.7148 12.1144 21.7093 12.1081 21.7038 12.1019L21.6661 12.0583ZM15.8155 11.9283C15.8371 11.9404 15.8579 11.9538 15.8775 11.9679L15.9117 11.9023C15.8815 11.9063 15.8504 11.9086 15.8194 11.9098C15.8182 11.9161 15.8167 11.9224 15.8155 11.9287V11.9283ZM2.55269 11.4923L3.1308 11.702C3.40807 11.4468 3.55064 11.2127 3.56556 10.9896C3.58048 10.7677 3.50508 10.5281 3.41671 10.2752C3.31421 10.3094 3.19599 10.3561 3.1143 10.3954C3.10331 10.4005 3.09035 10.4068 3.07542 10.4135C3.06403 10.4186 3.04675 10.4268 3.03026 10.4347C2.96428 10.5537 2.83782 10.8376 2.79265 10.939C2.77341 10.9818 2.7577 11.0179 2.74591 11.043C2.67915 11.1891 2.61474 11.3411 2.55269 11.4919V11.4923ZM19.7649 10.2242C19.9671 10.4221 20.2467 10.5611 20.5558 10.7143C20.8276 10.8494 21.1057 10.9873 21.3558 11.1789C21.4568 11.045 21.5353 10.9107 21.5848 10.7858C21.7517 10.3648 21.6469 9.93393 21.2533 9.44497L19.7652 10.2242H19.7649ZM15.9635 9.48935C15.8689 9.71164 15.786 9.93472 15.7715 10.1385C15.7487 10.4551 15.8383 10.7646 15.9635 11.076C16.3139 10.9397 16.9957 10.5552 17.3817 10.2909L15.9635 9.48935ZM18.4099 10.1562C18.4217 10.2316 18.4111 10.309 18.3781 10.3875C18.5599 10.3502 18.7284 10.3467 18.8949 10.3711C18.8729 10.3318 18.8521 10.2909 18.8321 10.2489L18.8117 10.2053C18.6852 10.2045 18.5521 10.19 18.4095 10.1566L18.4099 10.1562ZM16.7981 8.26362C17.311 8.73883 17.8235 9.09151 18.2925 9.29023C18.8313 9.51881 19.0422 9.43201 19.6274 9.12253C20.4309 8.69798 20.5888 8.33077 20.277 7.61128C20.112 7.23071 19.8658 6.85329 19.6278 6.48804C19.5296 6.33723 19.4283 6.18249 19.3324 6.02618C19.2394 5.99084 19.1172 5.97984 18.9802 5.96727C18.9279 5.96256 18.8745 5.95785 18.8195 5.95117L18.6122 5.95588C18.135 5.97473 18.0914 5.99673 17.8436 6.33959C17.5718 6.71623 17.3597 7.14549 17.1355 7.60028C17.0275 7.81943 16.9167 8.04368 16.7977 8.26362H16.7981ZM3.64646 9.20737L3.66846 9.27884L3.72972 9.23289C3.70184 9.22543 3.67396 9.21679 3.64646 9.20697V9.20737ZM16.026 8.62219L16.0519 8.63672C16.0484 8.63318 16.0444 8.62965 16.0409 8.62611L16.026 8.62219ZM21.1795 8.51026C21.1728 8.54403 21.1646 8.57702 21.1555 8.60923L21.3425 8.51143L21.1795 8.51026ZM5.04854 7.356C4.75791 7.70985 4.4885 8.07706 4.23596 8.43917C4.42958 8.36102 4.61614 8.19292 4.72924 8.048C4.8942 7.83632 5.00377 7.59478 5.04815 7.356H5.04854ZM14.9016 6.06389C14.8411 6.44995 14.8026 6.86861 14.9212 7.17337C15.0375 7.47146 15.374 7.62581 15.799 7.74991L16.5758 6.02265L14.9016 6.06389ZM20.901 6.04464L21.6626 7.71496C21.8939 7.69061 22.1009 7.62895 22.2517 7.53744C22.6448 7.29905 22.6456 6.73586 22.5608 6.09295L20.901 6.04464ZM5.51158 6.17739C5.54378 6.19467 5.57363 6.21627 5.60152 6.2418L5.60348 6.08117C5.57285 6.11337 5.54221 6.14518 5.51158 6.17778V6.17739ZM7.73134 4.75175C7.62412 4.83383 7.52083 4.91316 7.41911 4.99603C7.25455 5.12995 7.07468 5.27723 6.89795 5.43197C7.16462 5.37895 7.3983 5.28116 7.55618 5.09029C7.62923 5.00192 7.68971 4.88331 7.73134 4.75175ZM17.7898 5.23874L17.7387 5.35224C17.9626 5.22421 18.2167 5.18572 18.5847 5.17119H18.5914L18.8608 5.16491L18.8906 5.16883C18.9409 5.17551 18.9947 5.18022 19.0516 5.18533C19.0999 5.18965 19.151 5.19436 19.2036 5.20065L19.2119 5.09421C19.2244 4.93594 19.0791 4.67359 18.9511 4.44187C18.7987 4.16617 18.642 3.88301 18.6086 3.58374L18.5972 3.60338C18.6075 3.98001 18.5427 4.35194 18.3482 4.6783C18.2139 4.90413 18.0274 5.09107 17.7902 5.23913L17.7898 5.23874ZM23.6172 3.46238C23.6184 3.59474 23.6149 3.73023 23.6117 3.86259C23.6011 4.28282 23.5878 4.80555 23.7645 4.95636C23.8497 5.02902 24.0347 5.04355 24.2853 4.99682C24.3465 4.98543 24.508 4.95518 24.5559 4.9218C24.7106 4.74939 24.7789 4.58915 24.7597 4.44502C24.7354 4.26357 24.5716 4.06838 24.2994 3.89479L23.6172 3.46278V3.46238ZM12.7525 4.23137C12.7941 4.40339 12.8629 4.64453 12.8868 4.70658C12.9277 4.81419 12.9662 4.86093 12.9815 4.86643C13.0306 4.88331 13.1625 4.868 13.2792 4.85425C13.3687 4.84365 13.47 4.83186 13.5804 4.82637C13.615 4.8248 13.6601 4.82519 13.7442 4.82637C13.743 4.76392 13.7422 4.7003 13.7434 4.63589C13.7473 4.39946 13.7662 4.16421 13.7842 3.93642C13.7988 3.75419 13.8125 3.58099 13.8192 3.40897C13.8094 3.41604 13.8007 3.42233 13.7937 3.42743C13.7717 3.44314 13.752 3.45728 13.7355 3.46906C13.4916 3.64147 13.2493 3.83549 13.0145 4.02282C12.9288 4.09155 12.8413 4.16146 12.7525 4.23097V4.23137ZM15.0155 4.8244C15.5747 4.87271 16.0884 4.8947 16.5778 4.82715C17.1327 4.75057 17.5011 4.5652 17.6731 4.27614C17.906 3.88497 17.8483 3.23813 17.4964 2.29791C17.3915 2.0175 17.2659 1.74729 17.1327 1.46413C16.9815 1.55053 16.8287 1.63301 16.6783 1.7143C16.33 1.90243 16.0008 2.08034 15.7102 2.29045C15.1714 2.67966 15.1337 3.14466 15.0767 3.84845C15.0653 3.9863 15.054 4.12925 15.0375 4.27771L15.0155 4.8244ZM19.9487 4.74153L22.4335 4.81341L22.234 2.61407C22.0961 2.50292 21.9638 2.38824 21.8346 2.27631C21.6704 2.13375 21.5153 1.99904 21.3519 1.87376C21.0114 1.61259 20.7031 1.39579 20.3866 1.38715C20.3618 1.41936 20.3265 1.4873 20.3021 1.53443C20.2876 1.56231 20.2731 1.5902 20.2585 1.6173C20.0386 2.01946 19.8191 2.50017 19.6427 2.88663C19.627 2.92119 19.6038 2.9691 19.5771 3.02409C19.5269 3.12816 19.4106 3.36931 19.3886 3.44785C19.3737 3.58296 19.5202 3.84766 19.6384 4.06131C19.755 4.27182 19.8815 4.50079 19.949 4.74153H19.9487ZM26.271 3.83431C26.4642 4.02557 26.6782 4.21762 26.9048 4.35587C27.2658 4.57619 27.459 4.58483 27.7885 4.35979C27.4822 4.13436 26.9249 3.73927 26.4265 3.46396L26.271 3.83431ZM9.51594 4.22744C9.53047 4.23647 9.54579 4.2459 9.56307 4.25611C10.149 4.60643 10.3953 4.46622 11.0048 3.94074C11.0457 3.90579 11.0881 3.86416 11.1332 3.82056C11.1446 3.80957 11.156 3.79857 11.1674 3.78757L10.6894 2.91687L10.085 3.22517C10.0489 3.2829 10.0128 3.33906 9.97702 3.39444C9.91968 3.4832 9.86587 3.56685 9.81639 3.65129C9.64476 3.94663 9.55875 4.12415 9.51594 4.22823V4.22744ZM11.8747 4.21134C11.901 4.21723 11.9262 4.22469 11.9497 4.23255C11.9458 4.20898 11.9423 4.18738 11.9399 4.16735L11.8849 4.20427C11.8814 4.20662 11.8783 4.20898 11.8747 4.21134ZM24.1089 2.36704C24.2542 2.48407 24.4141 2.59286 24.572 2.70008C24.8045 2.85835 25.0539 3.00956 25.295 3.15605C25.3084 3.1643 25.3217 3.17254 25.3355 3.1804L25.4246 2.94476C24.9651 2.72443 24.5284 2.53238 24.1089 2.36664V2.36704ZM11.7416 2.43812C11.8205 2.67966 11.9281 2.91726 12.0523 3.16233C12.1885 3.07632 12.3256 2.99345 12.4603 2.91216C12.7737 2.72286 13.0694 2.54416 13.3396 2.33876C13.5879 2.15024 13.7469 1.97233 13.849 1.74887C13.1668 1.92246 12.4709 2.15024 11.742 2.43812H11.7416ZM14.3077 2.49153C14.3455 2.51117 14.3812 2.53631 14.4138 2.56576C14.4421 2.59129 14.4664 2.61917 14.4876 2.64824C14.5469 2.48289 14.6263 2.32148 14.7354 2.16635L14.391 2.37843C14.3647 2.41691 14.3368 2.45462 14.3077 2.49153ZM18.2265 1.23752L18.5741 2.09094L19.0607 1.26226L18.7496 1.23713H18.2265V1.23752Z" fill="#97051D"/>
</g>
<defs>
<clipPath id="clip0_1028_4166">
<rect width="36" height="36" fill="white"/>
</clipPath>
</defs>
</svg>
