<svg width="31" height="22" viewBox="0 0 31 22" fill="none" xmlns="http://www.w3.org/2000/svg">
<path d="M0.0565886 12.9839C0.0838514 12.7066 0.226223 12.1737 0.329216 11.9046C0.757847 10.7808 1.7749 9.95854 2.89646 9.58347C2.92751 7.14963 2.81694 4.70302 2.95931 2.2767C3.17287 1.24093 3.92032 0.400582 4.94571 0.110446C11.9492 -0.0466487 19.0163 -0.0233476 26.0221 0.0984195C27.3988 0.488525 28.0418 1.55511 28.1251 2.92838L28.1311 9.61429C29.7722 10.0705 30.8461 11.5182 30.9619 13.1914C31.0839 14.9585 30.8703 16.8677 30.9544 18.6499C30.9157 19.0475 30.4826 19.4654 30.0842 19.4654H28.1228V21.0559C28.1228 21.0762 28.0342 21.3829 28.0153 21.4295C27.7873 21.9872 27.0649 22.1864 26.5923 21.7978C26.4946 21.7173 26.2515 21.337 26.2515 21.2363V19.4662H4.76395V21.2363C4.76395 21.337 4.52086 21.7173 4.42317 21.7978C3.95062 22.1871 3.22815 21.9879 3.00021 21.4295C2.98127 21.3829 2.89267 21.0762 2.89267 21.0559V19.4654H0.931268C0.531415 19.4654 0.191388 19.0881 0.0558314 18.7453C0.189116 16.8978 -0.122134 14.8022 0.0558314 12.9839H0.0565886ZM26.2508 9.44291V2.51121C26.2508 2.27745 25.6154 1.73701 25.3178 1.81894L5.4849 1.84826C5.26226 1.84074 4.76395 2.34435 4.76395 2.51196V9.44367H6.93664V7.07297C6.93664 6.92715 7.24789 6.26194 7.3471 6.10108C7.93779 5.14649 8.89274 4.76315 9.98174 4.69926C11.0609 4.63612 13.6455 4.582 14.5831 4.93077C14.9405 5.06381 15.1957 5.31486 15.5274 5.4697C16.1628 4.95783 16.8323 4.74962 17.6471 4.69926C18.6914 4.63462 21.3556 4.58351 22.2545 4.924C22.9656 5.19384 24.0781 6.29275 24.0781 7.07221V9.44291H26.2508ZM14.602 9.44291V7.49239C14.602 7.14137 14.1582 6.6761 13.819 6.59041C12.53 6.65956 10.8814 6.39799 9.62808 6.56711C9.30699 6.6107 8.74734 7.05267 8.74734 7.37212V9.44291H14.602ZM22.2674 9.44291V7.37212C22.2674 7.05267 21.7077 6.6107 21.3866 6.56711C20.1326 6.39799 18.4847 6.65956 17.1958 6.59041C16.8565 6.6761 16.4127 7.14137 16.4127 7.49239V9.44291H22.2674ZM29.1474 17.6051V13.3139C29.1474 12.4322 28.3947 11.5092 27.5208 11.3303C19.5298 11.186 11.485 11.186 3.49321 11.3303C2.6208 11.5092 1.86653 12.4307 1.86653 13.3139V17.6051H29.1474Z" fill="white"/>
</svg>
