<?xml version="1.0" encoding="utf-8"?>
<!-- Svg Vector Icons : http://www.onlinewebfonts.com/icon -->
<!DOCTYPE svg PUBLIC "-//W3C//DTD SVG 1.1//EN" "http://www.w3.org/Graphics/SVG/1.1/DTD/svg11.dtd">
<svg version="1.1" xmlns="http://www.w3.org/2000/svg" xmlns:xlink="http://www.w3.org/1999/xlink" x="0px" y="0px" viewBox="0 0 256 256" enable-background="new 0 0 256 256" xml:space="preserve">
<metadata> Svg Vector Icons : http://www.onlinewebfonts.com/icon </metadata>
<g><g><path fill="#000000" d="M129.9,10.1C62.3,9.2,10.8,63.6,10,126.6c-0.8,65,52,119.5,118,119.3c65.2,0,117.8-52.1,118-117.8C246.2,62.4,193.4,10.9,129.9,10.1z M125.5,241.8c-59.9-1.1-111.6-50.3-111.4-114c0.1-63.1,51.2-112.7,112-113.7c63.2-1,115.7,50,115.8,113.5C242.1,191.5,189.5,243.1,125.5,241.8z"/><path fill="#000000" d="M128,18.8c-60.7,0-110,49.6-109.2,110.7c0.8,59.5,49.4,107.8,109.3,107.6c60.4-0.1,108.8-48.5,109.1-109C237.6,68,188.4,18.8,128,18.8z M112.2,24.8L112.2,24.8h8.5l7.9,20.1l7.5-20.1h8.7c0,0,0,19,0,28.6c-1.9,0-3.6,0-5.7,0c0-5.1,0-15.9,0-19.2l-7.4,19.1h-6.4l-7.4-19.7v19.7h-5.7L112.2,24.8L112.2,24.8z M39.4,72.1c5.3-6.3,10.5-12.5,15.9-18.5c1.9-2.1,4.6-3.6,7.5-2.2c3.1,1.5,5.3,3.9,5.1,7.7c0,0.3,0,0.6,0,0.4c2.4,0.2,4.9-0.1,6.8,0.7c5,2,5.9,7.5,2.2,12.2c-3.7,4.6-7.6,9.1-11.4,13.6c-1.3,1.5-2.6,3-4,4.7C54.2,84.4,46.9,78.3,39.4,72.1z M128.1,197.8C90.3,198,58.3,166.6,58.3,129c0-39.5,30.7-70.6,69.8-70.7c37.8-0.1,69.2,31,69.8,68.2C198.5,164.4,168.3,197.5,128.1,197.8z M193,91.2l-5.2-6.7L198,69.7l-16.7,6.8l-5.7-6.5c0,0,13.4-17.1,18.2-23.2c0.2,0.2,5,5.2,5,5.2l-11.2,14.4l16.7-7.1l4.8,6.1l-10.7,15.1c0,0,11.3-5.3,16.6-7.8c1.5,1.9,4.5,5.6,4.5,5.6L193,91.2z"/><path fill="#000000" d="M128,127.9c0-21.8,0-43.4,0-65c-35.8-0.7-66.1,30.1-65,65.2c21.6,0,43.2,0,65,0c0,21.7,0,43.2,0,64.9c37.2,0.7,66.6-31.8,65.1-65.1C171.5,127.9,149.9,127.9,128,127.9z"/><path fill="#000000" d="M71.5,71.3c1.3-1.6,0.9-3.9-0.7-5.1c-1.6-1.2-3.6-1.1-4.9,0.5C63,70,60.1,73.5,57.1,77c1.9,1.6,3.6,3.1,5.6,4.7C65.8,78.2,68.7,74.8,71.5,71.3z"/><path fill="#000000" d="M61.3,59.5c-1.7-1.4-3.7-1.3-5.1,0.4c-2.6,3.1-5.2,6.2-8.1,9.6c1.8,1.5,3.5,3,5.3,4.5c2.8-3.4,5.6-6.6,8.3-9.8C63.1,62.6,62.8,60.8,61.3,59.5z"/></g></g>
</svg>