<svg width="27" height="24" viewBox="0 0 27 24" fill="none" xmlns="http://www.w3.org/2000/svg">
<path d="M4.75 20.7084V22.1667C4.75 22.5799 4.61024 22.9262 4.33073 23.2058C4.05122 23.4853 3.70486 23.625 3.29167 23.625H1.83333C1.42014 23.625 1.07378 23.4853 0.794271 23.2058C0.514757 22.9262 0.375 22.5799 0.375 22.1667V10.5L3.4375 1.75002C3.58333 1.31252 3.84462 0.96009 4.22135 0.692729C4.59809 0.425368 5.01736 0.291687 5.47917 0.291687H21.5208C21.9826 0.291687 22.4019 0.425368 22.7786 0.692729C23.1554 0.96009 23.4167 1.31252 23.5625 1.75002L26.625 10.5V22.1667C26.625 22.5799 26.4852 22.9262 26.2057 23.2058C25.9262 23.4853 25.5799 23.625 25.1667 23.625H23.7083C23.2951 23.625 22.9488 23.4853 22.6693 23.2058C22.3898 22.9262 22.25 22.5799 22.25 22.1667V20.7084H4.75ZM4.45833 7.58335H22.5417L21.0104 3.20835H5.98958L4.45833 7.58335ZM6.9375 16.3334C7.54514 16.3334 8.06163 16.1207 8.48698 15.6953C8.91233 15.27 9.125 14.7535 9.125 14.1459C9.125 13.5382 8.91233 13.0217 8.48698 12.5964C8.06163 12.171 7.54514 11.9584 6.9375 11.9584C6.32986 11.9584 5.81337 12.171 5.38802 12.5964C4.96267 13.0217 4.75 13.5382 4.75 14.1459C4.75 14.7535 4.96267 15.27 5.38802 15.6953C5.81337 16.1207 6.32986 16.3334 6.9375 16.3334ZM20.0625 16.3334C20.6701 16.3334 21.1866 16.1207 21.612 15.6953C22.0373 15.27 22.25 14.7535 22.25 14.1459C22.25 13.5382 22.0373 13.0217 21.612 12.5964C21.1866 12.171 20.6701 11.9584 20.0625 11.9584C19.4549 11.9584 18.9384 12.171 18.513 12.5964C18.0877 13.0217 17.875 13.5382 17.875 14.1459C17.875 14.7535 18.0877 15.27 18.513 15.6953C18.9384 16.1207 19.4549 16.3334 20.0625 16.3334ZM3.29167 17.7917H23.7083V10.5H3.29167V17.7917Z" fill="#97051D"/>
</svg>
