<svg width="35" height="35" viewBox="0 0 35 35" fill="none" xmlns="http://www.w3.org/2000/svg">
<path d="M8.75 27.7084V29.1667C8.75 29.5799 8.61024 29.9262 8.33073 30.2058C8.05122 30.4853 7.70486 30.625 7.29167 30.625H5.83333C5.42014 30.625 5.07378 30.4853 4.79427 30.2058C4.51476 29.9262 4.375 29.5799 4.375 29.1667V17.5L7.4375 8.75002C7.58333 8.31252 7.84462 7.96009 8.22135 7.69273C8.59809 7.42537 9.01736 7.29169 9.47917 7.29169H25.5208C25.9826 7.29169 26.4019 7.42537 26.7786 7.69273C27.1554 7.96009 27.4167 8.31252 27.5625 8.75002L30.625 17.5V29.1667C30.625 29.5799 30.4852 29.9262 30.2057 30.2058C29.9262 30.4853 29.5799 30.625 29.1667 30.625H27.7083C27.2951 30.625 26.9488 30.4853 26.6693 30.2058C26.3898 29.9262 26.25 29.5799 26.25 29.1667V27.7084H8.75ZM8.45833 14.5834H26.5417L25.0104 10.2084H9.98958L8.45833 14.5834ZM10.9375 23.3334C11.5451 23.3334 12.0616 23.1207 12.487 22.6953C12.9123 22.27 13.125 21.7535 13.125 21.1459C13.125 20.5382 12.9123 20.0217 12.487 19.5964C12.0616 19.171 11.5451 18.9584 10.9375 18.9584C10.3299 18.9584 9.81337 19.171 9.38802 19.5964C8.96267 20.0217 8.75 20.5382 8.75 21.1459C8.75 21.7535 8.96267 22.27 9.38802 22.6953C9.81337 23.1207 10.3299 23.3334 10.9375 23.3334ZM24.0625 23.3334C24.6701 23.3334 25.1866 23.1207 25.612 22.6953C26.0373 22.27 26.25 21.7535 26.25 21.1459C26.25 20.5382 26.0373 20.0217 25.612 19.5964C25.1866 19.171 24.6701 18.9584 24.0625 18.9584C23.4549 18.9584 22.9384 19.171 22.513 19.5964C22.0877 20.0217 21.875 20.5382 21.875 21.1459C21.875 21.7535 22.0877 22.27 22.513 22.6953C22.9384 23.1207 23.4549 23.3334 24.0625 23.3334ZM7.29167 24.7917H27.7083V17.5H7.29167V24.7917Z" fill="#97051D"/>
</svg>
