<svg width="39" height="35" viewBox="0 0 39 35" fill="none" xmlns="http://www.w3.org/2000/svg">
<path d="M38.75 16.7876C38.7728 16.1053 38.5784 15.4325 38.1926 14.8578C37.8067 14.2831 37.2475 13.8335 36.5887 13.5684C36.4339 13.5151 36.2958 13.4251 36.1872 13.307C36.0786 13.189 36.0031 13.0465 35.9678 12.8931C35.0797 9.79397 34.168 6.7399 33.2563 3.61079C33.1078 2.85223 32.6781 2.17009 32.046 1.68918C31.4139 1.20828 30.6215 0.96077 29.8139 0.991942H9.67823C8.86969 0.963191 8.07738 1.21365 7.44657 1.69741C6.81575 2.18116 6.3887 2.8658 6.24369 3.6258L5.82715 5.03652L3.54007 12.8781C3.50601 13.0378 3.42959 13.1865 3.31814 13.31C3.20668 13.4335 3.06391 13.5277 2.90347 13.5834C2.43364 13.7628 2.01265 14.0418 1.67227 14.3993C1.3319 14.7568 1.08103 15.1834 0.938624 15.647L0.805015 16.0747L0.75 16.2473V28.2535C0.868671 28.7684 1.16817 29.2291 1.59881 29.5591C1.89068 29.724 2.19548 29.867 2.5105 29.9869C2.67554 30.0469 2.83273 30.1144 3.00564 30.1895L3.16282 30.2645V31.6152C3.14614 32.3804 3.41293 33.1267 3.91617 33.7225C4.41941 34.3183 5.12678 34.7253 5.9136 34.8719C7.02975 35.0031 8.15735 35.0208 9.2774 34.9244C10.0291 34.8445 10.7289 34.5195 11.2587 34.0041C11.7885 33.4887 12.1158 32.8145 12.1854 32.0955C12.236 31.697 12.2623 31.2962 12.264 30.8948C12.264 30.7072 12.264 30.5121 12.264 30.317V30.0544H27.1967V30.7523C27.1967 31.0449 27.1967 31.3301 27.1967 31.6152C27.176 32.3857 27.4441 33.1379 27.9527 33.7363C28.4614 34.3348 29.1771 34.7402 29.9711 34.8794C31.0846 35.0106 32.2096 35.0282 33.327 34.9319C34.0819 34.8542 34.7856 34.5304 35.3196 34.0151C35.8536 33.4998 36.1852 32.8245 36.2586 32.103C36.3065 31.7044 36.3302 31.3035 36.3293 30.9023V30.1069H36.5494C38.1213 29.8218 38.7028 29.1014 38.7028 27.4581V24.4565C38.7395 21.9002 38.7552 19.3439 38.75 16.7876ZM8.03563 4.15857C8.09749 3.78879 8.3019 3.45445 8.60873 3.2212C8.91556 2.98795 9.30264 2.87264 9.69395 2.89792H29.8218C30.203 2.86262 30.584 2.96702 30.8875 3.18997C31.1911 3.41291 31.3945 3.73772 31.4565 4.09854L33.4607 10.9346L33.9558 12.6454C33.9796 12.7166 33.998 12.7893 34.0108 12.8631L34.113 13.3058H5.34772L8.03563 4.15857ZM10.3934 31.7803C10.3627 32.1216 10.2016 32.4403 9.9407 32.6755C9.67982 32.9107 9.33744 33.0462 8.97875 33.0559H6.48733C6.10627 33.037 5.74686 32.881 5.48146 32.6192C5.21605 32.3575 5.06436 32.0095 5.05693 31.6452C5.05693 31.3526 5.05693 31.0599 5.05693 30.7523V30.0469H10.4092V30.7973C10.4145 31.1254 10.4014 31.4535 10.3699 31.7803H10.3934ZM34.4902 31.7052C34.4733 32.0557 34.321 32.3878 34.0626 32.6373C33.8042 32.8867 33.4581 33.0359 33.0913 33.0559H30.5606C30.1954 33.0364 29.8505 32.8896 29.5912 32.6434C29.3319 32.3972 29.1762 32.0687 29.1537 31.7203C29.1537 31.4051 29.1537 31.0974 29.1537 30.7673C29.1537 30.6247 29.1537 30.4821 29.1537 30.332V30.0544H34.4981V30.332C34.4981 30.4746 34.4981 30.6172 34.4981 30.7598C34.4902 31.0749 34.4902 31.3976 34.4667 31.7052H34.4902ZM36.9188 28.1034H2.61267V16.9677C2.61267 15.8196 3.1864 15.2343 4.31815 15.2343H35.1897C36.2979 15.2343 36.8952 15.8346 36.8952 16.9677L36.9188 28.1034Z" fill="#97051D"/>
<path d="M8.75083 18.4609C7.85452 18.4609 6.99493 18.8009 6.36114 19.406C5.72736 20.0111 5.3713 20.8318 5.3713 21.6876C5.3713 22.5434 5.72736 23.3641 6.36114 23.9692C6.99493 24.5743 7.85452 24.9143 8.75083 24.9143C9.63726 24.9041 10.484 24.5619 11.1086 23.9613C11.4205 23.6665 11.6684 23.316 11.8384 22.9298C12.0083 22.5435 12.0968 22.129 12.0989 21.7101C12.1031 20.8562 11.7535 20.0354 11.1262 19.4267C10.499 18.818 9.64512 18.4708 8.75083 18.4609ZM10.252 21.6801C10.2521 22.0551 10.0982 22.4151 9.82346 22.6831C9.54871 22.951 9.17492 23.1055 8.78227 23.1133C8.39097 23.1104 8.01617 22.9624 7.73697 22.7006C7.59375 22.5684 7.48018 22.4097 7.40317 22.2343C7.32616 22.0589 7.28731 21.8703 7.28899 21.6801C7.28885 21.3064 7.4416 20.9474 7.71468 20.6797C7.98775 20.4119 8.35955 20.2566 8.75083 20.2469C9.14625 20.2468 9.5257 20.3958 9.80677 20.6613C10.0878 20.9269 10.2478 21.2876 10.252 21.6651V21.6801Z" fill="#97051D"/>
<path d="M30.757 18.4609C29.8607 18.4609 29.0011 18.8009 28.3673 19.406C27.7336 20.0111 27.3775 20.8318 27.3775 21.6876C27.3775 22.5434 27.7336 23.3641 28.3673 23.9692C29.0011 24.5743 29.8607 24.9143 30.757 24.9143C31.2008 24.9133 31.6401 24.8288 32.0497 24.6658C32.4594 24.5027 32.8313 24.2642 33.1444 23.9639C33.4575 23.6636 33.7056 23.3073 33.8745 22.9155C34.0433 22.5236 34.1297 22.1038 34.1287 21.6801C34.1266 20.8269 33.7707 20.0093 33.1389 19.406C32.507 18.8027 31.6506 18.4629 30.757 18.4609ZM30.757 23.1133H30.6863C30.3013 23.0959 29.9382 22.937 29.6731 22.6699C29.408 22.4028 29.2613 22.0481 29.2638 21.6801V21.6276C29.2716 21.4387 29.3188 21.2532 29.4024 21.0818C29.4861 20.9105 29.6046 20.7568 29.751 20.6295C29.8971 20.4979 30.0706 20.3972 30.2602 20.3338C30.4498 20.2705 30.6512 20.246 30.8513 20.2619C31.2474 20.2738 31.6222 20.4355 31.8934 20.7113C32.1646 20.9871 32.31 21.3545 32.2975 21.7326C32.285 22.1107 32.1156 22.4686 31.8268 22.7276C31.5379 22.9865 31.1531 23.1253 30.757 23.1133Z" fill="#97051D"/>
</svg>
