<svg width="24" height="31" viewBox="0 0 24 31" fill="none" xmlns="http://www.w3.org/2000/svg">
<path d="M15.3901 23.6633C15.3514 22.466 15.756 21.2998 16.5184 20.411C17.2807 19.5222 18.3412 18.9806 19.4755 18.9004C20.5365 18.8472 21.5787 19.2085 22.4024 19.915C23.2261 20.6216 23.7733 21.6236 23.9391 22.7291C24.1352 23.9911 23.8645 25.2843 23.1829 26.3424C22.2528 27.8034 21.2662 29.2185 20.2926 30.6474C20.2299 30.7544 20.1423 30.8427 20.0381 30.904C19.9339 30.9652 19.8165 30.9974 19.6972 30.9974C19.5779 30.9974 19.4605 30.9652 19.3563 30.904C19.2521 30.8427 19.1644 30.7544 19.1018 30.6474C18.1195 29.2139 17.1373 27.7805 16.1854 26.3195C15.6836 25.533 15.4075 24.6109 15.3901 23.6633ZM21.1271 23.4252C21.1245 23.1276 21.0384 22.8375 20.8795 22.5914C20.7206 22.3453 20.4962 22.1544 20.2344 22.0426C19.9727 21.9308 19.6854 21.9031 19.4087 21.9632C19.1321 22.0232 18.8785 22.1683 18.68 22.38C18.4815 22.5917 18.347 22.8606 18.2934 23.1528C18.2397 23.445 18.2694 23.7474 18.3787 24.0218C18.4879 24.2963 18.6719 24.5304 18.9073 24.6949C19.1427 24.8593 19.4191 24.9465 19.7015 24.9456C20.0816 24.942 20.4448 24.7801 20.7119 24.4952C20.979 24.2103 21.1283 23.8256 21.1271 23.4252Z" fill="white"/>
<path d="M-0.000236361 4.77663C-0.0400792 3.57928 0.363411 2.41252 1.12497 1.52288C1.88653 0.633245 2.9465 0.0904379 4.08089 0.00916207C5.14295 -0.0440388 6.18627 0.317739 7.01079 1.02513C7.83531 1.73251 8.383 2.73571 8.54884 3.84237C8.74445 5.10441 8.47383 6.39747 7.79259 7.45576C6.86249 8.9121 5.87589 10.3318 4.90233 11.7561C4.8391 11.8631 4.75105 11.9513 4.64649 12.0124C4.54194 12.0736 4.42432 12.1057 4.30472 12.1057C4.18513 12.1057 4.06751 12.0736 3.96296 12.0124C3.8584 11.9513 3.77035 11.8631 3.70712 11.7561C2.72921 10.3226 1.74261 8.88462 0.795128 7.42828C0.294127 6.64308 0.0180299 5.7226 -0.000236361 4.77663ZM5.72812 4.53849C5.72555 4.2418 5.63964 3.95255 5.48125 3.70725C5.32286 3.46194 5.09907 3.27155 4.83811 3.1601C4.57715 3.04864 4.29072 3.02112 4.01493 3.08099C3.73915 3.14087 3.48636 3.28546 3.28847 3.49653C3.09058 3.70761 2.95644 3.9757 2.90298 4.26701C2.84951 4.55831 2.87911 4.85978 2.98805 5.13338C3.09698 5.40697 3.28038 5.64045 3.51509 5.80436C3.7498 5.96827 4.02532 6.05526 4.3069 6.05437C4.68578 6.05074 5.0479 5.88929 5.31419 5.60526C5.58048 5.32124 5.72929 4.93773 5.72812 4.53849Z" fill="white"/>
<path d="M17.3676 6.75964C16.721 6.63619 16.0644 6.58096 15.4074 6.59477H14.7599C14.6237 6.58327 14.4867 6.60132 14.3573 6.64779C14.228 6.69426 14.1091 6.76818 14.008 6.86497C13.9204 6.95891 13.8521 7.07078 13.8072 7.19368C13.7624 7.31657 13.7419 7.44786 13.7472 7.57941C13.7497 7.71563 13.7787 7.84987 13.8325 7.97377C13.8863 8.09767 13.9637 8.20859 14.0599 8.29965C14.1561 8.3907 14.269 8.45994 14.3917 8.50306C14.5143 8.54618 14.6441 8.56226 14.7729 8.55031H15.3553C15.6421 8.55031 15.929 8.55031 16.2245 8.55031C16.6731 8.56252 17.1149 8.66895 17.524 8.86335C17.9331 9.05774 18.3012 9.33621 18.6068 9.68243C18.9125 10.0286 19.1495 10.4356 19.304 10.8796C19.4584 11.3236 19.5273 11.7955 19.5065 12.2679C19.4856 12.7402 19.3756 13.2034 19.1827 13.6304C18.9898 14.0573 18.718 14.4394 18.3833 14.7543C18.0485 15.0692 17.6574 15.3105 17.233 15.4641C16.8086 15.6177 16.3594 15.6805 15.9116 15.6488H12.5824C10.4093 15.6488 8.12313 15.6488 5.89351 15.6488C4.63346 15.6783 3.42682 16.1908 2.49957 17.0903C1.57232 17.9898 0.988058 19.2146 0.8562 20.5354C0.591079 23.4069 2.37304 26.031 4.91994 26.489C5.67174 26.6127 6.43225 26.6678 7.19303 26.6539H9.04888C9.22476 26.6515 9.39526 26.5897 9.53531 26.4776C9.67536 26.3655 9.77755 26.2089 9.82686 26.031C9.87876 25.8866 9.89639 25.731 9.87821 25.5777C9.86003 25.4245 9.8066 25.2782 9.72255 25.1517C9.63391 25.0207 9.5164 24.9143 9.38013 24.8418C9.24387 24.7692 9.0929 24.7325 8.94023 24.735C8.4491 24.735 7.96232 24.735 7.47554 24.735H6.17167C5.71958 24.7567 5.26798 24.6823 4.84374 24.5163C4.4195 24.3503 4.03132 24.096 3.7023 23.7686C3.37328 23.4412 3.11016 23.0473 2.9286 22.6105C2.74705 22.1737 2.65079 21.7029 2.64553 21.2261C2.64028 20.7492 2.72616 20.2762 2.89804 19.835C3.06992 19.3939 3.32429 18.9937 3.64601 18.6584C3.96773 18.323 4.35022 18.0593 4.77068 17.8829C5.19115 17.7066 5.64099 17.6212 6.09343 17.6319C7.25823 17.6319 8.42302 17.6319 9.57043 17.6319H15.3857C15.8675 17.6447 16.3496 17.6233 16.8287 17.5677C18.0156 17.4055 19.1125 16.8148 19.9326 15.8964C20.7528 14.9779 21.2455 13.7883 21.327 12.5301C21.4661 9.70439 19.8232 7.3321 17.3676 6.75964Z" fill="white"/>
<path d="M10.2876 8.52741C10.5483 8.52741 10.8178 8.52741 11.0829 8.52741C11.3481 8.52741 11.6175 8.52741 11.8826 8.52741C12.0019 8.52421 12.1192 8.49519 12.2273 8.44215C12.3355 8.38911 12.4321 8.31319 12.5112 8.21911C12.5903 8.12504 12.6501 8.01481 12.6871 7.89531C12.724 7.7758 12.7372 7.64956 12.7258 7.52445C12.7258 7.28153 12.6342 7.04856 12.4712 6.87678C12.3082 6.70501 12.0871 6.60851 11.8566 6.60851C11.674 6.60851 11.4915 6.60851 11.3089 6.60851H10.8526C10.67 6.60851 10.4875 6.60851 10.3049 6.60851C10.076 6.63197 9.86357 6.74439 9.709 6.92387C9.55443 7.10335 9.4688 7.33704 9.4688 7.57941C9.4688 7.82178 9.55443 8.05546 9.709 8.23495C9.86357 8.41443 10.076 8.52685 10.3049 8.55031L10.2876 8.52741Z" fill="white"/>
<path d="M13.2691 24.7258C12.7736 24.7258 12.2738 24.7258 11.7783 24.7258C11.6575 24.727 11.5381 24.7533 11.427 24.8033C11.3159 24.8533 11.2153 24.9258 11.1309 25.0169C11.0464 25.108 10.9799 25.2157 10.9352 25.334C10.8904 25.4522 10.8682 25.5786 10.87 25.7059C10.8754 25.9608 10.9737 26.2037 11.1444 26.3844C11.3151 26.5651 11.5451 26.6698 11.787 26.6768H12.7389C12.9214 26.6768 13.1039 26.6768 13.2865 26.6768C13.532 26.6768 13.7675 26.574 13.9411 26.3911C14.1147 26.2081 14.2122 25.96 14.2122 25.7013C14.2122 25.4426 14.1147 25.1945 13.9411 25.0115C13.7675 24.8286 13.532 24.7258 13.2865 24.7258H13.2691Z" fill="white"/>
</svg>
