<svg width="18" height="26" viewBox="0 0 18 26" fill="none" xmlns="http://www.w3.org/2000/svg">
<path d="M14.0416 25.0655C13.1701 25.0655 12.4363 24.4856 12.1849 23.5756C11.9725 22.8063 11.9512 21.8147 11.9299 20.856C11.9178 20.2892 11.9057 19.7544 11.856 19.3173C11.8375 19.1555 11.8034 18.9865 11.7665 18.8262L9.16685 16.5612L9.15051 16.5444C8.49136 15.8844 8.23352 15.1333 8.17528 14.3595C8.16036 14.3909 8.14545 14.4207 8.13053 14.4492C7.86488 14.9475 7.45149 15.1872 7.09137 15.3249L5.50387 23.3119L4.91788 23.274C4.55279 23.2507 4.32763 23.0613 4.19267 22.9491C4.16497 22.9265 4.12803 22.8944 4.11454 22.8879C3.81693 22.7924 3.57117 22.9345 3.45113 23.0285C3.41135 23.0591 3.35169 23.1611 3.3041 23.2419C3.17553 23.4605 2.9596 23.827 2.51283 23.9202C2.06393 24.0142 1.66403 23.7665 1.40193 23.5727C0.558107 22.9476 0.657548 21.8861 0.690222 21.5371C0.797476 20.3926 1.35861 17.9061 1.66971 16.8533C1.97514 15.8188 2.61724 15.4924 3.10237 15.4014C3.63793 15.3008 4.18841 15.4327 4.72113 15.5609C4.84685 15.5915 4.97044 15.6207 5.08977 15.6469C5.12386 15.5106 5.16364 15.3781 5.20129 15.2506C5.24177 15.115 5.2986 14.9249 5.31848 14.8076C5.30925 14.7952 5.30002 14.7828 5.29149 14.7719C5.12102 14.5497 4.80423 14.1366 4.8504 13.4919C4.89089 12.936 5.989 9.33479 6.31644 8.8168C6.82572 8.01103 9.79616 6.56414 9.82529 6.5503C10.6272 6.17802 11.807 5.97839 12.7133 6.53427C13.1367 6.79436 13.6545 7.31964 13.7219 8.34689C13.783 9.28962 13.5486 10.566 13.3221 11.8009C13.1864 12.5382 13.0585 13.2339 13.0074 13.7876C12.9975 13.8933 12.9868 13.9887 12.9769 14.0769C12.9432 14.3717 13.0053 14.6014 13.1629 14.7661C13.4115 15.0262 13.6886 15.2469 13.9571 15.4611C14.6773 16.0345 15.4934 16.6851 15.6717 18.0962C15.7832 18.9778 15.8202 19.9023 15.8557 20.7969C15.8862 21.5634 15.9182 22.356 15.9963 23.094L16.0041 23.1669L15.997 23.2398C15.8983 24.2247 15.1674 24.9722 14.2199 25.0567C14.1595 25.0618 14.1005 25.0648 14.0416 25.0648V25.0655ZM10.0774 15.5391L12.9669 18.0562L13.0209 18.2675C13.0877 18.5283 13.1601 18.8372 13.197 19.1563C13.2546 19.6582 13.2667 20.225 13.2794 20.8254C13.2986 21.6974 13.3178 22.5994 13.4833 23.1982C13.614 23.6703 13.9599 23.6915 14.1027 23.6783C14.3307 23.6579 14.5864 23.51 14.6467 23.1603C14.5693 22.4012 14.5381 21.6151 14.5075 20.8538C14.4727 19.989 14.4372 19.0951 14.3335 18.2747C14.227 17.4282 13.7901 17.0807 13.1296 16.5546C12.8398 16.3237 12.5116 16.0622 12.1991 15.735C11.5584 15.064 11.5591 14.6007 11.6365 13.9166C11.6458 13.8372 11.6557 13.7512 11.6642 13.6558C11.7218 13.0394 11.8553 12.3138 11.9959 11.5445C12.1977 10.448 12.4257 9.20584 12.3759 8.43941C12.3419 7.91923 12.1004 7.77134 12.0208 7.72253C11.6543 7.49741 10.9802 7.53383 10.3822 7.81141C9.51915 8.21211 7.73064 9.24299 7.44794 9.57302C7.21567 10.0291 6.24897 13.1349 6.19569 13.6011C6.1893 13.6922 6.22126 13.7461 6.35125 13.9151C6.38818 13.9632 6.42938 14.0171 6.46987 14.0769C6.76393 13.9851 6.87757 13.9122 6.94505 13.7855C7.06651 13.5574 7.25474 12.8231 7.40603 12.2329C7.78178 10.7686 7.97 10.1427 8.32089 9.83967C8.44377 9.73403 8.65828 9.63131 8.77547 9.57958C8.96299 9.49653 9.4602 9.27651 9.81534 9.68303L9.98297 9.87464L9.98723 10.1325C9.99931 10.8232 9.86648 11.5306 9.73863 12.214C9.44741 13.7687 9.32524 14.7712 10.0753 15.5383L10.0774 15.5391ZM3.4909 16.7492C3.14996 16.7492 3.06402 16.908 2.96102 17.2548C2.66412 18.2602 2.12998 20.6381 2.03338 21.6697C1.98224 22.2162 2.08452 22.3713 2.19178 22.4507C2.19178 22.4507 2.19249 22.4507 2.1932 22.4515C2.29051 22.289 2.42333 22.0908 2.63429 21.9269C3.17766 21.5029 3.84605 21.3689 4.47608 21.5546L5.36252 17.093C5.04005 17.0595 4.72255 16.983 4.41286 16.9087C3.98029 16.8045 3.69121 16.7499 3.4909 16.7499V16.7492Z" fill="white"/>
<path d="M7.98497 25.0669C7.81663 25.0669 7.65113 25.0444 7.49416 25.0014C6.53882 24.742 5.94927 23.8313 6.05866 22.7866L6.06576 22.7181L8.26056 15.6075L9.12428 15.3387L9.39419 15.5369C9.4709 15.593 9.5881 15.7052 9.64563 15.8924C9.80048 16.0265 9.9539 16.162 10.1031 16.2946C10.4845 16.6319 10.8453 16.951 11.2267 17.249L11.4484 17.4223L11.5584 18.2412L11.4959 18.4073C11.2211 19.1395 11.0037 19.9314 10.7736 20.7693C10.4973 21.7754 10.211 22.8157 9.81539 23.749C9.41763 24.6866 8.67537 25.0662 7.98426 25.0662L7.98497 25.0669ZM7.39543 22.9957C7.37767 23.3935 7.61846 23.604 7.83936 23.6638C7.98568 23.7031 8.34935 23.7374 8.57806 23.1975C8.93747 22.3509 9.21022 21.3565 9.47445 20.3941C9.68044 19.6437 9.89352 18.87 10.1514 18.1436C9.83102 17.8813 9.52275 17.6089 9.2223 17.3429C9.20099 17.324 9.17968 17.3051 9.15766 17.2861L7.39543 22.995V22.9957Z" fill="white"/>
<path d="M12.2233 5.95871C10.5435 5.95871 9.66413 4.6233 9.55759 3.37239C9.45105 2.12002 10.0981 0.645454 11.7701 0.36715C12.8349 0.190114 13.781 0.555843 14.367 1.37035C15.0006 2.25189 15.1035 3.51008 14.6234 4.5009C14.1816 5.41304 13.3221 5.94414 12.2659 5.95799C12.2517 5.95799 12.2375 5.95799 12.2233 5.95799V5.95871ZM11.9868 1.73317C11.1039 1.88033 10.8503 2.64312 10.9022 3.25145C10.9547 3.86925 11.3376 4.5876 12.2482 4.57376C12.9407 4.56428 13.2646 4.19346 13.4145 3.88455C13.6673 3.36365 13.6105 2.65113 13.2802 2.19142C12.9933 1.79218 12.5579 1.63773 11.9861 1.73317H11.9868Z" fill="white"/>
<path d="M16.2373 15.024C15.9361 15.024 15.5796 14.9395 15.1633 14.7158C14.6335 14.4309 14.1178 13.9887 13.6625 13.5989C13.3677 13.3469 13.0637 13.086 12.8861 12.9899L12.4834 12.7713L12.916 8.52026L17.2722 11.9728L17.3049 12.0071C17.6501 12.3684 17.8291 12.8835 17.795 13.4204C17.7623 13.9362 17.5322 14.4018 17.1635 14.6983C16.9497 14.8702 16.6443 15.0247 16.2366 15.0247L16.2373 15.024ZM13.9161 12.0304C14.1057 12.1746 14.3081 12.348 14.5276 12.536C14.9822 12.925 16.0462 13.8372 16.331 13.6077C16.3971 13.5545 16.4404 13.4503 16.4482 13.3294C16.4561 13.2033 16.4241 13.0809 16.363 13.0001L14.007 11.1328L13.9153 12.0304H13.9161Z" fill="white"/>
<path d="M3.86383 24.9096C3.54562 24.9096 3.23523 24.7719 2.98023 24.5096C2.41271 23.9275 2.53914 23.1552 2.9575 22.6926C3.38581 22.2191 4.14369 22.026 4.76377 22.5731C5.10543 22.874 5.24535 23.3119 5.14875 23.773C5.04221 24.2823 4.65794 24.7194 4.1927 24.86C4.08332 24.8928 3.97322 24.9096 3.86383 24.9096ZM3.92421 23.2652C3.80843 23.2652 3.71894 23.3505 3.68626 23.3869C3.59961 23.4831 3.52858 23.6302 3.68342 23.7891C3.80559 23.9144 3.87946 23.8918 3.91142 23.8823C4.02791 23.8473 4.14653 23.7024 4.17707 23.5596C4.20193 23.4415 4.16003 23.3862 4.11599 23.3468C4.04851 23.2871 3.98316 23.2652 3.92492 23.2652H3.92421Z" fill="white"/>
</svg>
