<svg width="19" height="26" viewBox="0 0 19 26" fill="none" xmlns="http://www.w3.org/2000/svg">
<g id="Asset 46 1" clip-path="url(#clip0_156_791)">
<g id="Layer 1">
<path id="Vector" d="M14.5517 25.9985C13.6359 25.9985 12.8649 25.3891 12.6007 24.433C12.3776 23.6245 12.3552 22.5826 12.3328 21.5752C12.3201 20.9796 12.3074 20.4177 12.2552 19.9584C12.2358 19.7884 12.1999 19.6108 12.1611 19.4424L9.42943 17.0623L9.41227 17.0447C8.71964 16.3512 8.44872 15.5619 8.38751 14.7489C8.37184 14.7818 8.35617 14.8132 8.34049 14.843C8.06135 15.3667 7.62697 15.6185 7.24857 15.7632L5.58045 24.1558L4.9647 24.116C4.58107 24.0915 4.34447 23.8925 4.20267 23.7746C4.17356 23.7509 4.13475 23.7172 4.12057 23.7103C3.80784 23.61 3.5496 23.7593 3.42346 23.858C3.38167 23.8902 3.31897 23.9974 3.26897 24.0823C3.13388 24.312 2.90698 24.6971 2.43752 24.7951C1.96582 24.8938 1.54562 24.6335 1.27021 24.4299C0.383534 23.7731 0.488024 22.6577 0.522357 22.291C0.635057 21.0883 1.22468 18.4755 1.55159 17.3693C1.87252 16.2823 2.54724 15.9393 3.057 15.8436C3.61976 15.738 4.19819 15.8765 4.75796 16.0113C4.89006 16.0434 5.01993 16.074 5.14532 16.1016C5.18115 15.9584 5.22294 15.8191 5.2625 15.6851C5.30504 15.5427 5.36475 15.3429 5.38565 15.2197C5.37595 15.2067 5.36624 15.1937 5.35729 15.1822C5.17816 14.9487 4.84528 14.5146 4.8938 13.8371C4.93634 13.253 6.09021 9.46896 6.43429 8.92466C6.96943 8.07798 10.0907 6.55762 10.1213 6.54307C10.964 6.15188 12.2037 5.94212 13.156 6.52623C13.6008 6.79953 14.1449 7.35148 14.2159 8.43089C14.28 9.4215 14.0337 10.7627 13.7956 12.0603C13.6531 12.835 13.5187 13.5661 13.465 14.1479C13.4546 14.2589 13.4434 14.3592 13.4329 14.4519C13.3976 14.7616 13.4628 15.003 13.6285 15.1761C13.8897 15.4494 14.1808 15.6813 14.4629 15.9064C15.2197 16.5089 16.0773 17.1925 16.2646 18.6753C16.3818 19.6016 16.4206 20.5731 16.4579 21.5132C16.49 22.3185 16.5236 23.1514 16.6057 23.9269L16.6139 24.0035L16.6064 24.08C16.5027 25.115 15.7347 25.9005 14.739 25.9893C14.6756 25.9946 14.6137 25.9977 14.5517 25.9977V25.9985ZM10.3863 15.9883L13.4225 18.6332L13.4792 18.8552C13.5493 19.1293 13.6255 19.4539 13.6643 19.7892C13.7247 20.3166 13.7374 20.9122 13.7509 21.543C13.771 22.4594 13.7912 23.4071 13.9651 24.0364C14.1024 24.5325 14.4659 24.5547 14.6159 24.5409C14.8555 24.5195 15.1242 24.3641 15.1876 23.9966C15.1063 23.1989 15.0734 22.3729 15.0413 21.5729C15.0048 20.6642 14.9674 19.7249 14.8585 18.8629C14.7465 17.9733 14.2875 17.6082 13.5934 17.0555C13.2889 16.8128 12.9441 16.5379 12.6157 16.1942C11.9424 15.4892 11.9432 15.0023 12.0245 14.2834C12.0342 14.2 12.0447 14.1097 12.0536 14.0094C12.1141 13.3617 12.2544 12.5993 12.4022 11.7908C12.6142 10.6387 12.8537 9.33346 12.8015 8.52811C12.7657 7.98152 12.5119 7.82612 12.4283 7.77482C12.0432 7.53827 11.3349 7.57655 10.7065 7.86822C9.79963 8.28927 7.92029 9.3725 7.62324 9.71929C7.37918 10.1985 6.36338 13.462 6.3074 13.952C6.30069 14.0476 6.33427 14.1043 6.47086 14.2819C6.50967 14.3324 6.55296 14.3891 6.5955 14.4519C6.90449 14.3554 7.02391 14.2788 7.09482 14.1456C7.22244 13.906 7.42023 13.1344 7.5792 12.5143C7.97403 10.9755 8.17182 10.3179 8.54052 9.99948C8.66964 9.88848 8.89504 9.78054 9.01819 9.72618C9.21523 9.63891 9.73768 9.40772 10.1109 9.83489L10.287 10.0362L10.2915 10.3072C10.3042 11.033 10.1646 11.7763 10.0303 12.4944C9.72425 14.128 9.59587 15.1814 10.384 15.9875L10.3863 15.9883ZM3.46526 17.2599C3.10701 17.2599 3.0167 17.4267 2.90847 17.7911C2.5965 18.8476 2.03523 21.3463 1.93373 22.4303C1.87999 23.0045 1.98746 23.1675 2.10017 23.251C2.10017 23.251 2.10091 23.251 2.10166 23.2517C2.20391 23.081 2.34348 22.8728 2.56515 22.7005C3.13611 22.255 3.83844 22.1141 4.50046 22.3093L5.43192 17.6212C5.09307 17.586 4.75945 17.5056 4.43404 17.4275C3.9795 17.318 3.67573 17.2606 3.46526 17.2606V17.2599Z" fill="white"/>
<path id="Vector_2" d="M8.18752 26C8.01063 26 7.83673 25.9763 7.67178 25.9311C6.66792 25.6586 6.04844 24.7017 6.16338 23.6039L6.17085 23.5319L8.4771 16.0603L9.38468 15.7778L9.6683 15.986C9.7489 16.0449 9.87205 16.1628 9.93251 16.3596C10.0952 16.5004 10.2564 16.6428 10.4132 16.7822C10.814 17.1366 11.1931 17.4719 11.5939 17.785L11.8268 17.9672L11.9425 18.8277L11.8768 19.0022C11.5879 19.7716 11.3596 20.6037 11.1177 21.4841C10.8274 22.5413 10.5266 23.6345 10.1109 24.6152C9.69293 25.6004 8.91298 25.9992 8.18677 25.9992L8.18752 26ZM7.56804 23.8236C7.54938 24.2416 7.80239 24.4628 8.03451 24.5256C8.18826 24.5669 8.5704 24.6029 8.81073 24.0356C9.18839 23.1461 9.47499 22.1011 9.75264 21.0898C9.96908 20.3013 10.193 19.4883 10.4639 18.7251C10.1273 18.4495 9.80339 18.1632 9.48768 17.8838C9.46529 17.8639 9.4429 17.844 9.41976 17.8241L7.56804 23.8228V23.8236Z" fill="white"/>
<path id="Vector_3" d="M12.6411 5.92146C10.8759 5.92146 9.95191 4.51822 9.83996 3.20379C9.728 1.88783 10.4079 0.338381 12.1649 0.0459454C13.2837 -0.140081 14.2778 0.24422 14.8936 1.10009C15.5593 2.02639 15.6675 3.34848 15.163 4.38961C14.6988 5.34807 13.7957 5.90615 12.6858 5.92069C12.6709 5.92069 12.656 5.92069 12.6411 5.92069V5.92146ZM12.3925 1.48133C11.4648 1.63597 11.1983 2.43749 11.2528 3.07671C11.3081 3.72589 11.7103 4.48071 12.6672 4.46617C13.3949 4.45622 13.7352 4.06656 13.8927 3.74197C14.1584 3.19461 14.0987 2.44591 13.7516 1.96285C13.4501 1.54334 12.9926 1.38105 12.3918 1.48133H12.3925Z" fill="white"/>
<path id="Vector_4" d="M16.8588 15.4471C16.5423 15.4471 16.1676 15.3583 15.7303 15.1232C15.1735 14.8239 14.6316 14.3592 14.1532 13.9497C13.8435 13.6848 13.524 13.4107 13.3374 13.3097L12.9142 13.08L13.3688 8.6131L17.9462 12.241L17.9805 12.277C18.3433 12.6567 18.5314 13.1979 18.4955 13.7621C18.4612 14.3041 18.2194 14.7933 17.832 15.1049C17.6074 15.2855 17.2864 15.4478 16.858 15.4478L16.8588 15.4471ZM14.4197 12.3015C14.6189 12.453 14.8316 12.6352 15.0623 12.8327C15.5399 13.2415 16.658 14.2 16.9573 13.9589C17.0267 13.903 17.0722 13.7935 17.0804 13.6664C17.0886 13.534 17.0551 13.4054 16.9909 13.3204L14.5152 11.3583L14.4189 12.3015H14.4197Z" fill="white"/>
<path id="Vector_5" d="M3.85712 25.8347C3.52275 25.8347 3.19659 25.69 2.92865 25.4144C2.33231 24.8027 2.46516 23.9913 2.90477 23.5051C3.35482 23.0075 4.15119 22.8047 4.80276 23.3796C5.16176 23.6958 5.3088 24.1558 5.20729 24.6404C5.09534 25.1755 4.69156 25.6349 4.20269 25.7826C4.08775 25.8171 3.97206 25.8347 3.85712 25.8347ZM3.92057 24.1068C3.79891 24.1068 3.70487 24.1964 3.67053 24.2347C3.57948 24.3357 3.50484 24.4904 3.66755 24.6573C3.79592 24.7889 3.87354 24.7652 3.90713 24.7553C4.02953 24.7185 4.15418 24.5662 4.18627 24.4161C4.21239 24.2921 4.16836 24.2339 4.12208 24.1926C4.05118 24.1298 3.98251 24.1068 3.92131 24.1068H3.92057Z" fill="white"/>
</g>
</g>
<defs>
<clipPath id="clip0_156_791">
<rect width="18" height="26" fill="white" transform="translate(0.5)"/>
</clipPath>
</defs>
</svg>
