<svg width="26" height="31" viewBox="0 0 26 31" fill="none" xmlns="http://www.w3.org/2000/svg">
<g clip-path="url(#clip0_166_5412)">
<path d="M22.4509 17.6092C21.6839 17.2836 20.8519 17.0288 20.0589 16.7599C19.2659 16.4909 18.7589 16.3352 18.0699 16.0804C17.8159 15.5553 17.6195 14.9994 17.4849 14.4243C18.4591 12.7203 19.0059 10.7681 19.0709 8.76217C19.1684 6.93769 19.1684 5.10857 19.0709 3.28409C18.9149 1.50053 17.4199 0.920162 16.6009 0.594591C14.1561 -0.258869 11.5221 -0.219104 9.09991 0.707833C8.55508 0.872946 8.06331 1.20016 7.67982 1.65274C7.29632 2.10532 7.03629 2.66535 6.9289 3.26993C6.9289 3.9777 6.9289 4.68546 6.9289 5.39322C6.9289 8.49322 6.8379 11.6923 8.5149 14.4667C8.36442 15.0121 8.18205 15.5463 7.9689 16.0663C7.3449 16.3069 6.6689 16.5051 6.0709 16.7316C5.4729 16.9581 4.5369 17.2412 3.8089 17.5526C-0.195096 19.2512 -0.0910959 23.2147 0.0519041 26.7393C0.0519041 27.7868 0.116904 28.7494 0.0519041 29.7827C0.051309 30.0418 0.128451 30.294 0.271595 30.501C0.414739 30.708 0.61605 30.8584 0.844904 30.9293L24.7649 31.0708C25.0792 31.0743 25.384 30.9536 25.6229 30.7311C25.7515 30.5906 25.8515 30.4222 25.9164 30.2368C25.9813 30.0515 26.0098 29.8534 25.9999 29.6553C25.9481 28.618 25.9481 27.5785 25.9999 26.5412C26.0779 23.1439 26.2209 19.2795 22.4509 17.6092ZM1.6509 22.9457C1.7424 22.1213 2.03055 21.3373 2.4867 20.6717C2.94284 20.0062 3.55108 19.4823 4.2509 19.1521C5.5509 18.5718 7.0849 18.2037 8.4369 17.6658C8.95408 18.2703 9.6479 18.6605 10.3999 18.7699C11.4889 19.0221 12.6023 19.1267 13.7149 19.0813L10.7249 20.9498C10.2179 21.2664 9.78437 21.7054 9.45759 22.233C9.1308 22.7606 8.91949 23.3628 8.8399 23.9932V29.259H1.6119L1.6509 22.9457ZM17.5369 3.12838V5.84619C15.1482 4.59601 12.4153 4.36866 9.8799 5.2092C9.3989 5.37907 8.95691 5.64802 8.4889 5.77541V3.25578C8.5705 3.06419 8.69043 2.89491 8.8399 2.76034C10.6339 1.34482 15.1319 1.34482 17.0039 2.63295C17.1339 2.76034 17.4979 3.02929 17.4979 3.185L17.5369 3.12838ZM8.4889 7.21925C8.47708 7.19028 8.47097 7.15894 8.47097 7.12724C8.47097 7.09554 8.47708 7.0642 8.4889 7.03523C8.81091 6.81881 9.14525 6.62497 9.48991 6.45486C11.7033 5.55533 14.1405 5.55533 16.3539 6.45486C16.7309 6.61057 17.0689 6.86537 17.4329 7.04939C17.6669 9.7955 16.7699 14.3393 14.0269 15.3161C9.9319 16.9156 8.11191 10.574 8.4889 7.21925ZM16.7309 17.1279C15.8085 17.677 14.7789 17.978 13.7279 18.0056C12.1907 18.1901 10.6372 17.8853 9.2559 17.1279L9.9059 15.1887C10.6681 15.9972 11.6751 16.475 12.7378 16.5323C13.8006 16.5897 14.8461 16.2226 15.6779 15.5001C15.8079 15.401 15.8859 15.217 16.0679 15.2594L16.7309 17.1279ZM24.3749 29.2448H9.78891V23.9932C9.88543 23.5429 10.0573 23.1159 10.2959 22.7334C10.8809 21.8275 13.4419 20.4686 14.4819 19.8033C15.5219 19.138 16.5619 18.3877 17.6019 17.6941C18.9019 18.2179 20.3839 18.5718 21.6579 19.1097C22.3718 19.3768 23.0037 19.8543 23.4834 20.489C23.963 21.1237 24.2716 21.8908 24.3749 22.7051V29.2448Z" fill="white"/>
<path d="M12.8051 24.4886C12.8738 24.5035 12.9445 24.5035 13.0131 24.4886C13.214 24.4803 13.4045 24.3892 13.5461 24.2338C13.689 24.075 13.7691 23.8616 13.7691 23.6393C13.7691 23.417 13.689 23.2035 13.5461 23.0447C13.4792 22.9612 13.3976 22.893 13.3062 22.8441C13.2148 22.7953 13.1154 22.7667 13.0137 22.7601C12.9121 22.7535 12.8103 22.769 12.7142 22.8058C12.6181 22.8425 12.5297 22.8997 12.4541 22.974C12.3548 23.0723 12.281 23.1972 12.2399 23.3363C12.1989 23.4754 12.192 23.6238 12.2201 23.7667C12.2483 23.9335 12.3176 24.0888 12.4206 24.216C12.5237 24.3432 12.6566 24.4374 12.8051 24.4886Z" fill="white"/>
<path d="M12.8049 27.5461C12.8735 27.561 12.9442 27.561 13.0129 27.5461C13.1129 27.545 13.2117 27.5219 13.3033 27.4781C13.3949 27.4343 13.4774 27.3708 13.5459 27.2913C13.6798 27.1296 13.7526 26.9187 13.7497 26.7009C13.7468 26.4832 13.6685 26.2746 13.5304 26.1171C13.3923 25.9596 13.2046 25.8647 13.005 25.8514C12.8054 25.8382 12.6085 25.9076 12.4539 26.0457C12.3546 26.1409 12.2805 26.2633 12.2394 26.4002C12.1982 26.5371 12.1915 26.6835 12.2199 26.8242C12.248 26.991 12.3173 27.1464 12.4204 27.2735C12.5235 27.4007 12.6564 27.495 12.8049 27.5461Z" fill="white"/>
<path d="M12.74 13.8155C13.3456 13.8362 13.9387 13.6259 14.417 13.221C14.729 12.9662 14.781 12.3858 14.417 12.3009C14.053 12.216 13.52 12.8105 13.117 12.8105C12.714 12.8105 12.168 12.216 11.817 12.2443H11.7C11.621 12.2532 11.5456 12.2844 11.4811 12.3349C11.4166 12.3854 11.3654 12.4534 11.3325 12.5321C11.2997 12.6108 11.2863 12.6975 11.2938 12.7836C11.3012 12.8697 11.3292 12.9522 11.375 13.0228C11.7722 13.3912 12.2378 13.6617 12.74 13.8155Z" fill="white"/>
</g>
<defs>
<clipPath id="clip0_166_5412">
<rect width="26" height="31" fill="white"/>
</clipPath>
</defs>
</svg>
