<svg width="24" height="30" viewBox="0 0 24 30" fill="none" xmlns="http://www.w3.org/2000/svg">
<path d="M23.2017 28.1363V28.0948C23.0903 25.4889 22.9808 22.883 22.8731 20.2771C22.8578 19.6111 22.6508 18.9662 22.2801 18.4292C21.6593 17.5867 20.8317 16.9431 19.8886 16.5695L17.3579 15.4413L15.8907 14.7898L15.5149 14.621H15.4926C15.494 14.5934 15.494 14.5657 15.4926 14.5381V14.4641C15.4576 14.2867 15.4833 14.1019 15.565 13.9429C16.1394 13.0098 16.5191 11.9566 16.6786 10.8543V10.7714C16.6786 10.7269 16.6981 10.6648 16.7092 10.5818V10.5434C16.7074 10.5207 16.7074 10.4979 16.7092 10.4752V10.3953C16.7092 10.3746 16.7092 10.3509 16.7092 10.3183L16.7315 10.1673V10.0695C16.7621 9.87706 16.8234 9.47729 16.8902 8.93834L17.074 8.84654C17.1758 8.77702 17.2596 8.68157 17.318 8.56884C17.3763 8.4561 17.4073 8.32966 17.408 8.20098C17.3551 7.79825 17.5166 7.54654 17.8368 7.22376C18.1507 6.90877 18.3535 6.48873 18.4112 6.03384C18.469 5.57894 18.3783 5.11673 18.1542 4.72445C18.0512 4.54381 17.9314 4.35725 17.7978 4.16773C17.1234 3.20106 16.2545 2.4069 15.2545 1.84331C14.2545 1.27973 13.1488 0.960965 12.0181 0.910324H11.9958L11.7174 0.931053C11.4969 0.94488 11.2775 0.973563 11.0604 1.01693C10.0304 1.21507 9.04842 1.63183 8.17309 2.24236C7.29777 2.85288 6.547 3.64465 5.96558 4.57046C5.72302 4.94511 5.60306 5.39422 5.62419 5.84856C5.64532 6.3029 5.80637 6.73723 6.08251 7.08458L6.10757 7.11419C6.20373 7.24892 6.3182 7.36769 6.44722 7.46659C6.5022 7.49313 6.5466 7.53948 6.57258 7.59745C6.59856 7.65543 6.60445 7.7213 6.58921 7.78344C6.58248 7.84047 6.58248 7.89817 6.58921 7.9552V7.98185C6.59059 7.99464 6.59059 8.00755 6.58921 8.02034C6.57023 8.19897 6.60266 8.37952 6.68219 8.53814C6.76172 8.69675 6.88462 8.82597 7.03466 8.90873L7.05971 8.92353C7.10704 9.31738 7.15715 9.70531 7.21005 10.0488V10.0725C7.24903 10.3686 7.30193 10.7062 7.36874 11.0379V11.0705C7.52268 11.9869 7.83009 12.8666 8.27634 13.6675C8.43479 13.9201 8.51285 14.22 8.49907 14.5233C8.50296 14.5508 8.50296 14.5787 8.49907 14.6062C8.48344 14.6197 8.46546 14.6298 8.44617 14.6358L7.70004 14.9645C6.53631 15.4739 5.30019 16.0187 4.12254 16.5784C3.53055 16.8614 2.97024 17.214 2.4521 17.6297C2.0642 17.9159 1.74376 18.2936 1.51581 18.7333C1.28785 19.173 1.15856 19.6629 1.13803 20.1645C1.06936 21.7439 1.00161 23.3232 0.934795 24.9026C0.89025 25.943 0.846633 26.9804 0.803944 28.0149V28.1333L0.759399 28.6101V29.2023C0.760136 29.4052 0.836431 29.5996 0.971578 29.7428C1.10672 29.886 1.28971 29.9664 1.48047 29.9664H22.5223C22.7008 29.9667 22.873 29.8966 23.0056 29.7697C23.1383 29.6428 23.222 29.4681 23.2406 29.2793V28.9358L23.2017 28.1363ZM8.63827 25.2935L8.6856 25.2609C8.92781 25.5925 9.17281 25.9212 9.41502 26.247L9.69343 26.6379L10.3505 27.5026L10.2948 27.5855L10.2475 27.6566C10.0982 27.8667 9.96237 28.0873 9.84098 28.3169C9.80406 28.3897 9.77151 28.4648 9.74354 28.542H6.14654C6.64623 27.2142 7.51568 26.0807 8.63827 25.2935ZM12.0265 4.53492C11.6472 4.53001 11.2777 4.66249 10.9787 4.9106C10.6797 5.1587 10.4689 5.50765 10.3811 5.90007C10.3672 5.9593 10.3588 5.97114 10.356 5.9741C10.3262 5.98787 10.2939 5.99492 10.2614 5.99483C9.88831 6.05406 9.5069 6.12217 9.14775 6.18731L8.86935 6.24062C8.48515 6.31169 8.10095 6.3798 7.71675 6.44495H7.6722C7.61596 6.44581 7.56041 6.43155 7.51073 6.40349C7.33121 6.27007 7.16842 6.11284 7.0263 5.93561C6.82028 5.67501 6.81472 5.58914 6.99568 5.29301C7.51614 4.44931 8.20181 3.73515 9.00576 3.19939C9.86279 2.56789 10.8731 2.21313 11.9151 2.17775C12.0181 2.17775 12.1239 2.17775 12.2241 2.17775C14.2704 2.33766 15.9102 3.40076 17.099 5.34335C17.1366 5.38681 17.1653 5.43817 17.1832 5.49412C17.201 5.55007 17.2077 5.60938 17.2027 5.66823C17.1977 5.72708 17.1812 5.78417 17.1542 5.83583C17.1273 5.88749 17.0904 5.93257 17.0461 5.96818C16.9063 6.12375 16.7535 6.26549 16.5895 6.39164L16.5116 6.45383C16.4969 6.45738 16.4817 6.45738 16.467 6.45383L14.3066 6.03629L13.6718 5.91192C13.6688 5.89178 13.6642 5.87196 13.6579 5.85269C13.5583 5.47384 13.345 5.14001 13.0505 4.9021C12.7559 4.66419 12.3963 4.53525 12.0265 4.53492ZM9.66837 7.53173L10.5843 7.3659H10.6177L10.6511 7.40736C10.805 7.63591 11.0069 7.82297 11.2409 7.95359C11.4749 8.0842 11.7344 8.15473 11.9986 8.15952H12.0181C12.289 8.15872 12.5559 8.09056 12.7976 7.96047C13.0393 7.83039 13.2491 7.64199 13.4101 7.41032L13.4658 7.37775C14.3261 7.51397 15.1752 7.67388 15.9715 7.81009C14.7784 8.58582 13.4351 9.06277 12.0432 9.20485C11.0803 9.12538 10.138 8.86679 9.25911 8.44085C8.87492 8.25725 8.48793 8.03515 8.11487 7.82194H8.09538L9.66837 7.53173ZM6.95113 20.3333C7.04839 20.3931 7.159 20.4238 7.2713 20.4222C7.43021 20.4172 7.58497 20.3671 7.71953 20.2771L9.17559 19.3887L9.84655 18.9741L9.97462 18.8971L9.9941 18.9267C10.2168 19.2969 10.4284 19.6463 10.6428 19.9928C10.698 20.0948 10.7765 20.1804 10.8711 20.2415C11.1703 20.4434 11.5191 20.5465 11.8733 20.5377H11.9958C12.6779 20.5377 13.0204 20.3392 13.1874 20.1764C13.209 20.158 13.2286 20.1371 13.2459 20.1142C13.2746 20.0818 13.2998 20.046 13.321 20.0076C13.4992 19.7115 13.6746 19.4153 13.8528 19.1192L13.992 18.8912C14.2704 19.0718 14.5683 19.2495 14.8551 19.4213C15.3451 19.7253 15.835 20.0273 16.325 20.3274C16.4516 20.4074 16.5955 20.4513 16.7427 20.4547C16.8471 20.4558 16.9499 20.4271 17.0405 20.3718C17.1474 20.3007 17.2346 20.2008 17.2933 20.0822C17.352 19.9636 17.38 19.8306 17.3746 19.6966V16.7443L17.7867 16.9279C18.4214 17.224 18.956 17.449 19.4961 17.6978C20.0256 17.9312 20.5049 18.2768 20.9048 18.7135C21.2342 19.0509 21.4329 19.5073 21.4616 19.9928C21.5813 22.8001 21.7038 25.6962 21.8124 28.5479H19.2901C19.2901 28.5094 19.2622 28.4679 19.2455 28.4265C19.1564 28.1718 19.0172 27.7839 18.8502 27.4108C18.2424 26.0429 17.2835 24.8856 16.084 24.0725C14.8845 23.2593 13.4934 22.8233 12.071 22.8149C11.6039 22.8147 11.1379 22.8613 10.679 22.9541C7.8476 23.5226 5.87092 25.3556 4.79071 28.391C4.774 28.4443 4.7573 28.4916 4.74616 28.539H2.15143C2.23495 26.8067 2.30733 25.0536 2.37137 23.5049L2.40199 22.6994C2.41591 22.3766 2.42983 22.0538 2.44097 21.734C2.46046 21.1684 2.48273 20.5495 2.51614 19.9572C2.56068 19.2347 2.93653 18.6572 3.66317 18.1805C4.11402 17.9058 4.57873 17.6576 5.05519 17.4372L5.09974 17.4135C5.25008 17.3454 5.40042 17.2714 5.55354 17.1973C5.83194 17.0641 6.09086 16.9456 6.38876 16.8183L6.46949 16.7828L6.59478 16.7295H6.61426V19.596C6.60261 19.7398 6.62778 19.8842 6.68709 20.0141C6.7464 20.1439 6.83764 20.2542 6.95113 20.3333ZM9.84655 10.1762C10.524 10.4256 11.2322 10.5683 11.9485 10.5996C12.0815 10.6002 12.2144 10.5933 12.3466 10.5789C13.4569 10.4531 14.5398 10.1318 15.5511 9.62832C15.5065 9.92444 15.462 10.188 15.4147 10.4219V10.4782C15.3968 10.5395 15.3819 10.6018 15.3701 10.6648L15.2643 11.0971C15.0977 11.978 14.7133 12.7958 14.1507 13.4661C13.888 13.7822 13.5666 14.037 13.2068 14.2144C12.8469 14.3917 12.4564 14.4878 12.0599 14.4967C11.9986 14.4967 11.9402 14.4967 11.8789 14.4967C11.4306 14.4645 10.9948 14.3253 10.6039 14.0895C10.213 13.8537 9.8771 13.5273 9.62104 13.1345C9.10837 12.3204 8.76392 11.3999 8.61043 10.4338V10.4042C8.56867 10.1762 8.52691 9.9126 8.48793 9.62535C8.92856 9.84145 9.38248 10.0255 9.84655 10.1762ZM12.2492 19.3324C12.1825 19.3983 12.0951 19.4352 12.0042 19.4361C11.9573 19.4353 11.9111 19.4247 11.8681 19.4049C11.8251 19.385 11.7862 19.3564 11.7536 19.3206C11.7258 19.2732 11.6979 19.2288 11.6673 19.1843L9.87996 16.2705C9.85642 16.236 9.83592 16.1993 9.81871 16.1609C9.81871 15.8648 9.81871 15.5301 9.81871 15.1926C10.4695 15.6442 11.2272 15.8906 12.0042 15.9033C12.7838 15.8926 13.5453 15.6516 14.2036 15.2074C14.2036 15.4591 14.2036 15.696 14.2036 15.9299C14.1964 16.0623 14.1652 16.1921 14.1117 16.3119L14.0922 16.3415C13.708 16.9812 13.3127 17.6267 12.9285 18.2486L12.7726 18.5033L12.4524 19.0185L12.2492 19.3324ZM14.1423 24.7397L13.644 25.4297C13.3127 25.8739 12.9174 26.4039 12.5304 26.9488C12.5053 26.9873 12.5025 26.9873 12.4663 26.9873H12.4162C12.3281 26.9824 12.2398 26.9824 12.1517 26.9873H11.6478C11.6136 26.9915 11.579 26.9915 11.5448 26.9873C10.9741 26.2351 10.4034 25.4593 9.89945 24.7752C11.2697 24.2442 12.7721 24.2442 14.1423 24.7752V24.7397ZM14.6797 26.1907L15.3673 25.2638L15.4035 25.2905L15.462 25.3349L15.5149 25.3734C15.6819 25.5007 15.8378 25.6192 15.9882 25.7525C16.8339 26.5017 17.492 27.4621 17.9036 28.5479H14.2899C14.2713 28.4926 14.2463 28.4304 14.2147 28.3613C14.1328 28.1683 14.0311 27.9856 13.9113 27.8165C13.8401 27.711 13.761 27.612 13.6746 27.5203C14.0031 27.0821 14.3317 26.6379 14.6797 26.1907Z" fill="white"/>
</svg>
