<svg width="38" height="37" viewBox="0 0 38 37" fill="none" xmlns="http://www.w3.org/2000/svg">
<path d="M21.396 13.8677C21.1271 13.8075 20.8599 13.7525 20.5637 13.7077H20.4956C22.6761 13.1865 24.0242 10.9776 23.5084 8.77566C23.0778 6.93666 21.4573 5.63268 19.5866 5.62064C17.35 5.61892 15.5338 7.45103 15.5321 9.7115C15.5321 11.6331 16.8513 13.2983 18.7083 13.7129H18.6539C15.3346 14.1034 12.5652 16.4516 11.6069 19.6858C11.275 21.1136 11.1762 22.5862 11.3107 24.0467V24.2635C11.355 24.5198 11.4929 24.7486 11.6971 24.9069C11.9235 25.0273 12.1788 25.0806 12.4341 25.0634H26.86C27.3587 25.1202 27.8098 24.7589 27.866 24.2549C27.8745 24.1809 27.8745 24.1086 27.866 24.0347V21.8619C27.7809 18.0119 25.1136 14.7158 21.396 13.8712V13.8677ZM17.304 9.73214C17.304 8.46256 18.3219 7.43383 19.5781 7.43383C20.8445 7.42695 21.8761 8.4574 21.8829 9.73558C21.8897 11.0155 20.8701 12.058 19.6054 12.0649H19.5781C18.3134 12.0528 17.2972 11.0086 17.304 9.73042V9.73214ZM26.0923 23.104V23.2743H13.0929V23.104C12.8512 20.2414 13.7976 18.0498 15.8929 16.6254C17.9781 15.0565 20.8139 14.9773 22.9808 16.4275C25.2583 17.8106 26.3051 20.0522 26.0906 23.104H26.0923Z" fill="#97051D"/>
<path d="M25.7381 29.4372C25.7943 29.8725 25.5015 30.2767 25.0743 30.3559C24.9075 30.3937 24.7356 30.4092 24.5654 30.4023H14.509C14.1872 30.4281 13.8689 30.318 13.6306 30.0996C13.474 29.943 13.3906 29.7245 13.4026 29.5026C13.4026 28.9418 13.8111 28.6149 14.4936 28.6149H24.7322C25.2309 28.5599 25.6803 28.9229 25.7364 29.4269C25.7364 29.4304 25.7364 29.4338 25.7364 29.4372H25.7381Z" fill="#97051D"/>
<path d="M37.6036 32.5822V3.9053C37.6036 1.57076 36.0733 0.00349942 33.7974 0.00349942H6.10699C5.16055 -0.0377895 4.24474 0.287361 3.5298 0.922178C3.38511 1.04949 3.25744 1.19056 3.13658 1.33507C2.73996 1.81333 2.471 2.37761 2.34674 2.99007C2.30929 3.17931 2.28035 3.37199 2.27014 3.56983C2.26503 3.69026 2.26503 3.8124 2.27014 3.93455V7.28239H1.98757C1.54158 7.26519 1.099 7.43207 0.770464 7.73829L0.758548 7.75034C0.447038 8.05312 0.276814 8.47633 0.290432 8.91159C0.298943 9.35544 0.479381 9.76833 0.801104 10.0728C1.11091 10.3687 1.51945 10.5322 1.94671 10.5219H2.2395V16.6275H1.94842C1.52626 16.612 1.12453 16.7599 0.811318 17.0403C0.479381 17.338 0.285325 17.7474 0.264898 18.193V18.2377C0.263196 19.1254 0.97984 19.848 1.8633 19.8497C1.87692 19.8497 1.89224 19.8497 1.90586 19.8497H2.21737V25.9553H1.84798C0.971329 25.9588 0.259791 26.6813 0.263196 27.5604C0.263196 27.5845 0.263196 27.6086 0.263196 27.6224C0.292134 28.4808 0.983244 29.1776 1.83607 29.2085H2.27014V32.5856C2.25652 32.9022 2.28206 33.2136 2.34334 33.5112C2.4693 34.1271 2.74677 34.6914 3.13488 35.1576C3.76641 35.9163 4.69073 36.4186 5.73931 36.472C5.85166 36.4771 5.96741 36.4788 6.07976 36.472H33.7889C33.8501 36.4754 33.9114 36.4771 33.9727 36.4771C34.8425 36.4771 35.6749 36.164 36.3388 35.5825C37.098 34.9185 37.5457 33.9912 37.6002 32.9727C37.607 32.8437 37.607 32.7129 37.6002 32.5839L37.6036 32.5822ZM1.94671 9.02341H1.92118C1.92118 9.02341 1.89394 9.02341 1.86671 8.99933C1.85309 8.98728 1.82245 8.94944 1.82075 8.88578V8.86858C1.82075 8.84793 1.82585 8.83245 1.83266 8.82213C1.8633 8.79632 1.89905 8.78256 1.9348 8.786H2.4676H2.90167H3.80216H4.33496C4.37071 8.78256 4.40645 8.79632 4.43709 8.82213C4.4439 8.83245 4.45071 8.84793 4.45071 8.86858V8.88578C4.45071 8.94944 4.41837 8.98728 4.40475 8.99933C4.37922 9.02341 4.35709 9.02341 4.35028 9.02341H4.32475H2.49994H1.94842H1.94671ZM1.88033 18.3496H1.86501C1.83947 18.3496 1.80202 18.3117 1.79692 18.2515C1.80202 18.1947 1.83096 18.162 1.84458 18.1517C1.87011 18.1293 1.89054 18.1293 1.89735 18.1293H2.49824H2.9221H3.77152H4.37241C4.37241 18.1293 4.39964 18.1293 4.42518 18.15C4.4388 18.162 4.46773 18.193 4.47284 18.2498C4.46773 18.3083 4.43028 18.3478 4.40475 18.3478H4.38943H2.51867H1.87862L1.88033 18.3496ZM2.4676 27.7067H1.88543C1.84288 27.7015 1.79692 27.6464 1.79351 27.557C1.79351 27.495 1.83266 27.4555 1.84969 27.4555H3.74769H4.41667C4.43369 27.4555 4.47284 27.4933 4.47284 27.557C4.46944 27.6464 4.42518 27.6998 4.38092 27.7067H2.4659H2.4676ZM36.0716 32.8919C36.0375 33.5077 35.7703 34.0651 35.3192 34.4608C34.9089 34.8204 34.3881 35.001 33.8552 34.9701H6.04401H6.02529C5.9572 34.9735 5.8874 34.9735 5.81931 34.9701C4.94096 34.9253 4.2124 34.3249 3.92812 33.5095C3.9894 33.2118 4.01494 32.9022 4.00132 32.5839V29.2068H4.43539C5.28822 29.1759 5.97933 28.4791 6.00826 27.6206C6.00826 27.6069 6.00826 27.5828 6.00826 27.5587C6.01167 26.6779 5.30013 25.957 4.42348 25.9536H4.05409V19.848H4.3656C4.37922 19.848 4.39454 19.848 4.40816 19.848C5.29162 19.848 6.00826 19.1237 6.00826 18.236V18.1913C5.98784 17.7457 5.79378 17.3363 5.46184 17.0386C5.14693 16.7565 4.7452 16.6103 4.32475 16.6257H4.03366V10.5201H4.32645C4.75541 10.5305 5.16225 10.367 5.47206 10.0711C5.79208 9.76661 5.97422 9.35372 5.98273 8.90987C5.99635 8.47461 5.82612 8.0514 5.51461 7.74862L5.5027 7.73657C5.17416 7.43035 4.72988 7.26347 4.28559 7.28067H4.00302V3.93283C4.00813 3.81068 4.00813 3.68854 4.00302 3.56811C3.99281 3.37027 3.96557 3.17759 3.92642 2.98835C4.05239 2.62191 4.26687 2.29332 4.55966 2.03182C4.9767 1.66194 5.5061 1.4727 6.05082 1.50022H33.7991C35.2017 1.50022 36.0733 2.42062 36.0733 3.90014V32.6372C36.0784 32.7198 36.0784 32.8041 36.0733 32.8867L36.0716 32.8919Z" fill="#97051D"/>
</svg>
