<svg width="33" height="32" viewBox="0 0 33 32" fill="none" xmlns="http://www.w3.org/2000/svg">
<path d="M8.5 25.3333V26.6667C8.5 27.0444 8.37222 27.3611 8.11667 27.6167C7.86111 27.8722 7.54444 28 7.16667 28H5.83333C5.45556 28 5.13889 27.8722 4.88333 27.6167C4.62778 27.3611 4.5 27.0444 4.5 26.6667V16L7.3 7.99999C7.43333 7.59999 7.67222 7.27777 8.01667 7.03332C8.36111 6.78888 8.74444 6.66666 9.16667 6.66666H23.8333C24.2556 6.66666 24.6389 6.78888 24.9833 7.03332C25.3278 7.27777 25.5667 7.59999 25.7 7.99999L28.5 16V26.6667C28.5 27.0444 28.3722 27.3611 28.1167 27.6167C27.8611 27.8722 27.5444 28 27.1667 28H25.8333C25.4556 28 25.1389 27.8722 24.8833 27.6167C24.6278 27.3611 24.5 27.0444 24.5 26.6667V25.3333H8.5ZM8.23333 13.3333H24.7667L23.3667 9.33332H9.63333L8.23333 13.3333ZM10.5 21.3333C11.0556 21.3333 11.5278 21.1389 11.9167 20.75C12.3056 20.3611 12.5 19.8889 12.5 19.3333C12.5 18.7778 12.3056 18.3055 11.9167 17.9167C11.5278 17.5278 11.0556 17.3333 10.5 17.3333C9.94444 17.3333 9.47222 17.5278 9.08333 17.9167C8.69444 18.3055 8.5 18.7778 8.5 19.3333C8.5 19.8889 8.69444 20.3611 9.08333 20.75C9.47222 21.1389 9.94444 21.3333 10.5 21.3333ZM22.5 21.3333C23.0556 21.3333 23.5278 21.1389 23.9167 20.75C24.3056 20.3611 24.5 19.8889 24.5 19.3333C24.5 18.7778 24.3056 18.3055 23.9167 17.9167C23.5278 17.5278 23.0556 17.3333 22.5 17.3333C21.9444 17.3333 21.4722 17.5278 21.0833 17.9167C20.6944 18.3055 20.5 18.7778 20.5 19.3333C20.5 19.8889 20.6944 20.3611 21.0833 20.75C21.4722 21.1389 21.9444 21.3333 22.5 21.3333ZM7.16667 22.6667H25.8333V16H7.16667V22.6667Z" fill="white"/>
</svg>
