<svg xmlns="http://www.w3.org/2000/svg" viewBox="0 0 264.5 92"><title>Europcar logo</title><rect width="264.5" height="92" style="fill:#090"/><rect width="264.5" height="92" style="fill:none"/><path d="M510.47,528.21l-1.21,6.43H409.86v-1a966.44,966.44,0,0,1,100.6-5.42Zm10.67,0c33.88,0,77.05,3.66,93,5.35h0v1.09h-94Z" transform="translate(-379.75 -466)" style="fill:#fd0"/><path d="M530.76,496.54c6.33,0,7.64,4.71,7.64,8.67S535.88,522,525.92,522c-5,0-6.77-3-6.88-2.51-.61,2.46-2.66,15.16-2.66,15.16h-7.13l7.06-37.55h7.35a9.81,9.81,0,0,0-.27,1.75C523.4,499.49,524.43,496.54,530.76,496.54Zm51.76.1c9.77,0,11.82,2.87,11.37,5.65-.25,1.53-2.42,11.59-2.6,12.88s.82.83.82.83h0l-1.3,4.91H587.1c-2.8,0-2.56-1.4-3.21-1.4s-2.79,2.86-8,2.86c-4.75,0-7.64-3.23-7.64-7.19s4-8.95,11.92-8.95h5c1.39,0,3.34-5.26-2.23-5.26-4.46,0-4.75,3.14-4.75,3.14h-6.52S571.54,496.63,582.52,496.63ZM556.63,496c12.31,0,10.47,10.21,10.47,10.21h-7.17s.67-5.16-4.09-5.16c-6.34,0-7.82,8.08-7.82,10.5s1.48,4.91,4.27,4.91a6.29,6.29,0,0,0,6.22-4.15h6.88c0,3.4-4.58,9.58-14.44,9.58-4.66,0-10-2.41-10-10.14S545,496,556.63,496Zm-56,.16c7.07,0,10.43,3.15,10.43,9.24,0,7.1-4.41,16.49-15.55,16.49-7.63,0-10.7-4.31-10.7-10.31S488.15,496.16,500.61,496.16Zm-50,1s-2.42,12.67-2.73,14.22l0,.14c-.3,1.54-.63,3.63,2.5,3.63s4.77-1.49,5.71-5.45,2.33-12.54,2.33-12.54h7l-4.46,23.72h-7.32l.33-1.5c0-.46-.64,2.1-6.6,2.1s-8-3.07-7.14-7c.81-3.67,3.1-17.35,3.1-17.35h7.26Zm27.59,0-.29,1.38c0,.64,1.86-1.3,5-1.3H486l-1.5,5.36h-3.81c-2.51,0-3.9,1.39-4.46,4.24s-2.86,14-2.86,14h-7l4.44-23.72Zm129.61,0-.3,1.38c0,.64,1.86-1.3,5-1.3h3.17l-1.5,5.36h-3.81c-2.51,0-3.91,1.38-4.47,4.23s-2.82,14-2.82,14h-7l4.44-23.72Zm-166.38-8.85-1.1,6.37h-17l-1.21,6.45h15.15L436,507.62H420.57l-1.5,7.08H436l-1.14,6.19h-25l7-32.56Zm143.08,22.15s-2.51.55-6.23,1.09c-3.21.46-4.27,5.52-.19,5.52h0A6.61,6.61,0,0,0,584.47,510.48Zm-85-9.33c-6,0-7.63,7.75-7.63,9.41h0c0,1.66-.09,5.92,4.57,5.92s7.34-5.86,7.34-9.81S501.81,501.15,499.48,501.15Zm28,.83c-5.29,0-6.62,7.19-6.62,8.66s.19,5.26,3.71,5.26,6.88-4.89,6.9-8.95C531.53,504.55,531.42,502,527.53,502Z" transform="translate(-379.75 -466)" style="fill:#fff"/></svg>