<svg width="32" height="20" viewBox="0 0 32 20" fill="none" xmlns="http://www.w3.org/2000/svg">
<g clip-path="url(#clip0_39_39)">
<path d="M30.6513 20H1.34869C0.604938 20 0 19.4545 0 18.7845V17.5112C0 16.9057 0.483836 16.4002 1.15047 16.3091C2.29522 16.1524 3.364 15.4464 4.15973 14.3198C4.99259 13.1404 5.45186 11.606 5.45186 10C5.45186 8.39398 4.99316 6.85962 4.15973 5.68024C3.364 4.55419 2.29579 3.84756 1.15047 3.69091C0.483836 3.5998 0 3.09427 0 2.48875V1.21549C0 0.545525 0.604938 0 1.34869 0H30.6513C31.3951 0 32 0.545525 32 1.21549V2.97095C32 3.57647 31.5162 4.082 30.8495 4.1731C29.7048 4.32976 28.636 5.03583 27.8403 6.16244C27.0074 7.34181 26.5481 8.87617 26.5481 10.4822C26.5481 12.0882 27.0068 13.6226 27.8403 14.802C28.636 15.928 29.7042 16.6346 30.8495 16.7913C31.5162 16.8824 32 17.3879 32 17.9934V18.784C32 19.4545 31.3951 19.9994 30.6513 19.9994V20ZM1.31384 18.7184C1.32298 18.7206 1.33498 18.7223 1.34869 18.7223H30.6513C30.665 18.7223 30.677 18.7206 30.6862 18.7184V18.0607C30.6804 18.059 30.6742 18.0579 30.6662 18.0568C27.5695 17.6335 25.2343 14.377 25.2343 10.4822C25.2343 6.58741 27.5695 3.33093 30.6662 2.90762C30.6736 2.90651 30.6804 2.90539 30.6862 2.90373V1.2816C30.677 1.27937 30.665 1.27771 30.6513 1.27771H1.34869C1.33498 1.27771 1.32298 1.27937 1.31384 1.2816V2.42153C1.31955 2.4232 1.32584 2.42431 1.33383 2.42542C4.4305 2.84873 6.7657 6.10522 6.7657 10C6.7657 13.8948 4.4305 17.1513 1.33383 17.5746C1.32641 17.5757 1.31955 17.5768 1.31384 17.5785V18.7184Z" fill="#452702" fill-opacity="0.89"/>
<path d="M16.0003 12.8342L15.0446 11.9321L13.7125 11.9126L13.6925 10.6177L12.7648 9.68829L13.6925 8.7589L13.7125 7.46397L15.0446 7.44453L16.0003 6.54236L16.956 7.44453L18.2881 7.46397L18.3081 8.7589L19.2358 9.68829L18.3081 10.6177L18.2881 11.9126L16.956 11.9321L16.0003 12.8342ZM14.1626 11.4749L15.2326 11.4904L16.0003 12.2148L16.768 11.4904L17.838 11.4749L17.8539 10.4344L18.5988 9.68774L17.8539 8.94111L17.838 7.90062L16.768 7.88506L16.0003 7.16066L15.2326 7.88506L14.1626 7.90062L14.1466 8.94111L13.4017 9.68774L14.1466 10.4344L14.1626 11.4749Z" fill="#452702" fill-opacity="0.89"/>
<path d="M23.3944 15.4614H8.60565C7.86533 15.4614 7.26325 14.8759 7.26325 14.1559V5.22028C7.26325 4.50032 7.86533 3.91479 8.60565 3.91479H23.3944C24.1347 3.91479 24.7368 4.50032 24.7368 5.22028V14.1559C24.7368 14.8759 24.1347 15.4614 23.3944 15.4614ZM8.60565 5.1925C8.59137 5.1925 8.57709 5.20639 8.57709 5.22028V14.1559C8.57709 14.1698 8.59137 14.1837 8.60565 14.1837H23.3944C23.4086 14.1837 23.4229 14.1698 23.4229 14.1559V5.22028C23.4229 5.20639 23.4086 5.1925 23.3944 5.1925H8.60565Z" fill="#452702" fill-opacity="0.89"/>
<path d="M11.8588 4.69531H10.545V14.6803H11.8588V4.69531Z" fill="#452702" fill-opacity="0.89"/>
<path d="M21.6595 4.55359H20.3457V14.8225H21.6595V4.55359Z" fill="#452702" fill-opacity="0.89"/>
</g>
<defs>
<clipPath id="clip0_39_39">
<rect width="32" height="20" fill="white"/>
</clipPath>
</defs>
</svg>
