<svg width="29" height="29" viewBox="0 0 29 29" fill="none" xmlns="http://www.w3.org/2000/svg">
<path d="M3.98961 2.56201C4.49918 0.935001 5.45612 0.0814872 6.75672 0.0725965C8.05732 0.0637057 9.01722 0.911292 9.54161 2.54127H18.9421C18.9882 2.14534 19.1176 1.76368 19.3219 1.42143C19.5262 1.07918 19.8006 0.784108 20.1272 0.555662C20.6355 0.204746 21.2468 0.034642 21.8633 0.0725965C23.1579 0.134832 24.1119 1.03576 24.4556 2.5383L24.9889 2.56498C25.8575 2.60964 26.6761 2.9852 27.2766 3.61457C27.8771 4.24394 28.214 5.07937 28.2182 5.9494C28.2182 12.1868 28.2182 18.4271 28.2182 24.6704C28.2182 25.1165 28.1302 25.5582 27.9594 25.9703C27.7885 26.3824 27.5381 26.7567 27.2225 27.0719C26.9069 27.3871 26.5322 27.6369 26.12 27.8071C25.7077 27.9773 25.266 28.0645 24.82 28.0637C17.7531 28.0637 10.6872 28.0637 3.62224 28.0637C2.72278 28.059 1.8618 27.6981 1.22772 27.0599C0.593641 26.4217 0.238097 25.5583 0.238893 24.6585C0.238893 18.4291 0.238893 12.1986 0.238893 5.96718C0.240318 5.08962 0.579789 4.24638 1.18673 3.61275C1.79368 2.97912 2.62139 2.60386 3.49781 2.56498C3.65483 2.55608 3.82962 2.56201 3.98961 2.56201ZM2.1024 11.2839V24.4422C2.1024 25.5743 2.71863 26.1907 3.84444 26.1907H24.6333C25.7414 26.1907 26.3665 25.5684 26.3665 24.457V11.2839H2.1024ZM2.1024 9.38123H26.3606C26.3606 8.1958 26.3932 7.01036 26.3606 5.82492C26.3452 5.60707 26.2832 5.39507 26.1786 5.20337C26.074 5.01166 25.9294 4.84474 25.7545 4.71398C25.5796 4.58321 25.3787 4.49166 25.1653 4.44557C24.9519 4.39947 24.731 4.39991 24.5178 4.44686C24.5482 5.20707 24.2851 5.94984 23.7831 6.52137C23.5378 6.81254 23.2353 7.05014 22.8943 7.2194C22.5533 7.38866 22.1812 7.48597 21.8011 7.50528C21.202 7.5291 20.6136 7.34131 20.139 6.9748C19.7354 6.68668 19.4105 6.30181 19.1941 5.85549C18.9777 5.40916 18.8768 4.91565 18.9006 4.42018H9.5979C9.31941 6.36133 8.41284 7.41045 6.88412 7.50824C6.28518 7.53479 5.69592 7.3502 5.21911 6.98665C4.80935 6.70013 4.47874 6.31455 4.25806 5.8658C4.03739 5.41706 3.93383 4.91975 3.95702 4.42018C2.94083 4.3372 2.13795 4.94178 2.11425 5.84567C2.08759 7.02814 2.10536 8.1958 2.10536 9.38123H2.1024ZM7.71662 3.78005C7.71662 3.51036 7.71662 3.23771 7.71662 2.96506C7.70992 2.71058 7.61197 2.46699 7.44065 2.27874C7.26932 2.0905 7.03605 1.97015 6.78339 1.93966C6.53048 1.96956 6.29686 2.08973 6.12542 2.2781C5.95398 2.46647 5.85624 2.71039 5.85015 2.96506C5.85015 3.52814 5.85015 4.09122 5.85015 4.65431C5.85757 4.89958 5.95047 5.13455 6.11277 5.31856C6.27508 5.50256 6.49658 5.62402 6.73895 5.66193C7.11817 5.69749 7.57738 5.31222 7.68996 4.85583C7.70989 4.75835 7.71884 4.65894 7.71662 4.55947C7.71662 4.3046 7.71662 4.04381 7.71662 3.78005ZM22.6484 3.80968C22.6484 3.52814 22.6484 3.2466 22.6484 2.96506C22.6417 2.71058 22.5437 2.46699 22.3724 2.27874C22.2011 2.0905 21.9678 1.97015 21.7151 1.93966C21.462 1.96896 21.228 2.08895 21.0565 2.27745C20.8849 2.46595 20.7874 2.7102 20.7819 2.96506C20.7819 3.52814 20.7819 4.09122 20.7819 4.65431C20.7905 4.89924 20.8837 5.13362 21.0458 5.31739C21.208 5.50117 21.4288 5.62294 21.6707 5.66193C21.8945 5.64777 22.1077 5.56163 22.2785 5.41637C22.4494 5.2711 22.5687 5.07448 22.6187 4.85583C22.6397 4.75846 22.6496 4.65905 22.6484 4.55947C22.6365 4.31646 22.6336 4.06159 22.6336 3.80968H22.6484Z" fill="#573D1C"/>
<path d="M12.7265 19.6264C12.7864 19.5295 12.8538 19.4373 12.9279 19.3507C14.664 17.6082 16.4011 15.8685 18.1392 14.1319C18.2515 13.9968 18.3976 13.8941 18.5626 13.8342C18.7277 13.7743 18.9057 13.7594 19.0784 13.7911C19.2268 13.8211 19.3657 13.887 19.4827 13.9831C19.5998 14.0792 19.6916 14.2025 19.7501 14.3422C19.8085 14.482 19.8319 14.6339 19.8181 14.7848C19.8043 14.9356 19.7537 15.0808 19.6709 15.2077C19.5984 15.3147 19.515 15.414 19.422 15.504C17.4469 17.4797 15.4718 19.4555 13.4967 21.4312C12.9279 22.0002 12.4569 22.0002 11.891 21.4312C10.9074 20.4572 9.92774 19.4851 8.95204 18.515C8.81465 18.3964 8.71688 18.2385 8.67186 18.0626C8.62684 17.8867 8.63674 17.7012 8.70022 17.5311C8.74972 17.3668 8.84572 17.2203 8.97662 17.1093C9.10752 16.9984 9.26774 16.9277 9.43792 16.9058C9.5974 16.8819 9.76032 16.8987 9.91156 16.9547C10.0628 17.0106 10.1975 17.1039 10.303 17.2259C11.014 17.943 11.731 18.6573 12.445 19.3715C12.5191 19.4337 12.5961 19.5049 12.7265 19.6264Z" fill="#573D1C"/>
</svg>
