<svg width="43" height="36" viewBox="0 0 43 36" fill="none" xmlns="http://www.w3.org/2000/svg">
<path d="M17.6938 23.9595H13.6064C11.3559 23.9595 9.10533 23.9595 6.85477 23.9595C6.09529 24.0131 5.34395 23.7757 4.75475 23.2958C4.16555 22.8159 3.78312 22.13 3.68583 21.3785C2.78762 16.6919 1.90119 12.0053 1.02654 7.31873C0.982487 7.16383 0.976503 7.00066 1.00909 6.84297C1.04168 6.68529 1.11188 6.53771 1.21379 6.41267C1.31569 6.28764 1.44631 6.18882 1.59463 6.12454C1.74295 6.06025 1.90463 6.03239 2.06603 6.04331C3.69087 6.04331 5.31571 6.04331 6.94055 6.04331C7.15868 6.04117 7.37225 6.10544 7.55263 6.2275C7.73301 6.34955 7.87158 6.52357 7.94977 6.72621C8.77228 8.38326 9.61498 10.0353 10.4375 11.6873C10.4679 11.7938 10.5353 11.8861 10.6277 11.9477C10.7201 12.0093 10.8316 12.0363 10.9421 12.0237C13.117 12.0237 15.2918 12.0237 17.4616 12.0237C17.5373 12.0237 17.608 12.0237 17.724 11.9936C17.386 10.6429 17.058 9.32225 16.7148 7.97653L15.09 1.56928C14.8427 0.565008 15.2464 0.0628721 16.2607 0.0628721C18.0924 0.0628721 19.9191 0.0628721 21.7458 0.0628721C22.0265 0.0381065 22.3073 0.109132 22.5421 0.264271C22.7769 0.41941 22.9516 0.649428 23.0376 0.916503C24.5867 4.46158 26.1611 8.03176 27.7153 11.5919C27.7521 11.7296 27.8378 11.8493 27.9566 11.9287C28.0755 12.0081 28.2192 12.0419 28.3612 12.0237C29.9709 12.0237 31.5806 12.0237 33.1954 12.0237C35.3796 11.9567 37.5133 12.6847 39.1967 14.0713C40.88 15.458 41.9972 17.408 42.3389 19.5558C42.494 20.2032 42.5451 20.8709 42.4902 21.5342C42.3711 22.2362 41.9969 22.8702 41.4386 23.3156C40.8804 23.7609 40.1771 23.9865 39.4626 23.9495C35.7621 23.9495 32.0718 23.9495 28.3915 23.9495C28.2351 23.9303 28.077 23.9673 27.9456 24.0538C27.8142 24.1403 27.7182 24.2707 27.6749 24.4215C26.1611 27.9364 24.5716 31.4514 23.0376 35.0115C22.9443 35.2989 22.7544 35.5457 22.4999 35.7103C22.2453 35.8748 21.9417 35.9473 21.6398 35.9153C19.8384 35.8852 18.0419 35.9153 16.2455 35.9153C15.2363 35.9153 14.8225 35.4132 15.0698 34.4089L17.5928 24.2859C17.6324 24.179 17.6661 24.07 17.6938 23.9595ZM3.25691 8.02674C3.2492 8.13875 3.2492 8.25116 3.25691 8.36317C4.05419 12.5744 4.85147 16.7857 5.64876 20.9969C5.65128 21.1448 5.68567 21.2905 5.7496 21.4241C5.81353 21.5577 5.90551 21.6761 6.01935 21.7713C6.13318 21.8665 6.26621 21.9362 6.40946 21.9759C6.55271 22.0156 6.70284 22.0242 6.84972 22.0012C10.5031 22.0012 14.1615 22.0012 17.8149 22.0012C17.8742 22.0111 17.935 22.0087 17.9933 21.994C18.0517 21.9793 18.1063 21.9527 18.1538 21.9158C18.2012 21.879 18.2405 21.8327 18.269 21.78C18.2975 21.7273 18.3147 21.6692 18.3195 21.6095C18.5213 20.7308 18.7484 19.8621 18.9704 18.9884C19.1723 18.2151 19.475 17.9841 20.2622 17.9841H28.891C29.0422 17.9726 29.1941 17.9952 29.3353 18.0501C29.4765 18.1051 29.6034 18.191 29.7067 18.3015C29.81 18.412 29.8869 18.5442 29.9318 18.6883C29.9766 18.8324 29.9883 18.9848 29.9659 19.134C29.928 19.3087 29.8669 19.4775 29.7842 19.6361C29.4612 20.3893 29.1332 21.1425 28.775 21.9259C28.9718 21.9259 29.0878 21.956 29.2089 21.956H39.3011C39.4571 21.9584 39.6128 21.9432 39.7654 21.9108C40.0085 21.8758 40.2282 21.7474 40.3773 21.5531C40.5264 21.3587 40.5929 21.114 40.5626 20.8714C40.4481 19.7872 40.1423 18.7316 39.6594 17.7531C39.0513 16.5737 38.1154 15.5931 36.9631 14.9281C35.8108 14.2631 34.4907 13.9417 33.16 14.0022C25.5371 14.0022 17.9124 14.0022 10.2861 14.0022C10.0069 14.0277 9.72687 13.9622 9.48836 13.8154C9.24986 13.6687 9.06582 13.4487 8.96404 13.1887C8.18189 11.5819 7.36947 9.99009 6.55201 8.39832C6.47631 8.24768 6.29465 8.0418 6.15336 8.03678C5.2047 8.01168 4.23081 8.02674 3.25691 8.02674ZM17.28 33.9219C18.5566 33.9219 19.7576 33.9219 20.9586 33.9219C21.0753 33.9386 21.1943 33.9141 21.2947 33.8526C21.3952 33.7912 21.4709 33.6966 21.5086 33.5854C23.4463 29.16 25.3823 24.7445 27.3167 20.3391C27.3621 20.2337 27.3873 20.1131 27.4277 19.9826H20.782C19.6214 24.6073 18.4608 29.2219 17.28 33.9219ZM25.6464 11.9936C25.6545 11.942 25.6545 11.8895 25.6464 11.8379C24.247 8.65106 22.8441 5.47087 21.438 2.29738C21.4091 2.24001 21.3671 2.19016 21.3154 2.1518C21.2637 2.11344 21.2037 2.08763 21.1402 2.07644C19.8787 2.07644 18.6172 2.07644 17.285 2.07644C18.1227 5.40057 18.9452 8.69458 19.7778 11.9936H25.6464Z" fill="#97051D"/>
</svg>
