<?xml version="1.0" encoding="UTF-8"?>
<svg id="Layer_2" data-name="Layer 2" xmlns="http://www.w3.org/2000/svg" viewBox="0 0 739.54 738.12">
  <defs>
    <style>
      .cls-1 {
        fill: #992829;
      }
    </style>
  </defs>
  <g id="Layer_3" data-name="Layer 3">
    <path class="cls-1" d="M275.55,738.12h-18.75c-4.8-3.33-7.45-6.96-10.7-11.67-25.81-37.34-50.58-83.88-74.18-123.47-.88-1.47-1.67-3.04-1.7-4.8-17.42,13.42-32.12,35.04-49.02,48.34-21.79,17.16-46.95-.44-35.87-25.77l51.7-52.15L12.23,492.9l-12.23-13.02v-12.98c12.34-16.57,29.63-35.58,45.48-49.01,50.6-42.86,91.02-1.95,140.66,16.51,2.2.82,4.7,2.54,7.13,1.53l95.16-104.12-6.43-7.7L37.49,119.95c-8.67-15.71-.63-25.15,10.88-35.32,25.5-22.54,65.54-35.52,99.49-33.2,37.82,2.59,68.14,24.05,101.03,39.98,26.49-27.15,49.75-51.83,91.27-38.96,43.64,13.53,57.07,69.55,29.17,104.25l52.68,27.04c.94-.07,11.2-10.69,12.98-12.57,41.91-44.16,81.7-95.57,124.73-137.83,101.17-99.35,245.78,45.41,146.51,146.51-42.26,43.04-93.68,82.83-137.83,124.73-1.88,1.79-12.49,12.04-12.57,12.98l26.29,48.32c47.04-35.37,110.55.88,104.58,59.88-2.77,27.41-24.39,42-41.42,60.58,17.15,33.71,40.23,66.28,42.86,105.36,2.27,33.78-10.99,75.14-33.86,100.27-10.43,11.45-21.26,19.28-36.08,8.63l-202.74-243.05-7.7-6.43-104.12,95.16c9.82,39.69,48.67,80.23,33.63,122.98-3.07,8.72-9.63,17.78-15.58,24.81-13.02,15.37-30.95,30.82-46.13,44.04ZM628.69,44.6c-16.7,1.92-30.81,10.89-41.56,23.36-111.44,121.34-220.72,244.75-332.48,365.78-9.63,10.43-36.02,42.38-45.52,48.25-6.93,4.28-12.76,3.91-20.11,1.45-24.27-8.11-51.17-24.12-75.52-34.12-9.18-3.77-16.69-8.77-27.05-6.33-10.3,2.42-20.63,17.97-28.69,24.71l110.58,68.25c2.71.43,10.39-9.97,13.5-12.01,20.02-13.07,44.85,9.79,28.53,32.86-2.99,4.23-9.58,7.3-7.83,12.54l67.98,112.51c1.69.4,19.5-17.53,21.49-20.33,9.91-13.91,3.81-21.85-1.78-35.48-10-24.35-26.01-51.25-34.12-75.52-2.45-7.34-2.83-13.18,1.45-20.11,5.86-9.48,37.84-35.91,48.25-45.52,120.84-111.47,243.93-220.6,365.04-331.78,48.22-36.89,18.84-115.54-42.18-108.54ZM312.67,93.58c-8.37,1.74-16.14,13.84-22.66,19.14,4.62,3.62,36.14,21.56,39.35,20.73,1.37-.35,6.51-5.62,7.45-7.09,11.17-17.59-3.72-37.01-24.13-32.78ZM132.43,95.12c-14.37.88-29.55,5.34-41.51,13.27l227.19,189.69,74.27-80.05-211.53-113.04c-15.31-6.94-31.54-10.91-48.42-9.87ZM521.53,347.18l-80.05,74.27,189.69,227.19c14.72-23.02,16.92-52.97,7.95-78.62l-117.6-222.85ZM615.63,396.54c-3.25.67-12.68,6.67-12.36,10.22l20.69,38.47c6.29-7.43,17.53-13.95,19.14-24.13,2.64-16.76-11.29-27.91-27.47-24.56Z"/>
  </g>
</svg>