<svg width="40" height="25" viewBox="0 0 40 25" fill="none" xmlns="http://www.w3.org/2000/svg">
<path d="M37.6259 24.9996H2.37452C1.06512 24.9996 0 23.9718 0 22.7087C0 22.0666 0.271386 21.4767 0.763715 21.0473C1.22895 20.6418 1.86135 20.4183 2.54461 20.4183H37.796C38.9703 20.4183 40 21.4886 40 22.7092C40 23.9297 38.9349 25 37.6255 25L37.6259 24.9996ZM2.54461 22.0355C1.98808 22.0355 1.58413 22.3189 1.58413 22.7092C1.58413 23.0743 1.94597 23.3828 2.37452 23.3828H37.6259C38.0544 23.3828 38.4163 23.0743 38.4163 22.7092C38.4163 22.344 38.0695 22.0355 37.7964 22.0355H2.54461ZM37.0639 19.2438H2.93522L3.00192 18.3722C3.33542 14.0157 5.25096 9.97276 8.39545 6.98783C10.9075 4.6038 14.0241 3.0709 17.3653 2.54064C17.4491 1.11541 18.6043 0 19.9992 0C21.394 0 22.5509 1.11414 22.6342 2.54064C25.9751 3.07047 29.0916 4.6038 31.6033 6.9874C34.7482 9.97191 36.6637 14.0152 36.9972 18.3718L37.0639 19.2433V19.2438ZM4.67192 17.6266H35.3272C34.3059 9.8902 27.7334 3.95097 19.9992 3.95097C12.2649 3.95097 5.69326 9.8902 4.67192 17.6266ZM19.9608 1.67206C20.088 1.67206 20.2164 1.67376 20.346 1.67716C20.2372 1.63844 20.1209 1.61758 19.9996 1.61758C19.8783 1.61758 19.7666 1.63801 19.6598 1.67546C19.7607 1.67333 19.8612 1.67206 19.9608 1.67206Z" fill="#97051D"/>
</svg>
