<svg width="43" height="36" viewBox="0 0 43 36" fill="none" xmlns="http://www.w3.org/2000/svg">
<path d="M42.7451 23.6869C42.7533 23.4972 42.7224 23.3079 42.6543 23.1307C42.5862 22.9536 42.4824 22.7925 42.3494 22.6576C42.2164 22.5226 42.057 22.4168 41.8813 22.3466C41.7057 22.2764 41.5174 22.2434 41.3284 22.2496C40.7721 22.262 40.2309 22.0674 39.8088 21.7033C37.402 19.8723 34.9853 18.0659 32.5343 16.2546C29.4219 13.9607 27.2169 10.6361 26.3088 6.86818C25.9363 5.39156 25.9412 5.39156 26.848 4.21519C26.8766 4.18559 26.9013 4.15252 26.9216 4.11675C27.0625 3.81554 27.1662 3.49818 27.2304 3.17171C27.2794 2.51707 27.2304 1.8526 27.2304 1.20288C27.2555 1.04156 27.2428 0.876582 27.1932 0.721081C27.1436 0.56558 27.0585 0.42386 26.9447 0.307214C26.8309 0.190568 26.6916 0.102222 26.5378 0.049215C26.384 -0.00379224 26.22 -0.0199943 26.0588 0.00189897H19.4069C18.6618 0.00189897 17.9363 0.00189897 17.1814 0.00189897C16.9444 0.00670013 16.7182 0.102031 16.5488 0.268471C16.3794 0.434912 16.2795 0.659941 16.2696 0.897715C16.2206 2.37434 15.9804 3.94447 17.3284 5.08639C17.3284 5.08639 17.3529 5.08639 17.3529 5.11593C17.4135 5.24579 17.4484 5.38619 17.4559 5.52938C16.8597 9.57214 14.7443 13.2321 11.5441 15.7574C8.85784 17.8936 6.06373 19.9067 3.31863 21.9592C3.09349 22.1275 2.81984 22.2173 2.53922 22.2152C2.15709 22.1605 1.76798 22.243 1.44061 22.4484C1.11323 22.6537 0.868634 22.9686 0.75 23.3374V26.0593C0.863508 26.4309 1.10744 26.7484 1.43651 26.953C1.76557 27.1576 2.1574 27.2353 2.53922 27.1717C2.66546 27.1535 2.79411 27.1792 2.90379 27.2446C3.01347 27.31 3.09758 27.411 3.14216 27.531C4.05392 29.1848 4.98529 30.8288 5.90196 32.4826C6.44573 33.5703 7.28915 34.4784 8.33194 35.0987C9.37472 35.7191 10.573 36.0258 11.7843 35.9822C18.4314 35.9822 25.0752 35.9822 31.7157 35.9822C32.927 36.0258 34.1253 35.7191 35.1681 35.0987C36.2108 34.4784 37.0543 33.5703 37.598 32.4826C38.451 30.9469 39.3284 29.4309 40.152 27.8805C40.2353 27.649 40.3924 27.4516 40.599 27.319C40.8055 27.1864 41.0499 27.1259 41.2941 27.1471C41.4951 27.1611 41.6966 27.1307 41.8847 27.0583C42.0728 26.9858 42.2428 26.873 42.3829 26.7276C42.523 26.5823 42.6297 26.408 42.6957 26.2169C42.7616 26.0257 42.7852 25.8225 42.7647 25.6213V24.1446C42.75 23.9871 42.75 23.8395 42.7451 23.6869ZM17.4853 1.22749H25.5588C25.701 1.22749 25.848 1.22749 26.0147 1.22749C25.9974 1.49957 25.9974 1.77248 26.0147 2.04456C26.0836 2.43683 26.0543 2.84014 25.9293 3.21819C25.8044 3.59625 25.5878 3.93717 25.299 4.21027C25.2252 4.30414 25.1315 4.38026 25.0246 4.43306C24.9177 4.48586 24.8005 4.51401 24.6814 4.51543C22.8088 4.51543 20.9363 4.51543 19.0637 4.51543C18.8655 4.54707 18.6623 4.51683 18.4817 4.4288C18.3011 4.34078 18.1518 4.19921 18.0539 4.02323C17.8873 3.73283 17.5637 3.4818 17.5098 3.18155C17.4597 2.53141 17.4515 1.8787 17.4853 1.22749ZM25.4853 8.66474H18.0147C18.2206 7.75415 18.4216 6.84849 18.652 5.95268C18.652 5.86408 18.8922 5.77056 19.0245 5.76564C20.3873 5.76564 21.7549 5.76564 23.1176 5.76564C23.6078 5.76564 24.098 5.76564 24.5539 5.76564C24.6569 5.76564 24.8284 5.85916 24.848 5.94283C25.0735 6.84849 25.2745 7.74923 25.4853 8.66474ZM16.951 11.0519C17.4412 9.91494 17.4412 9.91494 18.6765 9.91494C20.9853 9.91494 23.2941 9.91494 25.6029 9.91494C25.7346 9.88982 25.8709 9.91677 25.9832 9.99014C26.0956 10.0635 26.1754 10.1777 26.2059 10.3087C26.3139 10.581 26.44 10.8458 26.5833 11.1012H16.9461C16.947 11.0847 16.9486 11.0683 16.951 11.0519ZM16.1275 12.4941C16.1814 12.4154 16.3431 12.3907 16.4559 12.3907C19.9788 12.3907 23.5033 12.3907 27.0294 12.3907C27.1116 12.3972 27.1917 12.4201 27.265 12.4582C27.3382 12.4962 27.4031 12.5486 27.4559 12.6122C27.7059 12.9272 27.9167 13.2767 28.0882 13.5376C27.4412 13.7738 26.8137 14.0298 26.1814 14.2267C26.0414 14.2647 25.8921 14.2471 25.7647 14.1775C25.1886 13.8411 24.5341 13.664 23.8676 13.664C23.2012 13.664 22.5467 13.8411 21.9706 14.1775C21.8888 14.2138 21.8003 14.2326 21.7108 14.2326C21.6213 14.2326 21.5328 14.2138 21.451 14.1775C20.8749 13.8411 20.2203 13.664 19.5539 13.664C18.8875 13.664 18.233 13.8411 17.6569 14.1775C17.5299 14.2432 17.3831 14.259 17.2451 14.2217C16.6324 14.0101 16.0343 13.7738 15.4069 13.5376C15.6127 13.2472 15.8676 12.8583 16.1275 12.4941ZM15.4461 14.9551C15.8606 15.019 16.2616 15.152 16.6324 15.3489C16.865 15.4936 17.1332 15.5703 17.4069 15.5703C17.6805 15.5703 17.9487 15.4936 18.1814 15.3489C18.5934 15.0723 19.0779 14.9247 19.5735 14.9247C20.0692 14.9247 20.5537 15.0723 20.9657 15.3489C21.1876 15.5004 21.4498 15.5814 21.7181 15.5814C21.9865 15.5814 22.2487 15.5004 22.4706 15.3489C22.8871 15.0675 23.3778 14.9171 23.8799 14.9171C24.382 14.9171 24.8727 15.0675 25.2892 15.3489C25.5038 15.5028 25.7608 15.5856 26.0245 15.5856C26.2882 15.5856 26.5453 15.5028 26.7598 15.3489C27.2689 15.0215 27.8756 14.8822 28.4757 14.9549C29.0759 15.0277 29.6322 15.3079 30.049 15.7476C30.3664 16.0814 30.7053 16.3939 31.0637 16.6828C30.7392 16.7812 30.3983 16.8128 30.0613 16.7756C29.7243 16.7384 29.3984 16.6332 29.1029 16.4662C28.8255 16.2648 28.4919 16.1564 28.1495 16.1564C27.8072 16.1564 27.4735 16.2648 27.1961 16.4662C26.8394 16.6918 26.4264 16.8115 26.0049 16.8115C25.5834 16.8115 25.1704 16.6918 24.8137 16.4662C24.5333 16.2723 24.2008 16.1685 23.8603 16.1685C23.5198 16.1685 23.1873 16.2723 22.9069 16.4662C22.541 16.7012 22.1157 16.8261 21.6814 16.8261C21.247 16.8261 20.8218 16.7012 20.4559 16.4662C20.1867 16.2786 19.8669 16.1781 19.5392 16.1781C19.2116 16.1781 18.8917 16.2786 18.6225 16.4662C18.2558 16.6989 17.8309 16.8224 17.3971 16.8224C16.9632 16.8224 16.5383 16.6989 16.1716 16.4662C15.9002 16.2681 15.5733 16.1614 15.2377 16.1614C14.9022 16.1614 14.5753 16.2681 14.3039 16.4662C14.0143 16.6292 13.6954 16.7331 13.3656 16.772C13.0359 16.8109 12.7017 16.7839 12.3824 16.6926C13.4167 15.9346 14.0147 14.7238 15.4461 14.9354V14.9551ZM6.06373 21.472L6.90196 20.8321L7.19118 20.6155L9.03431 19.2324L10.0147 18.5089C10.4265 18.1988 10.8235 17.9035 11.2255 17.6131C11.2843 17.5688 11.4314 17.6131 11.5245 17.6574C12.0707 17.9141 12.67 18.0365 13.2728 18.0142C13.8755 17.992 14.4642 17.8258 14.9902 17.5294C15.0834 17.4904 15.1834 17.4703 15.2843 17.4703C15.3853 17.4703 15.4852 17.4904 15.5784 17.5294C16.1393 17.85 16.7737 18.0186 17.4191 18.0186C18.0646 18.0186 18.6989 17.85 19.2598 17.5294C19.3558 17.4681 19.4671 17.4355 19.5809 17.4355C19.6946 17.4355 19.806 17.4681 19.902 17.5294C20.4588 17.8569 21.0924 18.0295 21.7377 18.0295C22.3831 18.0295 23.0167 17.8569 23.5735 17.5294C23.6691 17.4669 23.7806 17.4336 23.8946 17.4336C24.0086 17.4336 24.1202 17.4669 24.2157 17.5294C24.7683 17.8509 25.3956 18.0202 26.0343 18.0202C26.673 18.0202 27.3003 17.8509 27.8529 17.5294C27.9539 17.4645 28.0713 17.43 28.1912 17.43C28.3111 17.43 28.4284 17.4645 28.5294 17.5294C29.0489 17.8263 29.6321 17.993 30.2295 18.0152C30.8269 18.0375 31.4208 17.9147 31.9608 17.6574C32.0245 17.6308 32.0928 17.6172 32.1618 17.6172C32.2307 17.6172 32.299 17.6308 32.3627 17.6574C32.7108 17.9035 33.0539 18.1496 33.3922 18.4153L34.3726 19.1684L36.9902 21.1373L37.402 21.4473L38.4167 22.2053C38.1814 22.2053 38.049 22.2053 37.9265 22.2053H5.19118C5.19118 22.1758 5.19118 22.1463 5.15686 22.1217C5.45588 21.9297 5.77451 21.7082 6.06373 21.472ZM38.8088 27.7968L38.6765 28.0331L37.7598 29.6672C37.6961 29.7656 37.6324 29.869 37.5735 29.9724L37.2255 30.5975C36.779 31.6009 36.1712 32.5238 35.4265 33.3292C34.4377 34.2625 33.1213 34.7651 31.7647 34.7271C25.0882 34.7435 18.4167 34.7435 11.75 34.7271C10.7656 34.7632 9.79174 34.5129 8.94559 34.0065C8.09945 33.5 7.41702 32.7589 6.98039 31.8723C6.76961 31.4834 6.54902 31.0946 6.32843 30.6959L6.03922 30.2037L5.7402 29.6721L5.08333 28.4957L4.90686 28.1807L4.63235 27.6885L4.53922 27.5163C4.48039 27.4178 4.41667 27.3095 4.34804 27.1816H39.152C39.0245 27.3981 38.9069 27.6048 38.8039 27.7968H38.8088ZM41.1422 25.9412C41.0196 25.9412 40.8971 25.9412 40.7745 25.9412H16.6912C16.598 25.9412 16.5098 25.9412 16.4216 25.9412H2.57843C1.98039 25.9412 1.98039 25.9412 1.98039 25.3505C1.98039 24.8583 1.98039 24.3661 1.98039 23.8739C1.98039 23.5638 2.09314 23.4506 2.39216 23.4703C2.52451 23.4703 2.66176 23.4703 2.79902 23.4703H40.9755C41.5196 23.4703 41.5196 23.4703 41.5196 24.0216C41.5196 24.5729 41.5196 25.0355 41.5196 25.5474C41.5294 25.8329 41.4167 25.951 41.1373 25.9412H41.1422Z" fill="#97051D"/>
</svg>
