<?xml version="1.0" encoding="UTF-8"?>
<!DOCTYPE svg PUBLIC "-//W3C//DTD SVG 1.1//EN" "http://www.w3.org/Graphics/SVG/1.1/DTD/svg11.dtd">
<svg xmlns="http://www.w3.org/2000/svg" version="1.1" width="3840px" height="2160px" style="shape-rendering:geometricPrecision; text-rendering:geometricPrecision; image-rendering:optimizeQuality; fill-rule:evenodd; clip-rule:evenodd" xmlns:xlink="http://www.w3.org/1999/xlink">
<g><path style="opacity:0.997" fill="#000000" d="M 287.5,405.5 C 360.833,405.5 434.167,405.5 507.5,405.5C 474.25,567.584 439.917,729.418 404.5,891C 531.168,891.833 657.835,891.667 784.5,890.5C 819.167,729.167 853.833,567.833 888.5,406.5C 961.164,405.5 1033.83,405.167 1106.5,405.5C 1033.25,753.603 959.412,1101.6 885,1449.5C 848.571,1450.17 812.071,1450.5 775.5,1450.5C 738.691,1450.66 702.024,1450.16 665.5,1449C 691.354,1329.56 717.021,1210.06 742.5,1090.5C 615.932,1089.83 489.432,1089.17 363,1088.5C 337.178,1209.12 311.678,1329.78 286.5,1450.5C 212.833,1450.5 139.167,1450.5 65.5,1450.5C 139.196,1102.37 213.196,754.034 287.5,405.5 Z"/></g>
<g><path style="opacity:0.997" fill="#000000" d="M 2653.5,405.5 C 2726.5,405.333 2799.5,405.5 2872.5,406C 2859.08,470.525 2845.41,535.025 2831.5,599.5C 2908.16,600.5 2984.83,600.833 3061.5,600.5C 3060.66,607.875 3059.49,615.209 3058,622.5C 3045.18,681.114 3032.68,739.78 3020.5,798.5C 2943.5,798.5 2866.5,798.5 2789.5,798.5C 2765.94,909.141 2742.44,1019.81 2719,1130.5C 2713.41,1155.6 2711.75,1180.94 2714,1206.5C 2717.31,1228.79 2728.81,1245.29 2748.5,1256C 2769.67,1265.57 2791.84,1271.07 2815,1272.5C 2849.89,1273.64 2884.72,1271.64 2919.5,1266.5C 2908.25,1327.59 2895.75,1388.59 2882,1449.5C 2812.02,1470.2 2741.85,1470.7 2671.5,1451C 2623.02,1437.18 2581.52,1412.02 2547,1375.5C 2530.49,1355.61 2518.16,1333.28 2510,1308.5C 2495.43,1265.37 2490.27,1221.54 2494.5,1177C 2496.07,1165.89 2497.57,1154.73 2499,1143.5C 2507.36,1098.04 2516.36,1052.71 2526,1007.5C 2568.83,806.873 2611.33,606.206 2653.5,405.5 Z"/></g>
<g><path style="opacity:0.997" fill="#000000" d="M 1544.5,584.5 C 1596.96,584.911 1647.96,593.744 1697.5,611C 1802.46,651.345 1863.96,727.178 1882,838.5C 1893.22,923.914 1886.55,1007.91 1862,1090.5C 1672.8,1090.83 1483.47,1090.5 1294,1089.5C 1287.25,1126.52 1289.92,1162.85 1302,1198.5C 1317.61,1236.11 1345.11,1260.27 1384.5,1271C 1421.8,1280.29 1459.47,1281.95 1497.5,1276C 1560.08,1267.25 1619.08,1247.92 1674.5,1218C 1680.01,1214.48 1685.51,1210.98 1691,1207.5C 1720.53,1256.06 1749.7,1304.89 1778.5,1354C 1726.82,1391.51 1670.15,1419.51 1608.5,1438C 1534.8,1459.69 1460.3,1468.86 1385,1465.5C 1337.18,1462.17 1291.68,1451 1248.5,1432C 1173.64,1393.84 1124.48,1334.67 1101,1254.5C 1083.87,1191.16 1079.7,1127 1088.5,1062C 1096.06,994.842 1113.9,929.675 1142,866.5C 1166.8,810.518 1199.8,760.185 1241,715.5C 1325.57,633.981 1426.73,590.314 1544.5,584.5 Z M 1529.5,759.5 C 1566.25,756.913 1600.92,764.079 1633.5,781C 1667.48,803.078 1685.98,834.578 1689,875.5C 1689.88,886.883 1689.55,898.217 1688,909.5C 1572.67,908.167 1457.33,908.167 1342,909.5C 1347.83,888.83 1357.17,869.83 1370,852.5C 1409.27,797.736 1462.44,766.736 1529.5,759.5 Z"/></g>
<g><path style="opacity:0.997" fill="#000000" d="M 2370.5,585.5 C 2420.02,583.419 2469.02,588.419 2517.5,600.5C 2503.61,666.136 2489.77,731.803 2476,797.5C 2475.28,798.059 2474.44,798.392 2473.5,798.5C 2441.55,795.249 2409.55,794.749 2377.5,797C 2338.24,799.521 2303.57,813.187 2273.5,838C 2256.43,854.418 2243.26,873.585 2234,895.5C 2222.53,923.371 2213.53,952.038 2207,981.5C 2173.5,1137.51 2140,1293.51 2106.5,1449.5C 2033.5,1450.83 1960.5,1450.83 1887.5,1449.5C 1924.19,1278.22 1960.69,1106.88 1997,935.5C 2006.53,893.233 2019.87,852.233 2037,812.5C 2084.52,709 2162.35,639.5 2270.5,604C 2303.32,594.266 2336.66,588.1 2370.5,585.5 Z"/></g>
<g><path style="opacity:0.996" fill="#000000" d="M 3839.5,600.5 C 3839.5,601.5 3839.5,602.5 3839.5,603.5C 3826.47,665.49 3812.97,727.49 3799,789.5C 3634.51,943.662 3470.34,1098.16 3306.5,1253C 3438.17,1253.33 3569.83,1253.67 3701.5,1254C 3687.18,1319.41 3673.18,1384.91 3659.5,1450.5C 3432.83,1450.5 3206.17,1450.5 2979.5,1450.5C 2991.88,1386.97 3005.22,1323.64 3019.5,1260.5C 3182.96,1106.88 3346.29,953.044 3509.5,799C 3378.83,798.5 3248.17,798.333 3117.5,798.5C 3131.66,732.872 3145.66,667.205 3159.5,601.5C 3386.17,600.5 3612.83,600.167 3839.5,600.5 Z"/></g>
<g><path style="opacity:0.988" fill="#4c4c4e" d="M 3839.5,1369.5 C 3839.5,1374.17 3839.5,1378.83 3839.5,1383.5C 3833.83,1412.36 3817.49,1432.86 3790.5,1445C 3769.85,1453.67 3750.19,1452 3731.5,1440C 3714.3,1422.67 3710.13,1402.5 3719,1379.5C 3736.25,1340.91 3765.75,1324.74 3807.5,1331C 3825.74,1337.72 3836.4,1350.55 3839.5,1369.5 Z M 3785.5,1337.5 C 3811.37,1337.22 3826.37,1349.72 3830.5,1375C 3826.38,1408.75 3807.72,1430.42 3774.5,1440C 3757.1,1443.53 3742.6,1438.7 3731,1425.5C 3723.52,1411.66 3722.52,1397.33 3728,1382.5C 3739.46,1357.52 3758.63,1342.52 3785.5,1337.5 Z M 3770.5,1372.5 C 3776.18,1372.33 3781.84,1372.5 3787.5,1373C 3791.99,1378.69 3790.99,1383.36 3784.5,1387C 3778.56,1387.83 3772.9,1388.33 3767.5,1388.5C 3768.5,1383.17 3769.5,1377.83 3770.5,1372.5 Z"/></g>
<g><path style="opacity:0.988" fill="#4f5052" d="M 3759.5,1359.5 C 3771.21,1359.14 3782.88,1359.64 3794.5,1361C 3801.78,1363.11 3805.44,1367.94 3805.5,1375.5C 3805.03,1382.93 3802.03,1389.1 3796.5,1394C 3793.96,1395.43 3791.63,1397.1 3789.5,1399C 3792.44,1404.88 3795.11,1410.88 3797.5,1417C 3797.37,1418.06 3796.87,1418.89 3796,1419.5C 3791.22,1418.86 3786.38,1418.19 3781.5,1417.5C 3778.9,1412.21 3776.4,1406.88 3774,1401.5C 3770.94,1400.55 3767.78,1400.22 3764.5,1400.5C 3763.56,1406.44 3762.22,1412.28 3760.5,1418C 3756.25,1418.2 3752.08,1418.7 3748,1419.5C 3747.5,1419 3747,1418.5 3746.5,1418C 3751.07,1398.57 3755.4,1379.07 3759.5,1359.5 Z M 3770.5,1372.5 C 3769.5,1377.83 3768.5,1383.17 3767.5,1388.5C 3772.9,1388.33 3778.56,1387.83 3784.5,1387C 3790.99,1383.36 3791.99,1378.69 3787.5,1373C 3781.84,1372.5 3776.18,1372.33 3770.5,1372.5 Z"/></g>
<g><path style="opacity:0.998" fill="#fed000" d="M -0.5,1753.5 C -0.5,1752.17 -0.5,1750.83 -0.5,1749.5C 14.196,1686.03 28.5293,1622.37 42.5,1558.5C 1240.5,1558.17 2438.5,1558.5 3636.5,1559.5C 3622.64,1623.99 3608.97,1688.49 3595.5,1753C 2396.83,1753.5 1198.17,1753.67 -0.5,1753.5 Z"/></g>
</svg>
