<svg width="34" height="34" viewBox="0 0 34 34" fill="none" xmlns="http://www.w3.org/2000/svg">
<path d="M31.7896 9.93205C27.9142 7.29647 23.3179 4.1767 18.6539 1.05693C18.0936 0.661893 17.4302 0.444123 16.7478 0.431152C16.0748 0.44245 15.4205 0.65717 14.8687 1.0478C10.3625 4.05337 5.89681 7.09092 1.69701 9.94576C1.21976 10.2557 0.830125 10.6859 0.566282 11.1944C0.30244 11.7028 0.173441 12.2721 0.191926 12.8463C0.191926 16.5949 0.191926 20.3465 0.191926 24.1012V30.2402C0.185392 30.7123 0.290867 31.179 0.499469 31.6011C0.70807 32.0232 1.01369 32.3883 1.39058 32.6657C2.20103 33.2899 3.19866 33.6125 4.21598 33.5792H19.5687C22.7741 33.5792 25.978 33.5792 29.1805 33.5792C29.6763 33.5836 30.1709 33.5284 30.654 33.4148C32.2627 33.0265 33.3082 31.7841 33.3082 30.2585C33.3082 24.4727 33.3082 18.6869 33.3082 12.9011C33.334 12.3147 33.2073 11.7317 32.9408 11.2106C32.6742 10.6895 32.2772 10.2486 31.7896 9.93205ZM19.4921 30.9437C19.4964 30.9831 19.4964 31.023 19.4921 31.0624L19.456 31.2634H14.0486V23.2744C14.0486 22.2832 14.4992 21.8173 15.4906 21.8173H16.1304C16.8424 21.8173 17.5544 21.8173 18.2709 21.8173C18.4374 21.8089 18.6039 21.8358 18.7595 21.8963C18.9152 21.9568 19.0568 22.0495 19.1751 22.1686C19.2934 22.2877 19.3859 22.4305 19.4467 22.5878C19.5075 22.7452 19.5352 22.9137 19.5281 23.0826C19.5281 25.1015 19.5281 27.1205 19.5281 29.1394L19.4921 30.9437ZM31.0731 26.1293V29.989C31.1147 30.2349 31.061 30.4875 30.9233 30.6943C30.7857 30.9011 30.5746 31.0461 30.3341 31.099C30.0459 31.21 29.7411 31.2702 29.4328 31.2771C27.4711 31.2771 25.5094 31.2771 23.5477 31.2771H21.9705L21.7272 31.2497V24.9508C21.7272 24.7361 21.7272 24.494 21.7272 24.2976C21.7489 23.7601 21.7414 23.2218 21.7046 22.6852C21.6544 21.9156 21.339 21.1884 20.8135 20.6306C20.288 20.0729 19.5858 19.7201 18.8297 19.6339C17.4289 19.4877 16.0171 19.4877 14.6163 19.6339C13.8168 19.7481 13.0867 20.1568 12.5656 20.782C12.0444 21.4072 11.7686 22.205 11.7909 23.0232C11.7909 24.8046 11.7909 26.586 11.7909 28.3675V31.2908H4.26105C4.00844 31.2916 3.75637 31.2671 3.50851 31.2177C2.67936 31.035 2.42701 30.7153 2.42701 29.8474V26.1658C2.42701 21.8082 2.42701 17.4536 2.42701 13.1021C2.41181 12.8175 2.47394 12.5341 2.60663 12.2828C2.73932 12.0315 2.93749 11.8219 3.17955 11.6769L12.8634 5.11765L15.8465 3.08044C16.0876 2.85639 16.4027 2.7321 16.7298 2.7321C17.0568 2.7321 17.372 2.85639 17.613 3.08044L21.7452 5.87133L30.3656 11.6769C30.596 11.8185 30.7842 12.0206 30.9104 12.2619C31.0365 12.5031 31.0959 12.7745 31.0821 13.0473C31.0731 17.4079 31.0701 21.7686 31.0731 26.1293Z" fill="#97051D"/>
</svg>
