<svg width="27" height="29" viewBox="0 0 27 29" fill="none" xmlns="http://www.w3.org/2000/svg">
<path d="M26.3747 12.7661C26.3498 12.1524 26.0864 11.5726 25.6405 11.1502C21.9824 7.7141 18.3243 4.28179 14.6662 0.853252C14.4816 0.646371 14.2554 0.480835 14.0023 0.367492C13.7493 0.254149 13.4752 0.195557 13.1979 0.195557C12.9206 0.195557 12.6465 0.254149 12.3935 0.367492C12.1404 0.480835 11.9142 0.646371 11.7296 0.853252C8.07149 4.28179 4.41338 7.7141 0.755264 11.1502C0.301686 11.5694 0.0300509 12.1493 -0.00158691 12.7661V13.2656V24.9514C-0.00158691 26.9797 1.08828 28.0696 3.10907 28.0696H23.2716C25.2886 28.0696 26.3747 26.9797 26.3784 24.9514V12.7661H26.3747ZM9.72394 20.9174C9.72394 19.996 10.0899 19.1124 10.7414 18.4609C11.3929 17.8094 12.2765 17.4434 13.1979 17.4434C14.1192 17.4434 15.0028 17.8094 15.6543 18.4609C16.3058 19.1124 16.6718 19.996 16.6718 20.9174C16.6718 22.204 16.6718 23.4944 16.6718 24.7811V25.8331H9.72394V24.7811C9.72394 23.4944 9.70881 22.204 9.72773 20.9174H9.72394ZM24.1344 16.5541C24.1344 19.3772 24.1344 22.2002 24.1344 25.0233C24.1344 25.678 23.9906 25.8255 23.3435 25.8293C22.6964 25.8331 22.0795 25.8293 21.4513 25.8293H18.4239C18.4239 24.1756 18.4239 22.5786 18.4239 20.9817C18.4299 20.5613 18.3918 20.1415 18.3104 19.7291C18.1251 18.8634 17.7195 18.0602 17.1327 17.3973C16.546 16.7343 15.7981 16.234 14.9614 15.9449C13.8385 15.5413 12.6102 15.5413 11.4874 15.9449C10.6514 16.2346 9.90421 16.7351 9.31819 17.398C8.73216 18.0609 8.32709 18.8638 8.14213 19.7291C8.0582 20.1413 8.01761 20.5611 8.02103 20.9817C8.02103 22.5786 8.02103 24.1756 8.02103 25.8293H3.1015C2.45061 25.8293 2.30681 25.678 2.30681 25.0233V12.8153L13.2017 2.54481L24.1344 12.8153V16.5541Z" fill="#573D1C"/>
</svg>
