<svg width="30" height="36" viewBox="0 0 30 36" fill="none" xmlns="http://www.w3.org/2000/svg">
<g clip-path="url(#clip0_1028_4212)">
<path d="M29.3218 23.9623C29.2248 23.3479 28.5748 22.8597 27.7612 22.794C27.699 22.789 27.6367 22.7856 27.5745 22.7856H27.3646C27.505 22.5769 27.6367 22.3665 27.7627 22.1544C31.7769 15.3689 27.9103 7.11217 22.5758 3.49639C22.5078 3.44925 22.4426 3.40717 22.3847 3.36845C20.2784 1.94604 17.7755 0.601063 15.0771 0.129732L14.9251 0.102798L14.7731 0.129732C12.0747 0.601063 9.49941 1.94604 7.39312 3.36845C7.33521 3.40885 7.27152 3.45094 7.20348 3.49639C1.71842 7.15762 -1.64441 15.2224 2.09625 22.0854C2.283 22.4288 2.48711 22.7654 2.71005 23.097H2.51462C2.36985 23.097 2.23088 23.1122 2.0977 23.1358C1.32756 23.2788 0.752855 23.804 0.752855 24.4302L0.638493 34.3989C0.638493 34.4242 0.641388 34.4494 0.644283 34.4763C0.697845 35.1766 1.46364 35.7338 2.4017 35.7338H2.55515C2.67965 35.7472 2.80559 35.7557 2.92864 35.7557H10.8616V28.8052C10.8283 27.3525 11.6839 26.1035 12.8521 25.8897C14.1217 25.7281 15.4086 25.7298 16.6695 25.8897C17.774 26.0445 18.6281 27.1454 18.7005 28.5106C18.7324 29.0931 18.7396 29.6856 18.7208 30.2697V34.707V35.6058L19.6531 35.7338L19.6907 35.7388H26.8246C26.8463 35.7388 26.868 35.7355 26.8883 35.7338H27.395C28.3663 35.7338 29.1567 35.1345 29.1567 34.3989L29.3377 24.1171C29.3377 24.0633 29.3319 24.0111 29.3246 23.9589L29.3218 23.9623ZM16.8302 23.9C15.4535 23.7232 14.0565 23.7232 12.6798 23.9L12.6523 23.9034C10.6894 24.2468 9.24897 26.3711 9.29819 28.8473V33.7542H2.93588C2.74624 33.7542 2.56094 33.7323 2.37854 33.6885C2.08612 33.6077 2.01953 33.537 2.02242 33.5404C2.02098 33.537 2.0036 33.4933 1.99202 33.3603L2.10639 24.4336C2.10639 24.267 2.29313 24.1256 2.51317 24.1256H5.04217C5.04217 24.1256 4.43706 23.3512 4.43706 23.3495C2.23378 20.5266 1.62433 16.2156 2.24825 12.5779C2.9185 8.67598 5.20865 6.20486 8.101 4.26735C8.17194 4.22022 8.23708 4.17645 8.29643 4.13605C9.48349 3.3331 10.8211 2.67661 12.2485 2.19012C13.1011 1.89891 13.9856 1.66829 14.8904 1.50164C15.6533 1.64136 16.4031 1.82821 17.1298 2.05714C18.7078 2.55541 20.1843 3.25735 21.4829 4.13605C21.5422 4.17645 21.6074 4.22022 21.6783 4.26735C25.2727 6.64421 27.9248 10.1489 27.7279 15.1787C27.6338 17.5841 27.0707 21.1595 25.6361 23.0398L25.031 23.8141H27.5745C27.6411 23.8141 27.7048 23.8276 27.7612 23.8512C27.7612 26.085 27.5803 26.5428 27.5817 28.7614V33.3334L27.5933 33.4192C27.602 33.4781 27.5614 33.5387 27.5006 33.5539L27.4442 33.569L27.3906 33.5943C27.201 33.6835 27.0012 33.7323 26.7971 33.739H20.2799V30.3354C20.3001 29.6822 20.2929 29.0207 20.2567 28.3726C20.1322 26.0412 18.6947 24.1592 16.8287 23.9H16.8302Z" fill="#97051D"/>
</g>
<defs>
<clipPath id="clip0_1028_4212">
<rect width="28.9091" height="35.6545" fill="white" transform="translate(0.512695 0.102798)"/>
</clipPath>
</defs>
</svg>
