<svg width="23" height="22" viewBox="0 0 23 22" fill="none" xmlns="http://www.w3.org/2000/svg">
<path d="M21.2725 2.86037V19.4163C23.2707 19.1095 23.705 21.8301 21.6676 21.9993L1.0616 21.99C-0.691285 21.5098 -0.122204 19.1454 1.66134 19.4163V2.86037C-0.198509 3.03238 -0.662759 0.505994 1.13291 0L21.9878 0.0272348C23.6893 0.701655 23.1031 3.07825 21.2725 2.86037ZM1.21278 0.868647C0.665096 1.1668 0.762082 1.93797 1.41032 2.00248L21.776 1.96879C22.3344 1.71508 22.2217 0.905199 21.5956 0.85288L1.21278 0.869364V0.868647ZM20.4168 2.86037H2.62408V19.4163H20.4168V2.86037ZM1.14147 20.2914C0.719294 20.4964 0.794886 21.0833 1.26555 21.14H21.597C22.3265 21.1421 22.3294 20.272 21.597 20.2727L1.14147 20.2914Z" fill="white"/>
<path d="M4.13901 3.73764C4.70738 3.63587 6.72341 3.65235 7.331 3.72044C7.56918 3.74696 7.87583 3.81648 7.86941 4.11105C7.78099 5.21692 7.97567 6.47187 7.87013 7.5584C7.84445 7.82573 7.83732 7.91389 7.5485 7.95187C6.84036 8.04504 4.85143 8.02498 4.11833 7.95259C3.71113 7.91245 3.69045 7.72038 3.65622 7.34196C3.59132 6.62023 3.57991 5.03775 3.65907 4.32892C3.69758 3.98634 3.78173 3.80071 4.13972 3.73693L4.13901 3.73764ZM7.01009 4.65216L6.32976 4.59769L6.22564 4.68799V7.08896H7.01009V4.65216ZM5.36988 4.65216H4.51412C4.48702 4.73028 4.58543 4.80912 4.58543 4.83134V7.08896H5.36988V4.65216Z" fill="white"/>
<path d="M4.06626 13.9851C5.11671 14.0474 6.37967 13.8489 7.40444 13.9679C7.56418 13.9865 7.68613 14.0252 7.80023 14.1435L7.79666 18.0925C7.679 18.1864 7.54778 18.1893 7.40587 18.2015C6.58148 18.2717 5.01116 18.2753 4.19035 18.2015C3.74036 18.1606 3.69186 18.0287 3.65621 17.5915C3.59488 16.8447 3.57348 15.2307 3.65763 14.5054C3.6883 14.2402 3.80525 14.0639 4.06697 13.9851H4.06626ZM5.36987 14.8293H4.58542V17.1586C4.58542 17.1766 4.52766 17.2009 4.53051 17.2303L4.62964 17.3292L5.36987 17.3378V14.8293ZM7.01008 14.8293H6.22563V17.3378H7.01008V14.8293Z" fill="white"/>
<path d="M7.77812 8.96959L7.80023 12.9358C7.66402 13.082 7.52068 13.0964 7.33455 13.1129C6.62213 13.1781 4.8015 13.2032 4.11832 13.1129C3.78243 13.0684 3.68259 12.804 3.65478 12.5037C3.58775 11.7719 3.57776 10.1371 3.65621 9.41681C3.67403 9.25269 3.73964 9.11078 3.8188 8.97102L7.77741 8.96887L7.77812 8.96959ZM5.36987 9.74076C5.19444 9.77087 4.57116 9.65118 4.52266 9.854L4.57829 12.2069L5.37058 12.25V9.74148L5.36987 9.74076ZM7.01008 9.74076H6.22563V12.2492H7.01008V9.74076Z" fill="white"/>
<path d="M15.5491 3.73762C16.1147 3.63585 18.1357 3.65305 18.7411 3.72042C18.9793 3.74693 19.286 3.81645 19.2795 4.11102C19.1911 5.2169 19.3858 6.47185 19.2803 7.55838C19.2546 7.82571 19.2475 7.91386 18.9586 7.95185C18.3211 8.0357 16.0933 8.03642 15.4571 7.95185C15.1812 7.9153 15.097 7.74759 15.0671 7.48384C14.9879 6.79508 14.9879 4.94455 15.0671 4.25508C15.1027 3.94331 15.2418 3.79137 15.5491 3.73618V3.73762ZM16.78 4.65213H15.9242V7.08893H16.78V4.65213ZM18.4202 4.65213H17.6358V7.08893H18.4202V4.65213Z" fill="white"/>
<path d="M9.84409 3.73764C10.4125 3.63587 12.4285 3.65235 13.0361 3.72044C13.2743 3.74696 13.5809 3.81648 13.5745 4.11105C13.4861 5.21692 13.6807 6.47187 13.5752 7.5584C13.5495 7.82573 13.5424 7.91389 13.2536 7.95187C12.5454 8.04504 10.5565 8.02498 9.82341 7.95259C9.41621 7.91245 9.39553 7.72038 9.3613 7.34196C9.2964 6.62023 9.28499 5.03775 9.36415 4.32892C9.40266 3.98634 9.48681 3.80071 9.8448 3.73693L9.84409 3.73764ZM11.075 4.65216L10.3233 4.59769L10.2192 4.68799V7.08896H11.075V4.65216ZM12.7152 4.65216H11.9307V7.08896H12.7152V4.65216Z" fill="white"/>
<path d="M19.1883 8.96956L19.2104 12.9358C19.0742 13.082 18.9308 13.0964 18.7447 13.1128C18.0323 13.1781 16.2117 13.2031 15.5285 13.1128C15.1926 13.0684 15.0928 12.8039 15.0649 12.5036C14.9979 11.7719 14.9829 10.0604 15.0671 9.34511C15.1106 8.97171 15.2553 8.90864 15.5998 8.8771C16.4242 8.80113 17.9845 8.80973 18.8153 8.8771C18.9458 8.88786 19.077 8.88785 19.1876 8.96884L19.1883 8.96956ZM16.78 9.74074H15.9243V12.1417C16.1311 12.3517 16.5048 12.2119 16.78 12.2492V9.74074ZM18.4202 9.74074H17.6358V12.2492H18.4202V9.74074Z" fill="white"/>
<path d="M13.4832 8.96957L13.5053 12.9358C13.3691 13.082 13.2258 13.0964 13.0397 13.1129C12.3272 13.1781 10.5066 13.2032 9.82342 13.1129C9.48753 13.0684 9.38769 12.804 9.35988 12.5037C9.28928 11.7339 9.29641 10.2625 9.35988 9.48704C9.39554 9.04985 9.44475 8.91797 9.89402 8.87712C10.7234 8.80258 12.2752 8.80903 13.1095 8.87712C13.24 8.88787 13.3713 8.88787 13.4818 8.96886L13.4832 8.96957ZM11.075 9.74075H10.2192V12.1417C10.426 12.3517 10.7997 12.212 11.075 12.2492V9.74075ZM12.7152 9.74075H11.9307V12.2492H12.7152V9.74075Z" fill="white"/>
<path d="M19.1883 18.1097C19.0777 18.1907 18.9465 18.1907 18.816 18.2015C17.9838 18.2696 16.427 18.2774 15.6005 18.2015C15.3088 18.175 15.174 18.1563 15.0999 17.8446C14.9915 17.3902 15.0064 15.0358 15.0671 14.5054C15.112 14.1162 15.3117 13.9987 15.6711 13.9657C16.4056 13.8984 18.095 13.884 18.8139 13.9672C18.9736 13.9858 19.0955 14.0245 19.2096 14.1428L19.1875 18.109L19.1883 18.1097ZM16.78 14.8294C16.5047 14.8666 16.131 14.7269 15.9242 14.9369V17.3378H16.78V14.8294ZM18.4202 14.8294H17.6358V17.3378H18.4202V14.8294Z" fill="white"/>
<path d="M13.4832 18.1097C13.3726 18.1907 13.2414 18.1907 13.1109 18.2015C12.2787 18.2696 10.7219 18.2774 9.8954 18.2015C9.60373 18.175 9.46895 18.1563 9.39478 17.8446C9.28638 17.3902 9.30136 15.0358 9.36197 14.5054C9.4069 14.1162 9.60658 13.9987 9.966 13.9657C10.7005 13.8984 12.3899 13.884 13.1088 13.9672C13.2685 13.9858 13.3905 14.0245 13.5046 14.1428L13.4825 18.109L13.4832 18.1097ZM11.0749 14.8294C10.7997 14.8666 10.426 14.7269 10.2192 14.9369V17.3378H11.0749V14.8294ZM12.7151 14.8294H11.9307V17.3378H12.7151V14.8294Z" fill="white"/>
</svg>
