<svg width="21" height="26" viewBox="0 0 21 26" fill="none" xmlns="http://www.w3.org/2000/svg">
<path d="M20.9729 23.0062C20.903 22.8219 20.7934 22.6556 20.6522 22.519C20.5109 22.3825 20.3415 22.2792 20.1559 22.2166V2.19334C20.16 2.04811 20.1509 1.90281 20.1288 1.75925C20.0671 1.4343 19.9132 1.13441 19.6857 0.895959C19.4583 0.657508 19.1671 0.490753 18.8475 0.415932H2.1356C1.821 0.492325 1.53523 0.659353 1.31313 0.896658C1.09103 1.13396 0.942186 1.4313 0.88475 1.75241C0.865427 1.89625 0.857493 2.0414 0.861022 2.18651V22.2166C0.674757 22.2786 0.504511 22.3816 0.362624 22.5182C0.220736 22.6547 0.110765 22.8214 0.0406825 23.0062L-0.0067749 24.4281L0.0135639 24.5136C0.103689 24.7968 0.287521 25.0403 0.534327 25.2033C0.781133 25.3663 1.07595 25.439 1.3695 25.4091H1.39661C4.32543 25.4091 7.25763 25.4091 10.1898 25.4091H10.8068C13.7356 25.4091 16.6576 25.4091 19.6203 25.4091C19.9134 25.4358 20.2068 25.3619 20.4529 25.1993C20.699 25.0368 20.8835 24.7951 20.9763 24.5136L20.9966 23.1463L20.9729 23.0062ZM14.7424 17.2398C14.9984 16.7401 15.1691 16.2005 15.2475 15.6436C15.3289 15.0206 15.3037 14.3882 15.1729 13.7739L15.1525 13.6611C15.0895 13.2793 14.9755 12.9079 14.8136 12.557C14.4122 11.7174 13.8142 10.9889 13.0712 10.4344L13.0136 10.3865C12.3008 9.8095 11.4636 9.40911 10.5695 9.21755H10.417C9.52295 9.40615 8.68422 9.80035 7.96611 10.3694L7.92204 10.4105C7.17172 10.965 6.5686 11.6976 6.16611 12.5434C6.00007 12.8986 5.88589 13.2763 5.82712 13.6645V13.7568C5.69822 14.3772 5.67415 15.0151 5.75594 15.6436C5.83648 16.2068 6.01068 16.7522 6.27119 17.2569C6.12065 17.2854 5.98408 17.3643 5.88375 17.481C5.78341 17.5977 5.72522 17.7452 5.71865 17.8995V22.4798H2.02712V2.22069C2.02712 1.72506 2.14577 1.60201 2.64407 1.60201H18.3525C18.8475 1.60201 18.9695 1.72506 18.9695 2.22069V22.4798H15.3017V17.8859C15.2956 17.73 15.2367 17.5809 15.135 17.4634C15.0333 17.3459 14.8947 17.267 14.7424 17.2398ZM6.58984 18.0773H7.01695C7.09556 18.0765 7.17253 18.0545 7.23988 18.0137C7.30723 17.9728 7.36252 17.9145 7.4 17.8448C7.43509 17.7772 7.45169 17.7013 7.44812 17.625C7.44454 17.5487 7.42092 17.4748 7.37967 17.4107L7.29831 17.2911C6.94454 16.7566 6.71297 16.1495 6.62034 15.5137C6.55508 14.986 6.578 14.4511 6.68814 13.9311C6.69926 13.8896 6.70719 13.8473 6.71187 13.8046C6.75726 13.4954 6.84511 13.194 6.97289 12.9091C7.31675 12.1863 7.8298 11.5587 8.4678 11.0804L8.53221 11.0291C9.11096 10.5687 9.78351 10.2431 10.5017 10.0755C11.2192 10.244 11.8907 10.5709 12.4678 11.0326L12.4983 11.0565C12.5079 11.0667 12.5194 11.0749 12.5322 11.0804C13.165 11.5563 13.6763 12.1773 14.0237 12.892C14.1531 13.1786 14.2411 13.4825 14.2848 13.7944C14.2848 13.8491 14.2848 13.8901 14.3085 13.9243C14.4204 14.4464 14.4433 14.9838 14.3763 15.5137C14.2852 16.1488 14.0535 16.7551 13.6983 17.2877L13.6136 17.4176C13.5745 17.4837 13.5538 17.5593 13.5538 17.6363C13.5538 17.7134 13.5745 17.7889 13.6136 17.8551C13.6531 17.9222 13.7092 17.9778 13.7762 18.0167C13.8433 18.0557 13.9192 18.0765 13.9966 18.0773H14.4305V22.3191H6.58984V18.0773ZM19.8102 23.3753V24.1888H1.19323V23.3753H19.8102Z" fill="white"/>
<path d="M3.77628 6.65739H5.37967C5.65763 6.65739 5.94577 6.65739 6.22712 6.65739C6.32621 6.66175 6.42511 6.64528 6.51755 6.60903C6.60999 6.57279 6.69394 6.51755 6.76407 6.44683C6.83421 6.37611 6.88899 6.29146 6.92493 6.19825C6.96088 6.10505 6.97721 6.00532 6.97289 5.9054C6.97289 5.34825 6.97289 4.79452 6.97289 4.25788C6.98144 4.15948 6.96875 4.06038 6.93569 3.9674C6.90262 3.87442 6.84997 3.78977 6.78135 3.71927C6.71272 3.64878 6.62977 3.59412 6.53819 3.55905C6.44661 3.52399 6.34858 3.50935 6.25085 3.51615C5.39322 3.49906 4.55594 3.49906 3.72204 3.51615C3.62424 3.51025 3.52633 3.5258 3.43506 3.56172C3.34378 3.59765 3.26132 3.65309 3.19334 3.72423C3.12536 3.79538 3.07348 3.88054 3.04127 3.97384C3.00907 4.06715 2.9973 4.16638 3.00678 4.26471C3.00678 4.7535 3.00678 5.29014 3.00678 5.88489C2.99855 5.98875 3.01283 6.09316 3.04863 6.19088C3.08444 6.28861 3.14091 6.37731 3.21413 6.45081C3.28735 6.52432 3.37556 6.58087 3.47264 6.61654C3.56971 6.65221 3.67332 6.66615 3.77628 6.65739ZM3.6 6.07289V4.11432H6.37628V6.07289H3.6Z" fill="white"/>
<path d="M9.27797 6.65397C10.1661 6.65397 10.9729 6.65397 11.7322 6.65397C11.8336 6.66066 11.9353 6.64527 12.0303 6.60884C12.1253 6.57242 12.2114 6.51581 12.2828 6.44285C12.3542 6.3699 12.4092 6.28231 12.444 6.18604C12.4789 6.08977 12.4927 5.98706 12.4848 5.8849C12.4848 5.37902 12.4848 4.85946 12.4848 4.31257C12.4977 4.20454 12.4862 4.09496 12.4512 3.99204C12.4162 3.88911 12.3586 3.79551 12.2826 3.71824C12.2066 3.64097 12.1143 3.58204 12.0125 3.54586C11.9107 3.50968 11.8022 3.49718 11.6949 3.50931C11.4237 3.50931 11.1458 3.50931 10.878 3.50931H9.27119C9.16963 3.50204 9.06772 3.51703 8.97245 3.55325C8.87719 3.58947 8.79083 3.64607 8.71932 3.71915C8.64781 3.79223 8.59285 3.88006 8.55821 3.97659C8.52357 4.07313 8.51007 4.17609 8.51865 4.27839C8.51865 4.85605 8.51865 5.38585 8.51865 5.89857C8.51143 6.00052 8.5262 6.10285 8.56195 6.1985C8.5977 6.29414 8.65358 6.38085 8.72575 6.45263C8.79791 6.52442 8.88464 6.57959 8.97997 6.61435C9.0753 6.64911 9.17696 6.66262 9.27797 6.65397ZM9.11526 6.05238V4.1109H11.8848V6.05238H9.11526Z" fill="white"/>
<path d="M14.8136 6.65739H16.3898C16.6678 6.65739 16.9559 6.65739 17.2407 6.65739C17.3421 6.66345 17.4436 6.64766 17.5385 6.61106C17.6334 6.57446 17.7195 6.51789 17.791 6.44513C17.8626 6.37236 17.9179 6.28507 17.9533 6.18906C17.9888 6.09305 18.0035 5.99052 17.9966 5.88831C17.9966 5.40636 17.9966 4.90048 17.9966 4.29206C18.007 4.18802 17.9945 4.08296 17.9599 3.98436C17.9254 3.88576 17.8698 3.79605 17.7969 3.72163C17.7241 3.64721 17.6359 3.5899 17.5385 3.55379C17.4412 3.51768 17.3372 3.50366 17.2339 3.51273C16.3864 3.51273 15.5593 3.51273 14.7797 3.51273C14.6781 3.50433 14.576 3.51843 14.4805 3.55403C14.3849 3.58964 14.2983 3.64589 14.2266 3.71885C14.1549 3.7918 14.0998 3.87969 14.0654 3.97635C14.0309 4.07301 14.0179 4.1761 14.0271 4.27839C14.0271 4.77743 14.0271 5.30382 14.0271 5.87464C14.0175 5.98074 14.0314 6.08766 14.0677 6.18772C14.104 6.28778 14.1618 6.3785 14.237 6.45334C14.3122 6.52818 14.4029 6.5853 14.5026 6.62058C14.6023 6.65586 14.7085 6.66843 14.8136 6.65739ZM14.6203 6.07289V4.11432H17.4V6.07289H14.6203Z" fill="white"/>
</svg>
