<svg width="84" height="42" viewBox="0 0 84 42" fill="none" xmlns="http://www.w3.org/2000/svg">
<g clip-path="url(#clip0_166_5045)">
<path fill-rule="evenodd" clip-rule="evenodd" d="M42 0C18.816 0 0 9.40426 0 21.0213C0 32.6383 18.816 42.0425 42 42.0425C65.184 42.0425 84 32.6383 84 21.0213C84 9.40426 65.184 0 42 0ZM38.01 4.68085C46.2915 3.43173 54.7509 4.35473 62.58 7.3617C64.344 9.10638 54.684 14.6383 43.176 17.0213C26.712 20.383 34.776 7.53191 38.01 4.68085ZM9.744 29.5319C6.132 26.9362 -0.924 19.4468 10.794 11.6596C15.0648 9.00216 19.7978 7.19669 24.738 6.34043C26.796 5.87234 28.266 6.34043 26.418 8C21.3489 14.3096 17.1132 21.2618 13.818 28.6809C13.23 30.7234 12.054 31.234 9.912 29.5745L9.744 29.5319ZM43.344 38.0426C36.414 38.766 21 36.4681 20.706 34.4681C21 29.5745 45.192 21.7021 49.518 25.9574C51.366 29.4894 47.838 37.7872 43.344 38V38.0426ZM78.624 23.9149C76.818 28.1702 70.854 32.4255 58.338 35.7872C56.406 36.2553 55.734 35.0638 56.994 33.9149C62.2308 27.2893 66.7507 20.1135 70.476 12.5106C71.232 10.8085 72.618 11.4894 73.5 12.1702C75.6106 13.2147 77.297 14.9704 78.2702 17.1364C79.2433 19.3024 79.4427 21.744 78.834 24.0426L78.624 23.9149Z" fill="#004F9E"/>
</g>
<defs>
<clipPath id="clip0_166_5045">
<rect width="84" height="42" fill="white"/>
</clipPath>
</defs>
</svg>
