<svg width="28" height="27" viewBox="0 0 28 27" fill="none" xmlns="http://www.w3.org/2000/svg">
<path d="M7.25 23.625C6.93125 23.625 6.66406 23.5172 6.44844 23.3016C6.23281 23.0859 6.125 22.8188 6.125 22.5V20.1938C5.7875 19.8188 5.51562 19.4016 5.30938 18.9422C5.10313 18.4828 5 17.9812 5 17.4375V6.75C5 5.19375 5.72188 4.05469 7.16563 3.33281C8.60938 2.61094 10.8875 2.25 14 2.25C17.225 2.25 19.5313 2.59688 20.9188 3.29062C22.3063 3.98438 23 5.1375 23 6.75V17.4375C23 17.9812 22.8969 18.4828 22.6906 18.9422C22.4844 19.4016 22.2125 19.8188 21.875 20.1938V22.5C21.875 22.8188 21.7672 23.0859 21.5516 23.3016C21.3359 23.5172 21.0688 23.625 20.75 23.625H19.625C19.3062 23.625 19.0391 23.5172 18.8234 23.3016C18.6078 23.0859 18.5 22.8188 18.5 22.5V21.375H9.5V22.5C9.5 22.8188 9.39219 23.0859 9.17656 23.3016C8.96094 23.5172 8.69375 23.625 8.375 23.625H7.25ZM7.25 11.25H20.75V7.875H7.25V11.25ZM10.0625 18C10.5312 18 10.9297 17.8359 11.2578 17.5078C11.5859 17.1797 11.75 16.7812 11.75 16.3125C11.75 15.8438 11.5859 15.4453 11.2578 15.1172C10.9297 14.7891 10.5312 14.625 10.0625 14.625C9.59375 14.625 9.19531 14.7891 8.86719 15.1172C8.53906 15.4453 8.375 15.8438 8.375 16.3125C8.375 16.7812 8.53906 17.1797 8.86719 17.5078C9.19531 17.8359 9.59375 18 10.0625 18ZM17.9375 18C18.4062 18 18.8047 17.8359 19.1328 17.5078C19.4609 17.1797 19.625 16.7812 19.625 16.3125C19.625 15.8438 19.4609 15.4453 19.1328 15.1172C18.8047 14.7891 18.4062 14.625 17.9375 14.625C17.4688 14.625 17.0703 14.7891 16.7422 15.1172C16.4141 15.4453 16.25 15.8438 16.25 16.3125C16.25 16.7812 16.4141 17.1797 16.7422 17.5078C17.0703 17.8359 17.4688 18 17.9375 18ZM7.75625 5.625H20.3563C20.075 5.30625 19.4703 5.03906 18.5422 4.82344C17.6141 4.60781 16.1188 4.5 14.0563 4.5C12.05 4.5 10.5828 4.61719 9.65469 4.85156C8.72656 5.08594 8.09375 5.34375 7.75625 5.625ZM9.5 19.125H18.5C19.1187 19.125 19.6484 18.9047 20.0891 18.4641C20.5297 18.0234 20.75 17.4937 20.75 16.875V13.5H7.25V16.875C7.25 17.4937 7.47031 18.0234 7.91094 18.4641C8.35156 18.9047 8.88125 19.125 9.5 19.125Z" fill="white"/>
</svg>
