<svg width="26" height="31" viewBox="0 0 26 31" fill="none" xmlns="http://www.w3.org/2000/svg">
<path d="M25.0126 12.5135C24.9347 14.8708 24.3029 17.1751 23.1698 19.2348C21.4964 22.3549 19.3197 25.1688 16.7301 27.5597C15.6626 28.5812 14.5147 29.5209 13.3919 30.4862C13.0797 30.7518 12.8884 30.7416 12.5863 30.4862C9.09261 27.7961 6.08429 24.513 3.69445 20.7823C2.38625 18.8114 1.51056 16.5785 1.12661 14.2347C0.793278 12.2252 0.974268 10.1625 1.65223 8.24422C2.3302 6.32598 3.48242 4.61648 4.99852 3.2795C6.70973 1.68697 8.85344 0.653102 11.1513 0.312144C13.6094 -0.0686343 16.1235 0.332379 18.3478 1.46004C20.5721 2.5877 22.3973 4.38664 23.5726 6.60947C24.5293 8.42533 25.0243 10.4546 25.0126 12.5135ZM3.97641 12.3705C3.97343 14.1801 4.49963 15.9499 5.48847 17.4561C6.4773 18.9622 7.88433 20.137 9.53153 20.8319C11.1787 21.5267 12.9921 21.7103 14.7422 21.3595C16.4923 21.0087 18.1005 20.1393 19.3634 18.8611C20.6263 17.583 21.487 15.9536 21.8368 14.1791C22.1865 12.4047 22.0095 10.5649 21.3282 8.89245C20.6469 7.22003 19.4919 5.79017 18.0093 4.78377C16.5267 3.77737 14.7831 3.23965 12.9991 3.23864C10.6096 3.23863 8.31772 4.20009 6.62621 5.91206C4.9347 7.62404 3.98175 9.94672 3.97641 12.3705Z" fill="white"/>
<path d="M16.5236 17.9886V15.1029C16.5236 14.5922 16.3625 14.4186 15.854 14.4135H14.137C13.6637 14.4135 13.4926 14.5871 13.4926 15.0621C13.4926 15.9201 13.4926 16.7781 13.4926 17.6157V17.9426H11.4886V7.52368C11.4886 6.94144 11.6346 6.79844 12.2086 6.79844C14.0783 6.79844 15.9463 6.79844 17.8126 6.79844C18.3161 6.79844 18.4973 6.95677 18.5024 7.49303V17.2736C18.5024 17.7843 18.3413 17.9681 17.8126 17.9733L16.5236 17.9886ZM14.5096 9.57682V9.38274C14.5152 9.31232 14.5063 9.24148 14.4835 9.17472C14.4607 9.10796 14.4245 9.04673 14.3772 8.99489C14.3299 8.94304 14.2725 8.90173 14.2086 8.87354C14.1447 8.84536 14.0758 8.83093 14.0061 8.83115C13.9365 8.83093 13.8675 8.84536 13.8037 8.87354C13.7398 8.90173 13.6824 8.94304 13.6351 8.99489C13.5877 9.04673 13.5515 9.10796 13.5287 9.17472C13.5059 9.24148 13.497 9.31232 13.5026 9.38274C13.5026 9.44403 13.5026 9.51043 13.5026 9.57171C13.5026 10.0824 13.6688 10.3582 14.0061 10.348C14.3435 10.3378 14.5096 10.0978 14.5096 9.57682ZM16.5236 9.57682C16.5236 9.50532 16.5236 9.42871 16.5236 9.3572C16.5236 9.22175 16.4706 9.09185 16.3761 8.99606C16.2817 8.90028 16.1537 8.84647 16.0201 8.84647C15.8866 8.84647 15.7585 8.90028 15.6641 8.99606C15.5697 9.09185 15.5166 9.22175 15.5166 9.3572C15.5166 9.47467 15.5166 9.59214 15.5166 9.70961C15.5166 10.108 15.7029 10.3429 16.0201 10.3429C16.3373 10.3429 16.5236 10.1131 16.5236 9.71472V9.57682ZM14.5096 11.9058C14.5159 11.8349 14.5076 11.7635 14.4851 11.6962C14.4627 11.6288 14.4266 11.5669 14.3792 11.5145C14.3318 11.4621 14.2741 11.4203 14.2099 11.3918C14.1456 11.3633 14.0762 11.3488 14.0061 11.3491C13.9365 11.3488 13.8675 11.3633 13.8037 11.3915C13.7398 11.4196 13.6824 11.461 13.6351 11.5128C13.5877 11.5646 13.5515 11.6259 13.5287 11.6926C13.5059 11.7594 13.497 11.8302 13.5026 11.9007C13.5026 12.0403 13.5026 12.1781 13.5026 12.3143C13.497 12.3848 13.5059 12.4556 13.5287 12.5224C13.5515 12.5891 13.5877 12.6504 13.6351 12.7022C13.6824 12.754 13.7398 12.7954 13.8037 12.8235C13.8675 12.8517 13.9365 12.8662 14.0061 12.8659C14.0758 12.8662 14.1447 12.8517 14.2086 12.8235C14.2725 12.7954 14.3299 12.754 14.3772 12.7022C14.4245 12.6504 14.4607 12.5891 14.4835 12.5224C14.5063 12.4556 14.5152 12.3848 14.5096 12.3143V11.9058ZM16.5236 12.1305C16.5236 12.059 16.5236 11.9824 16.5236 11.9109C16.5236 11.7754 16.4706 11.6455 16.3761 11.5497C16.2817 11.4539 16.1537 11.4001 16.0201 11.4001C15.8866 11.4001 15.7585 11.4539 15.6641 11.5497C15.5697 11.6455 15.5166 11.7754 15.5166 11.9109C15.5166 12.0471 15.5166 12.185 15.5166 12.3246C15.5118 12.3946 15.5212 12.4649 15.5443 12.531C15.5675 12.5972 15.6038 12.6578 15.651 12.709C15.6983 12.7603 15.7554 12.8012 15.8189 12.829C15.8824 12.8569 15.9509 12.8712 16.0201 12.871C16.0902 12.8713 16.1596 12.8568 16.2239 12.8283C16.2881 12.7998 16.3458 12.758 16.3932 12.7056C16.4406 12.6532 16.4767 12.5913 16.4991 12.5239C16.5216 12.4566 16.5299 12.3852 16.5236 12.3143V12.1305Z" fill="white"/>
<path d="M10.4816 9.33678V17.9477C10.3995 17.9524 10.3171 17.9524 10.2349 17.9477H8.03965C7.96681 17.9553 7.89321 17.9467 7.82399 17.9225C7.75477 17.8982 7.69159 17.859 7.63886 17.8074C7.58613 17.7559 7.54511 17.6933 7.51868 17.624C7.49225 17.5547 7.48103 17.4805 7.4858 17.4063C7.4858 14.8867 7.4858 12.3705 7.4858 9.85772C7.4858 9.72227 7.53885 9.59236 7.63327 9.49658C7.7277 9.4008 7.85577 9.34699 7.9893 9.34699C8.79994 9.33167 9.62064 9.33678 10.4816 9.33678ZM9.47463 12.156C9.47463 12.0488 9.47463 11.9415 9.47463 11.8394C9.47463 11.7039 9.42158 11.574 9.32716 11.4782C9.23273 11.3824 9.10466 11.3286 8.97113 11.3286C8.83759 11.3286 8.70952 11.3824 8.6151 11.4782C8.52067 11.574 8.46763 11.7039 8.46763 11.8394C8.45257 12.0297 8.45257 12.221 8.46763 12.4114C8.46763 12.5468 8.52067 12.6767 8.6151 12.7725C8.70952 12.8683 8.83759 12.9221 8.97113 12.9221C9.10466 12.9221 9.23273 12.8683 9.32716 12.7725C9.42158 12.6767 9.47463 12.5468 9.47463 12.4114C9.47988 12.3263 9.47988 12.2411 9.47463 12.156ZM9.47463 14.7097C9.47463 14.6024 9.47463 14.4952 9.47463 14.393C9.46942 14.2611 9.41409 14.1364 9.32022 14.045C9.22635 13.9536 9.10125 13.9026 8.97113 13.9027C8.83759 13.9027 8.70952 13.9565 8.6151 14.0523C8.52067 14.1481 8.46763 14.278 8.46763 14.4135C8.45253 14.6021 8.45253 14.7917 8.46763 14.9804C8.48132 15.1059 8.54035 15.2218 8.63333 15.3057C8.72631 15.3897 8.84666 15.4357 8.97113 15.4349C9.09406 15.436 9.21313 15.3914 9.30588 15.3095C9.39863 15.2277 9.45865 15.1142 9.47463 14.9906C9.48273 14.892 9.48273 14.7929 9.47463 14.6944V14.7097Z" fill="white"/>
</svg>
