<svg width="17" height="25" viewBox="0 0 17 25" fill="none" xmlns="http://www.w3.org/2000/svg">
<path d="M8.5 24.5834C8.21806 24.5834 7.97639 24.5028 7.775 24.3417C7.57361 24.1806 7.42257 23.9691 7.32188 23.7073C6.93924 22.5795 6.45591 21.5222 5.87188 20.5354C5.30799 19.5486 4.5125 18.3906 3.48542 17.0615C2.45834 15.7323 1.62257 14.4636 0.978126 13.2552C0.353821 12.0469 0.0416679 10.5868 0.0416679 8.87502C0.0416679 6.51877 0.857293 4.52502 2.48854 2.89377C4.13993 1.24238 6.14375 0.416687 8.5 0.416687C10.8563 0.416687 12.85 1.24238 14.4813 2.89377C16.1326 4.52502 16.9583 6.51877 16.9583 8.87502C16.9583 10.7077 16.6059 12.2382 15.901 13.4667C15.2163 14.675 14.4208 15.8733 13.5146 17.0615C12.4271 18.5115 11.6014 19.7198 11.0375 20.6865C10.4938 21.633 10.0406 22.6399 9.67813 23.7073C9.57743 23.9893 9.41632 24.2108 9.19479 24.3719C8.9934 24.5129 8.76181 24.5834 8.5 24.5834ZM8.5 20.2636C8.84236 19.5788 9.225 18.9042 9.64792 18.2396C10.091 17.575 10.7354 16.6889 11.5813 15.5813C12.4472 14.4535 13.1521 13.4163 13.6958 12.4698C14.2597 11.5031 14.5417 10.3049 14.5417 8.87502C14.5417 7.20349 13.9476 5.7837 12.7594 4.61564C11.5913 3.42745 10.1715 2.83335 8.5 2.83335C6.82847 2.83335 5.39861 3.42745 4.21042 4.61564C3.04236 5.7837 2.45834 7.20349 2.45834 8.87502C2.45834 10.3049 2.73021 11.5031 3.27396 12.4698C3.83785 13.4163 4.55278 14.4535 5.41875 15.5813C6.26459 16.6889 6.89896 17.575 7.32188 18.2396C7.76493 18.9042 8.15764 19.5788 8.5 20.2636ZM8.5 11.8959C9.34584 11.8959 10.0608 11.6038 10.6448 11.0198C11.2288 10.4358 11.5208 9.72085 11.5208 8.87502C11.5208 8.02919 11.2288 7.31426 10.6448 6.73023C10.0608 6.1462 9.34584 5.85419 8.5 5.85419C7.65417 5.85419 6.93924 6.1462 6.35521 6.73023C5.77118 7.31426 5.47917 8.02919 5.47917 8.87502C5.47917 9.72085 5.77118 10.4358 6.35521 11.0198C6.93924 11.6038 7.65417 11.8959 8.5 11.8959Z" fill="#97051D"/>
</svg>
