<svg width="74" height="73" viewBox="0 0 74 73" fill="none" xmlns="http://www.w3.org/2000/svg">
<g clip-path="url(#clip0_166_1984)">
<path fill-rule="evenodd" clip-rule="evenodd" d="M37 73C27.2571 73.0006 17.9072 69.1681 10.9799 62.3344C4.05264 55.5008 0.107172 46.2175 0 36.5C0.107172 26.7825 4.05264 17.4992 10.9799 10.6656C17.9072 3.83193 27.2571 -0.000587897 37 6.76418e-08C46.7429 -0.000587897 56.0928 3.83193 63.0201 10.6656C69.9474 17.4992 73.8928 26.7825 74 36.5C73.8928 46.2175 69.9474 55.5008 63.0201 62.3344C56.0928 69.1681 46.7429 73.0006 37 73Z" fill="#1D1D1B"/>
<path fill-rule="evenodd" clip-rule="evenodd" d="M6.65995 53.9935L7.39995 53.5137C5.97532 50.6444 4.73938 47.6856 3.69995 44.6562C4.1819 47.9157 5.2074 51.0717 6.73395 53.9935H6.65995Z" fill="#1D1D1B"/>
<path fill-rule="evenodd" clip-rule="evenodd" d="M37.518 3.61678L42.55 32.8094L37.296 35.8726L37 3.65369C37 3.28463 37 3.28463 36.778 3.65369L33.818 34.2487L31.598 32.8094L36.334 3.65369C27.6458 3.71222 19.3345 7.20098 13.2186 13.3566C7.10273 19.5123 3.68027 27.8336 3.70004 36.5C3.80822 42.2499 5.31949 47.8869 8.10304 52.9231L31.191 33.769L33.411 35.0238L7.51104 53.4767C6.88204 53.9196 7.06704 54.141 7.77004 53.7351L36.704 37.0536V43.0693L8.58404 53.9196C11.5246 58.7989 15.6953 62.8247 20.6809 65.596C25.6665 68.3674 31.293 69.7877 37 69.7154C42.6944 69.7795 48.309 68.3762 53.3002 65.6413C58.2914 62.9063 62.4901 58.9324 65.49 54.1041L37.592 43.5121V37.3119L65.416 53.3291C66.045 53.6613 66.267 53.3291 65.638 53.0708L40.7 35.1345L42.92 33.8428L66.008 53.0339C68.7746 47.9564 70.2485 42.2787 70.3 36.5C70.139 27.8354 66.6191 19.5699 60.4791 13.4386C54.3391 7.30737 46.0565 3.78709 37.37 3.61678H37.518Z" fill="white"/>
<path fill-rule="evenodd" clip-rule="evenodd" d="M72.409 30.1522C71.5026 25.3027 69.655 20.6766 66.97 16.5339C63.6631 11.6552 59.1939 7.67161 53.9631 4.94048C48.7323 2.20936 42.9037 0.81611 37 0.885726C32.24 0.885724 27.5267 1.8215 23.1295 3.63956C18.7323 5.45761 14.7375 8.1223 11.3734 11.4813C8.00928 14.8403 5.34188 18.8277 3.52368 23.2155C1.70548 27.6034 0.772134 32.3057 0.776996 37.0536C0.898151 41.639 1.89001 46.1599 3.7 50.3766C4.9282 52.9124 6.29939 55.3767 7.807 57.7578C7.807 57.5733 5.55 53.2184 4.366 50.3766C2.8085 46.1466 2.03131 41.6704 2.072 37.1643C2.072 27.8558 5.77919 18.9286 12.378 12.3466C18.9769 5.76449 27.9268 2.06672 37.259 2.06672C42.0851 2.13219 46.8474 3.17704 51.2556 5.13762C55.6639 7.0982 59.6258 9.93346 62.9 13.4707C64.121 14.8362 65.231 16.0541 66.193 17.1613C66.193 17.1613 68.746 19.5601 72.52 30.0045L72.409 30.1522Z" fill="white"/>
<path fill-rule="evenodd" clip-rule="evenodd" d="M71.299 36.5C71.1775 42.473 69.5623 48.3212 66.6 53.5136C66.785 53.9196 66.6 54.1041 66.156 54.2518C63.0679 59.1845 58.7702 63.2507 53.6687 66.0661C48.5672 68.8816 42.8304 70.3535 37 70.3428C28.1993 70.297 19.7409 66.9354 13.32 60.9317C11.2725 58.8627 9.41509 56.6148 7.77004 54.2149L6.99304 54.5101C9.92162 59.85 14.2755 64.2766 19.572 67.2992C24.8686 70.3218 30.9008 71.8223 37 71.6345C46.3749 71.6639 55.378 67.9799 62.0313 61.392C68.6846 54.804 72.4439 45.851 72.483 36.5C72.3905 31.2167 70.7295 26.0794 67.71 21.7376C70.072 26.3065 71.3386 31.3599 71.41 36.5H71.299Z" fill="white"/>
<path fill-rule="evenodd" clip-rule="evenodd" d="M34.706 35.9464L29.785 39.9692C29.785 39.9692 28.712 40.818 30.229 39.9692L36.186 36.7584L34.706 35.8726V35.9464Z" fill="#1D1D1B"/>
<path fill-rule="evenodd" clip-rule="evenodd" d="M35.187 34.9869L36.63 13.0647C36.63 13.0647 36.63 10.4075 36.889 13.0647C37.148 15.7219 36.63 35.8726 36.63 35.8726L35.187 34.95V34.9869Z" fill="#1D1D1B"/>
<path fill-rule="evenodd" clip-rule="evenodd" d="M37.814 36.8321L39.405 35.9095L57.905 48.3837L37.814 36.6845V36.8321Z" fill="#1D1D1B"/>
</g>
<defs>
<clipPath id="clip0_166_1984">
<rect width="74" height="73" fill="white"/>
</clipPath>
</defs>
</svg>
