<svg width="66" height="72" viewBox="0 0 66 72" fill="none" xmlns="http://www.w3.org/2000/svg">
<g clip-path="url(#clip0_166_3150)">
<path d="M32.274 71.6722C22.8151 67.2792 14.8049 60.3099 9.17401 51.5738C3.46365 42.0524 0.357963 31.2131 0.16501 20.1312C9.76771e-06 15.9672 9.76771e-06 10.7541 0.16501 4.22953V2.85248L1.58401 2.62297C11.9635 0.868196 22.4713 -0.0310414 33 -0.0655518C43.5269 -0.0527083 54.0346 0.824595 64.416 2.5574L65.769 2.78691V4.16396C66 10.7213 66 15.9017 65.769 20.0656C65.5761 31.1475 62.4704 41.9868 56.76 51.5082C51.1291 60.2443 43.1189 67.2136 33.66 71.6066L33 72.0656L32.274 71.6722Z" fill="black"/>
<path d="M33 1.44263C43.5081 1.44811 53.9964 2.34757 64.35 4.13115C64.515 8.39345 64.713 14.9508 64.35 20.5246C64.1598 31.2367 61.1567 41.7136 55.638 50.918C50.1534 59.5268 42.2642 66.3624 32.934 70.5902C23.6038 66.3624 15.7147 59.5268 10.23 50.918C4.74 41.7169 1.75995 31.2524 1.58403 20.5574C1.28703 14.9508 1.58403 8.39345 1.58403 4.16394C11.9584 2.36564 22.469 1.45519 33 1.44263ZM33 2.62295C22.8821 2.63423 12.7825 3.47865 2.80503 5.14755C2.57403 11.4426 2.57403 16.4918 2.80503 20.4918C2.97076 31.0009 5.89409 41.2852 11.286 50.3279C16.5688 58.5548 24.1006 65.1167 33 69.2459C41.8995 65.1167 49.4312 58.5548 54.714 50.3279C60.106 41.2852 63.0293 31.0009 63.195 20.4918C63.426 16.4918 63.426 11.4426 63.195 5.14755C53.2175 3.47865 43.1179 2.63423 33 2.62295ZM33 38.9836C33 38.9836 33.198 40.1639 33.264 40.4918C33.2965 40.6321 33.2965 40.7778 33.264 40.918C33.099 41.5082 32.373 44.7213 31.779 47.9672V48.4918C31.4696 49.7791 31.2273 51.0814 31.053 52.3934C30.9201 52.8541 30.9201 53.3426 31.053 53.8033C31.581 55.4426 33.396 59.8033 33.759 60.5902C33.7738 60.677 33.7738 60.7657 33.759 60.8525V61.9016C31.881 58.6578 30.1952 55.3078 28.71 51.8689C28.5558 51.4564 28.5558 51.0026 28.71 50.5902C29.8892 46.6343 31.3221 42.7575 33 38.9836ZM28.215 29.9672C28.215 29.9672 28.479 30.7541 28.71 31.6066V31.9344C28.71 32.4918 28.974 33.0492 29.04 33.4098C29.1207 33.6548 29.1207 33.919 29.04 34.1639C28.743 34.918 28.215 36.1639 27.654 37.4426L27.39 38C26.697 39.541 25.971 41.0492 25.608 41.6721C25.4435 41.9861 25.2321 42.2735 24.981 42.5246C24.222 43.2787 22.836 44.6885 21.945 45.4754C21.6923 45.7083 21.529 46.0212 21.483 46.3607C21.483 46.9836 21.285 47.9672 21.252 48.4918C21.2207 48.8964 21.3251 49.3 21.549 49.6394C23.9447 53.3106 26.673 56.7566 29.7 59.9344L30.129 60.2623L31.02 60.8525L31.251 61.2787H31.152L30.822 61.1148L30.492 60.9508L29.073 60.2295L28.71 59.9672C25.5644 56.9021 22.7242 53.5422 20.229 49.9344C20.0553 49.74 19.9268 49.51 19.8526 49.2606C19.7785 49.0113 19.7605 48.7488 19.8 48.4918C19.8 47.3771 20.031 45.9672 20.163 45.2131C20.2278 44.8703 20.3878 44.5523 20.625 44.2951C21.582 43.1803 22.77 41.7377 23.925 40.2295L24.354 39.7049C25.7899 37.8697 27.1017 35.942 28.281 33.9344C28.3398 33.742 28.3398 33.5367 28.281 33.3443C28.2616 32.497 28.1733 31.6528 28.017 30.8197C27.9967 30.7669 27.9967 30.7085 28.017 30.6557L28.215 29.9672ZM42.537 28.5902L42.9 28.7869C43.0326 28.8437 43.1551 28.9211 43.263 29.0164C45.2343 31.0343 47.0129 33.2295 48.576 35.5738C48.6081 35.7251 48.6081 35.8814 48.576 36.0328C49.0215 40.142 48.7083 44.2975 47.652 48.2951C47.6192 48.4495 47.5556 48.5957 47.4649 48.7253C47.3742 48.8548 47.2583 48.9649 47.124 49.0492C46.068 49.8361 44.484 51.1148 42.9 52.3279L42.405 52.7213C40.491 54.2951 38.676 55.8361 37.917 56.5246C37.7245 56.7092 37.558 56.9187 37.422 57.1476C37.059 57.7049 36.498 58.7213 36.234 59.2131V59.3771C35.871 58.5902 35.112 56.7213 34.848 55.9344C34.7622 55.7016 34.7622 55.446 34.848 55.2131C35.31 53.6394 37.356 49.0164 37.752 48.1967V48.6885C37.1281 50.6303 36.6429 52.6133 36.3 54.623C36.2344 54.8812 36.2344 55.1516 36.3 55.4098C36.43 56.1199 36.6064 56.8209 36.828 57.5082C36.9772 57.194 37.1424 56.8876 37.323 56.5902C37.4439 56.4281 37.5763 56.2747 37.719 56.1312C38.709 55.1475 40.392 53.6394 42.174 52.1312L42.801 51.6066L46.563 48.3279C46.6982 48.2434 46.8108 48.1278 46.8912 47.9908C46.9717 47.8538 47.0176 47.6994 47.025 47.541C47.3466 44.6891 47.4128 41.8144 47.223 38.9508C47.1896 38.4349 47.0187 37.937 46.728 37.5082C45.9356 36.3903 45.0408 35.3476 44.055 34.3934C43.866 34.233 43.7379 34.0132 43.692 33.7705C43.362 31.9016 42.57 28.459 42.57 28.459L42.537 28.5902ZM19.437 32.9508C19.6095 32.9016 19.7925 32.9016 19.965 32.9508L23.595 33.8689C23.6975 33.8932 23.7941 33.9377 23.8791 33.9996C23.9641 34.0615 24.0358 34.1397 24.09 34.2295L24.354 34.6557C24.3947 34.7373 24.4159 34.827 24.4159 34.918C24.4159 35.009 24.3947 35.0988 24.354 35.1803L23.463 36.7869L23.199 37.2459C22.737 38.0984 22.242 38.8853 21.978 39.3115C21.9289 39.44 21.8493 39.5549 21.7458 39.6462C21.6424 39.7376 21.5183 39.8027 21.384 39.8361L17.754 41.0492C17.754 41.0492 17.523 41.2131 17.556 41.4426C17.589 41.6721 17.82 43.0492 17.919 43.4098C17.9226 43.4478 17.9344 43.4845 17.9536 43.5174C17.9729 43.5503 17.9991 43.5787 18.0305 43.6006C18.0619 43.6224 18.0977 43.6372 18.1355 43.6439C18.1732 43.6506 18.212 43.649 18.249 43.6394L20.196 43.1803L19.536 43.8033L17.919 44.2623C17.8713 44.2862 17.818 44.2969 17.7648 44.2932C17.7115 44.2895 17.6602 44.2716 17.6163 44.2414C17.5723 44.2112 17.5374 44.1698 17.5152 44.1216C17.493 44.0733 17.4843 44.02 17.49 43.9672C17.49 43.9672 17.094 42.2623 16.929 41.7049C16.764 41.1475 16.929 41.541 16.929 41.4426C16.8076 40.9988 16.6645 40.5611 16.5 40.1312V38.8853C16.5 38.8853 17.358 39.6721 17.787 39.9672C18.216 40.2623 17.787 39.9672 18.051 39.9672L20.658 39.1148C20.8294 39.0651 20.9799 38.9616 21.087 38.8197C21.9386 37.8004 22.6901 36.7025 23.331 35.541C23.3952 35.3833 23.3952 35.2069 23.331 35.0492V34.6885C23.3119 34.6229 23.2783 34.5624 23.2326 34.5113C23.1869 34.4603 23.1304 34.42 23.067 34.3934L19.602 33.1475L19.437 32.9508ZM44.781 22C45.0557 21.8871 45.3643 21.8871 45.639 22C48.3812 23.2319 50.9905 24.7368 53.427 26.4918C53.5083 26.5409 53.5773 26.6078 53.6288 26.6873C53.6803 26.7668 53.7128 26.8569 53.724 26.9508C54.2543 29.65 54.3766 32.4126 54.087 35.1475C54.0627 35.341 54.007 35.5292 53.922 35.7049C52.8037 38.1253 51.4322 40.4221 49.83 42.5574C49.83 42.3607 49.83 41.2459 49.995 40.623C49.9774 40.5697 49.9774 40.5123 49.995 40.459L50.886 39.7377L51.117 39.5082C51.9237 38.1236 52.6402 36.6889 53.262 35.2131C53.3085 34.8979 53.3085 34.5776 53.262 34.2623C53.2307 32.3637 53.0764 30.4691 52.8 28.5902C52.7235 28.3261 52.5458 28.1025 52.305 27.9672C51.942 27.8033 51.249 27.4754 49.698 26.8525C49.4717 26.7648 49.2602 26.6432 49.071 26.4918C48.048 25.6394 46.464 24.3607 45.441 23.6066C45.2973 23.4972 45.1314 23.4201 44.9548 23.3805C44.7782 23.3408 44.5951 23.3397 44.418 23.3771L42.24 23.9344H40.722C42.0852 23.2195 43.484 22.5739 44.913 22H44.781ZM22.209 36C21.7037 36.8168 21.1529 37.6049 20.559 38.3607C20.4944 38.4526 20.4019 38.5215 20.295 38.5574L18.249 39.2787L22.209 36ZM15.147 34.8525L14.85 37.0164L13.794 35.7705C13.9313 35.5228 14.1253 35.3106 14.3603 35.1512C14.5954 34.9917 14.8649 34.8894 15.147 34.8525ZM20.922 22.6557L20.625 22.8853L19.008 24.1312C18.991 24.2067 18.991 24.2851 19.008 24.3607C19.008 24.7213 19.008 25.4098 18.81 25.8033C18.8582 25.8555 18.8835 25.9245 18.8804 25.9952C18.8773 26.0659 18.846 26.1325 18.7935 26.1803C18.741 26.2282 18.6715 26.2533 18.6004 26.2502C18.5292 26.2472 18.4622 26.2161 18.414 26.1639L16.863 26.7869C16.7976 26.7745 16.7304 26.7745 16.665 26.7869L15.972 27.4098L17.853 26.9508C17.8982 26.9249 17.9494 26.9113 18.0015 26.9113C18.0537 26.9113 18.1049 26.9249 18.15 26.9508H18.513C18.6406 26.9986 18.7814 26.9986 18.909 26.9508L20.955 26.459C21.1858 26.4151 21.4016 26.3135 21.582 26.1639L22.473 25.5082L22.011 26.0328C21.8122 26.2446 21.5623 26.4026 21.285 26.4918C19.833 27.1148 17.325 28.0656 15.444 28.6885L15.114 29.4426L14.883 29.7049H16.896C17.0339 29.7103 17.1642 29.7692 17.259 29.8689C17.655 30.1967 18.909 31.4754 19.305 31.9344C19.701 32.3934 15.675 32.5246 14.025 32.9508C13.938 32.962 13.8566 32.9995 13.7917 33.0581C13.7268 33.1167 13.6815 33.1937 13.662 33.2787C13.662 33.7705 13.2 35.3115 13.2 35.3115H12.936C12.8153 35.2518 12.7128 35.1613 12.639 35.0492C12.1504 34.5229 11.6984 33.9642 11.286 33.3771C11.2404 33.3152 11.2159 33.2406 11.2159 33.1639C11.2159 33.0873 11.2404 33.0127 11.286 32.9508C11.616 32.5246 12.309 31.7705 12.672 31.3771C13.035 30.9836 12.672 31.3771 12.672 31.1475C12.8956 30.8001 13.0731 30.4254 13.2 30.0328L12.87 30.2295H12.705C12.705 30.2295 12.705 30.5574 12.474 30.7213L11.088 31.7377L10.824 31.4098C10.824 31.4098 10.824 31.1803 10.824 31.0492C10.824 30.918 10.824 30.8197 11.055 30.6557L11.715 30C12.276 29.5082 13.695 28.3607 16.236 26.7213L17.457 25.1803C17.6829 24.9844 17.9258 24.8088 18.183 24.6557C18.909 24.1967 20.262 23.3771 21.054 22.9508L20.922 22.6557ZM36.3 21.8361C36.3967 21.8059 36.5004 21.8059 36.597 21.8361L37.356 22.1967C37.3763 22.2495 37.3763 22.3079 37.356 22.3607C37.356 22.7869 37.587 23.3443 37.686 23.8361C37.7516 24.0162 37.7516 24.2134 37.686 24.3934L36.366 26.3934C36.3339 26.5226 36.3339 26.6577 36.366 26.7869C36.366 27.6721 37.224 30.7541 37.224 30.7541L36.795 30.3607C36.7112 30.288 36.6438 30.1986 36.597 30.0984C36.3 29.4426 35.838 27.4754 35.607 26.5902C35.5694 26.5254 35.5496 26.4519 35.5496 26.3771C35.5496 26.3022 35.5694 26.2287 35.607 26.1639C36.069 25.6393 36.696 24.7869 37.059 24.2623C37.1159 24.1258 37.1159 23.9725 37.059 23.8361C36.945 23.5968 36.8126 23.3666 36.663 23.1475C36.6086 23.136 36.5524 23.136 36.498 23.1475L36.3 22.8853H36.036C34.914 23.2787 33.462 23.8361 32.538 24.2295H32.208L30.789 23.9672L31.251 23.1803C31.2434 23.0777 31.2664 22.975 31.317 22.8853C32.736 22.5246 34.65 22.1639 36.3 21.8361ZM20.625 25.3443C20.7063 25.5554 20.7063 25.7889 20.625 26C20.5497 26.0228 20.4693 26.0228 20.394 26L19.8 26.4262V25.6066L20.625 25.3443ZM28.743 20.0328L26.994 23.0164C26.8922 23.178 26.7422 23.304 26.565 23.3771L23.265 24.3934C22.9085 24.4906 22.5441 24.5564 22.176 24.5902H19.305L20.295 24.1639C20.3595 24.1841 20.4286 24.1841 20.493 24.1639L22.077 22.2623C22.1595 22.158 22.2601 22.0692 22.374 22C23.7156 21.3025 25.105 20.6999 26.532 20.1967H26.961H28.446L28.743 20.0328ZM26.994 16.5574C31.3876 16.222 35.8005 16.222 40.194 16.5574C40.4555 16.5608 40.7137 16.6166 40.953 16.7213C42.471 17.3771 45.177 18.7541 48.18 20.459L48.543 20.7213C49.335 21.4426 51.348 23.4754 51.348 23.4754H50.721C50.6461 23.5004 50.565 23.5004 50.49 23.4754C48.9771 22.4873 47.413 21.579 45.804 20.7541C45.609 20.7055 45.405 20.7055 45.21 20.7541C44.451 20.7541 43.428 20.7541 42.768 20.5574C42.4658 20.5638 42.1681 20.4841 41.91 20.3279C41.283 20.0328 39.798 19.3443 39.039 19.0492C38.7769 19.0045 38.5091 19.0045 38.247 19.0492C36.96 19.0492 34.056 19.0492 32.571 19.2459H32.307H31.614C33.627 18.8853 38.577 18.459 40.656 18.3279L39.798 18.0656C39.6345 18.0346 39.4665 18.0346 39.303 18.0656H36.3C34.353 18.0656 31.845 18.0656 29.7 18.2951C29.5038 18.2579 29.3023 18.2579 29.106 18.2951C28.149 18.6885 25.806 19.9344 23.595 21.1803L23.1 21.4754L21.351 22.4262L21.681 22L22.407 21.541L22.638 21.3771L23.1 21.082C23.793 20.5574 24.882 19.6393 25.542 19.082C25.6803 18.9553 25.8022 18.8122 25.905 18.6557C25.9856 18.0454 26.1522 17.4494 26.4 16.8853C26.4666 16.7885 26.5549 16.7085 26.658 16.6516C26.7611 16.5947 26.8762 16.5624 26.994 16.5574ZM11.715 8.36066C12.606 8.36066 13.101 8.62296 13.101 9.5082H13.2V10C13.2 10.918 12.705 11.2787 11.814 11.3771L8.11803 11.7705V13.0492H7.35903V8.85246L11.715 8.36066ZM52.8 8.22951C54.747 8.39345 56.694 8.62296 58.641 8.85246V9.57378L56.1 9.27869V13.0492H55.341V9.18033L52.8 8.91804V8.22951ZM20.394 7.63935V8.36066L15.576 8.68853V9.7705L19.8 9.44263V10.1639L15.51 10.459V11.6393L20.328 11.3115V12L14.751 12.4262V8.06558L20.328 7.63935H20.394ZM45.408 8.85246C45.408 7.86886 45.903 7.67214 46.992 7.73771L49.896 7.93443C50.853 7.93443 51.48 8.29509 51.48 9.27869V11.2459C51.48 12.2295 50.952 12.3934 49.896 12.3279L46.992 12.0984C45.936 12.0984 45.408 11.8361 45.408 10.7869V8.85246ZM37.917 7.31148C39.798 7.31148 41.646 7.31148 43.527 7.5082V8.22951C41.899 8.22951 40.282 8.16394 38.676 8.03279V9.11476L42.9 9.27869V9.96722L38.676 9.7705V10.9508L43.527 11.1475V11.8689L37.917 11.6393V7.31148ZM28.248 7.31148V10.5902C28.248 11.6066 27.72 11.8033 26.631 11.8361H23.859C22.869 11.8361 22.275 11.8361 22.275 10.6885V7.40984H23.1V10.6885C23.0998 10.7388 23.1102 10.7885 23.1304 10.8346C23.1507 10.8806 23.1805 10.9219 23.2177 10.9559C23.255 10.9898 23.299 11.0157 23.347 11.0317C23.3949 11.0478 23.4457 11.0538 23.496 11.0492H27.126C27.2285 11.0416 27.3249 10.9977 27.3976 10.9255C27.4702 10.8533 27.5144 10.7576 27.522 10.6557V7.37705L28.248 7.31148ZM46.563 8.39345C46.4638 8.40169 46.3714 8.44675 46.3041 8.51966C46.2368 8.59257 46.1997 8.68798 46.2 8.78689V10.9508C46.2066 11.0563 46.2495 11.1563 46.3217 11.234C46.3938 11.3116 46.4907 11.3622 46.596 11.3771L50.358 11.6393C50.4084 11.6439 50.4592 11.638 50.5071 11.6219C50.555 11.6058 50.599 11.58 50.6363 11.546C50.6736 11.5121 50.7033 11.4708 50.7236 11.4247C50.7439 11.3787 50.7542 11.3289 50.754 11.2787V9.11476C50.7543 9.00717 50.7137 8.90345 50.6403 8.82439C50.5668 8.74534 50.466 8.6968 50.358 8.68853L46.563 8.39345ZM31.581 7.24591H35.739V7.93443H31.284C31.1845 7.93409 31.0884 7.97101 31.0151 8.03784C30.9417 8.10468 30.8963 8.19652 30.888 8.29509V10.4918C30.8956 10.5936 30.9398 10.6894 31.0125 10.7616C31.0852 10.8338 31.1815 10.8777 31.284 10.8853H35.277V9.7705H33V9.04918H36.069V11.6393H31.713C30.657 11.6393 30.129 11.4426 30.129 10.4262V8.52459C30.129 7.57377 30.624 7.27869 31.581 7.24591ZM11.979 9.04918L8.05203 9.47541V11.082L11.979 10.6557C12.0773 10.6376 12.1677 10.5902 12.2384 10.52C12.3091 10.4498 12.3567 10.3599 12.375 10.2623V9.37705C12.3709 9.32962 12.3573 9.28347 12.3351 9.24126C12.313 9.19906 12.2826 9.16164 12.2458 9.13116C12.209 9.10068 12.1664 9.07774 12.1206 9.06367C12.0749 9.0496 12.0267 9.04468 11.979 9.04918Z" fill="white"/>
</g>
<defs>
<clipPath id="clip0_166_3150">
<rect width="66" height="72" fill="white"/>
</clipPath>
</defs>
</svg>
