<svg width="29" height="30" viewBox="0 0 29 30" fill="none" xmlns="http://www.w3.org/2000/svg">
<path d="M27.4167 21.56V25.56C27.4181 25.9313 27.3444 26.2989 27.2003 26.6391C27.0562 26.9794 26.8448 27.2848 26.5798 27.5358C26.3147 27.7869 26.0017 27.978 25.661 28.0969C25.3202 28.2159 24.9591 28.2601 24.6008 28.2267C20.6262 27.7809 16.8082 26.3789 13.4537 24.1333C10.3329 22.0862 7.68689 19.3549 5.70375 16.1333C3.5208 12.6549 2.16231 8.69466 1.73833 4.57333C1.70605 4.20462 1.7485 3.83301 1.86298 3.48216C1.97745 3.13132 2.16144 2.80892 2.40324 2.53549C2.64503 2.26207 2.93933 2.04361 3.2674 1.89403C3.59546 1.74444 3.95011 1.66701 4.30875 1.66666H8.18375C8.8106 1.6603 9.41831 1.88944 9.89361 2.31137C10.3689 2.73331 10.6793 3.31926 10.7671 3.96C10.9306 5.24009 11.234 6.49697 11.6712 7.70666C11.845 8.1839 11.8826 8.70255 11.7796 9.20117C11.6766 9.69979 11.4373 10.1575 11.09 10.52L9.44958 12.2133C11.2883 15.5514 13.9658 18.3153 17.1996 20.2133L18.84 18.52C19.1912 18.1615 19.6346 17.9145 20.1176 17.8081C20.6006 17.7018 21.1031 17.7406 21.5654 17.92C22.7373 18.3714 23.9549 18.6845 25.195 18.8533C25.8224 18.9447 26.3955 19.2709 26.8051 19.77C27.2147 20.269 27.4324 20.9061 27.4167 21.56Z" stroke="#97051D" stroke-width="2.5" stroke-linecap="round" stroke-linejoin="round"/>
</svg>
