<svg width="29" height="35" viewBox="0 0 29 35" fill="none" xmlns="http://www.w3.org/2000/svg">
<path d="M14.3773 34.0982C11.1776 34.0982 7.97788 34.0982 4.77818 34.0982C3.81497 34.1189 2.87657 33.7919 2.13482 33.177C1.39308 32.5622 0.897655 31.7008 0.739283 30.7504C0.693315 30.4536 0.673791 30.1532 0.680943 29.8529C0.680943 21.4041 0.680943 12.9539 0.680943 4.5021C0.680943 1.93965 2.38626 0.247799 4.94871 0.247799C8.16188 0.247799 11.375 0.247799 14.5837 0.247799C15.6901 0.228113 16.7635 0.62541 17.5905 1.36074C20.5822 3.94264 23.583 6.51706 26.5927 9.08401C27.0682 9.47073 27.4495 9.96061 27.7077 10.5165C27.9658 11.0725 28.094 11.6799 28.0826 12.2927C28.0826 18.176 28.0826 24.0593 28.0826 29.9382C28.1063 30.4947 28.0138 31.05 27.8111 31.5688C27.6083 32.0876 27.2998 32.5585 26.9051 32.9516C26.5103 33.3446 26.0381 33.6511 25.5184 33.8516C24.9988 34.0521 24.443 34.1422 23.8866 34.1162L14.3773 34.0982ZM2.28304 29.7721C2.28304 31.5133 3.25686 32.4916 4.97564 32.4916H23.7655C25.4842 32.4916 26.4581 31.5133 26.4581 29.7991C26.4581 24.0683 26.4581 18.3376 26.4581 12.6068C26.4785 12.1241 26.3842 11.6435 26.183 11.2043C25.9817 10.7651 25.6792 10.3799 25.3003 10.0803C22.3563 7.5941 19.4349 5.07652 16.5179 2.56343C15.9802 2.08045 15.2795 1.81908 14.5568 1.83194H4.9532C3.28828 1.83194 2.29201 2.82372 2.29201 4.48415L2.28304 29.7721Z" fill="#97051D"/>
<path d="M10.491 29.283C9.93557 29.3043 9.38174 29.2108 8.86414 29.0083C8.34653 28.8058 7.8763 28.4986 7.48286 28.1061C7.08942 27.7135 6.78125 27.2439 6.57763 26.7267C6.37401 26.2095 6.27932 25.6559 6.2995 25.1005C6.2995 23.5747 6.2995 22.0519 6.2995 20.532C6.28073 19.9789 6.37585 19.4278 6.57894 18.913C6.78204 18.3981 7.08878 17.9305 7.48014 17.5391C7.87149 17.1478 8.3391 16.8411 8.85394 16.638C9.36879 16.4349 9.91988 16.3397 10.473 16.3585C13.0669 16.3585 15.6608 16.3585 18.2546 16.3585C18.8092 16.336 19.3625 16.4281 19.8799 16.6289C20.3973 16.8298 20.8677 17.1351 21.2619 17.5259C21.656 17.9167 21.9654 18.3845 22.1707 18.9002C22.376 19.4159 22.4728 19.9683 22.4551 20.5231C22.4551 22.0444 22.4551 23.5702 22.4551 25.0915C22.4768 25.6504 22.3822 26.2078 22.1773 26.7283C21.9723 27.2487 21.6615 27.7209 21.2645 28.115C20.8675 28.509 20.393 28.8163 19.871 29.0174C19.349 29.2184 18.7909 29.3089 18.2322 29.283H10.491ZM13.5381 27.627V17.9786H10.4596C10.2841 17.974 10.1086 17.983 9.9345 18.0055C9.40044 18.0912 8.91201 18.3577 8.55094 18.7604C8.18986 19.1632 7.97806 19.6777 7.95095 20.2179C7.91954 21.9412 7.91954 23.6689 7.95095 25.3922C7.9602 25.9348 8.16581 26.4557 8.52969 26.8584C8.89357 27.2611 9.39107 27.5182 9.93001 27.5821C11.1192 27.6719 12.3174 27.6046 13.5381 27.6046V27.627ZM20.7632 23.6599H15.212V27.6315C15.2501 27.651 15.291 27.6647 15.3332 27.6719C16.4012 27.6719 17.4693 27.7078 18.5373 27.6719C19.0677 27.6706 19.5805 27.4815 19.9846 27.1381C20.3888 26.7947 20.6583 26.3192 20.7453 25.7961C20.8095 25.0782 20.8155 24.3563 20.7632 23.6375V23.6599ZM20.8216 22.013C20.8216 21.4744 20.8216 20.9718 20.8216 20.4692C20.8337 20.1409 20.7776 19.8136 20.6569 19.508C20.5363 19.2024 20.3536 18.9252 20.1204 18.6937C19.8873 18.4622 19.6087 18.2816 19.3022 18.1631C18.9958 18.0447 18.6681 17.991 18.3399 18.0055C17.3975 18.0055 16.4551 18.0055 15.5127 18.0055C15.4139 18.0055 15.3197 18.0055 15.2165 18.0324V22.013H20.8216Z" fill="#97051D"/>
</svg>
