<svg width="28" height="28" viewBox="0 0 28 28" fill="none" xmlns="http://www.w3.org/2000/svg">
<path d="M26.8111 23.7304C26.0076 20.5216 24.078 17.7172 21.3815 15.839C18.685 13.9608 15.4052 13.1367 12.1524 13.5201C8.89961 13.9035 5.89542 15.4683 3.69887 17.9232C1.50232 20.3781 0.263033 23.5561 0.211622 26.8655C0.194064 27.02 0.20683 27.1764 0.249189 27.3258C0.291549 27.4753 0.362669 27.6148 0.458474 27.7364C0.695317 27.9343 1.0002 28.0292 1.30615 28H26.2242C26.357 28.0084 26.4902 27.9898 26.6157 27.9453C26.7413 27.9009 26.8568 27.8314 26.9555 27.7411C27.0481 27.6393 27.1197 27.5198 27.1661 27.3897C27.2124 27.2595 27.2327 27.1214 27.2256 26.9832C27.2219 25.8857 27.0827 24.793 26.8111 23.7304ZM2.07465 26.1783V26.0559C2.29356 21.2731 6.43415 15.803 12.7871 15.304C14.311 15.175 15.8452 15.3506 17.3019 15.8209C18.7587 16.2912 20.1095 17.0469 21.2773 18.0449C22.4451 19.0429 23.4069 20.2636 24.1079 21.6373C24.8088 23.0111 25.2352 24.5109 25.3626 26.0512V26.1783H2.07465Z" fill="#573D1C"/>
<path d="M17.957 1.78418C17.4097 1.22152 16.7574 0.774133 16.0378 0.467893C15.3183 0.161654 14.5459 0.00263899 13.7652 4.68508e-05C12.1822 -0.00624319 10.6612 0.621054 9.53448 1.74484C8.40776 2.86863 7.767 4.39751 7.75225 5.99736C7.74855 6.78357 7.89893 7.56273 8.19471 8.28989C8.49049 9.01706 8.92581 9.67783 9.47555 10.2341C10.0278 10.8068 10.6875 11.2625 11.416 11.5745C12.1446 11.8865 12.9274 12.0485 13.7186 12.0512C14.8967 12.0542 16.0493 11.704 17.0306 11.045C18.0118 10.386 18.7777 9.44769 19.2313 8.34875C19.685 7.24982 19.8061 6.0396 19.5793 4.87112C19.3524 3.70264 18.7879 2.62838 17.957 1.78418ZM13.7186 10.2341C12.6125 10.2341 11.5512 9.79227 10.766 9.00484C9.98082 8.21742 9.53539 7.14824 9.52679 6.03031C9.52679 4.90666 9.96842 3.82904 10.7545 3.0345C11.5407 2.23996 12.6069 1.79359 13.7186 1.79359C14.7623 1.8869 15.9382 2.25336 16.6457 3.0345C17.3533 3.81564 17.7744 4.97128 17.7744 6.03031C17.7744 7.08934 17.3533 8.06872 16.6457 8.84986C15.9382 9.631 14.7623 10.1408 13.7186 10.2341Z" fill="#573D1C"/>
</svg>
