<svg width="26" height="25" viewBox="0 0 26 25" fill="none" xmlns="http://www.w3.org/2000/svg">
<path d="M25.0852 8.19729C24.3678 5.89275 23.6599 3.58704 22.9616 1.28017C22.7033 0.439513 22.1473 0.00348663 21.3223 0.00348663C15.7717 0.00348663 10.2211 0.00348663 4.67049 0.00348663C3.84902 0.00348663 3.30018 0.443001 3.03832 1.29064C2.04825 4.51374 1.06416 7.73801 0.0860551 10.9634C0.0430645 11.1014 0.0213056 11.2448 0.0214855 11.389C0.0214855 15.5074 0.0214855 19.6258 0.0214855 23.7442C0.0214855 24.5291 0.437601 24.9826 1.1658 24.993H2.41415C2.51817 24.993 2.62579 24.993 2.72623 24.993C2.86976 24.982 3.00964 24.9436 3.13785 24.8799C3.26607 24.8162 3.3801 24.7286 3.47341 24.6219C3.56672 24.5153 3.63748 24.3919 3.68162 24.2586C3.72576 24.1253 3.74242 23.9849 3.73065 23.8454C3.73065 23.1478 3.73065 22.4501 3.73065 21.7525H22.2836C22.2836 22.4501 22.2836 23.1478 22.2836 23.8454C22.2719 23.9849 22.2885 24.1253 22.3327 24.2586C22.3768 24.3919 22.4475 24.5153 22.5409 24.6219C22.6342 24.7286 22.7482 24.8162 22.8764 24.8799C23.0046 24.9436 23.1445 24.982 23.288 24.993C23.3885 24.993 23.4961 24.993 23.6001 24.993H24.418C24.5005 24.993 24.583 24.993 24.6655 24.993H24.7122C24.8418 25.0012 24.9721 24.993 25.0996 24.9686H25.1354C25.3112 24.9289 25.4742 24.8476 25.61 24.732C25.7458 24.6164 25.8501 24.47 25.9139 24.3058C25.9621 24.1616 25.9875 24.011 25.9892 23.8594C25.9892 23.5105 25.9892 23.1617 25.9892 22.8129V11.1274C25.6915 10.1507 25.383 9.17748 25.0852 8.19729ZM6.43181 17.9852C5.85192 17.9918 5.29277 17.7757 4.87571 17.3839C4.45865 16.992 4.21734 16.4561 4.20416 15.8923C4.20556 15.6016 4.26591 15.314 4.38173 15.046C4.49755 14.7779 4.66658 14.5348 4.87915 14.3303C5.09172 14.1259 5.34365 13.9642 5.62053 13.8545C5.89742 13.7449 6.19382 13.6894 6.49279 13.6912C6.78015 13.6975 7.06337 13.7592 7.32606 13.8726C7.58876 13.9861 7.82571 14.149 8.0232 14.3521C8.2207 14.5552 8.37481 14.7943 8.47664 15.0557C8.57846 15.3171 8.62597 15.5955 8.61641 15.8748C8.61888 16.155 8.56347 16.4328 8.45347 16.6918C8.34348 16.9507 8.18113 17.1856 7.97606 17.3824C7.77099 17.5792 7.52736 17.734 7.25963 17.8375C6.9919 17.9411 6.70552 17.9913 6.41746 17.9852H6.43181ZM19.6399 17.9852C19.06 17.9918 18.5008 17.7757 18.0838 17.3839C17.6667 16.992 17.4254 16.4561 17.4122 15.8923C17.4136 15.6016 17.474 15.314 17.5898 15.046C17.7056 14.7779 17.8746 14.5348 18.0872 14.3303C18.2998 14.1259 18.5517 13.9642 18.8286 13.8545C19.1055 13.7449 19.4019 13.6894 19.7008 13.6912C19.9882 13.6975 20.2714 13.7592 20.5341 13.8726C20.7968 13.9861 21.0338 14.149 21.2313 14.3521C21.4288 14.5552 21.5829 14.7943 21.6847 15.0557C21.7865 15.3171 21.834 15.5955 21.8245 15.8748C21.8269 16.155 21.7715 16.4328 21.6615 16.6918C21.5515 16.9507 21.3892 17.1856 21.1841 17.3824C20.979 17.5792 20.7354 17.734 20.4677 17.8375C20.2 17.9411 19.9136 17.9913 19.6255 17.9852H19.6399ZM3.02038 8.8147C3.03832 8.73448 3.04908 8.65773 3.0706 8.58797C3.68521 6.58574 4.29862 4.58234 4.91083 2.57779C4.96464 2.39989 5.0328 2.34408 5.20857 2.34408H21.0102C21.6738 4.49979 22.3338 6.64853 22.9975 8.81122L3.02038 8.8147Z" fill="white"/>
</svg>
