<svg width="43" height="43" viewBox="0 0 43 43" fill="none" xmlns="http://www.w3.org/2000/svg">
<path d="M11.2739 33.9824V35.7432C11.2739 36.2421 11.1052 36.6603 10.7677 36.9978C10.4302 37.3353 10.012 37.504 9.5131 37.504H7.75228C7.25338 37.504 6.83518 37.3353 6.49769 36.9978C6.1602 36.6603 5.99146 36.2421 5.99146 35.7432V21.6566L9.68918 11.0917C9.86526 10.5634 10.1807 10.1379 10.6356 9.8151C11.0905 9.49228 11.5967 9.33087 12.1543 9.33087H31.5233C32.0809 9.33087 32.5872 9.49228 33.0421 9.8151C33.4969 10.1379 33.8124 10.5634 33.9885 11.0917L37.6862 21.6566V35.7432C37.6862 36.2421 37.5175 36.6603 37.18 36.9978C36.8425 37.3353 36.4243 37.504 35.9254 37.504H34.1646C33.6657 37.504 33.2475 37.3353 32.91 36.9978C32.5725 36.6603 32.4038 36.2421 32.4038 35.7432V33.9824H11.2739ZM10.9218 18.135H32.7559L30.9071 12.8525H12.7706L10.9218 18.135ZM13.9151 28.6999C14.6488 28.6999 15.2724 28.4431 15.786 27.9295C16.2996 27.416 16.5564 26.7923 16.5564 26.0587C16.5564 25.325 16.2996 24.7014 15.786 24.1878C15.2724 23.6742 14.6488 23.4174 13.9151 23.4174C13.1815 23.4174 12.5578 23.6742 12.0443 24.1878C11.5307 24.7014 11.2739 25.325 11.2739 26.0587C11.2739 26.7923 11.5307 27.416 12.0443 27.9295C12.5578 28.4431 13.1815 28.6999 13.9151 28.6999ZM29.7625 28.6999C30.4962 28.6999 31.1198 28.4431 31.6334 27.9295C32.147 27.416 32.4038 26.7923 32.4038 26.0587C32.4038 25.325 32.147 24.7014 31.6334 24.1878C31.1198 23.6742 30.4962 23.4174 29.7625 23.4174C29.0289 23.4174 28.4052 23.6742 27.8917 24.1878C27.3781 24.7014 27.1213 25.325 27.1213 26.0587C27.1213 26.7923 27.3781 27.416 27.8917 27.9295C28.4052 28.4431 29.0289 28.6999 29.7625 28.6999ZM9.5131 30.4607H34.1646V21.6566H9.5131V30.4607Z" fill="white"/>
</svg>
