<svg width="29" height="28" viewBox="0 0 29 28" fill="none" xmlns="http://www.w3.org/2000/svg">
<path d="M28.2143 25.1549L25.6312 22.5911L24.406 21.3649L21.0644 18.0155L21.1917 17.8351C22.4062 16.1332 23.1235 14.1267 23.2634 12.0401C23.4033 9.95355 22.9602 7.86917 21.9837 6.02023C21.0073 4.17129 19.536 2.63074 17.7345 1.57097C15.933 0.511197 13.8724 -0.0259908 11.7831 0.0195146C9.69395 0.06502 7.65861 0.691424 5.90489 1.82863C4.15116 2.96585 2.74824 4.569 1.8531 6.4587C0.957969 8.3484 0.605934 10.4501 0.836392 12.5286C1.06685 14.6072 1.87071 16.5805 3.15802 18.2279C6.87084 22.9733 13.5009 23.9181 18.5928 20.4201L18.7731 20.298L22.0669 23.5625L25.8964 27.4267C26.117 27.689 26.4163 27.8731 26.7499 27.9515C27.0834 28.0299 27.4333 27.9985 27.7475 27.862C27.9893 27.7718 28.2047 27.6226 28.3742 27.4279C28.5437 27.2333 28.662 26.9993 28.7182 26.7473C28.7753 26.4609 28.759 26.1646 28.6709 25.8862C28.5828 25.6078 28.4257 25.3562 28.2143 25.1549ZM12.0158 19.6663C10.3562 19.6663 8.73387 19.1738 7.35398 18.2511C5.97409 17.3284 4.89859 16.0169 4.2635 14.4825C3.6284 12.9481 3.46223 11.2597 3.786 9.63075C4.10977 8.00183 4.90893 6.50557 6.08243 5.33118C7.25593 4.15679 8.75107 3.35702 10.3788 3.033C12.0064 2.70899 13.6936 2.87528 15.2268 3.51086C16.7601 4.14643 18.0706 5.22274 18.9926 6.60368C19.9146 7.98462 20.4067 9.60816 20.4067 11.269C20.4053 13.4957 19.5208 15.6308 17.9475 17.2053C16.3742 18.7798 14.2408 19.6649 12.0158 19.6663Z" fill="#573D1C"/>
</svg>
