<svg width="30" height="30" viewBox="0 0 30 30" fill="none" xmlns="http://www.w3.org/2000/svg">
<g clip-path="url(#clip0_39_48)">
<path d="M15 30L10.5694 25.6952L4.39238 25.6064L4.30352 19.4294L0 15L4.30476 10.5694L4.39362 4.39238L10.5706 4.30352L15 0L19.4306 4.30476L25.6076 4.39361L25.6965 10.5706L30.0012 15.0012L25.6965 19.4319L25.6076 25.6089L19.4306 25.6977L15 30.0025V30ZM5.73145 24.2686L11.1284 24.3463L15 28.108L18.8716 24.3463L24.2686 24.2686L24.3463 18.8716L28.108 15L24.3463 11.1284L24.2686 5.73145L18.8716 5.65369L15 1.89197L11.1284 5.65369L5.73145 5.73145L5.65369 11.1284L1.89197 15L5.65369 18.8716L5.73145 24.2686Z" fill="#452702" fill-opacity="0.89"/>
</g>
<defs>
<clipPath id="clip0_39_48">
<rect width="30" height="30" fill="white"/>
</clipPath>
</defs>
</svg>
