<svg width="29" height="28" viewBox="0 0 29 28" fill="none" xmlns="http://www.w3.org/2000/svg">
<path d="M28.001 13.1363L24.6893 9.82458V5.13098C24.6893 4.806 24.5602 4.49433 24.3304 4.26453C24.1006 4.03474 23.7889 3.90564 23.4639 3.90564H18.7734L15.4616 0.593927C15.348 0.479597 15.2129 0.388862 15.0641 0.326946C14.9153 0.26503 14.7557 0.233154 14.5946 0.233154C14.4334 0.233154 14.2738 0.26503 14.125 0.326946C13.9762 0.388862 13.8411 0.479597 13.7275 0.593927L10.4158 3.90564H5.71918C5.39472 3.90644 5.08383 4.03589 4.85468 4.2656C4.62554 4.4953 4.49686 4.80652 4.49686 5.13098V9.81856L1.18514 13.1303C0.95662 13.3604 0.828369 13.6715 0.828369 13.9958C0.828369 14.3201 0.95662 14.6313 1.18514 14.8614L4.49686 18.1731V22.8727C4.49686 23.1969 4.62564 23.5078 4.85487 23.737C5.0841 23.9663 5.395 24.0951 5.71918 24.0951H10.4098L13.7215 27.4068C13.8354 27.5218 13.9708 27.6132 14.1202 27.6758C14.2695 27.7383 14.4297 27.7707 14.5916 27.7711C14.7522 27.772 14.9114 27.7408 15.0598 27.6792C15.2082 27.6177 15.3428 27.5271 15.4556 27.4128L18.7673 24.1011H23.4609C23.7854 24.1011 24.0966 23.9724 24.3263 23.7432C24.556 23.5141 24.6855 23.2032 24.6863 22.8788V18.1821L27.998 14.8704C28.1141 14.7581 28.2064 14.6236 28.2694 14.4749C28.3325 14.3262 28.365 14.1664 28.365 14.0049C28.365 13.8434 28.3325 13.6835 28.2694 13.5348C28.2064 13.3861 28.1141 13.2516 27.998 13.1393L28.001 13.1363ZM5.97509 17.0501L2.91627 14.0003L5.97509 10.9385C6.08852 10.8273 6.17883 10.6948 6.24084 10.5486C6.30284 10.4024 6.33531 10.2453 6.33636 10.0865V5.74515H10.6777C11.0018 5.74468 11.3125 5.61586 11.5418 5.38688L14.5916 2.32505L17.6534 5.38688C17.8797 5.61294 18.1855 5.74152 18.5054 5.74515H22.8468V10.0865C22.8458 10.2471 22.877 10.4063 22.9386 10.5547C23.0001 10.7031 23.0907 10.8377 23.205 10.9506L26.2669 14.0003L23.208 17.0622C23.0946 17.1734 23.0043 17.3059 22.9423 17.4521C22.8803 17.5983 22.8478 17.7554 22.8468 17.9142V22.2555H18.5054C18.181 22.2571 17.8704 22.387 17.6413 22.6168L14.5916 25.6756L11.5297 22.6138C11.3034 22.3878 10.9976 22.2592 10.6777 22.2555H6.33636V17.9142C6.33531 17.7554 6.30284 17.5983 6.24084 17.4521C6.17883 17.3059 6.08852 17.1734 5.97509 17.0622V17.0501Z" fill="#573D1C"/>
</svg>
