<?xml version="1.0" encoding="UTF-8"?>
<svg id="Layer_2" data-name="Layer 2" xmlns="http://www.w3.org/2000/svg" viewBox="0 0 560.19 360.02">
  <defs>
    <style>
      .cls-1 {
        fill: #231f20;
      }
    </style>
  </defs>
  <g id="background">
    <path class="cls-1" d="M536.58,360.02H23.61c-13.02,0-23.61-9.82-23.61-21.88v-22.92c0-10.9,8.47-20,20.14-21.64,20.04-2.82,38.75-15.53,52.68-35.81,14.58-21.23,22.62-48.85,22.62-77.76s-8.03-56.53-22.62-77.76c-13.93-20.27-32.63-32.99-52.68-35.81C8.47,64.8,0,55.7,0,44.8v-22.92C0,9.82,10.59,0,23.61,0h512.97c13.02,0,23.61,9.82,23.61,21.88v31.6c0,10.9-8.47,20-20.14,21.64-20.04,2.82-38.75,15.53-52.68,35.81-14.58,21.23-22.62,48.85-22.62,77.76s8.03,56.53,22.62,77.76c13.93,20.27,32.63,32.99,52.68,35.81,11.67,1.64,20.14,10.74,20.14,21.64v14.23c0,12.07-10.59,21.88-23.61,21.88ZM23,336.95c.16.04.37.07.61.07h512.97c.24,0,.45-.03.61-.07v-11.84c-.1-.03-.21-.05-.35-.07-54.21-7.62-95.09-66.24-95.09-136.35s40.88-128.73,95.09-136.35c.13-.02.25-.04.35-.07v-29.2c-.16-.04-.37-.07-.61-.07H23.61c-.24,0-.45.03-.61.07v20.52c.1.03.21.05.35.07,54.21,7.62,95.09,66.24,95.09,136.35s-40.88,128.73-95.09,136.35c-.13.02-.25.04-.35.07v20.52Z"/>
    <path class="cls-1" d="M280.1,231.03l-16.73-16.24-23.32-.35-.35-23.31-16.24-16.73,16.24-16.73.35-23.31,23.32-.35,16.73-16.24,16.73,16.24,23.32.35.35,23.31,16.24,16.73-16.24,16.73-.35,23.31-23.32.35-16.73,16.24ZM247.93,206.56l18.73.28,13.44,13.04,13.44-13.04,18.73-.28.28-18.73,13.04-13.44-13.04-13.44-.28-18.73-18.73-.28-13.44-13.04-13.44,13.04-18.73.28-.28,18.73-13.04,13.44,13.04,13.44.28,18.73Z"/>
    <path class="cls-1" d="M409.54,278.32H150.65c-12.96,0-23.5-10.54-23.5-23.5V93.97c0-12.96,10.54-23.5,23.5-23.5h258.89c12.96,0,23.5,10.54,23.5,23.5v160.85c0,12.96-10.54,23.5-23.5,23.5ZM150.65,93.47c-.25,0-.5.25-.5.5v160.85c0,.25.25.5.5.5h258.89c.25,0,.5-.25.5-.5V93.97c0-.25-.25-.5-.5-.5H150.65Z"/>
    <rect class="cls-1" x="184.6" y="84.52" width="23" height="179.74"/>
    <rect class="cls-1" x="356.17" y="81.97" width="23" height="184.85"/>
  </g>
</svg>