<svg width="37" height="36" viewBox="0 0 37 36" fill="none" xmlns="http://www.w3.org/2000/svg">
<path d="M36.5714 14.3915L34.1782 11.1318C33.8251 10.456 33.3923 10.3338 32.8489 10.6683C32.5723 10.855 32.2779 11.0129 31.972 11.1403C30.3353 11.7294 28.5521 10.8211 27.9876 9.1131C27.5613 7.82448 27.9469 6.39495 28.954 5.52569C29.5869 4.91618 29.4714 4.52399 28.6628 3.64454C28.0835 2.85507 27.5092 2.0724 26.93 1.28462C26.2028 0.0146819 25.8383 -0.241683 25.0395 0.396683C20.9493 3.66661 16.8607 6.93654 12.7722 10.2065C8.6836 13.4764 4.57388 16.7633 0.443011 20.0655C-0.116666 20.5137 -0.144324 20.9636 0.350274 21.5612L2.85255 24.9687C3.25441 25.5952 3.61722 25.6597 4.18666 25.3388C4.61293 25.0689 5.07498 24.8668 5.55819 24.7395C6.91183 24.4967 8.25408 25.2217 8.84629 26.5154C9.48895 27.8736 9.15542 29.5137 8.04095 30.4831C7.51381 30.9941 7.50242 31.3524 7.99051 31.9704C8.76983 33.0332 9.55077 34.0943 10.3301 35.1571C10.9256 36.0535 11.2656 36.1639 11.9912 35.5849L28.3699 22.4882C31.0967 20.3083 33.8235 18.1266 36.5503 15.9467C37.1409 15.4951 37.1523 14.9705 36.5714 14.3932V14.3915ZM35.086 15.0452L30.1173 19.0197L28.884 17.3406C28.775 17.2234 28.5993 17.2098 28.4756 17.3117L27.7289 17.9093C27.5938 18.0129 27.5629 18.2098 27.6622 18.3524C27.6622 18.3524 27.6622 18.3541 27.6638 18.3558L28.8808 20.0129L11.4364 33.9619L9.51335 31.3439C11.2835 29.3218 11.1468 26.186 9.21073 24.3405C7.74158 22.9398 5.59236 22.6427 3.82547 23.5969L1.91053 20.9891L19.3272 7.06048L21.0404 9.39324C21.1494 9.51038 21.3251 9.52397 21.4488 9.4221L22.2021 8.81939C22.3371 8.71582 22.368 8.51888 22.2688 8.37626C22.2688 8.37626 22.2688 8.37457 22.2671 8.37287L20.5735 6.06558L25.5552 2.08258L27.4702 4.69038C25.9294 6.80412 25.7114 9.01972 27.353 11.1691C28.7701 13.0282 30.6053 13.3474 33.1646 12.4238L35.0893 15.0452H35.086Z" fill="#97051D"/>
<path d="M24.1574 11.4658L23.4329 12.0451C23.2995 12.1518 23.2743 12.351 23.3764 12.4902L25.3605 15.1923C25.4627 15.3315 25.6536 15.3579 25.787 15.2512L26.5115 14.6719C26.6449 14.5653 26.6702 14.366 26.568 14.2268L24.584 11.5247C24.4818 11.3856 24.2908 11.3592 24.1574 11.4658Z" fill="#97051D"/>
<path d="M19.5519 24.7736C19.3388 24.8483 19.1094 24.8687 18.8865 24.8313L17.65 24.6768L16.6412 25.4833C16.0376 25.9688 15.1705 25.8517 14.7035 25.2218C14.7003 25.2184 14.697 25.2133 14.6938 25.2099L13.9258 24.1641L12.678 23.9892C11.9263 23.8992 11.3878 23.1896 11.474 22.4052C11.4756 22.3899 11.4773 22.3729 11.4805 22.3576L11.6286 21.0368L10.8492 19.974C10.3807 19.3458 10.4881 18.4409 11.09 17.9519C11.0933 17.9485 11.0982 17.9451 11.1014 17.9417L12.1101 17.1353L12.2777 15.8399C12.3574 15.0521 13.0343 14.4816 13.7892 14.5665C13.8038 14.5665 13.8185 14.5699 13.8331 14.5716L15.1021 14.7448L16.1206 13.9315C16.7226 13.4392 17.593 13.5495 18.0648 14.1777C18.0697 14.1845 18.0746 14.1896 18.0795 14.1964L18.8474 15.2422L20.0888 15.4171C20.8421 15.5088 21.3822 16.2202 21.2944 17.0062C21.2927 17.0215 21.2911 17.0368 21.2879 17.0521L21.1545 18.3865L21.9305 19.4425C22.3942 20.0741 22.2803 20.979 21.6751 21.4629C21.6702 21.4663 21.6653 21.4714 21.6604 21.4748L20.6631 22.2728L20.4923 23.597C20.4174 24.1437 20.0546 24.6021 19.5519 24.777V24.7736ZM11.9458 19.0894L12.7251 20.1522C12.948 20.4561 13.0489 20.8381 13.0017 21.2184L12.8309 22.5478L14.1032 22.7329C14.4676 22.7855 14.7979 22.9858 15.0208 23.2914L15.7969 24.3474L16.8186 23.5308C17.1098 23.2982 17.4775 23.1963 17.8403 23.249L19.111 23.4103L19.29 22.0843C19.3355 21.7023 19.5275 21.3559 19.8236 21.1251L20.8356 20.3152L20.0563 19.2524C19.8317 18.9502 19.7309 18.5665 19.7797 18.1862L19.9391 16.867L18.6701 16.6887C18.3024 16.6361 17.9705 16.4324 17.7492 16.1234L16.9813 15.0775L15.9595 15.8942C15.6699 16.1285 15.3023 16.2303 14.9378 16.176L13.6688 15.9977L13.4898 17.3237C13.4426 17.7057 13.2507 18.0521 12.9562 18.283L11.9475 19.0894H11.9458Z" fill="#97051D"/>
</svg>
