<svg width="21" height="36" viewBox="0 0 21 36" fill="none" xmlns="http://www.w3.org/2000/svg">
<path d="M19.3709 0.105571L15.2567 0.105571C14.495 -0.0173079 14.1221 0.277603 14.0427 0.953437C14.0145 1.30818 13.9534 1.65931 13.8602 2.00201C13.6173 2.75389 13.1264 3.39386 12.4731 3.81025C11.8199 4.22664 11.0457 4.39304 10.2858 4.2804C9.52587 4.16776 8.82835 3.78324 8.31496 3.19393C7.80156 2.60461 7.50487 1.84791 7.47665 1.05584C7.39333 0.130146 7.00849 -0.0173075 5.79446 0.121956C4.79864 0.121956 3.81076 0.121956 2.81494 0.121956C1.34303 -0.0541725 0.906615 0.0973778 0.906615 1.18281C0.906615 6.74515 0.906615 12.3061 0.906615 17.8657C0.906616 23.4253 0.906616 29.0136 0.906616 34.6306C0.906616 35.3924 1.24781 35.6996 2.03733 35.6505L6.338 35.6505C7.09181 35.6996 7.3735 35.4293 7.48062 34.7412C7.537 34.2062 7.67073 33.6829 7.87736 33.1888C8.20204 32.55 8.72001 32.0382 9.35241 31.7314C9.9848 31.4245 10.697 31.3394 11.3806 31.489C12.1037 31.6365 12.7577 32.0311 13.237 32.6092C13.7164 33.1873 13.9932 33.9153 14.0229 34.6756C14.0943 35.4498 14.372 35.6832 15.1734 35.6546C16.5144 35.6546 17.8554 35.6546 19.1964 35.6546C20.2874 35.7078 20.5929 35.4866 20.5929 34.4995L20.5929 12.2256C20.5929 8.51734 20.5929 4.80912 20.5929 1.10089C20.6088 0.310371 20.2001 -0.0295991 19.3709 0.105571ZM18.9464 1.78902L18.9464 8.54739L16.8278 8.54739C16.7493 8.55655 16.6769 8.59563 16.6248 8.657C16.5727 8.71835 16.5447 8.79758 16.5461 8.87916L16.5461 9.89496C16.5451 9.93833 16.5524 9.98149 16.5676 10.0219C16.5829 10.0624 16.6057 10.0993 16.6349 10.1305C16.664 10.1618 16.6989 10.1867 16.7375 10.2039C16.776 10.2212 16.8175 10.2303 16.8596 10.2308L18.9504 10.2308L18.9504 33.9547L15.6455 33.9547C15.4406 32.7698 14.8384 31.697 13.9444 30.9243C13.0504 30.1516 11.9216 29.7281 10.7557 29.7281C9.58978 29.7281 8.461 30.1516 7.56703 30.9243C6.67305 31.697 6.07086 32.7698 5.86588 33.9547L2.57293 33.9547L2.57293 10.2677L5.51675 10.2677C5.59528 10.2585 5.66768 10.2194 5.71978 10.1581C5.77187 10.0967 5.79992 10.0175 5.79843 9.93592L5.79843 8.91193C5.79949 8.86855 5.79219 8.8254 5.77696 8.78496C5.76173 8.74452 5.73887 8.70761 5.70971 8.67636C5.68055 8.64512 5.64568 8.62016 5.6071 8.60294C5.56853 8.58572 5.52703 8.57659 5.48501 8.57606L2.57293 8.57606L2.57293 1.80131L5.86588 1.80131C6.56811 4.4514 8.19078 6.03245 10.9442 5.97921C13.3246 5.93415 14.7449 4.562 15.6376 1.78902L18.9464 1.78902Z" fill="#97051D"/>
<path d="M9.14693 8.89963L9.14693 9.88677C9.14693 10.0677 9.28903 10.2144 9.46432 10.2144L12.8763 10.2144C13.0516 10.2144 13.1937 10.0677 13.1937 9.88677L13.1937 8.89963C13.1937 8.71866 13.0516 8.57196 12.8763 8.57196L9.46432 8.57196C9.28903 8.57196 9.14693 8.71866 9.14693 8.89963Z" fill="#97051D"/>
<path d="M16.804 21.2203C16.728 21.451 16.5986 21.6591 16.4271 21.8265L15.5186 22.7891L15.5186 24.1613C15.5191 24.3584 15.4818 24.5538 15.4087 24.7359C15.3356 24.9181 15.2282 25.0835 15.0928 25.2225C14.9574 25.3616 14.7966 25.4715 14.6198 25.546C14.4429 25.6204 14.2535 25.6579 14.0626 25.6563L12.7414 25.6563L11.8091 26.6147C11.6755 26.7573 11.5155 26.8707 11.3387 26.9481C11.1618 27.0256 10.9716 27.0655 10.7795 27.0655C10.5874 27.0655 10.3972 27.0256 10.2204 26.9481C10.0435 26.8707 9.88353 26.7573 9.74997 26.6147L8.79383 25.6563L7.45284 25.6563C7.26186 25.6579 7.07247 25.6204 6.89562 25.546C6.71877 25.4715 6.55799 25.3616 6.42257 25.2225C6.28715 25.0835 6.1798 24.9181 6.10671 24.7359C6.03363 24.5538 5.99627 24.3584 5.9968 24.1613L5.9968 22.7891L5.0724 21.8306C4.93288 21.6938 4.82144 21.5294 4.74468 21.3472C4.66792 21.165 4.62741 20.9687 4.62556 20.77C4.62371 20.5714 4.66056 20.3743 4.73391 20.1906C4.80726 20.0069 4.91562 19.8403 5.05256 19.7007L5.9968 18.7218L5.9968 17.3374C5.99469 17.139 6.03086 16.9421 6.10318 16.7583C6.17551 16.5745 6.28255 16.4074 6.41808 16.2667C6.5536 16.126 6.71489 16.0146 6.89254 15.9389C7.0702 15.8632 7.26066 15.8248 7.45284 15.8259L8.77399 15.8259L9.70236 14.8716C9.83626 14.7289 9.99658 14.6154 10.1738 14.5379C10.351 14.4605 10.5415 14.4205 10.7339 14.4205C10.9263 14.4205 11.1168 14.4605 11.294 14.5379C11.4712 14.6154 11.6315 14.7289 11.7654 14.8716L12.7414 15.8259L14.0745 15.8259C14.2658 15.8259 14.4552 15.8652 14.6317 15.9414C14.8082 16.0176 14.9683 16.1292 15.1027 16.2698C15.2371 16.4105 15.343 16.5772 15.4144 16.7605C15.4858 16.9438 15.5212 17.1398 15.5186 17.3374L15.5186 18.6931L16.4628 19.6721C16.6532 19.8721 16.786 20.1228 16.8462 20.3962C16.9065 20.6696 16.8919 20.955 16.804 21.2203ZM7.44491 24.1613L8.78589 24.1613C9.16931 24.1604 9.53742 24.3165 9.80948 24.5954L10.7577 25.5785L11.7138 24.6036C11.9871 24.3241 12.3567 24.1679 12.7414 24.1694L14.0745 24.1694L14.0745 22.7809C14.0742 22.5852 14.1116 22.3913 14.1845 22.2106C14.2573 22.0299 14.3642 21.866 14.499 21.7282L15.4353 20.7411L14.495 19.754C14.359 19.6156 14.2513 19.4503 14.1783 19.2681C14.1054 19.0858 14.0687 18.8903 14.0705 18.6931L14.0705 17.3169L12.7295 17.3169C12.5395 17.3182 12.3512 17.2805 12.1754 17.206C11.9997 17.1314 11.8401 17.0215 11.7059 16.8827L10.7577 15.916L9.80948 16.8909C9.67322 17.0303 9.51155 17.1404 9.33382 17.215C9.15609 17.2895 8.96581 17.3269 8.77399 17.3251L7.45284 17.3251L7.45284 18.7136C7.45353 18.9094 7.41634 19.1034 7.34344 19.2841C7.27054 19.4649 7.16341 19.6288 7.02833 19.7663L6.08012 20.7411L7.0204 21.7282C7.15607 21.8669 7.26352 22.0322 7.33643 22.2144C7.40933 22.3966 7.44621 22.592 7.44491 22.7891L7.44491 24.1613Z" fill="#97051D"/>
</svg>
