<svg width="18" height="18" viewBox="0 0 18 18" fill="none" xmlns="http://www.w3.org/2000/svg">
<g clip-path="url(#clip0_409_1455)">
<path d="M17.6178 2.80529C17.1536 1.60704 16.2718 0.904713 15.0049 0.693106C14.9608 0.685316 14.1854 0.684018 14.1542 0.693106C13.6584 0.750384 13.1828 0.92342 12.7659 1.19828C12.349 1.47315 12.0024 1.84216 11.754 2.27562L11.7436 2.29249C11.7436 2.30288 11.732 2.31327 11.7255 2.32365C11.719 2.33404 11.7008 2.36519 11.6853 2.39505C11.6529 2.45607 11.6127 2.53915 11.5699 2.64171C11.5691 2.64775 11.5691 2.65385 11.5699 2.65989C11.3559 3.19499 11.2766 3.77456 11.3391 4.34755C11.3385 4.35317 11.3385 4.35882 11.3391 4.36443C11.3391 4.3852 11.3391 4.40597 11.3391 4.42674C11.3391 4.46699 11.3507 4.50723 11.3572 4.54748C11.3566 4.55092 11.3566 4.55443 11.3572 4.55786C11.3572 4.55786 11.3572 4.56825 11.3572 4.57214C11.3578 4.57732 11.3578 4.58255 11.3572 4.58772C11.4324 4.98412 11.5588 5.36903 11.7333 5.73274C12.0912 6.47156 12.5566 7.15317 13.1143 7.75534C13.1558 7.80078 13.1947 7.85011 13.2439 7.90204C13.0967 7.95686 12.9529 8.02059 12.8134 8.09288C12.6787 8.16797 12.5544 8.26051 12.4439 8.3681C12.1845 8.63553 12.1625 9.00162 12.427 9.25996C12.6083 9.43693 12.8236 9.57517 13.0598 9.6663C13.9411 9.9851 14.9004 10.0174 15.8011 9.75847C16.0776 9.68298 16.3387 9.55951 16.5726 9.39368C16.9979 9.0899 16.9928 8.60177 16.5895 8.27073C16.4705 8.18072 16.3428 8.10287 16.2082 8.03835C16.1123 7.98642 16.0073 7.95397 15.8918 7.90853C15.9294 7.8605 15.958 7.82155 15.9891 7.77871C16.1758 7.55282 16.3781 7.33343 16.5506 7.10105C17.0693 6.43247 17.4842 5.71456 17.6943 4.8941C17.763 4.63446 17.7915 4.35145 17.8382 4.08012V3.75298C17.7884 3.43203 17.7147 3.11525 17.6178 2.80529ZM16.2445 8.64721C16.4352 8.75885 16.4248 8.88608 16.2445 9.02109C15.9738 9.20565 15.6623 9.32149 15.3368 9.35863C15.0775 9.40147 14.8182 9.41056 14.6405 9.42743C14.0518 9.40796 13.5448 9.37031 13.0767 9.13793C12.9366 9.06783 12.7317 8.99513 12.7642 8.82117C12.7849 8.70563 12.9677 8.61865 13.0793 8.51999C13.0881 8.51318 13.0982 8.50831 13.1091 8.50571C13.5979 8.27203 13.6057 8.27333 13.9947 8.63553C14.1244 8.74717 14.245 8.85363 14.3708 8.96138C14.3958 8.98794 14.4259 9.00911 14.4594 9.02357C14.4928 9.03804 14.5289 9.04551 14.5653 9.04551C14.6017 9.04551 14.6378 9.03804 14.6712 9.02357C14.7047 9.00911 14.7348 8.98794 14.7598 8.96138C14.9673 8.77833 15.1696 8.59009 15.3822 8.41353C15.4103 8.39151 15.4428 8.37572 15.4774 8.36722C15.5121 8.35871 15.5481 8.35768 15.5832 8.3642C15.8116 8.441 16.0328 8.53743 16.2445 8.6524V8.64721ZM16.9435 5.50166C16.5246 6.42338 15.8867 7.18932 15.1812 7.89685C14.9854 8.09547 14.7741 8.28631 14.5329 8.50181C14.0738 8.01498 13.6031 7.5671 13.1908 7.07379C12.5204 6.26241 11.9719 5.38612 11.824 4.33198C11.8072 4.20994 11.7955 4.08532 11.7903 3.95809V3.93862C11.7907 3.51752 11.8893 3.10233 12.0782 2.72609L12.1106 2.66508C12.1249 2.63782 12.1404 2.60926 12.1573 2.58199C12.1741 2.55473 12.1819 2.53786 12.1962 2.51579C12.413 2.13993 12.7179 1.82251 13.0845 1.59091C13.4512 1.35932 13.8686 1.2205 14.3008 1.18642C14.9539 1.1205 15.609 1.2912 16.1472 1.66755C16.6854 2.0439 17.071 2.60094 17.2339 3.23759C17.4388 4.0282 17.2741 4.77986 16.9435 5.50685V5.50166Z" fill="black"/>
<path d="M9.12452 9.36771C8.86518 7.76572 7.97952 6.63109 6.46495 6.05599C5.00095 5.49906 3.61217 5.74182 2.38806 6.70509C1.95547 7.04107 1.5966 7.46262 1.3338 7.94349C1.071 8.42435 0.909901 8.95423 0.860528 9.50013C0.754197 10.4686 0.98242 11.3812 1.37922 12.2549C1.85382 13.287 2.52811 14.1815 3.29058 15.0149C3.33467 15.0629 3.37487 15.1136 3.42025 15.172C3.32689 15.2031 3.25298 15.2265 3.18036 15.2525C2.84494 15.3506 2.53834 15.5288 2.28692 15.7718C2.21175 15.8402 2.15133 15.9233 2.10935 16.016C2.06737 16.1086 2.04472 16.2089 2.04278 16.3106C2.04083 16.4123 2.05964 16.5133 2.09806 16.6075C2.13647 16.7017 2.19367 16.7871 2.26617 16.8584C2.38329 16.9838 2.51885 17.0906 2.66816 17.1751C3.14002 17.4212 3.65543 17.5725 4.18532 17.6204C5.11513 17.7521 6.06294 17.6577 6.94863 17.3452C7.25681 17.2482 7.5326 17.0686 7.74611 16.8259C7.86482 16.6984 7.93306 16.532 7.93807 16.3578C7.94308 16.1837 7.88452 16.0136 7.77334 15.8795C7.6398 15.7187 7.47918 15.5825 7.29874 15.4771C7.06355 15.3539 6.82154 15.2442 6.57388 15.1486C6.72041 14.985 6.87212 14.8228 7.01346 14.654L7.02643 14.6384C7.05496 14.6047 7.08478 14.5696 7.1159 14.5307L7.17555 14.4554C7.32079 14.2762 7.46472 14.0971 7.60606 13.9153C7.6222 13.8943 7.63529 13.8712 7.64497 13.8465C7.92959 13.4811 8.17964 13.0899 8.39188 12.6781C8.45931 12.5483 8.52155 12.4185 8.58768 12.2887C9.03246 11.3708 9.28921 10.4063 9.12452 9.36771ZM7.23002 16.021C7.51919 16.2365 7.51789 16.4429 7.23002 16.6545C6.841 16.9375 6.38845 17.044 5.9333 17.1167C5.62857 17.1647 5.31735 17.1751 5.10729 17.1946C4.32925 17.1699 3.64718 17.1089 3.02346 16.7947C2.89162 16.7264 2.77059 16.6389 2.66427 16.5351C2.52033 16.3949 2.51514 16.2625 2.66427 16.134C2.82747 16.0037 3.00394 15.891 3.19073 15.7977C3.59012 15.5822 3.9532 15.5498 4.26701 15.9756C4.40706 16.1677 4.6288 16.2988 4.81423 16.4572C4.8394 16.4834 4.8696 16.5043 4.90302 16.5186C4.93645 16.5328 4.9724 16.5402 5.00874 16.5402C5.04507 16.5402 5.08102 16.5328 5.11445 16.5186C5.14787 16.5043 5.17807 16.4834 5.20324 16.4572C5.49371 16.1976 5.78028 15.9379 6.07594 15.69C6.10344 15.6676 6.13523 15.6511 6.16936 15.6415C6.20348 15.6319 6.23921 15.6294 6.27433 15.6341C6.61743 15.6912 6.94374 15.8233 7.23002 16.021ZM7.87189 12.6249C7.86621 12.6341 7.86102 12.6437 7.85633 12.6535C7.58696 13.1085 7.28352 13.5425 6.94863 13.9517C6.64001 14.3139 6.33528 14.6774 6.0124 15.024C5.68951 15.3706 5.35107 15.6588 5.00874 15.9847C4.10467 15.2233 3.29999 14.351 2.61369 13.3883C2.11524 12.7152 1.73947 11.9593 1.5037 11.1553C1.09134 9.62346 1.39867 8.28241 2.58776 7.18932C3.7989 6.07546 5.79325 5.9768 7.1172 6.95694C8.44115 7.93709 8.95725 9.47936 8.51507 11.0839C8.36891 11.6235 8.15267 12.1416 7.87189 12.6249Z" fill="black"/>
<path d="M5.19536 8.14996C4.82926 8.10878 4.45944 8.18274 4.13724 8.36157C4.08452 8.38887 4.03421 8.42057 3.98682 8.45634C3.97644 8.45634 3.96736 8.46932 3.95699 8.47581C3.93618 8.49056 3.91665 8.50707 3.89864 8.52514C3.65059 8.74492 3.46004 9.02215 3.34364 9.33262C3.28902 9.4726 3.24566 9.61673 3.21397 9.76363C3.2047 9.83466 3.19994 9.9062 3.19971 9.97783C3.20509 10.328 3.31143 10.6692 3.50593 10.9603C3.70043 11.2514 3.97481 11.4801 4.29605 11.6188C4.6173 11.7575 4.97172 11.8003 5.31669 11.7421C5.66166 11.6838 5.98248 11.5271 6.24056 11.2906C6.49863 11.0541 6.68296 10.7481 6.77137 10.4092C6.85979 10.0703 6.84852 9.7131 6.73892 9.38049C6.62933 9.04788 6.42607 8.75405 6.15361 8.53437C5.88115 8.31468 5.55109 8.17849 5.20314 8.14217L5.19536 8.14996ZM5.84372 10.9593C5.6419 11.1272 5.39435 11.2305 5.13317 11.2559C4.87198 11.2813 4.6092 11.2276 4.37889 11.1016C4.14859 10.9757 3.96137 10.7834 3.84152 10.5497C3.72167 10.316 3.67471 10.0516 3.70672 9.79089L3.71839 9.7091L3.73396 9.63381C3.80076 9.33517 3.97765 9.07276 4.2293 8.89902C4.23227 8.89819 4.23541 8.89819 4.23838 8.89902C4.28317 8.86754 4.33044 8.83975 4.37972 8.81594L4.39917 8.80555C4.68508 8.65697 5.01568 8.61921 5.32767 8.69949C5.63966 8.77977 5.91111 8.97245 6.09001 9.24064C6.26892 9.50883 6.34272 9.83367 6.29727 10.1529C6.25183 10.4722 6.09033 10.7635 5.84372 10.971V10.9593Z" fill="black"/>
<path d="M14.5552 2.47809C14.2682 2.47965 13.9881 2.56645 13.7504 2.72751C13.5127 2.88856 13.3282 3.11662 13.22 3.38279C13.1119 3.64896 13.0852 3.94127 13.1432 4.22267C13.2012 4.50408 13.3413 4.76193 13.5457 4.96355C13.7502 5.16517 14.0099 5.30149 14.2918 5.35524C14.5737 5.40899 14.8653 5.37775 15.1295 5.26548C15.3937 5.15322 15.6186 4.96497 15.7758 4.72459C15.9331 4.48422 16.0155 4.20252 16.0127 3.91521C16.0079 3.53172 15.8521 3.16563 15.5792 2.89652C15.3062 2.62741 14.9382 2.47704 14.5552 2.47809ZM14.5642 4.88107C14.3124 4.87869 14.0717 4.77732 13.8939 4.59881C13.716 4.42031 13.6154 4.17898 13.6137 3.92689C13.6137 3.67486 13.7138 3.43315 13.8918 3.25494C14.0698 3.07672 14.3112 2.9766 14.5629 2.9766C14.8147 2.9766 15.0561 3.07672 15.2341 3.25494C15.4121 3.43315 15.5121 3.67486 15.5121 3.92689C15.5108 4.17864 15.4107 4.41978 15.2333 4.59828C15.056 4.77678 14.8157 4.87835 14.5642 4.88107Z" fill="black"/>
<path d="M13.004 12.2912C13.0475 12.2697 13.0857 12.2387 13.1157 12.2005C13.1458 12.1623 13.167 12.1179 13.1777 12.0705C13.1829 12.0431 13.1823 12.0149 13.1759 11.9877C13.1695 11.9605 13.1575 11.9349 13.1406 11.9126C13.1238 11.8904 13.1024 11.8719 13.078 11.8584C13.0536 11.8449 13.0266 11.8367 12.9988 11.8343C12.9275 11.8229 12.8556 11.8155 12.7835 11.8122C12.7071 11.8153 12.631 11.8222 12.5553 11.833C12.5275 11.8358 12.5005 11.8443 12.4761 11.8579C12.4518 11.8716 12.4304 11.8902 12.4135 11.9125C12.3966 11.9348 12.3845 11.9603 12.3779 11.9875C12.3712 12.0147 12.3703 12.043 12.3751 12.0705C12.3851 12.1182 12.406 12.163 12.4362 12.2012C12.4663 12.2395 12.5048 12.2703 12.5488 12.2912C12.6985 12.3263 12.8543 12.3263 13.004 12.2912Z" fill="black"/>
<path d="M11.4533 12.3211C11.5259 12.3211 11.583 12.3211 11.6465 12.3094C11.677 12.3085 11.707 12.3013 11.7347 12.2884C11.7623 12.2754 11.787 12.257 11.8073 12.2341C11.8276 12.2113 11.843 12.1845 11.8526 12.1555C11.8621 12.1265 11.8657 12.0958 11.8631 12.0654C11.8654 12.0347 11.8613 12.0039 11.8512 11.9749C11.841 11.9459 11.8249 11.9194 11.8039 11.8969C11.783 11.8744 11.7576 11.8566 11.7294 11.8445C11.7012 11.8324 11.6707 11.8262 11.64 11.8265C11.514 11.8161 11.3874 11.8161 11.2614 11.8265C11.2322 11.8271 11.2035 11.8337 11.177 11.8458C11.1505 11.8579 11.1268 11.8753 11.1072 11.897C11.0877 11.9186 11.0727 11.944 11.0634 11.9716C11.054 11.9993 11.0503 12.0285 11.0526 12.0576C11.0494 12.0866 11.052 12.116 11.0603 12.144C11.0685 12.1721 11.0823 12.1981 11.1008 12.2208C11.1193 12.2434 11.1421 12.2621 11.1679 12.2757C11.1937 12.2894 11.2219 12.2978 11.251 12.3004C11.3179 12.3114 11.3855 12.3184 11.4533 12.3211Z" fill="black"/>
<path d="M14.0856 12.3211C14.1608 12.3211 14.2153 12.3211 14.2814 12.3094C14.3121 12.3086 14.3422 12.3016 14.3701 12.2889C14.398 12.2761 14.4231 12.2579 14.4438 12.2352C14.4645 12.2126 14.4804 12.186 14.4906 12.157C14.5008 12.128 14.5051 12.0973 14.5031 12.0667C14.5055 12.0359 14.5014 12.005 14.4911 11.9759C14.4809 11.9468 14.4647 11.9202 14.4436 11.8977C14.4225 11.8752 14.3969 11.8574 14.3686 11.8454C14.3402 11.8333 14.3096 11.8274 14.2788 11.8278C14.1494 11.8164 14.0192 11.8164 13.8898 11.8278C13.8335 11.8318 13.781 11.8579 13.7438 11.9005C13.7067 11.943 13.6878 11.9986 13.6914 12.055C13.6859 12.1138 13.7038 12.1724 13.7412 12.218C13.7786 12.2637 13.8324 12.2928 13.8911 12.2991C13.9554 12.3102 14.0204 12.3176 14.0856 12.3211Z" fill="black"/>
<path d="M15.6352 12.3043C15.688 12.2963 15.736 12.2691 15.77 12.2279C15.8039 12.1867 15.8215 12.1344 15.8193 12.081C15.8237 12.0534 15.8226 12.0252 15.8161 11.9981C15.8095 11.971 15.7976 11.9454 15.781 11.923C15.7645 11.9005 15.7437 11.8815 15.7197 11.8672C15.6958 11.8529 15.6693 11.8435 15.6417 11.8395C15.4888 11.8207 15.3342 11.8207 15.1813 11.8395C15.1284 11.8466 15.0804 11.8743 15.0476 11.9166C15.0149 11.9588 15 12.0123 15.0063 12.0654C15.0007 12.1213 15.0169 12.1772 15.0514 12.2214C15.0859 12.2657 15.1362 12.2949 15.1917 12.303C15.2629 12.3146 15.3348 12.3216 15.407 12.3237C15.4834 12.3218 15.5596 12.3153 15.6352 12.3043Z" fill="black"/>
<path d="M13.1987 16.0807C13.0463 16.0606 12.892 16.0606 12.7397 16.0807C12.712 16.0851 12.6855 16.095 12.6618 16.1097C12.638 16.1245 12.6174 16.1439 12.6012 16.1668C12.585 16.1896 12.5736 16.2155 12.5675 16.2428C12.5614 16.2702 12.5609 16.2985 12.5659 16.3261C12.5667 16.3824 12.5883 16.4365 12.6266 16.4777C12.665 16.519 12.7173 16.5445 12.7734 16.5493C12.8394 16.5545 12.9057 16.5545 12.9718 16.5493C13.0374 16.5539 13.1032 16.5539 13.1689 16.5493C13.225 16.5458 13.2779 16.5216 13.3172 16.4813C13.3564 16.441 13.3794 16.3875 13.3815 16.3312C13.3865 16.3027 13.3857 16.2735 13.3791 16.2453C13.3725 16.2171 13.3604 16.1905 13.3433 16.1671C13.3262 16.1437 13.3046 16.124 13.2798 16.1091C13.2549 16.0943 13.2274 16.0846 13.1987 16.0807Z" fill="black"/>
<path d="M14.4683 16.0625C14.3475 16.0522 14.2261 16.0522 14.1053 16.0625C14.0449 16.0667 13.9883 16.0933 13.9464 16.1369C13.9045 16.1806 13.8803 16.2383 13.8785 16.2988C13.8767 16.3594 13.8975 16.4184 13.9368 16.4645C13.976 16.5105 14.031 16.5403 14.091 16.5481C14.157 16.5539 14.2234 16.5539 14.2894 16.5481C14.3499 16.552 14.4105 16.552 14.4709 16.5481C14.536 16.544 14.5968 16.5145 14.6402 16.4659C14.6837 16.4173 14.7062 16.3536 14.7031 16.2884C14.6998 16.228 14.6737 16.1711 14.6302 16.1292C14.5866 16.0873 14.5288 16.0634 14.4683 16.0625Z" fill="black"/>
<path d="M9.91802 9.74933C10.0671 9.73505 10.3602 9.4092 10.3589 9.25861C10.3598 9.21583 10.349 9.17362 10.3278 9.13649C10.3066 9.09936 10.2757 9.06869 10.2384 9.04776C10.2011 9.02684 10.1589 9.01644 10.1161 9.01768C10.0734 9.01891 10.0318 9.03174 9.99583 9.05479C9.86915 9.15118 9.76218 9.27106 9.68072 9.4079C9.66053 9.44586 9.65119 9.48866 9.65373 9.53159C9.65627 9.57452 9.6706 9.61592 9.69514 9.65122C9.71967 9.68653 9.75347 9.71437 9.79279 9.73168C9.83212 9.74899 9.87545 9.75509 9.91802 9.74933Z" fill="black"/>
<path d="M17.6047 14.3385C17.5502 14.3237 17.4922 14.3304 17.4425 14.3572C17.3928 14.384 17.3552 14.4289 17.3376 14.4826C17.2909 14.6059 17.2611 14.7345 17.2365 14.8227C17.2248 14.9967 17.2767 15.0915 17.4063 15.1291C17.4585 15.1507 17.517 15.1508 17.5692 15.1294C17.6214 15.108 17.6631 15.0669 17.6851 15.0149C17.7405 14.8773 17.7788 14.7334 17.7992 14.5865C17.8036 14.5573 17.802 14.5275 17.7944 14.499C17.7869 14.4704 17.7736 14.4437 17.7554 14.4205C17.7372 14.3973 17.7144 14.378 17.6885 14.3639C17.6626 14.3498 17.6341 14.3412 17.6047 14.3385Z" fill="black"/>
<path d="M11.3952 9.05999C11.4367 9.04652 11.4738 9.02189 11.5023 8.98878C11.5308 8.95568 11.5497 8.91538 11.557 8.87226C11.5642 8.82915 11.5594 8.78487 11.5433 8.74427C11.5271 8.70366 11.5001 8.66828 11.4652 8.64197C11.4075 8.60453 11.3417 8.58139 11.2733 8.57446C11.1436 8.58615 11.0581 8.59134 10.9712 8.60562C10.9407 8.60758 10.9108 8.61563 10.8835 8.62929C10.8561 8.64295 10.8317 8.66195 10.8118 8.68517C10.7919 8.70839 10.7768 8.73536 10.7674 8.7645C10.758 8.79365 10.7546 8.82437 10.7572 8.85488C10.7551 8.8843 10.759 8.91386 10.7687 8.94172C10.7784 8.96959 10.7936 8.99518 10.8135 9.01694C10.8334 9.03869 10.8576 9.05615 10.8845 9.06824C10.9113 9.08033 10.9404 9.0868 10.9699 9.08725C11.1122 9.10106 11.2558 9.09186 11.3952 9.05999Z" fill="black"/>
<path d="M9.86993 10.6348C9.86167 10.5417 9.84738 10.4494 9.82714 10.3582C9.8144 10.3037 9.78116 10.2561 9.73432 10.2254C9.68748 10.1947 9.63063 10.1832 9.57557 10.1934C9.52188 10.1916 9.46963 10.211 9.4301 10.2474C9.39056 10.2839 9.3669 10.3344 9.36421 10.3881C9.35855 10.536 9.36986 10.6841 9.39792 10.8295C9.40284 10.8583 9.41357 10.8858 9.42945 10.9104C9.44533 10.9349 9.46603 10.9559 9.49029 10.9722C9.51455 10.9885 9.54186 10.9996 9.57057 11.005C9.59928 11.0104 9.62877 11.0098 9.65727 11.0034C9.71609 10.9991 9.77091 10.972 9.81012 10.9279C9.84933 10.8838 9.86985 10.8262 9.86734 10.7672C9.87123 10.7295 9.86993 10.6906 9.86993 10.6348Z" fill="black"/>
<path d="M10.5961 11.7888C10.5856 11.7413 10.5643 11.6969 10.5338 11.659C10.4292 11.5628 10.3164 11.476 10.1967 11.3994C10.1513 11.3708 10.0968 11.3607 10.0443 11.3711C9.99173 11.3815 9.94513 11.4116 9.914 11.4552C9.87245 11.4934 9.84764 11.5464 9.84497 11.6028C9.8423 11.6592 9.86198 11.7144 9.89973 11.7564C10.0042 11.8688 10.1249 11.965 10.2576 12.042C10.4132 12.1264 10.5909 12.003 10.5961 11.7888Z" fill="black"/>
<path d="M15.7534 16.0353C15.6665 16.0353 15.5783 16.0482 15.494 16.0547C15.2969 16.069 15.1971 16.1586 15.2061 16.3144C15.2152 16.4702 15.3358 16.5558 15.5355 16.5506C15.6107 16.5429 15.6989 16.5377 15.7871 16.5247C15.8202 16.5239 15.8529 16.5161 15.8829 16.5018C15.9129 16.4876 15.9395 16.4672 15.9612 16.442C15.9828 16.4168 15.9989 16.3873 16.0084 16.3555C16.018 16.3237 16.0208 16.2902 16.0166 16.2573C16.0143 16.2252 16.0056 16.1939 15.9911 16.1653C15.9765 16.1367 15.9564 16.1112 15.9318 16.0905C15.9073 16.0698 15.8789 16.0543 15.8482 16.0448C15.8175 16.0353 15.7853 16.0321 15.7534 16.0353Z" fill="black"/>
<path d="M9.18512 16.0885C9.06378 16.0807 8.94207 16.0807 8.82074 16.0885C8.76455 16.0912 8.71158 16.1155 8.67291 16.1564C8.63424 16.1973 8.61286 16.2516 8.61326 16.3079C8.605 16.3636 8.61804 16.4203 8.64978 16.4668C8.68152 16.5132 8.72961 16.546 8.78443 16.5584C8.85071 16.5719 8.91788 16.5806 8.98542 16.5844C9.08008 16.5844 9.14621 16.5844 9.21105 16.5688C9.24238 16.5662 9.27287 16.5574 9.30077 16.5429C9.32867 16.5284 9.35341 16.5085 9.37356 16.4843C9.3937 16.4602 9.40886 16.4323 9.41813 16.4022C9.42741 16.3721 9.43063 16.3405 9.4276 16.3092C9.42627 16.2787 9.41893 16.2488 9.406 16.2212C9.39307 16.1936 9.37481 16.1688 9.35227 16.1483C9.32973 16.1278 9.30335 16.1119 9.27466 16.1017C9.24597 16.0914 9.21554 16.0869 9.18512 16.0885Z" fill="black"/>
<path d="M17.0357 12.4964C17.0357 12.4795 17.0357 12.4288 17.0046 12.4107C16.8625 12.2942 16.7087 12.1928 16.5456 12.1082C16.4937 12.0835 16.3485 12.1627 16.3122 12.2302C16.2964 12.2729 16.2911 12.3187 16.2965 12.3638C16.3019 12.4089 16.3179 12.4521 16.3433 12.4899C16.4474 12.5957 16.57 12.6815 16.7051 12.743C16.7435 12.7578 16.7851 12.7627 16.8258 12.757C16.8666 12.7514 16.9053 12.7356 16.9384 12.711C16.9714 12.6863 16.9976 12.6537 17.0146 12.6162C17.0317 12.5787 17.0389 12.5374 17.0357 12.4964Z" fill="black"/>
<path d="M11.8694 16.0846C11.728 16.069 11.5854 16.069 11.4441 16.0846C11.4147 16.0869 11.3862 16.0953 11.3602 16.1092C11.3343 16.1231 11.3115 16.1423 11.2934 16.1655C11.2752 16.1887 11.262 16.2154 11.2547 16.2439C11.2474 16.2724 11.2461 16.3022 11.2508 16.3313C11.25 16.3604 11.2549 16.3895 11.2652 16.4167C11.2756 16.444 11.2912 16.469 11.3112 16.4902C11.3312 16.5114 11.3551 16.5285 11.3817 16.5404C11.4083 16.5523 11.437 16.5589 11.4661 16.5598C11.5266 16.563 11.5872 16.563 11.6476 16.5598C11.7137 16.5637 11.78 16.5637 11.846 16.5598C11.9047 16.5577 11.9603 16.5326 12.0006 16.4898C12.0409 16.447 12.0627 16.3901 12.0613 16.3313C12.066 16.3023 12.0648 16.2726 12.0575 16.2442C12.0503 16.2157 12.0372 16.1891 12.0192 16.1659C12.0012 16.1428 11.9786 16.1236 11.9528 16.1096C11.927 16.0956 11.8986 16.0871 11.8694 16.0846Z" fill="black"/>
<path d="M10.5221 16.0846C10.3927 16.0738 10.2626 16.0738 10.1331 16.0846C10.0769 16.0896 10.0249 16.1162 9.98787 16.1588C9.95087 16.2014 9.93182 16.2567 9.93472 16.3131C9.92904 16.3691 9.94494 16.4251 9.97917 16.4698C10.0134 16.5144 10.0634 16.5443 10.1189 16.5533C10.1861 16.5654 10.2541 16.5723 10.3224 16.574C10.4093 16.574 10.4703 16.5675 10.5299 16.561C10.5607 16.5601 10.591 16.5529 10.6189 16.54C10.6469 16.5272 10.672 16.5088 10.6928 16.4861C10.7136 16.4633 10.7296 16.4366 10.7399 16.4076C10.7503 16.3786 10.7547 16.3478 10.753 16.317C10.754 16.2863 10.7488 16.2557 10.7376 16.2271C10.7264 16.1985 10.7095 16.1725 10.6878 16.1507C10.6662 16.129 10.6403 16.1118 10.6118 16.1005C10.5833 16.0891 10.5528 16.0837 10.5221 16.0846Z" fill="black"/>
<path d="M17.675 13.7816C17.8047 13.6674 17.7658 13.5362 17.7074 13.4025C17.6426 13.2493 17.6257 13.0572 17.3923 13.0416C17.3568 13.042 17.3218 13.0504 17.2899 13.0662C17.2581 13.082 17.2302 13.1047 17.2084 13.1328C17.1866 13.1609 17.1714 13.1936 17.1639 13.2283C17.1565 13.2631 17.157 13.2992 17.1654 13.3337C17.1975 13.4685 17.2449 13.5992 17.3067 13.7232C17.3241 13.7547 17.3484 13.7819 17.3778 13.8026C17.4073 13.8233 17.441 13.837 17.4766 13.8427C17.5121 13.8483 17.5485 13.8457 17.5828 13.8351C17.6172 13.8246 17.6488 13.8062 17.675 13.7816Z" fill="black"/>
<path d="M17.0576 15.5134C17.0191 15.497 16.9776 15.4886 16.9357 15.4886C16.8938 15.4886 16.8524 15.497 16.8138 15.5134C16.7095 15.5745 16.6139 15.6496 16.5299 15.7367C16.5047 15.7561 16.4837 15.7805 16.4682 15.8083C16.4527 15.8362 16.443 15.8669 16.4397 15.8986C16.4364 15.9302 16.4396 15.9623 16.4491 15.9927C16.4586 16.0231 16.4742 16.0513 16.4948 16.0755C16.5158 16.1014 16.5417 16.1228 16.571 16.1384C16.6004 16.1541 16.6325 16.1638 16.6657 16.1668C16.6988 16.1698 16.7322 16.1662 16.7638 16.1561C16.7955 16.146 16.8249 16.1296 16.8501 16.1079C16.9359 16.0486 17.0166 15.9821 17.0913 15.9093C17.1417 15.8476 17.1851 15.7805 17.221 15.7094C17.1614 15.6406 17.125 15.5458 17.0576 15.5134Z" fill="black"/>
</g>
<defs>
<clipPath id="clip0_409_1455">
<rect width="17" height="17" fill="white" transform="translate(0.834473 0.686584)"/>
</clipPath>
</defs>
</svg>
