<svg width="80" height="52" viewBox="0 0 80 52" fill="none" xmlns="http://www.w3.org/2000/svg">
<path fill-rule="evenodd" clip-rule="evenodd" d="M49.1777 19.1837C48.1218 10.5306 44.0609 3.63265 40.203 3.63265C36.3452 3.63265 32.2437 9.67347 30.8223 19.1837H30.0914C21.5228 17.3469 16.8528 14.8163 16.8528 11.5918C16.8528 6.89796 26.8832 3.42857 39.4721 3.42857C52.0609 3.42857 63.1472 7.06122 63.1472 11.5918C63.1472 14.8163 57.7868 18.0816 49.1777 19.1837ZM80 26C80 11.2653 62.4162 0 39.797 0C17.1777 0 0 11.2653 0 25.6735C0 40.0816 17.5838 52 40.203 52C62.0508 52 80 40.4898 80 26ZM43.0457 48.7347C47.6751 44.449 49.9086 36.8571 49.9086 25.6735L50.1929 25.3061C61.7259 23.8367 69.6041 18.7755 69.6041 13.3878V13.0204C72.637 16.2523 74.3102 20.537 74.2741 24.9796C74.2741 37.2245 60.6294 47.7143 43.0457 48.7347ZM10.5584 12.6939C10.1523 13.0204 10.1523 13.0204 10.1523 13.3878C10.1523 18.7755 18.0711 23.551 29.9695 25.3061L30.2538 25.6735V26.4082C30.2538 37.2245 32.8122 44.7755 37.1168 48.7347C18.7614 47.3061 5.84772 37.2245 5.84772 24.5714C5.84368 20.1819 7.46496 15.948 10.3959 12.6939H10.5584ZM45.5634 19.8776H34.7614L34.0711 19.5102C35.1675 13.3878 37.2792 9.67347 40 9.67347C42.7208 9.67347 44.6701 12.9388 45.7665 19.4286V19.8776H45.5634ZM46.2538 26C45.9289 34.6939 43.4112 40.8163 40.203 40.8163C36.9949 40.8163 34.0711 34.6939 33.7462 26H34.0711C35.8579 26 38.132 26.4082 40.5279 26.4082C42.4459 26.5052 44.3686 26.3682 46.2538 26Z" fill="#E30C20"/>
</svg>
