<svg width="25" height="36" viewBox="0 0 25 36" fill="none" xmlns="http://www.w3.org/2000/svg">
<path d="M0.548854 2.03872C0.548854 1.16047 0.797976 0.901611 1.65858 0.901611H20.6371C23.2144 0.901611 24.9446 2.65813 24.9446 5.27903V31.3772C24.9446 33.9981 23.2144 35.7592 20.6371 35.7592H1.61328C0.807035 35.7592 0.539795 35.4865 0.539795 34.6637L0.548854 2.03872ZM2.18853 34.109H20.7141C21.062 34.1327 21.4108 34.0804 21.7372 33.9556C22.0637 33.8308 22.3603 33.6363 22.6073 33.3852C22.8542 33.1341 23.0458 32.832 23.1692 32.4993C23.2927 32.1666 23.3451 31.8108 23.3231 31.4557C23.3231 22.7163 23.3231 13.9769 23.3231 5.23743C23.3473 4.8792 23.2959 4.51984 23.1724 4.18361C23.0488 3.84739 22.8561 3.54212 22.607 3.28843C22.358 3.03474 22.0586 2.83853 21.7289 2.71305C21.3992 2.58757 21.047 2.53574 20.696 2.56106H2.57806C2.44671 2.56106 2.31082 2.56106 2.17947 2.58417L2.18853 34.109Z" fill="#97051D"/>
<path d="M20.8998 18.5823C20.7005 23.2047 16.9456 26.8241 12.5429 26.6299C10.3843 26.5635 8.33969 25.6257 6.85785 24.0225C5.37601 22.4192 4.578 20.2815 4.63898 18.0785C4.82921 13.4561 8.61586 9.81824 13.0366 10.0355C15.1873 10.1127 17.2208 11.0545 18.6938 12.6556C20.1667 14.2566 20.9597 16.3871 20.8998 18.5823ZM19.1922 17.4822C18.9295 14.5701 16.5153 12.3975 14.6129 12.0139C15.6003 13.7103 15.8494 15.5593 15.9899 17.4822H19.1922ZM16.0216 19.1879C15.8902 21.1154 15.6184 22.9736 14.6174 24.6747C16.941 24.1385 19.2783 21.3049 19.1786 19.1879H16.0216ZM9.50364 17.4961C9.63499 15.5593 9.90676 13.7103 10.935 11.9954C8.25803 12.6888 6.45983 15.3744 6.36018 17.4961H9.53082H9.50364ZM6.333 19.1925C6.333 21.4159 9.00539 24.6053 10.8625 24.6238C9.8977 22.9551 9.63952 21.1062 9.50364 19.1925H6.333ZM14.4317 17.4776C14.2369 16.419 14.1011 15.4067 13.8474 14.4222C13.6847 13.8671 13.4436 13.3393 13.1318 12.8552C12.8645 12.3929 12.6109 12.3929 12.3572 12.8552C12.0396 13.4114 11.78 14.0001 11.5827 14.6117C11.2967 15.5412 11.1441 16.5081 11.1297 17.4822L14.4317 17.4776ZM11.1252 19.1925C11.1841 19.7333 11.2248 20.2464 11.3018 20.7549C11.4035 21.7732 11.712 22.7587 12.2077 23.6485C12.5973 24.2771 12.8736 24.2818 13.2495 23.6485C14.0739 22.2849 14.2324 20.7549 14.3547 19.1925H11.1252Z" fill="#97051D"/>
<path d="M18.7257 5.9123H6.76783C6.49266 5.9123 6.26959 6.13995 6.26959 6.42077V6.99857C6.26959 7.27939 6.49266 7.50703 6.76783 7.50703H18.7257C19.0008 7.50703 19.2239 7.27939 19.2239 6.99857V6.42077C19.2239 6.13995 19.0008 5.9123 18.7257 5.9123Z" fill="#97051D"/>
<path d="M16.2933 29.1492H9.20922C8.93405 29.1492 8.71098 29.3768 8.71098 29.6576V30.2447C8.71098 30.5255 8.93405 30.7531 9.20922 30.7531H16.2933C16.5685 30.7531 16.7916 30.5255 16.7916 30.2447V29.6576C16.7916 29.3768 16.5685 29.1492 16.2933 29.1492Z" fill="#97051D"/>
</svg>
