<svg width="34" height="36" viewBox="0 0 34 36" fill="none" xmlns="http://www.w3.org/2000/svg">
<path d="M0.0132806 18.0017V1.17509C0.0132806 0.266604 0.360236 0 1.55881 0H27.9988C31.5896 0 34 1.81359 34 4.52038V31.4745C34 34.1813 31.5896 36 27.9988 36H1.49573C0.371857 36 0 35.7181 0 34.8691L0.0132806 18.0034V18.0017ZM2.29754 34.2951H28.1067C29.9876 34.3902 31.6145 33.3136 31.7406 31.8906C31.7506 31.7785 31.7506 31.6664 31.7406 31.5543V4.47792C31.8701 3.04981 30.4458 1.81189 28.5583 1.7134C28.3989 1.70491 28.2395 1.70491 28.0802 1.7134H2.84039C2.65778 1.7134 2.46853 1.7134 2.28426 1.73717L2.29754 34.2951Z" fill="#97051D"/>
<path d="M25.937 18.2581C25.7312 23.0315 21.8632 26.7708 17.3262 26.5687C12.6946 26.426 9.05074 22.4745 9.18188 17.7368C9.37777 12.9634 13.2789 9.20547 17.8342 9.42962C22.4475 9.59604 26.0648 13.5374 25.9354 18.2564L25.937 18.2581ZM24.1773 17.1221C23.9068 14.1147 21.42 11.8715 19.4594 11.4741C20.477 13.2266 20.7327 15.1353 20.8788 17.1221H24.179H24.1773ZM20.9103 18.883C20.7742 20.8732 20.4953 22.7921 19.4627 24.5496C21.8566 23.996 24.2653 21.0702 24.1624 18.883H20.9103ZM14.1953 17.1357C14.3314 15.1353 14.6103 13.2266 15.6695 11.4555C12.9121 12.1721 11.0578 14.9451 10.9565 17.1357H14.2235H14.1953ZM10.9283 18.8881C10.9283 21.184 13.6823 24.4783 15.5948 24.497C14.6004 22.7734 14.3348 20.8647 14.1953 18.8881H10.9283ZM19.2718 17.117C19.071 16.0234 18.9315 14.9791 18.6692 13.9619C18.5015 13.3879 18.2525 12.8428 17.9321 12.3436C17.6566 11.8664 17.3959 11.8664 17.1336 12.3436C16.8066 12.9175 16.5393 13.5255 16.3351 14.1572C16.0413 15.1166 15.8836 16.1151 15.8687 17.1221L19.2702 17.117H19.2718ZM19.1888 18.8881H15.8653C15.9268 19.4468 15.9683 19.9766 16.048 20.5013C16.1525 21.5525 16.4713 22.5713 16.9809 23.49C17.3827 24.1387 17.6665 24.1438 18.055 23.49C18.9049 22.0823 19.0676 20.5013 19.1938 18.8881H19.1888Z" fill="#97051D"/>
<path d="M7.52512 5.17245H27.5954C28.0569 5.17245 28.4321 5.40679 28.4321 5.69717V6.29321C28.4321 6.58359 28.0569 6.81793 27.5954 6.81793H7.52512C7.06362 6.81793 6.68845 6.58359 6.68845 6.29321V5.69717C6.68845 5.40679 7.06362 5.17245 7.52512 5.17245Z" fill="#97051D"/>
<path d="M10.1696 29.1702H24.2554C24.8032 29.1702 25.2464 29.4045 25.2464 29.6949V30.3011C25.2464 30.5915 24.8032 30.8258 24.2554 30.8258H10.1696C9.6218 30.8258 9.17856 30.5915 9.17856 30.3011V29.6949C9.17856 29.4045 9.6218 29.1702 10.1696 29.1702Z" fill="#97051D"/>
</svg>
