<?xml version="1.0" encoding="UTF-8"?>
<svg id="Layer_2" data-name="Layer 2" xmlns="http://www.w3.org/2000/svg" viewBox="0 0 383.28 315.99">
  <g id="background">
    <path d="M0,23.23C2.86,10.94,12.16,1.31,25.05,0h333.15c13.58,1.52,23.82,12.28,25.08,25.82v264.29c-1.18,13.54-11.63,24.26-25.08,25.82h-137.04c-8.77-1.95-8.38-13.91.76-15.02l134.69-.04c4.57-.06,11.67-6.49,11.67-10.79V116.8H14.97v173.29c0,4.54,7.56,11.08,12.35,10.86l130.2.05c8.57,1.32,8.78,12.84.75,14.88l-134.61-.04c-10.88-1.33-22.19-12.22-23.66-23.12V23.23ZM368.28,101.83V25.85c0-3.28-5.66-9.73-9.32-10.14-111.19-1.32-222.87-.92-334.12-.2-3.88.39-9.87,6.79-9.87,10.34v75.98h353.31Z"/>
    <path d="M55.2,143.18l106.12-.18c9.69,1.64,15.3,8.73,16.12,18.31-1.77,30.48,2.26,63.44,0,93.63-.77,10.25-7.02,18.17-17.6,19.08-32.93-1.89-68.49,2.43-101.11,0-10.41-.77-16.9-7.44-18.3-17.63,2.21-30.69-2.98-65.61,0-95.8.86-8.71,6.24-15.3,14.77-17.42ZM80.09,157.97h-22.08c-.31,0-2.62,2.98-2.62,3.37v72.23c3.36-1.27,6.09-3.71,9.35-5.25,3.07-1.45,19.87-6.69,20.47-7.61.17-.26.92-5.49.77-6.06-.31-1.18-3.63-3.65-4.69-5.1-10.02-13.69-9.73-37.17-1.19-51.58ZM105.35,158.15c-20.99,3.28-21.73,41.33-4.51,48.32,34.53,14,39.01-53.7,4.51-48.32ZM162.43,233.57v-72.23c0-.39-2.31-3.37-2.62-3.37h-22.08c8.54,14.41,8.83,37.89-1.19,51.58-1.06,1.45-4.39,3.92-4.69,5.1-.15.58.6,5.81.77,6.06.6.91,17.4,6.15,20.47,7.61,1.15.54,8.99,5.65,9.35,5.25ZM59.13,259.02h99.56c-1.72-24.96-36.27-15.21-41.21-36.66-5.48.97-11.31,1.3-16.72-.07-5.77,21.48-39.64,11.75-41.63,36.73Z"/>
    <path d="M207.13,143.16l127.11-.17c7.7,1.39,8.48,10.91,1.66,14.42l-126.7.58c-8.63-1.03-9.92-11.75-2.07-14.83Z"/>
    <path d="M263.29,182.85l72.49.52c6.73,2.64,6.38,12.53-.85,14.23h-72.52c-8.34-2.31-7.23-12.89.88-14.75Z"/>
    <path d="M270.77,259.19l63.4-.12c8.84,1.82,8.54,13.84-.68,14.94-19.04,2.27-42.57-1.69-62.1-.07-8.24-1.26-8.59-12.78-.62-14.75Z"/>
    <path d="M203.83,185.15c1.19-1.29,4.34-2.27,6.13-2.48,4.29-.49,19.12-.62,23.03.17,8.24,1.67,7.28,13.56.9,14.78-2.97.57-23.91.5-26.77-.14-5.17-1.16-6.66-8.7-3.29-12.34Z"/>
    <path d="M187.69,301.1c11.38-2.18,12.65,15.94.56,14.84-7.97-.72-8.59-13.3-.56-14.84Z"/>
  </g>
</svg>