<svg width="21" height="33" viewBox="0 0 21 33" fill="none" xmlns="http://www.w3.org/2000/svg">
<g clip-path="url(#clip0_401_315)">
<path d="M0.0142784 20.31V31.2862C0.014698 31.5915 0.138969 31.8842 0.359842 32.1001C0.580713 32.316 0.880161 32.4375 1.19252 32.4379H2.54996C2.53172 32.4149 2.51973 32.3877 2.51507 32.3589C2.51428 32.3506 2.51428 32.3423 2.51507 32.3341V20.7921C2.51507 20.1891 2.65621 20.0171 3.30797 19.8202C3.90105 19.6451 4.11355 19.1227 3.82176 18.6701C3.70022 18.5532 3.58883 18.4267 3.48875 18.2918C3.01266 17.7651 2.69103 17.1224 2.55789 16.4317C2.55789 16.4317 2.55789 16.4209 2.55789 16.4147C1.82684 13.9221 2.14717 9.35713 9.01682 2.69795C9.04099 2.67437 9.07177 2.65832 9.10527 2.65182C9.13876 2.64532 9.17348 2.64866 9.20504 2.66143C9.23659 2.6742 9.26357 2.69582 9.28257 2.72356C9.30156 2.75131 9.31173 2.78393 9.31177 2.81731V32.3263C9.31274 32.3622 9.30097 32.3972 9.27847 32.4255H10.7517C10.7254 32.3965 10.7113 32.3589 10.712 32.3201V2.81731C10.7121 2.78393 10.7222 2.75131 10.7412 2.72356C10.7602 2.69582 10.7872 2.6742 10.8188 2.66143C10.8503 2.64866 10.885 2.64532 10.9185 2.65182C10.952 2.65832 10.9828 2.67437 11.007 2.69795C17.8766 9.36333 18.1985 13.9221 17.4659 16.4147C17.4652 16.4203 17.4652 16.4261 17.4659 16.4317C17.3328 17.1224 17.0111 17.7651 16.5351 18.2918C16.435 18.4267 16.3236 18.5532 16.202 18.6701C15.9102 19.1227 16.1227 19.6451 16.7158 19.8202C17.3739 20.0171 17.5087 20.1891 17.5087 20.7921V32.3263C17.5099 32.3641 17.497 32.4011 17.4723 32.4302H18.8202C19.1328 32.4302 19.4327 32.3089 19.6539 32.0929C19.8751 31.877 19.9996 31.5841 20 31.2785V20.3038C20 19.9985 19.8761 19.7056 19.6556 19.4895C19.435 19.2733 19.1357 19.1514 18.8233 19.1506H18.5823C19.2806 17.849 19.7349 16.4358 19.9239 14.9777C20.0906 13.5638 20.0372 12.1334 19.7653 10.7352C19.7574 10.6918 19.7447 10.622 19.732 10.5352C19.6181 9.66457 19.3888 8.81212 19.0501 7.99925C18.2412 6.13754 16.9911 4.4905 15.4028 3.19398C15.3521 3.15058 15.3076 3.11338 15.2696 3.07463C13.7997 1.79566 12.0267 0.895265 10.111 0.454978L10.0159 0.437927L9.91913 0.454978C8.00383 0.892517 6.23232 1.79511 4.76848 3.07928C4.73201 3.11648 4.68602 3.15368 4.63527 3.19708C3.0464 4.49302 1.79613 6.14023 0.987953 8.00235C0.651781 8.81391 0.422644 9.66399 0.306063 10.5321C0.293377 10.6189 0.279106 10.6871 0.272762 10.7383C0.0989723 11.6168 0.0113544 12.5096 0.0111065 13.4044C0.00968933 13.9308 0.041996 14.4568 0.10784 14.9793C0.298243 16.4363 0.751961 17.8487 1.44783 19.1506H1.19252C1.03718 19.1508 0.883413 19.181 0.740038 19.2394C0.596664 19.2978 0.466505 19.3834 0.357033 19.4911C0.247561 19.5988 0.160929 19.7266 0.10211 19.8672C0.0432911 20.0077 0.013443 20.1582 0.0142784 20.31Z" fill="#97051D"/>
<path d="M13.7758 23.9558C13.1557 23.9558 12.653 23.4645 12.653 22.8584C12.653 22.2523 13.1557 21.7609 13.7758 21.7609C14.3959 21.7609 14.8985 22.2523 14.8985 22.8584C14.8985 23.4645 14.3959 23.9558 13.7758 23.9558Z" fill="#97051D"/>
<path d="M6.24961 23.9558C5.62954 23.9558 5.12687 23.4645 5.12687 22.8584C5.12687 22.2523 5.62954 21.7609 6.24961 21.7609C6.86968 21.7609 7.37235 22.2523 7.37235 22.8584C7.37235 23.4645 6.86968 23.9558 6.24961 23.9558Z" fill="#97051D"/>
</g>
<defs>
<clipPath id="clip0_401_315">
<rect width="20" height="32" fill="white" transform="matrix(-1 0 0 1 20.0127 0.437927)"/>
</clipPath>
</defs>
</svg>
