<svg width="21" height="16" viewBox="0 0 21 16" fill="none" xmlns="http://www.w3.org/2000/svg">
<g id="rentals 1" clip-path="url(#clip0_201_541)">
<path id="Vector" d="M2.57482 15.4682C2.57338 15.5375 2.58552 15.6064 2.61053 15.6709C2.63554 15.7354 2.67292 15.7941 2.72048 15.8436C2.76804 15.8932 2.82482 15.9325 2.88749 15.9594C2.95015 15.9862 3.01745 16.0001 3.08543 16.0001H4.34565C4.41413 16.0001 4.48194 15.9863 4.5452 15.9596C4.60847 15.9328 4.66596 15.8937 4.71438 15.8443C4.7628 15.7949 4.80121 15.7363 4.82742 15.6717C4.85363 15.6072 4.86711 15.538 4.86711 15.4682V13.6621H2.57482V15.4682Z" fill="black"/>
<path id="Vector_2" d="M16.1329 15.4682C16.1315 15.5375 16.1436 15.6064 16.1686 15.6709C16.1936 15.7354 16.231 15.7941 16.2786 15.8436C16.3261 15.8932 16.3829 15.9325 16.4456 15.9594C16.5083 15.9862 16.5756 16.0001 16.6435 16.0001H17.9037C18.0421 16.0001 18.1747 15.944 18.2725 15.8443C18.3703 15.7445 18.4252 15.6093 18.4252 15.4682V13.6621H16.1329V15.4682Z" fill="black"/>
<path id="Vector_3" d="M19.9787 7.05817C19.7721 7.05899 19.5702 6.99588 19.3995 6.87719C19.2288 6.75849 19.0974 6.58979 19.0227 6.39335L17.4692 2.67036C17.2275 1.89652 16.7512 1.22093 16.1088 0.741001C15.4664 0.261074 14.6912 0.00160409 13.8949 0H7.24619C6.47253 0.00531913 5.71933 0.253988 5.08938 0.712069C4.45942 1.17015 3.9834 1.81533 3.72627 2.55956L2.00977 6.40443C1.92571 6.59007 1.79292 6.74837 1.6261 6.86179C1.45928 6.97522 1.26495 7.03935 1.0646 7.04709C0.928666 7.04561 0.793806 7.07182 0.667932 7.1242C0.542058 7.17657 0.427704 7.25405 0.331576 7.3521C0.235448 7.45014 0.159481 7.56677 0.108129 7.69515C0.0567776 7.82353 0.0310751 7.96108 0.0325291 8.09972V11.8781C0.0464769 12.1623 0.167065 12.4301 0.369311 12.626C0.571558 12.822 0.839963 12.9311 1.11892 12.9307H20.033C20.3117 12.9165 20.5742 12.7935 20.7664 12.5873C20.9585 12.381 21.0655 12.1072 21.0651 11.8227V8.03324C21.0331 7.76298 20.9047 7.5142 20.7043 7.33436C20.5039 7.15452 20.2456 7.0562 19.9787 7.05817ZM5.4645 2.98061C5.57705 2.7269 5.75877 2.51156 5.988 2.36029C6.21723 2.20901 6.48428 2.12817 6.75731 2.12742H14.3621C14.6468 2.12634 14.9252 2.21377 15.16 2.37807C15.3949 2.54237 15.5751 2.77573 15.6766 3.04709L16.6544 5.63989H4.33465L5.4645 2.98061ZM3.71541 10.349C3.50054 10.349 3.29049 10.284 3.11184 10.1623C2.93318 10.0405 2.79393 9.86749 2.71171 9.66502C2.62948 9.46256 2.60797 9.23977 2.64989 9.02483C2.6918 8.80989 2.79527 8.61246 2.94721 8.4575C3.09914 8.30254 3.29272 8.19701 3.50346 8.15425C3.7142 8.1115 3.93264 8.13344 4.13115 8.21731C4.32966 8.30117 4.49933 8.44319 4.61871 8.62541C4.73808 8.80762 4.8018 9.02185 4.8018 9.241C4.8018 9.53487 4.68734 9.8167 4.4836 10.0245C4.27986 10.2323 4.00354 10.349 3.71541 10.349ZM17.2736 10.349C17.0587 10.349 16.8487 10.284 16.67 10.1623C16.4914 10.0405 16.3521 9.86749 16.2699 9.66502C16.1877 9.46256 16.1662 9.23977 16.2081 9.02483C16.25 8.80989 16.3535 8.61246 16.5054 8.4575C16.6573 8.30254 16.8509 8.19701 17.0617 8.15425C17.2724 8.1115 17.4908 8.13344 17.6894 8.21731C17.8879 8.30117 18.0575 8.44319 18.1769 8.62541C18.2963 8.80762 18.36 9.02185 18.36 9.241C18.36 9.53487 18.2455 9.8167 18.0418 10.0245C17.8381 10.2323 17.5617 10.349 17.2736 10.349Z" fill="black"/>
</g>
<defs>
<clipPath id="clip0_201_541">
<rect width="21" height="16" fill="white"/>
</clipPath>
</defs>
</svg>
